<svg xmlns="http://www.w3.org/2000/svg" width="75.008" height="82.5" viewBox="0 0 75.008 82.5">
  <g id="noun-hotspot-4789685" transform="translate(-12.496 -8.75)">
    <path id="Path_1" data-name="Path 1" d="M50,8.75a37.5,37.5,0,0,0-16.669,71.1,3.75,3.75,0,0,0,3.337-6.717,30,30,0,1,1,26.664,0,3.75,3.75,0,0,0,3.337,6.717A37.505,37.505,0,0,0,50,8.75Z"/>
    <path id="Path_2" data-name="Path 2" d="M63.5,64.25a22.5,22.5,0,1,0-27,0,3.75,3.75,0,1,0,4.5-6,15,15,0,1,1,18,0,3.75,3.75,0,0,0,4.5,6Z"/>
    <path id="Path_3" data-name="Path 3" d="M50,38.75a7.5,7.5,0,0,0-3.75,13.988V87.5a3.75,3.75,0,0,0,7.5,0V52.738A7.5,7.5,0,0,0,50,38.75Z"/>
  </g>
</svg>
