<svg width="37" height="25" viewBox="0 0 37 25" fill="none" xmlns="http://www.w3.org/2000/svg">
<mask id="mask0_10_8393" style="mask-type:alpha" maskUnits="userSpaceOnUse" x="0" y="0" width="37" height="25">
<path d="M36.9337 0.0371094V24.8534H0.146484V0.0371094H36.9337Z" fill="white"/>
</mask>
<g mask="url(#mask0_10_8393)">
<path fill-rule="evenodd" clip-rule="evenodd" d="M25.5713 0.0371094C20.14 1.98367 17.4494 6.50948 16.8169 12.4451C16.2301 17.9537 13.1733 20.495 10.3589 21.4838L11.5091 24.8535C16.9404 22.907 19.6309 18.3811 20.2634 12.4455C20.8503 6.93694 23.9071 4.39569 26.7213 3.4069L25.5713 0.0371094ZM22.6789 12.4451C22.6789 8.11007 25.8699 5.08524 29.8063 5.08524C33.7426 5.08524 36.9337 8.11007 36.9337 12.4451V19.2474H33.3407V12.4451C33.3407 10.0239 31.7583 8.56726 29.8063 8.56726C27.8543 8.56726 26.2719 10.0239 26.2719 12.4451L26.2625 19.2474H22.6789V12.4451ZM7.27386 8.56726C5.32186 8.56726 3.73946 10.0239 3.73946 12.4451C3.73946 14.7989 5.32186 16.3484 7.27386 16.3484C9.22595 16.3484 10.8084 14.7989 10.8084 12.4451C10.8084 10.0239 9.22595 8.56726 7.27386 8.56726ZM14.4013 12.4451C14.4013 16.7803 11.2102 19.805 7.27386 19.805C3.33756 19.805 0.146484 16.7803 0.146484 12.4451C0.146484 8.11007 3.33756 5.08524 7.27386 5.08524C11.2102 5.08524 14.4013 8.11007 14.4013 12.4451Z" fill="#FF0000"/>
</g>
</svg>
