<svg xmlns="http://www.w3.org/2000/svg" width="70.866" height="42.52" viewBox="0 0 70.866 42.52">
  <path id="noun-sim-card-12279" d="M82.933,28.74H16.066a2,2,0,0,0-2,2V63.167l8.093,8.093H82.932a2,2,0,0,0,2-2V30.74A2,2,0,0,0,82.933,28.74Zm-3.1,11.343v2.583H69V34.083h4.832A6,6,0,0,1,79.832,40.083ZM68,57.334v8.583H57.164V34.083H68V57.334ZM56.164,49.5H45.332V43.666H56.164Zm-10.832,1H56.164v5.834H45.332ZM69,43.666H79.832V49.5H69ZM69,50.5H79.832v5.834H69ZM51.332,34.083h4.832v8.583H45.332V40.083A6,6,0,0,1,51.332,34.083Zm-6,25.834V57.334H56.164v8.583H51.332A6,6,0,0,1,45.332,59.917Zm28.5,6H69V57.334H79.832v2.583A6,6,0,0,1,73.832,65.917Z" transform="translate(-14.066 -28.74)"/>
</svg>
