<?xml version="1.0" encoding="UTF-8"?><svg id="a" xmlns="http://www.w3.org/2000/svg" xmlns:xlink="http://www.w3.org/1999/xlink" viewBox="0 0 415.5 199.22"><defs><style>.j{fill:url(#e);}.k{fill:url(#d);}.l{fill:url(#g);}.m{fill:url(#f);}.n{fill:url(#i);}.o{fill:url(#h);}.p{fill:url(#c);}.q{fill:url(#b);}</style><linearGradient id="b" x1="-456.21" y1="45.38" x2="702.6" y2="45.38" gradientTransform="translate(0 182.88) scale(1 -1)" gradientUnits="userSpaceOnUse"><stop offset="0" stop-color="#e6007c"/><stop offset="1" stop-color="#4a2669"/></linearGradient><linearGradient id="c" x1="-456.21" y1="45.38" x2="702.6" y2="45.38" gradientTransform="translate(0 182.88) scale(1 -1)" gradientUnits="userSpaceOnUse"><stop offset="0" stop-color="#e6007c"/><stop offset="1" stop-color="#4a2669"/></linearGradient><linearGradient id="d" x1="-456.2" y1="43.62" x2="702.62" y2="43.62" gradientTransform="translate(0 182.88) scale(1 -1)" gradientUnits="userSpaceOnUse"><stop offset="0" stop-color="#e6007c"/><stop offset="1" stop-color="#4a2669"/></linearGradient><linearGradient id="e" x1="-456.21" y1="44.79" x2="702.6" y2="44.79" gradientTransform="translate(0 182.88) scale(1 -1)" gradientUnits="userSpaceOnUse"><stop offset="0" stop-color="#e6007c"/><stop offset="1" stop-color="#4a2669"/></linearGradient><linearGradient id="f" x1="-98.91" y1="158.27" x2="1156.07" y2="158.27" gradientTransform="translate(0 182.88) scale(1 -1)" gradientUnits="userSpaceOnUse"><stop offset="0" stop-color="#e6007c"/><stop offset="1" stop-color="#4a2669"/></linearGradient><linearGradient id="g" x1="-98.91" y1="158.07" x2="1156.07" y2="158.07" gradientTransform="translate(0 182.88) scale(1 -1)" gradientUnits="userSpaceOnUse"><stop offset="0" stop-color="#e6007c"/><stop offset="1" stop-color="#4a2669"/></linearGradient><linearGradient id="h" x1="-98.91" y1="158.07" x2="1156.07" y2="158.07" gradientTransform="translate(0 182.88) scale(1 -1)" gradientUnits="userSpaceOnUse"><stop offset="0" stop-color="#e6007c"/><stop offset="1" stop-color="#4a2669"/></linearGradient><linearGradient id="i" x1="-98.91" y1="158.07" x2="1156.07" y2="158.07" gradientTransform="translate(0 182.88) scale(1 -1)" gradientUnits="userSpaceOnUse"><stop offset="0" stop-color="#e6007c"/><stop offset="1" stop-color="#4a2669"/></linearGradient></defs><path class="q" d="M39.01,158.2v37.5H0V79.3H49.94c5.85,0,11.71,.78,17.56,1.95,5.46,1.17,10.53,3.52,15.21,6.25,4.68,3.12,8.19,7.03,10.92,12.11,2.73,5.86,4.29,12.5,4.29,18.75s-1.17,12.89-3.9,18.36c-2.73,5.08-6.24,8.99-10.53,12.5-4.68,3.12-9.75,5.47-15.21,7.03-5.85,1.56-11.7,2.34-17.95,2.34h-11.31v-.39Zm0-48.44v18.75h8.19c2.73,0,5.85-.78,8.19-2.34,2.73-1.56,3.9-4.69,3.51-7.81,0-1.56-.39-3.12-1.17-4.69-.78-1.17-1.56-1.95-2.73-2.73-1.17-.78-2.34-1.17-3.9-1.56-1.56-.39-2.73-.39-4.29-.39l-7.8,.78Z"/><path class="p" d="M112.75,79.3h39.4v82.81h38.62v33.59H112.75V79.3Z"/><path class="k" d="M251.25,199.22c-8.19,0-16-1.17-23.8-3.91-6.24-2.34-12.09-5.86-16.78-10.55-4.29-4.3-7.8-9.77-10.14-15.62-2.34-6.25-3.51-12.89-3.12-19.14V79.3h39.01v66.41c-.39,4.69,1.17,9.37,3.9,12.89,6.24,6.25,16.39,6.25,23.02,0,2.73-3.91,4.29-8.2,3.9-12.89V79.3h39.01v70.7c0,6.64-1.17,13.28-3.51,19.14-2.34,5.86-5.85,11.33-10.53,15.62-5.07,4.69-10.92,8.2-17.17,10.55-7.8,2.73-15.61,3.91-23.8,3.91Z"/><path class="j" d="M364.39,199.22c-4.68,0-9.36-.39-14.04-1.17-4.29-.78-8.97-1.95-13.27-3.52-3.9-1.56-8.19-3.52-11.7-5.47-3.51-1.95-7.02-4.3-10.14-7.03l23.8-25.78c3.12,3.12,7.02,5.86,10.92,7.81,4.29,2.34,8.97,3.52,14.05,3.52,1.95,0,3.9-.39,5.85-1.17,1.56-.78,2.73-2.34,2.73-4.3,0-1.17-.39-1.95-.78-2.73-.78-1.17-1.95-1.95-3.12-2.34-1.95-1.17-4.29-1.95-6.24-2.74-2.73-1.17-5.85-1.95-10.14-3.51-3.9-1.17-7.8-2.74-11.31-4.69-3.51-1.56-6.63-3.91-9.75-6.64-2.73-2.74-5.07-5.86-6.63-9.38-1.56-4.3-2.73-8.59-2.34-13.28,0-6.64,1.56-12.89,4.68-18.36,2.73-5.08,6.63-9.38,11.31-12.5,4.68-3.12,10.14-5.86,15.61-7.03,5.46-1.56,11.31-1.95,17.17-1.95,8.19,0,15.99,1.56,23.41,4.3,7.8,2.74,14.83,7.03,21.07,12.89l-24.19,25c-2.73-3.12-5.85-5.86-9.75-7.42-3.12-1.56-6.63-2.34-10.14-2.73-2.34,0-4.68,.39-7.02,1.17-2.34,.78-3.12,3.51-2.34,5.86,.39,1.17,1.17,1.95,2.34,2.34,2.73,1.17,5.85,2.34,8.97,3.12,4.29,1.17,8.58,2.73,13.27,4.69,4.68,1.56,8.97,3.91,12.88,6.64,3.9,2.73,7.02,6.25,9.36,10.16,2.73,4.69,3.9,9.77,3.9,15.23,0,6.25-1.17,12.5-4.29,18.36-2.73,5.08-6.24,9.38-10.92,12.89-4.68,3.52-9.75,6.25-15.22,7.81-6.24,.78-12.1,1.95-17.95,1.95Z"/><path class="m" d="M35.11,42.97L63.2,6.25h-27.31V0h35.5V6.25l-27.7,36.72h28.48v6.25H35.5v-6.25h-.39Z"/><path class="l" d="M152.16,0h6.24l21.07,49.61h-7.8l-5.07-12.5h-23.41l-5.07,12.11h-7.8L152.16,0Zm12.09,31.25l-9.36-22.66-9.36,22.66h18.73Z"/><path class="o" d="M241.5,0h6.63V49.61h-6.63V0Z"/><path class="n" d="M316.79,0h8.97l27.31,40.63V0h6.63V49.61h-8.58l-27.31-40.62V49.61h-6.63V0h-.39Z"/></svg>