<svg xmlns="http://www.w3.org/2000/svg" width="70.316" height="70.316" viewBox="0 0 70.316 70.316">
  <g id="Group_3987" data-name="Group 3987" transform="translate(-1144.842 -2219.647)">
    <text id="_24" data-name="24" transform="translate(1163 2271)" fill="#23b7c0" font-size="28" font-family="NunitoSans-ExtraBold, Nunito Sans" font-weight="800" letter-spacing="0.02em"><tspan x="0" y="0">24</tspan></text>
    <g id="monthly" transform="translate(1009.842 1885.035)">
      <path id="Path_1628" data-name="Path 1628" d="M85.144,23.032H81.629V21.86a1.172,1.172,0,0,0-1.172-1.172h-8.2V19.516a3.516,3.516,0,1,0-7.032,0v1.172H62.878V19.516a3.516,3.516,0,0,0-7.032,0v1.172H41.783V19.516a3.516,3.516,0,1,0-7.032,0v1.172H32.407V19.516a3.516,3.516,0,1,0-7.032,0v1.172h-8.2A1.172,1.172,0,0,0,16,21.86v58.6a1.172,1.172,0,0,0,1.172,1.172h1.172v3.516a1.172,1.172,0,0,0,1.172,1.172H85.144a1.172,1.172,0,0,0,1.172-1.172V24.2A1.172,1.172,0,0,0,85.144,23.032Zm-66.8,56.253V37.095H79.285v42.19ZM67.565,19.516a1.172,1.172,0,0,1,2.344,0v1.172H67.565Zm-9.376,0a1.172,1.172,0,0,1,2.344,0v1.172H58.19Zm-21.095,0a1.172,1.172,0,1,1,2.344,0v1.172H37.095Zm-9.376,0a1.172,1.172,0,1,1,2.344,0v1.172H27.719Zm-2.344,3.516V24.2a3.52,3.52,0,0,0,3.516,3.516,1.172,1.172,0,0,0,0-2.344A1.173,1.173,0,0,1,27.719,24.2V23.032h7.032V24.2a3.52,3.52,0,0,0,3.516,3.516,1.172,1.172,0,0,0,0-2.344A1.173,1.173,0,0,1,37.095,24.2V23.032H55.846V24.2a3.52,3.52,0,0,0,3.516,3.516,1.172,1.172,0,0,0,0-2.344A1.173,1.173,0,0,1,58.19,24.2V23.032h7.032V24.2a3.52,3.52,0,0,0,3.516,3.516,1.172,1.172,0,1,0,0-2.344A1.173,1.173,0,0,1,67.565,24.2V23.032H79.285V34.751H18.344V23.032Zm58.6,60.941H20.688V81.629H80.457a1.172,1.172,0,0,0,1.172-1.172V25.376h2.344Z" transform="translate(119 318.612)" fill="#e3e3e3"/>
    </g>
  </g>
</svg>
