<svg id="signal" xmlns="http://www.w3.org/2000/svg" width="36.059" height="44.541" viewBox="0 0 36.059 44.541">
  <path id="Path_1893" data-name="Path 1893" d="M37.968,9.941a1.577,1.577,0,0,1-1.12-.462,21.779,21.779,0,0,0-30.636,0A1.591,1.591,0,1,1,3.97,7.22a24.962,24.962,0,0,1,35.118,0,1.592,1.592,0,0,1-1.12,2.721Z" transform="translate(-3.499 0)" fill="#d12b8a"/>
  <path id="Path_1894" data-name="Path 1894" d="M29.22,11.375a1.577,1.577,0,0,1-1.12-.462,13.629,13.629,0,0,0-19.191,0A1.591,1.591,0,0,1,6.667,8.656a16.812,16.812,0,0,1,23.675,0,1.59,1.59,0,0,1-1.122,2.719Z" transform="translate(-0.474 4.24)" fill="#d12b8a"/>
  <path id="Path_1895" data-name="Path 1895" d="M20.473,12.813a1.588,1.588,0,0,1-1.131-.471,5.607,5.607,0,0,0-7.729,0A1.59,1.59,0,0,1,9.357,10.1a8.656,8.656,0,0,1,12.247,0,1.592,1.592,0,0,1-1.131,2.713Z" transform="translate(2.55 8.478)" fill="#d12b8a"/>
  <path id="Path_1896" data-name="Path 1896" d="M15.514,23.605h-5.3A3.716,3.716,0,0,1,6.5,19.893v-5.3a1.591,1.591,0,0,1,3.182,0v5.3a.53.53,0,0,0,.53.53h5.3a1.591,1.591,0,1,1,0,3.182Z" transform="translate(-0.135 14.573)"/>
  <path id="Path_1897" data-name="Path 1897" d="M21.514,29.968h-5.3A3.716,3.716,0,0,1,12.5,26.256V16.712A3.716,3.716,0,0,1,16.212,13h5.3a1.591,1.591,0,1,1,0,3.182h-5.3a.53.53,0,0,0-.53.53v9.545a.53.53,0,0,0,.53.53h3.712V23.605H18.333a1.591,1.591,0,1,1,0-3.182h3.182a1.591,1.591,0,0,1,1.591,1.591v6.363A1.591,1.591,0,0,1,21.514,29.968Z" transform="translate(6.591 14.573)"/>
  <path id="Path_1898" data-name="Path 1898" d="M11.591,13A1.591,1.591,0,0,0,10,14.591V28.377a1.591,1.591,0,0,0,3.182,0V14.591A1.591,1.591,0,0,0,11.591,13Z" transform="translate(3.788 14.573)"/>
</svg>
