<svg id="signal_1_" data-name="signal (1)" xmlns="http://www.w3.org/2000/svg" width="36.059" height="44.541" viewBox="0 0 36.059 44.541">
  <path id="Path_1888" data-name="Path 1888" d="M37.968,9.941a1.577,1.577,0,0,1-1.12-.462,21.779,21.779,0,0,0-30.636,0A1.591,1.591,0,1,1,3.97,7.22a24.962,24.962,0,0,1,35.118,0,1.592,1.592,0,0,1-1.12,2.721Z" transform="translate(-3.499 0)" fill="#d12b8a"/>
  <path id="Path_1889" data-name="Path 1889" d="M29.22,11.375a1.577,1.577,0,0,1-1.12-.462,13.629,13.629,0,0,0-19.191,0A1.591,1.591,0,0,1,6.667,8.656a16.812,16.812,0,0,1,23.675,0,1.59,1.59,0,0,1-1.122,2.719Z" transform="translate(-0.474 4.24)" fill="#d12b8a"/>
  <path id="Path_1890" data-name="Path 1890" d="M20.473,12.813a1.588,1.588,0,0,1-1.131-.471,5.607,5.607,0,0,0-7.729,0A1.59,1.59,0,0,1,9.357,10.1a8.656,8.656,0,0,1,12.247,0,1.592,1.592,0,0,1-1.131,2.713Z" transform="translate(2.55 8.478)" fill="#d12b8a"/>
  <path id="Path_1891" data-name="Path 1891" d="M12.068,29.968H8.091a1.591,1.591,0,1,1,0-3.182h3.977a1.856,1.856,0,1,0,0-3.712H8.091A1.591,1.591,0,0,1,6.5,21.484V14.591A1.591,1.591,0,0,1,8.091,13h7.424a1.591,1.591,0,1,1,0,3.182H9.682v3.712h2.386a5.037,5.037,0,1,1,0,10.075Z" transform="translate(-0.135 14.573)"/>
  <path id="Path_1892" data-name="Path 1892" d="M21.514,29.968h-5.3A3.716,3.716,0,0,1,12.5,26.256V16.712A3.716,3.716,0,0,1,16.212,13h5.3a1.591,1.591,0,1,1,0,3.182h-5.3a.53.53,0,0,0-.53.53v9.545a.53.53,0,0,0,.53.53h3.712V23.605H18.333a1.591,1.591,0,1,1,0-3.182h3.182a1.591,1.591,0,0,1,1.591,1.591v6.363A1.591,1.591,0,0,1,21.514,29.968Z" transform="translate(6.591 14.573)"/>
</svg>
