<svg xmlns="http://www.w3.org/2000/svg" width="58.411" height="50" viewBox="0 0 58.411 50">
  <g id="webpage" transform="translate(0 2.766)">
    <path id="Path_2554" data-name="Path 2554" d="M45.027,3.213V18.764q-.427-.027-.863-.027c-.309,0-.614.01-.918.031V9.361H1.781V31.018a4.2,4.2,0,0,0,4.2,4.2H30.094a14.143,14.143,0,0,0,.292,1.4c.033.127.069.255.106.379H5.978A5.985,5.985,0,0,1,0,31.018V3.213A5.985,5.985,0,0,1,5.978-2.766H39.049A5.985,5.985,0,0,1,45.027,3.213ZM43.246,7.58V3.213a4.2,4.2,0,0,0-4.2-4.2H5.978a4.2,4.2,0,0,0-4.2,4.2V7.58Zm0,0"/>
    <g id="Group_5099" data-name="Group 5099" transform="translate(3.095 0.829)">
      <path id="Path_2555" data-name="Path 2555" d="M383.114,255.286a5.747,5.747,0,1,0-5.747-5.747A5.747,5.747,0,0,0,383.114,255.286Zm0-9.713a3.966,3.966,0,1,1-3.966,3.966A3.966,3.966,0,0,1,383.114,245.574Zm0,0" transform="translate(-342.045 -222.287)" fill="#d12b8a"/>
      <path id="Path_2556" data-name="Path 2556" d="M294.379,226.337c.033.127.069.254.106.379a14.247,14.247,0,1,0,14.535-18.232q-.427-.027-.863-.027c-.309,0-.614.01-.918.03a14.269,14.269,0,0,0-12.86,17.849Zm13.778,8.831a12.45,12.45,0,0,1-6.727-1.972A6.256,6.256,0,0,1,303.373,229a7.117,7.117,0,0,1,9.567,0,6.244,6.244,0,0,1,1.944,4.191A12.388,12.388,0,0,1,308.157,235.168Zm-.028-24.93h.028a12.46,12.46,0,0,1,8.355,21.709,8.6,8.6,0,0,0-16.711.007,12.414,12.414,0,0,1-3.7-6.069c-.02-.079-.041-.158-.06-.238a12.475,12.475,0,0,1,12.087-15.408Zm0,0" transform="translate(-267.088 -190.548)" fill="#d12b8a"/>
      <path id="Path_2557" data-name="Path 2557" d="M173.938,37.957h.008a2.488,2.488,0,1,0,.007-4.977h-.007a2.488,2.488,0,1,0-.008,4.977Zm-.492-2.99a.7.7,0,0,1,.5-.206h0a.708.708,0,1,1-.5.206Zm0,0" transform="translate(-157.094 -32.936)" fill="#d12b8a"/>
      <path id="Path_2558" data-name="Path 2558" d="M103.4,37.731h.008a2.488,2.488,0,0,0,.009-4.977h-.009a2.488,2.488,0,1,0-.008,4.977Zm-.491-2.99a.7.7,0,0,1,.5-.206h0a.708.708,0,0,1,.706.71h0a.708.708,0,0,1-.709.7h0a.708.708,0,0,1-.5-1.21Zm0,0" transform="translate(-93.74 -32.732)" fill="#d12b8a"/>
      <path id="Path_2559" data-name="Path 2559" d="M32.891,37.52H32.9a2.488,2.488,0,0,0,1.765-4.243,2.465,2.465,0,0,0-1.758-.734H32.9a2.489,2.489,0,0,0-.008,4.977ZM32.4,34.529a.7.7,0,0,1,.5-.2h0a.708.708,0,0,1,0,1.416h0a.709.709,0,0,1-.7-.711A.7.7,0,0,1,32.4,34.529Zm0,0" transform="translate(-30.406 -32.543)" fill="#d12b8a"/>
    </g>
  </g>
</svg>
