<svg id="Group_3763" data-name="Group 3763" xmlns="http://www.w3.org/2000/svg" width="26" height="26" viewBox="0 0 26 26">
  <g id="Group_3762" data-name="Group 3762">
    <path id="Path_2123" data-name="Path 2123" d="M21.273,42.667H2.364A2.366,2.366,0,0,0,0,45.031V63.94A2.366,2.366,0,0,0,2.364,66.3H21.273a2.366,2.366,0,0,0,2.364-2.364V45.031A2.366,2.366,0,0,0,21.273,42.667ZM22.454,63.94a1.183,1.183,0,0,1-1.182,1.182H2.364A1.183,1.183,0,0,1,1.182,63.94V45.031a1.183,1.183,0,0,1,1.182-1.182H21.273a1.183,1.183,0,0,1,1.182,1.182Z" transform="translate(0 -40.303)" fill="#d12b8a"/>
    <path id="Path_2124" data-name="Path 2124" d="M84.091,0h-19.5a.591.591,0,1,0,0,1.182h19.5a1.183,1.183,0,0,1,1.182,1.182v19.5a.591.591,0,0,0,1.182,0V2.364A2.366,2.366,0,0,0,84.091,0Z" transform="translate(-60.455)" fill="#d12b8a"/>
    <path id="Path_2125" data-name="Path 2125" d="M117.094,149.464a.585.585,0,0,0-.479-.132l-7.091,1.182a.591.591,0,0,0-.494.583v7.747a2.786,2.786,0,0,0-.591-.065c-1.027,0-1.773.5-1.773,1.182s.746,1.182,1.773,1.182,1.773-.5,1.773-1.182v-6l5.909-.985v4.686a2.786,2.786,0,0,0-.591-.065c-1.027,0-1.773.5-1.773,1.182s.746,1.182,1.773,1.182,1.773-.5,1.773-1.182v-8.864A.591.591,0,0,0,117.094,149.464Zm-.973,2.314-5.909.985V151.6l5.909-.986v1.166Z" transform="translate(-100.757 -141.051)" fill="#d12b8a"/>
  </g>
</svg>
