<svg xmlns="http://www.w3.org/2000/svg" width="46" height="46" viewBox="0 0 46 46">
  <g id="Application" transform="translate(-2 -2)">
    <path id="Path_2302" data-name="Path 2302" d="M25,44H35.733v1.533H25Z" transform="translate(-5.367 -9.8)" fill="#d12b8a"/>
    <path id="Path_2303" data-name="Path 2303" d="M21,44h1.533v1.533H21Z" transform="translate(-4.433 -9.8)" fill="#d12b8a"/>
    <path id="Path_2304" data-name="Path 2304" d="M47.233,5.067H36.5V4.3A2.307,2.307,0,0,0,34.2,2H15.8a2.307,2.307,0,0,0-2.3,2.3V7.367H2.767A.767.767,0,0,0,2,8.133v9.2a.767.767,0,0,0,.767.767H13.5v1.533a3.833,3.833,0,0,0-3.833,3.833V26.6L11.2,42.664v4.569a.767.767,0,0,0,.767.767H28.833a.767.767,0,0,0,.767-.767V42.879L32.452,38.8H34.2a2.307,2.307,0,0,0,2.3-2.3v-.767h.767a3.055,3.055,0,0,0,2.009-5.367,3.029,3.029,0,0,0,0-4.6,3.029,3.029,0,0,0,0-4.6A3.055,3.055,0,0,0,37.267,15.8H36.5V14.267H47.233A.767.767,0,0,0,48,13.5V5.833A.767.767,0,0,0,47.233,5.067ZM30.919,3.533l-.238.951a.767.767,0,0,1-.744.583H20.063a.767.767,0,0,1-.744-.583l-.238-.951ZM3.533,16.567V8.9h13.8v7.667Zm24.533,29.9H12.733V43.4H28.067Zm.368-4.6H12.664L11.2,26.533V23.467a2.307,2.307,0,0,1,2.3-2.3h5.367a2.3,2.3,0,0,1,0,4.6h-4.6a.767.767,0,0,0-.767.767V36.5a2.307,2.307,0,0,0,2.3,2.3H30.581ZM34.967,36.5a.767.767,0,0,1-.767.767H15.8a.767.767,0,0,1-.767-.767V27.3h3.833a3.833,3.833,0,1,0,0-7.667H15.033V18.1H18.1a.767.767,0,0,0,.767-.767v-9.2a.767.767,0,0,0-.767-.767H15.033V4.3a.767.767,0,0,1,.767-.767h1.7l.33,1.326A2.3,2.3,0,0,0,20.063,6.6h9.875a2.3,2.3,0,0,0,2.231-1.74l.33-1.326h1.7a.767.767,0,0,1,.767.767v.767H33.433a.767.767,0,0,0-.767.767V13.5a.767.767,0,0,0,.767.767h1.533V15.8H34.2a3.055,3.055,0,0,0-2.009,5.367,3.029,3.029,0,0,0,0,4.6,3.029,3.029,0,0,0,0,4.6A3.055,3.055,0,0,0,34.2,35.733h.767Zm2.3-2.3H34.2a1.533,1.533,0,0,1,0-3.067h3.067a1.533,1.533,0,0,1,0,3.067Zm0-4.6H34.2a1.533,1.533,0,0,1,0-3.067h3.067a1.533,1.533,0,0,1,0,3.067Zm0-4.6H34.2a1.533,1.533,0,0,1,0-3.067h3.067a1.533,1.533,0,0,1,0,3.067Zm0-7.667a1.533,1.533,0,1,1,0,3.067H34.2a1.533,1.533,0,1,1,0-3.067Zm9.2-4.6H34.2V6.6H46.467Z" transform="translate(0 0)"/>
    <path id="Path_2305" data-name="Path 2305" d="M6,13H7.533v1.533H6Z" transform="translate(-0.933 -2.567)" fill="#d12b8a"/>
    <path id="Path_2306" data-name="Path 2306" d="M10,13h7.667v1.533H10Z" transform="translate(-1.867 -2.567)" fill="#d12b8a"/>
    <path id="Path_2307" data-name="Path 2307" d="M6,17H16.733v1.533H6Z" transform="translate(-0.933 -3.5)" fill="#d12b8a"/>
    <path id="Path_2308" data-name="Path 2308" d="M46,11h3.067v1.533H46Z" transform="translate(-10.267 -2.1)" fill="#d12b8a"/>
    <path id="Path_2309" data-name="Path 2309" d="M52,11h4.6v1.533H52Z" transform="translate(-11.667 -2.1)" fill="#d12b8a"/>
  </g>
</svg>
