<svg xmlns="http://www.w3.org/2000/svg" width="52" height="50.711" viewBox="0 0 52 50.711">
  <g id="event" transform="translate(-20.237 -26.087)">
    <g id="Group_5095" data-name="Group 5095" transform="translate(20.237 26.087)">
      <path id="Path_2543" data-name="Path 2543" d="M56.892,30.754H55.2V29.408a3.325,3.325,0,0,0-3.321-3.321h-.313a3.325,3.325,0,0,0-3.321,3.321v1.346H33.257V29.408a3.325,3.325,0,0,0-3.321-3.321h-.313A3.325,3.325,0,0,0,26.3,29.408v1.346h-1.7a4.375,4.375,0,0,0-4.37,4.37V64.573a4.375,4.375,0,0,0,4.37,4.37H50.093V67.62H24.607a3.05,3.05,0,0,1-3.047-3.047V39.564H59.938V54.079h1.323V35.124a4.375,4.375,0,0,0-4.37-4.37Zm-7.327-1.346a2,2,0,0,1,2-2h.313a2,2,0,0,1,2,2v2.615a2,2,0,0,1-2,2h-.313a2,2,0,0,1-2-2Zm-21.939,0a2,2,0,0,1,2-2h.313a2,2,0,0,1,2,2v2.615a2,2,0,0,1-2,2h-.313a2,2,0,0,1-2-2ZM21.56,38.241V35.124a3.05,3.05,0,0,1,3.047-3.047h1.7a3.324,3.324,0,0,0,3.319,3.266h.313a3.324,3.324,0,0,0,3.319-3.266H48.243a3.324,3.324,0,0,0,3.319,3.266h.313a3.324,3.324,0,0,0,3.319-3.266h1.7a3.05,3.05,0,0,1,3.047,3.047v3.117Z" transform="translate(-20.237 -26.087)"/>
      <path id="Path_2544" data-name="Path 2544" d="M51.623,169.7a.662.662,0,0,0-1.323,0v.694a.662.662,0,1,0,1.323,0Z" transform="translate(-46.985 -153.273)"/>
      <path id="Path_2545" data-name="Path 2545" d="M50.962,198.333a.662.662,0,0,0-.662.662v6.948a.662.662,0,0,0,1.323,0v-6.948A.662.662,0,0,0,50.962,198.333Z" transform="translate(-46.985 -179.338)"/>
    </g>
    <path id="Path_2546" data-name="Path 2546" d="M328.39,347.6a.66.66,0,0,0,.462-.188l8.011-7.821a.662.662,0,1,0-.924-.947l-7.548,7.37-3.984-3.89a.662.662,0,0,0-.924.947l4.446,4.341A.659.659,0,0,0,328.39,347.6Z" transform="translate(-269.625 -277.922)" fill="#d12b8a"/>
    <path id="Path_2547" data-name="Path 2547" d="M291.848,273.919a11.644,11.644,0,0,0-8.131,2.925.662.662,0,1,0,.873.994,10.358,10.358,0,1,1-2.518,3.352.662.662,0,1,0-1.195-.568,11.689,11.689,0,1,0,10.971-6.7Z" transform="translate(-230.903 -220.495)" fill="#d12b8a"/>
  </g>
</svg>
