<svg xmlns="http://www.w3.org/2000/svg" width="50" height="55.449" viewBox="0 0 50 55.449">
  <g id="Group_5128" data-name="Group 5128" transform="translate(-253.265 -370.496)">
    <path id="Path_1308" data-name="Path 1308" d="M255.788,425.885a29.074,29.074,0,0,0,11.749-1.643,5.19,5.19,0,0,1,3.631-.045,21.875,21.875,0,0,0,25.507-8.772,17.059,17.059,0,0,1,2.28-2.663,13.683,13.683,0,0,0-.576-20.449,16.981,16.981,0,0,1-2.419-2.54,21.55,21.55,0,0,0-13.712-8.554c-2.376-.435-3.25-1.964-2.354-4.154.227-.556.818-.952,1.144-1.482a3.274,3.274,0,0,0-4.329-4.629c-1.911,1.046-2.257,3.112-.858,5.091,1.974,2.794,1.341,4.616-1.84,5.231a21.484,21.484,0,0,0-13.111,8.08,22.238,22.238,0,0,1-2.736,2.984,13.57,13.57,0,0,0-.529,20.413c2.206,2.124,2.456,4.433,1.775,7.151C258.851,422.143,257.3,423.8,255.788,425.885Z" transform="translate(0 0)" fill="#fdfdfd"/>
    <path id="Path_1309" data-name="Path 1309" d="M255.788,425.885c1.514-2.083,3.062-3.742,3.622-5.978.681-2.718.431-5.027-1.775-7.151a13.57,13.57,0,0,1,.529-20.413,22.238,22.238,0,0,0,2.736-2.984,21.484,21.484,0,0,1,13.111-8.08c3.182-.614,3.814-2.437,1.84-5.231-1.4-1.98-1.053-4.045.858-5.091a3.274,3.274,0,0,1,4.329,4.629c-.326.53-.917.926-1.144,1.482-.9,2.19-.022,3.718,2.354,4.154a21.55,21.55,0,0,1,13.712,8.554,16.981,16.981,0,0,0,2.419,2.54,13.683,13.683,0,0,1,.576,20.449,17.059,17.059,0,0,0-2.28,2.663,21.875,21.875,0,0,1-25.507,8.772,5.19,5.19,0,0,0-3.631.045A29.074,29.074,0,0,1,255.788,425.885Zm22.447-11.969c3.536,0,7.073.053,10.608-.011,6.671-.121,11.538-4.947,11.441-11.266-.1-6.221-4.942-10.86-11.506-10.906q-10.471-.073-20.944,0c-6.625.041-11.668,4.891-11.648,11.11.02,6.116,4.959,10.929,11.442,11.061C271.162,413.975,274.7,413.916,278.235,413.916Z" transform="translate(0 0)" fill="#23b7c0"/>
    <path id="Path_1311" data-name="Path 1311" d="M313.045,427.592c.079-1.8.935-2.961,2.766-3.055a2.949,2.949,0,1,1,.226,5.893A2.807,2.807,0,0,1,313.045,427.592Z" transform="translate(-27.283 -24.661)" fill="#338dac"/>
    <path id="Path_1312" data-name="Path 1312" d="M277.835,424.462c1.922.064,3.048,1.094,3.128,2.816a2.751,2.751,0,0,1-2.972,3.112,2.706,2.706,0,0,1-2.883-2.918A2.8,2.8,0,0,1,277.835,424.462Z" transform="translate(-9.969 -24.63)" fill="#23b7c0"/>
  </g>
</svg>
