<svg xmlns="http://www.w3.org/2000/svg" width="65.785" height="50" viewBox="0 0 65.785 50">
  <g id="router_2_" data-name="router (2)" transform="translate(0 -61.426)">
    <g id="Group_3207" data-name="Group 3207" transform="translate(0 92.239)">
      <g id="Group_3206" data-name="Group 3206" transform="translate(0 0)">
        <path id="Path_1868" data-name="Path 1868" d="M58.932,301.24H6.853A6.862,6.862,0,0,0,0,308.093v5.482a6.862,6.862,0,0,0,6.853,6.853h52.08a6.86,6.86,0,0,0,6.853-6.853v-5.482A6.862,6.862,0,0,0,58.932,301.24Zm4.112,12.335a4.117,4.117,0,0,1-4.112,4.112H6.853a4.117,4.117,0,0,1-4.112-4.112v-5.482a4.117,4.117,0,0,1,4.112-4.112h52.08a4.117,4.117,0,0,1,4.112,4.112v5.482Z" transform="translate(0 -301.24)"/>
      </g>
    </g>
    <g id="Group_3209" data-name="Group 3209" transform="translate(46.598 73.052)">
      <g id="Group_3208" data-name="Group 3208" transform="translate(0 0)">
        <path id="Path_1869" data-name="Path 1869" d="M364.037,151.907a1.371,1.371,0,0,0-1.371,1.371v19.187a1.371,1.371,0,1,0,2.741,0V153.277A1.371,1.371,0,0,0,364.037,151.907Z" transform="translate(-362.666 -151.907)"/>
      </g>
    </g>
    <g id="Group_3211" data-name="Group 3211" transform="translate(8.223 100.462)">
      <g id="Group_3210" data-name="Group 3210" transform="translate(0 0)">
        <circle id="Ellipse_1056" data-name="Ellipse 1056" cx="1.371" cy="1.371" r="1.371" fill="#d12b8a"/>
      </g>
    </g>
    <g id="Group_3213" data-name="Group 3213" transform="translate(16.446 100.462)">
      <g id="Group_3212" data-name="Group 3212" transform="translate(0 0)">
        <circle id="Ellipse_1057" data-name="Ellipse 1057" cx="1.371" cy="1.371" r="1.371" fill="#d12b8a"/>
      </g>
    </g>
    <g id="Group_3215" data-name="Group 3215" transform="translate(24.669 100.462)">
      <g id="Group_3214" data-name="Group 3214" transform="translate(0 0)">
        <circle id="Ellipse_1058" data-name="Ellipse 1058" cx="1.371" cy="1.371" r="1.371" fill="#d12b8a"/>
      </g>
    </g>
    <g id="Group_3217" data-name="Group 3217" transform="translate(32.892 100.462)">
      <g id="Group_3216" data-name="Group 3216" transform="translate(0 0)">
        <circle id="Ellipse_1059" data-name="Ellipse 1059" cx="1.371" cy="1.371" r="1.371" fill="#d12b8a"/>
      </g>
    </g>
    <g id="Group_3219" data-name="Group 3219" transform="translate(41.116 100.462)">
      <g id="Group_3218" data-name="Group 3218" transform="translate(0 0)">
        <path id="Path_1870" data-name="Path 1870" d="M335.076,365.24H321.371a1.371,1.371,0,0,0,0,2.741h13.705a1.371,1.371,0,1,0,0-2.741Z" transform="translate(-320 -365.24)" fill="#d12b8a"/>
      </g>
    </g>
    <g id="Group_3221" data-name="Group 3221" transform="translate(41.116 69.175)">
      <g id="Group_3220" data-name="Group 3220" transform="translate(0 0)">
        <path id="Path_1871" data-name="Path 1871" d="M322.741,126.982a4.091,4.091,0,0,1,1.2-2.908,1.37,1.37,0,0,0-1.938-1.938,6.856,6.856,0,0,0,0,9.692,1.377,1.377,0,0,0,.97.4,1.354,1.354,0,0,0,.968-.4,1.371,1.371,0,0,0,0-1.938A4.09,4.09,0,0,1,322.741,126.982Z" transform="translate(-320 -121.735)" fill="#d12b8a"/>
      </g>
    </g>
    <g id="Group_3223" data-name="Group 3223" transform="translate(50.473 69.175)">
      <g id="Group_3222" data-name="Group 3222" transform="translate(0 0)">
        <path id="Path_1872" data-name="Path 1872" d="M395.168,122.137a1.37,1.37,0,1,0-1.938,1.938,4.113,4.113,0,0,1,0,5.817,1.371,1.371,0,0,0,1.941,1.938,6.856,6.856,0,0,0,0-9.692Z" transform="translate(-392.826 -121.736)" fill="#d12b8a"/>
      </g>
    </g>
    <g id="Group_3225" data-name="Group 3225" transform="translate(35.638 65.302)">
      <g id="Group_3224" data-name="Group 3224" transform="translate(0 0)">
        <path id="Path_1873" data-name="Path 1873" d="M282.909,93.931a1.37,1.37,0,0,0-1.938-1.938,12.351,12.351,0,0,0,0,17.444,1.37,1.37,0,1,0,1.938-1.938A9.608,9.608,0,0,1,282.909,93.931Z" transform="translate(-277.365 -91.592)" fill="#d12b8a"/>
      </g>
    </g>
    <g id="Group_3227" data-name="Group 3227" transform="translate(54.351 65.302)">
      <g id="Group_3226" data-name="Group 3226" transform="translate(0 0)">
        <path id="Path_1874" data-name="Path 1874" d="M425.352,91.993a1.37,1.37,0,0,0-1.938,1.938,9.608,9.608,0,0,1,0,13.568,1.37,1.37,0,0,0,1.938,1.938A12.352,12.352,0,0,0,425.352,91.993Z" transform="translate(-423.013 -91.592)" fill="#d12b8a"/>
      </g>
    </g>
    <g id="Group_3229" data-name="Group 3229" transform="translate(30.158 61.426)">
      <g id="Group_3228" data-name="Group 3228" transform="translate(0 0)">
        <path id="Path_1875" data-name="Path 1875" d="M241.867,63.765a1.37,1.37,0,1,0-1.938-1.938,17.837,17.837,0,0,0,0,25.2,1.37,1.37,0,1,0,1.938-1.938A15.089,15.089,0,0,1,241.867,63.765Z" transform="translate(-234.72 -61.426)" fill="#d12b8a"/>
      </g>
    </g>
    <g id="Group_3231" data-name="Group 3231" transform="translate(58.227 61.426)">
      <g id="Group_3230" data-name="Group 3230" transform="translate(0 0)">
        <path id="Path_1876" data-name="Path 1876" d="M455.517,61.828a1.37,1.37,0,0,0-1.938,1.938,15.089,15.089,0,0,1,0,21.32,1.37,1.37,0,0,0,1.938,1.938A17.837,17.837,0,0,0,455.517,61.828Z" transform="translate(-453.178 -61.427)" fill="#d12b8a"/>
      </g>
    </g>
  </g>
</svg>
