<svg xmlns="http://www.w3.org/2000/svg" width="49.999" height="50" viewBox="0 0 49.999 50">
  <g id="phone-call_2_" data-name="phone-call (2)" transform="translate(-0.006)">
    <g id="Group_5138" data-name="Group 5138" transform="translate(11.63)">
      <g id="Group_5137" data-name="Group 5137">
        <path id="Path_2563" data-name="Path 2563" d="M120.014,0a.977.977,0,0,0,0,1.953,10.149,10.149,0,0,1,10.005,10.265.977.977,0,0,0,1.953,0A12.1,12.1,0,0,0,120.014,0Z" transform="translate(-119.037)"/>
      </g>
    </g>
    <g id="Group_5140" data-name="Group 5140" transform="translate(11.627 4.633)">
      <g id="Group_5139" data-name="Group 5139">
        <path id="Path_2564" data-name="Path 2564" d="M119.981,47.447a.977.977,0,0,0,0,1.953,5.563,5.563,0,0,1,5.479,5.631.977.977,0,1,0,1.953,0A7.518,7.518,0,0,0,119.981,47.447Z" transform="translate(-119.004 -47.447)"/>
      </g>
    </g>
    <g id="Group_5142" data-name="Group 5142" transform="translate(11.646 8.902)">
      <g id="Group_5141" data-name="Group 5141">
        <path id="Path_2565" data-name="Path 2565" d="M120.175,91.155a.977.977,0,0,0,0,1.953,1.309,1.309,0,0,1,1.28,1.333.977.977,0,1,0,1.953,0A3.264,3.264,0,0,0,120.175,91.155Z" transform="translate(-119.198 -91.155)"/>
      </g>
    </g>
    <g id="Group_5144" data-name="Group 5144" transform="translate(26.76 7.741)">
      <g id="Group_5143" data-name="Group 5143">
        <path id="Path_2566" data-name="Path 2566" d="M291.988,79.265h-2.165a.977.977,0,1,0,0,1.953h2.165a3.276,3.276,0,0,1,3.272,3.272V97.748a3.267,3.267,0,0,1-1.244,2.565V97.759a4.141,4.141,0,0,0-3.381-4.069L290,93.572a4.407,4.407,0,0,0,.218-1.37V89.958a4.426,4.426,0,1,0-8.851,0V92.2a4.41,4.41,0,0,0,.218,1.37l-.631.118a4.141,4.141,0,0,0-3.381,4.069v2.831a3.273,3.273,0,0,1-1.654-2.842V84.49a3.276,3.276,0,0,1,3.272-3.272h2.328a.977.977,0,1,0,0-1.953h-2.328a5.231,5.231,0,0,0-5.225,5.225V97.748a5.231,5.231,0,0,0,5.225,5.225h4.915v2.808a.977.977,0,0,0,1.665.693l3.523-3.5h2.691a5.231,5.231,0,0,0,5.225-5.225V84.49A5.231,5.231,0,0,0,291.988,79.265Zm-8.665,10.693a2.472,2.472,0,1,1,4.945,0V92.2a2.472,2.472,0,1,1-4.945,0Zm8.738,11.06-.074,0h-3.094a.977.977,0,0,0-.689.284l-2.144,2.13V102a.977.977,0,0,0-.977-.977H279.53V97.759a2.187,2.187,0,0,1,1.785-2.149l1.377-.257a4.416,4.416,0,0,0,6.208,0l1.377.257a2.187,2.187,0,0,1,1.785,2.149v3.259Z" transform="translate(-273.969 -79.265)" fill="#d12b8a"/>
      </g>
    </g>
    <g id="Group_5146" data-name="Group 5146" transform="translate(37.015 7.741)">
      <g id="Group_5145" data-name="Group 5145">
        <path id="Path_2567" data-name="Path 2567" d="M380.647,79.555a.976.976,0,1,0,.286.691A.98.98,0,0,0,380.647,79.555Z" transform="translate(-378.98 -79.269)" fill="#d12b8a"/>
      </g>
    </g>
    <g id="Group_5148" data-name="Group 5148" transform="translate(16.49 32.569)">
      <g id="Group_5147" data-name="Group 5147">
        <path id="Path_2568" data-name="Path 2568" d="M170.473,333.793a.976.976,0,1,0,.286.691A.982.982,0,0,0,170.473,333.793Z" transform="translate(-168.806 -333.507)"/>
      </g>
    </g>
    <g id="Group_5150" data-name="Group 5150" transform="translate(0.006 9.614)">
      <g id="Group_5149" data-name="Group 5149">
        <path id="Path_2569" data-name="Path 2569" d="M39.535,130.52l-7.482-7.483a2.932,2.932,0,0,0-3.726-.347l-4.776,3.265a.977.977,0,0,1-1.242-.116l-1.579-1.579a.977.977,0,0,0-1.381,1.381l1.579,1.579a2.931,2.931,0,0,0,3.726.347l4.776-3.265a.977.977,0,0,1,1.242.116l7.483,7.483a.978.978,0,0,1,0,1.381,12.32,12.32,0,0,1-17.4,0L5.557,118.089a12.306,12.306,0,0,1,0-17.4.977.977,0,0,1,1.381,0l7.482,7.483a.977.977,0,0,1,.116,1.242l-3.265,4.776a2.931,2.931,0,0,0,.347,3.726l2.374,2.374a.977.977,0,0,0,1.381-1.381L13,116.53a.977.977,0,0,1-.116-1.242l3.265-4.776a2.932,2.932,0,0,0-.347-3.726L8.319,99.3a2.934,2.934,0,0,0-4.144,0,14.276,14.276,0,0,0,0,20.166l15.194,15.193a14.275,14.275,0,0,0,20.166,0A2.933,2.933,0,0,0,39.535,130.52Z" transform="translate(-0.006 -98.447)"/>
      </g>
    </g>
    <g id="Group_5152" data-name="Group 5152" transform="translate(5.574 17.809)">
      <g id="Group_5151" data-name="Group 5151">
        <path id="Path_2570" data-name="Path 2570" d="M64.615,188.571l-5.921-5.921a.977.977,0,0,0-1.381,1.381l5.921,5.921a.977.977,0,0,0,1.381-1.381Z" transform="translate(-57.027 -182.365)"/>
      </g>
    </g>
    <g id="Group_5154" data-name="Group 5154" transform="translate(27.925 40.16)">
      <g id="Group_5153" data-name="Group 5153">
        <path id="Path_2571" data-name="Path 2571" d="M293.795,417.75l-6.229-6.229a.977.977,0,1,0-1.381,1.381l6.229,6.229a.977.977,0,1,0,1.381-1.381Z" transform="translate(-285.898 -411.235)"/>
      </g>
    </g>
  </g>
</svg>
