<svg xmlns="http://www.w3.org/2000/svg" xmlns:xlink="http://www.w3.org/1999/xlink" width="104" height="105" viewBox="0 0 104 105">
  <defs>
    <filter id="Rectangle_3317" x="0" y="0" width="104" height="105" filterUnits="userSpaceOnUse">
      <feOffset dy="10" input="SourceAlpha"/>
      <feGaussianBlur stdDeviation="3" result="blur"/>
      <feFlood flood-opacity="0.102"/>
      <feComposite operator="in" in2="blur"/>
      <feComposite in="SourceGraphic"/>
    </filter>
  </defs>
  <g id="Group_4278" data-name="Group 4278" transform="translate(-3 -665)">
    <g transform="matrix(1, 0, 0, 1, 3, 665)" filter="url(#Rectangle_3317)">
      <g id="Rectangle_3317-2" data-name="Rectangle 3317" transform="translate(9)" fill="#fff" stroke="#23b7c0" stroke-width="1">
        <rect width="86" height="86" rx="43" stroke="none"/>
        <rect x="0.5" y="0.5" width="85" height="85" rx="42.5" fill="none"/>
      </g>
    </g>
    <g id="Group_4271" data-name="Group 4271" transform="translate(-216.266 300.504)">
      <path id="Path_1308" data-name="Path 1308" d="M255.075,410.219a20.851,20.851,0,0,0,8.426-1.178,3.722,3.722,0,0,1,2.6-.032,15.688,15.688,0,0,0,18.292-6.291,12.234,12.234,0,0,1,1.635-1.909,9.813,9.813,0,0,0-.413-14.665,12.175,12.175,0,0,1-1.735-1.821,15.454,15.454,0,0,0-9.833-6.134c-1.7-.312-2.33-1.408-1.688-2.979.163-.4.587-.683.821-1.063a2.348,2.348,0,0,0-3.1-3.32c-1.371.75-1.619,2.231-.615,3.651,1.415,2,.962,3.311-1.32,3.751a15.408,15.408,0,0,0-9.4,5.795,15.949,15.949,0,0,1-1.962,2.14,9.731,9.731,0,0,0-.38,14.639,4.8,4.8,0,0,1,1.273,5.128C257.271,407.535,256.16,408.725,255.075,410.219Z" transform="translate(0 0)" fill="#fdfdfd"/>
      <path id="Path_1309" data-name="Path 1309" d="M255.075,410.219c1.086-1.493,2.2-2.684,2.6-4.287A4.8,4.8,0,0,0,256.4,400.8a9.731,9.731,0,0,1,.38-14.639,15.949,15.949,0,0,0,1.962-2.14,15.408,15.408,0,0,1,9.4-5.795c2.282-.441,2.735-1.748,1.32-3.751-1-1.42-.755-2.9.615-3.651a2.348,2.348,0,0,1,3.1,3.32c-.234.38-.658.664-.821,1.063-.642,1.571-.016,2.667,1.688,2.979a15.454,15.454,0,0,1,9.833,6.134,12.175,12.175,0,0,0,1.735,1.821,9.813,9.813,0,0,1,.413,14.665,12.234,12.234,0,0,0-1.635,1.909,15.688,15.688,0,0,1-18.292,6.291,3.722,3.722,0,0,0-2.6.032A20.851,20.851,0,0,1,255.075,410.219Zm16.1-8.584c2.536,0,5.072.038,7.607-.008,4.784-.086,8.274-3.548,8.2-8.079-.068-4.462-3.544-7.788-8.252-7.821q-7.51-.052-15.02,0c-4.751.03-8.368,3.507-8.353,7.968a8.064,8.064,0,0,0,8.205,7.932C266.1,401.677,268.637,401.635,271.173,401.635Z" transform="translate(0 0)" fill="#23b7c0"/>
      <path id="Path_1310" data-name="Path 1310" d="M274.451,425.434c-2.536,0-5.073.042-7.607-.009a8.064,8.064,0,0,1-8.205-7.932c-.014-4.46,3.6-7.938,8.353-7.968q7.51-.047,15.02,0c4.708.033,8.184,3.36,8.252,7.821.07,4.532-3.421,7.993-8.2,8.079C279.523,425.472,276.987,425.434,274.451,425.434Zm5.4-7.879a2.013,2.013,0,0,0,2.146,2.035,2.115,2.115,0,1,0-.162-4.226A1.991,1.991,0,0,0,279.848,417.555Zm-12.834-2.222a2.008,2.008,0,0,0-1.955,2.159,1.941,1.941,0,0,0,2.067,2.093,1.973,1.973,0,0,0,2.131-2.232A2.048,2.048,0,0,0,267.014,415.333Z" transform="translate(-3.278 -23.799)" fill="#fbfcfc"/>
      <path id="Path_1311" data-name="Path 1311" d="M313.045,426.726a1.991,1.991,0,0,1,1.984-2.191,2.115,2.115,0,1,1,.162,4.226A2.013,2.013,0,0,1,313.045,426.726Z" transform="translate(-36.475 -32.97)" fill="#23b7c0"/>
      <path id="Path_1312" data-name="Path 1312" d="M277.063,424.462a2.048,2.048,0,0,1,2.244,2.02,1.973,1.973,0,0,1-2.131,2.232,1.94,1.94,0,0,1-2.067-2.093A2.009,2.009,0,0,1,277.063,424.462Z" transform="translate(-13.327 -32.928)" fill="#23b7c0"/>
    </g>
    <text id="Need_help_" data-name="Need
help?" transform="translate(55 724.656)" fill="#23b7c0" font-size="11" font-family="NunitoSans-Bold, Nunito Sans" font-weight="700" letter-spacing="0.05em"><tspan x="-14.08" y="0">Need</tspan><tspan x="-15.405" y="12">Help?</tspan></text>
  </g>
</svg>
