<svg xmlns="http://www.w3.org/2000/svg" width="37.622" height="48.6" viewBox="0 0 37.622 48.6">
  <g id="choice" transform="translate(-58.302 0.3)">
    <path id="Path_1620" data-name="Path 1620" d="M294.7,0h-8.687a3.679,3.679,0,0,0-3.674,3.674v8.687a3.679,3.679,0,0,0,3.674,3.674H294.7a3.679,3.679,0,0,0,3.674-3.674V3.674A3.678,3.678,0,0,0,294.7,0Zm.862,12.362a.863.863,0,0,1-.862.862h-8.687a.863.863,0,0,1-.862-.862V3.674a.863.863,0,0,1,.862-.862H294.7a.863.863,0,0,1,.862.862Z" transform="translate(-202.747)" fill="#d12b8a" stroke="#fff" stroke-width="0.6"/>
    <path id="Path_1621" data-name="Path 1621" d="M85.22,19.547a3.984,3.984,0,0,0-1.869.463,4.006,4.006,0,0,0-5.314-1.268,4.009,4.009,0,0,0-4.428-1.455V16.036h.334a3.679,3.679,0,0,0,3.674-3.674V3.674A3.679,3.679,0,0,0,73.944,0H65.256a3.679,3.679,0,0,0-3.674,3.674v8.687a3.679,3.679,0,0,0,3.674,3.674h.334v8.711a4.035,4.035,0,0,0-.73-.579,3.98,3.98,0,0,0-2.87-.532,3.426,3.426,0,0,0-3.273,4.326l1.848,7.909c1.054,6.6,6.2,11.536,6.421,11.743a1.406,1.406,0,0,0,.967.385H83.77a1.406,1.406,0,0,0,1.175-.634,25.983,25.983,0,0,0,4.283-14.308l0-9.5h0A4.014,4.014,0,0,0,85.22,19.547ZM68.544,45.188c-1.133-1.206-4.473-5.1-5.208-9.8q-.008-.052-.02-.1l-1.86-7.959a.753.753,0,0,1,.088-.645.823.823,0,0,1,.594-.254c.137-.013.193-.029.32-.037a1.537,1.537,0,0,1,.918.171,1.189,1.189,0,0,1,.534.744l1.6,6.865a1.406,1.406,0,0,0,1.195,1.075l.113.014a1.406,1.406,0,0,0,1.581-1.4V11.512a1.2,1.2,0,1,1,2.394,0V24.7a1.406,1.406,0,1,0,2.813,0V21.115a1.2,1.2,0,0,1,2.394,0v3.744a1.406,1.406,0,1,0,2.813,0V22.23a1.2,1.2,0,1,1,2.394,0v3.611a1.406,1.406,0,0,0,2.813,0V23.556a1.2,1.2,0,0,1,2.394,0l0,9.5A23.172,23.172,0,0,1,83,45.188H68.544Zm-4.15-32.826V3.674a.863.863,0,0,1,.862-.862h8.687a.863.863,0,0,1,.862.862v8.687a.863.863,0,0,1-.862.862H73.61V11.512a4.01,4.01,0,0,0-8.019,0v1.712h-.334A.863.863,0,0,1,64.395,12.362Z" transform="translate(0)" stroke="#fff" stroke-width="0.6"/>
  </g>
</svg>
