<svg xmlns="http://www.w3.org/2000/svg" xmlns:xlink="http://www.w3.org/1999/xlink" width="85" height="85" viewBox="0 0 85 85">
  <defs>
    <linearGradient id="linear-gradient" x1="0.305" y1="0.5" x2="0.815" y2="0.5" gradientUnits="objectBoundingBox">
      <stop offset="0" stop-color="#562b7c"/>
      <stop offset="1" stop-color="#d12b8a"/>
    </linearGradient>
  </defs>
  <g id="Group_4315" data-name="Group 4315" transform="translate(-247 -969)">
    <circle id="Ellipse_1094" data-name="Ellipse 1094" cx="42.5" cy="42.5" r="42.5" transform="translate(247 969)" fill="#fcf3f8"/>
    <g id="man" transform="translate(191.552 990.999)">
      <g id="Group_4314" data-name="Group 4314" transform="translate(83.447)">
        <path id="Path_2257" data-name="Path 2257" d="M111.141,34.03a.615.615,0,0,0-.615.615V40.43a.34.34,0,0,1-.34.34h-3.307V28.654a.615.615,0,0,0-1.23,0V40.769h-6.66l1.931-2.125a1.1,1.1,0,0,0,.266-.885l0-.019L99.344,26.875l.5-.746a1.4,1.4,0,0,0,.881.382,1.077,1.077,0,0,0,.964-.6h0l1.94-3.888,4.42,1.712a4.263,4.263,0,0,1,2.482,3.875v4.161a.615.615,0,1,0,1.23,0V27.613a5.491,5.491,0,0,0-3.247-5.014l-.012,0-7.356-2.849V18.02a5.765,5.765,0,0,0,2.182-3.792,2.663,2.663,0,0,0,1.564-.638,2.612,2.612,0,0,0,.272-3.686V7.625a7.625,7.625,0,1,0-15.25,0V9.964a2.47,2.47,0,0,0-.634,1.647,2.607,2.607,0,0,0,.907,1.979,2.662,2.662,0,0,0,1.564.638,5.7,5.7,0,0,0,2.306,3.883v1.634l-7.348,2.849-.012,0a5.491,5.491,0,0,0-3.247,5.014V40.43A1.572,1.572,0,0,0,85.017,42h5.862a.615.615,0,1,0,0-1.23H89.555V28.654a.615.615,0,1,0-1.23,0V40.769H85.017a.34.34,0,0,1-.34-.34V27.613a4.263,4.263,0,0,1,2.481-3.875l4.416-1.712,1.94,3.888a1.077,1.077,0,0,0,.964.6,1.394,1.394,0,0,0,.881-.382l.5.746L94.016,37.741l0,.019a1.1,1.1,0,0,0,.266.885l1.931,2.125H93.75a.615.615,0,0,0,0,1.23h16.436a1.572,1.572,0,0,0,1.57-1.57V34.645A.616.616,0,0,0,111.141,34.03Zm-8.669-12.45L100.664,25.2,98.488,23.66l2.234-2.758Zm-3.637,3.836-.469.706H96.832l-.469-.706,1.236-.878Zm-3.552-5.472V18.792a6.242,6.242,0,0,0,2.326.441,5.776,5.776,0,0,0,2.3-.48v1.195L97.6,22.8Zm9.281-8.333a1.378,1.378,0,0,1-.479,1.046,1.433,1.433,0,0,1-.71.327V10.238A1.392,1.392,0,0,1,104.565,11.611ZM91.7,12.984a1.39,1.39,0,0,1-1.189-1.373A1.461,1.461,0,0,1,91.7,10.269Zm.033-3.969a3.042,3.042,0,0,0-.588.132V7.625a6.394,6.394,0,1,1,12.789,0v1.48A2.735,2.735,0,0,0,103.375,9c0-.594.005-.479-1.937-2.567a1.1,1.1,0,0,0-1.4-.17,11.862,11.862,0,0,1-7.171,1.93A1.094,1.094,0,0,0,91.729,9.015Zm1.2,4.453V9.428a13.148,13.148,0,0,0,7.69-2.074c.891.956,1.373,1.458,1.529,1.649v4.466a4.61,4.61,0,0,1-9.218,0ZM94.536,25.2,92.727,21.58l1.747-.677,2.235,2.758Zm.706,12.669,1.781-10.522h1.154l1.781,10.522L97.6,40.468Z" transform="translate(-83.447 0)" fill="url(#linear-gradient)"/>
      </g>
    </g>
  </g>
</svg>
