<svg xmlns="http://www.w3.org/2000/svg" xmlns:xlink="http://www.w3.org/1999/xlink" width="108" height="129" viewBox="0 0 108 129">
  <defs>
    <filter id="Rectangle_2881" x="0" y="0" width="108" height="129" filterUnits="userSpaceOnUse">
      <feOffset dy="3" input="SourceAlpha"/>
      <feGaussianBlur stdDeviation="3" result="blur"/>
      <feFlood flood-opacity="0.161"/>
      <feComposite operator="in" in2="blur"/>
      <feComposite in="SourceGraphic"/>
    </filter>
  </defs>
  <g id="Group_2695" data-name="Group 2695" transform="translate(-1824.486 -450)">
    <g transform="matrix(1, 0, 0, 1, 1824.49, 450)" filter="url(#Rectangle_2881)">
      <path id="Rectangle_2881-2" data-name="Rectangle 2881" d="M5,0H90a0,0,0,0,1,0,0V111a0,0,0,0,1,0,0H5a5,5,0,0,1-5-5V5A5,5,0,0,1,5,0Z" transform="translate(9 6)" fill="#23b7c0"/>
    </g>
    <text id="Customize_your_plan" data-name="Customize
your plan" transform="translate(1879.486 532)" fill="#fff" font-size="14" font-family="NunitoSans-Bold, Nunito Sans" font-weight="700" letter-spacing="0.05em"><tspan x="-36.582" y="0">Customize</tspan><tspan x="-37.968" y="18">your PLAN</tspan></text>
    <g id="Page-1" transform="translate(1868.171 468.861)">
      <g id="_029---Image-Filters" data-name="029---Image-Filters">
        <path id="Shape" d="M20.865,22.4V10.912a.773.773,0,1,0-1.546,0V22.4a3.077,3.077,0,0,0,0,5.964v4.078a.773.773,0,1,0,1.546,0V28.369a3.077,3.077,0,0,0,0-5.964Zm-.773,4.528a1.546,1.546,0,1,1,1.546-1.546A1.546,1.546,0,0,1,20.092,26.932Z" transform="translate(-17.001 -10.139)" fill="#fff"/>
        <path id="Shape-2" data-name="Shape" d="M38.865,22.513v-11.4a.773.773,0,1,0-1.546,0v11.4a3.077,3.077,0,0,0,0,5.964v4.016a.773.773,0,1,0,1.546,0V28.477a3.077,3.077,0,0,0,0-5.964Zm-.773,4.528A1.546,1.546,0,1,1,39.638,25.5,1.546,1.546,0,0,1,38.092,27.041Z" transform="translate(-18.452 -10.185)" fill="#fff"/>
        <path id="Shape-3" data-name="Shape" d="M29.836,15.01l.023-4.059a.773.773,0,1,0-1.546,0L28.29,15.01a3.077,3.077,0,0,0,0,5.964l.023,11.482a.773.773,0,0,0,1.546,0l-.023-11.482a3.077,3.077,0,0,0,0-5.964Zm-.773,4.528a1.546,1.546,0,1,1,1.546-1.546A1.546,1.546,0,0,1,29.063,19.538Z" transform="translate(-17.72 -10.148)" fill="#fff"/>
      </g>
    </g>
    <path id="Group_2630" data-name="Group 2630" d="M306.241,424.653l-5.36,2.533a4.368,4.368,0,0,0-3.722-2.3l-4.945-.136a5.22,5.22,0,0,1-2.249-.581l-.5-.261a8.881,8.881,0,0,0-8.227.008l.031-1.14a.684.684,0,0,0-.664-.7h0l-5.424-.149a.683.683,0,0,0-.7.665h0l-.335,11.908a.683.683,0,0,0,.664.7h0l5.424.149h.018a.684.684,0,0,0,.684-.666l.016-.57,1.41-.754a2.422,2.422,0,0,1,1.805-.2l8.419,2.363.045.011a8.985,8.985,0,0,0,1.851.19,9.122,9.122,0,0,0,3.814-.833.7.7,0,0,0,.085-.047l12.2-7.9a.685.685,0,0,0,.224-.911A3.456,3.456,0,0,0,306.241,424.653Zm-30.716,9.2.289-10.537,4.058.112-.29,10.541Zm22.149-.18a7.761,7.761,0,0,1-4.744.53l-8.4-2.353a3.78,3.78,0,0,0-2.821.308l-.718.386.193-7.011a7.523,7.523,0,0,1,7.642-.408l.5.261a6.607,6.607,0,0,0,2.841.734l4.949.137a3,3,0,0,1,2.853,2.39l-7.371-.2a.684.684,0,0,0-.7.665h0a.685.685,0,0,0,.666.7l8.135.224h.019a.683.683,0,0,0,.683-.666,4.336,4.336,0,0,0-.066-.887l5.5-2.6.016-.008a2.091,2.091,0,0,1,2.365.331Z" transform="translate(1587.151 74.059)" fill="#fff"/>
  </g>
</svg>
