<svg xmlns="http://www.w3.org/2000/svg" width="82" height="82" viewBox="0 0 82 82">
  <g id="Group_3986" data-name="Group 3986" transform="translate(-246 -1484)">
    <circle id="Ellipse_924" data-name="Ellipse 924" cx="41" cy="41" r="41" transform="translate(246 1484)" fill="#d12b8a" opacity="0.1"/>
    <g id="Group_3985" data-name="Group 3985">
      <g id="Ellipse_925" data-name="Ellipse 925" transform="translate(251 1489)" fill="#fff" stroke="#f2f2f2" stroke-width="1">
        <circle cx="36" cy="36" r="36" stroke="none"/>
        <circle cx="36" cy="36" r="35.5" fill="none"/>
      </g>
      <g id="Group_2773" data-name="Group 2773">
        <g id="transfer_1_" data-name="transfer (1)" transform="translate(270.938 1549.167) rotate(-90)">
          <g id="Group_2699" data-name="Group 2699" transform="translate(8.144 0)">
            <path id="Path_1659" data-name="Path 1659" d="M39.72,282.81a.818.818,0,0,0-.819-.819H11.027l4.9-4.9a.814.814,0,0,0-1.152-1.152l-6.291,6.291a.812.812,0,0,0,0,1.152l6.291,6.291a.817.817,0,1,0,1.158-1.152l-4.9-4.9H38.914A.81.81,0,0,0,39.72,282.81Z" transform="translate(-8.237 -257.637)"/>
            <path id="Path_1660" data-name="Path 1660" d="M39.387,6.524,33.1.24a.814.814,0,1,0-1.152,1.152l4.9,4.9H8.963a.819.819,0,0,0,0,1.638H36.844l-4.9,4.886A.817.817,0,0,0,33.1,13.967l6.291-6.291A.818.818,0,0,0,39.387,6.524Z" transform="translate(-8.144 0.063)" fill="#d12b8a"/>
          </g>
        </g>
        <circle id="Ellipse_942" data-name="Ellipse 942" cx="1.5" cy="1.5" r="1.5" transform="translate(295 1504)"/>
        <circle id="Ellipse_943" data-name="Ellipse 943" cx="1.5" cy="1.5" r="1.5" transform="translate(277 1543)" fill="#d12b8a"/>
      </g>
    </g>
  </g>
</svg>
