<svg xmlns="http://www.w3.org/2000/svg" xmlns:xlink="http://www.w3.org/1999/xlink" width="85" height="85" viewBox="0 0 85 85">
  <defs>
    <linearGradient id="linear-gradient" x1="0.187" y1="0.56" x2="1" y2="0.786" gradientUnits="objectBoundingBox">
      <stop offset="0" stop-color="#d12b8a"/>
      <stop offset="1" stop-color="#562b7c"/>
    </linearGradient>
  </defs>
  <g id="Group_4322" data-name="Group 4322" transform="translate(-247 -964)">
    <circle id="Ellipse_672" data-name="Ellipse 672" cx="42.5" cy="42.5" r="42.5" transform="translate(247 964)" fill="#fff"/>
    <path id="Location" d="M358.36,162.945H345.65a1.906,1.906,0,0,0-1.906,1.906h0v12.71a1.906,1.906,0,0,0,1.906,1.906h12.71a1.906,1.906,0,0,0,1.906-1.906h0v-12.71a1.906,1.906,0,0,0-1.906-1.906Zm-5.083,1.271v5.8l-.919-.612a.636.636,0,0,0-.705,0l-.919.612v-5.8ZM359,177.561a.636.636,0,0,1-.635.635H345.65a.635.635,0,0,1-.635-.635h0v-12.71a.635.635,0,0,1,.635-.635h3.813v6.994a.636.636,0,0,0,.989.528L352,170.7l1.554,1.036a.635.635,0,0,0,.991-.53v-6.994h3.813a.635.635,0,0,1,.635.635h0Zm-29.864,23.513a.637.637,0,0,1-.479-.218c-.27-.305-6.515-7.515-6.515-11.216a6.994,6.994,0,0,1,13.98,0c0,3.708-6.245,10.915-6.512,11.221A.638.638,0,0,1,329.132,201.074Zm0-17.158a5.73,5.73,0,0,0-5.724,5.724c0,2.462,3.766,7.483,5.719,9.823,1.953-2.341,5.719-7.362,5.719-9.823A5.731,5.731,0,0,0,329.132,183.916Zm0,8.9a3.178,3.178,0,1,1,3.178-3.178,3.177,3.177,0,0,1-3.178,3.178Zm0-5.084a1.906,1.906,0,1,0,1.906,1.906,1.906,1.906,0,0,0-1.906-1.906Zm27.961,13.345H332.306a.635.635,0,0,1,0-1.271H357.09a1.907,1.907,0,0,0,0-3.813H341.2a3.178,3.178,0,0,1,0-6.355h9.533a1.907,1.907,0,0,0,0-3.813H341.2a3.181,3.181,0,0,1-3.178-3.178V180.1a1.906,1.906,0,0,0-1.906-1.906h-9.532a4.449,4.449,0,0,1,0-8.9h15.253a.635.635,0,1,1,0,1.271H326.587a3.178,3.178,0,0,0,0,6.355h9.532A3.181,3.181,0,0,1,339.3,180.1v2.542a1.906,1.906,0,0,0,1.9,1.908h9.534a3.178,3.178,0,0,1,0,6.355H341.2a1.907,1.907,0,1,0,0,3.813H357.09a3.178,3.178,0,0,1,0,6.355Z" transform="translate(-52.027 824.613)" fill="url(#linear-gradient)"/>
  </g>
</svg>
