<svg xmlns="http://www.w3.org/2000/svg" width="37.5" height="50" viewBox="0 0 37.5 50">
  <g id="Group_3242" data-name="Group 3242" transform="translate(-1069 -3427)">
    <g id="sim" transform="translate(1005 3427)">
      <g id="Group_3241" data-name="Group 3241" transform="translate(64)">
        <g id="Group_3240" data-name="Group 3240" transform="translate(0)">
          <path id="Path_1877" data-name="Path 1877" d="M101.195,10.722,90.774.305A1.041,1.041,0,0,0,90.038,0H68.167A4.171,4.171,0,0,0,64,4.167V45.833A4.171,4.171,0,0,0,68.167,50H97.333a4.171,4.171,0,0,0,4.167-4.167V11.458A1.041,1.041,0,0,0,101.195,10.722ZM99.417,45.833a2.086,2.086,0,0,1-2.083,2.083H68.167a2.086,2.086,0,0,1-2.083-2.083V4.167a2.086,2.086,0,0,1,2.083-2.083h21.44l9.81,9.806Z" transform="translate(-64)"/>
        </g>
      </g>
    </g>
    <path id="Path_1879" data-name="Path 1879" d="M4.394,0C5.122,0,6.11-.156,6.11-1.248,6.11-2.314,5.226-2.5,4.394-2.5H-.962a2.1,2.1,0,0,1-1.664-.468L-3.25-3.64a1.221,1.221,0,0,1-.364-.728V-5.2H4.394c1.482,0,1.716-.416,1.716-1.846v-2a3.536,3.536,0,0,0-1.3-3.25L3.8-13.1a3.569,3.569,0,0,0-2.756-.91H-1.248A3.356,3.356,0,0,0-4-12.974l-.884.754A3.29,3.29,0,0,0-6.11-9.23v4.81A3.1,3.1,0,0,0-4.836-1.612l1.066.936A2.653,2.653,0,0,0-1.534,0ZM-3.614-9.464a1.136,1.136,0,0,1,.52-1.144l.858-.624a2.011,2.011,0,0,1,1.274-.286H1.144a1.774,1.774,0,0,1,1.2.312l.962.832c.338.312.312.7.312,1.17V-7.7H-3.614Z" transform="translate(1088.11 3461)" fill="#d12b8a"/>
  </g>
</svg>
