<svg xmlns="http://www.w3.org/2000/svg" width="64.512" height="42" viewBox="0 0 64.512 42">
  <g id="email_4_" data-name="email (4)" transform="translate(0 -0.18)">
    <path id="Path_2530" data-name="Path 2530" d="M61.189,14.793h-.245V11.04a10.86,10.86,0,1,0-21.721,0v3.753h-.245a3.329,3.329,0,0,0-3.325,3.325v2.431l-7.9,6.7a3.9,3.9,0,0,1-5.056,0L1.974,9.7l-.419-.355a.944.944,0,0,0-1.5.414h0a.9.9,0,0,0-.04.44.93.93,0,0,0,.322.587L1.889,12.1,21.479,28.69a5.78,5.78,0,0,0,7.5,0l7.01-5.944a3.327,3.327,0,0,0,2.99,1.872h2.777a.944.944,0,0,0,.944-.944V15.737a.945.945,0,0,0-.944-.944h-.643V11.04a8.972,8.972,0,1,1,17.945,0v3.753h-.642a.945.945,0,0,0-.944.944V23.67a.944.944,0,0,0,.944.944h.642v1.117a1.927,1.927,0,0,1-1.926,1.926H54.393a2.543,2.543,0,0,0-2.422-1.775h-2.5a2.545,2.545,0,0,0-2.542,2.542v.355a2.541,2.541,0,0,0,2.542,2.541h2.5a2.545,2.545,0,0,0,2.422-1.775h2.736a3.818,3.818,0,0,0,3.814-3.814V24.614h.245a3.327,3.327,0,0,0,3.324-3.324V18.118A3.329,3.329,0,0,0,61.189,14.793ZM40.81,22.726H38.977a1.438,1.438,0,0,1-1.437-1.436V18.118a1.439,1.439,0,0,1,1.437-1.437H40.81Zm11.814,6.052a.653.653,0,0,1-.653.653h-2.5a.655.655,0,0,1-.654-.653v-.355a.655.655,0,0,1,.654-.654h2.5a.654.654,0,0,1,.653.654Zm10-7.488a1.438,1.438,0,0,1-1.436,1.436H59.357V16.681H61.19a1.438,1.438,0,0,1,1.436,1.436Zm0,0" transform="translate(-0.001)" fill="#d12b8a"/>
    <path id="Path_2531" data-name="Path 2531" d="M50.438,57.284v4.522a6.31,6.31,0,0,1-1.466,4.048.933.933,0,0,1-.175.238.855.855,0,0,1-.141.113A6.314,6.314,0,0,1,44.1,68.144H6.338A6.319,6.319,0,0,1,1.776,66.2a.9.9,0,0,1-.138-.111.965.965,0,0,1-.176-.238A6.316,6.316,0,0,1,0,61.805V36.53c0-.123,0-.244.011-.366.008-.147.022-.294.04-.44h0a6.345,6.345,0,0,1,6.287-5.532H41.632A10.778,10.778,0,0,0,40.4,32.079H6.338a4.45,4.45,0,0,0-4.45,4.45V61.805a4.42,4.42,0,0,0,.541,2.126L13.707,52.4a.944.944,0,1,1,1.35,1.319L3.668,65.365a4.431,4.431,0,0,0,2.67.891H44.1a4.432,4.432,0,0,0,2.665-.887L35.312,53.718a.945.945,0,1,1,1.348-1.324L48.006,63.938a4.43,4.43,0,0,0,.545-2.133V57.111a2.534,2.534,0,0,0,.922.173Zm0,0" transform="translate(0 -25.964)"/>
  </g>
</svg>
