<svg xmlns="http://www.w3.org/2000/svg" width="63.263" height="63.261" viewBox="0 0 63.263 63.261">
  <g id="Group_3" data-name="Group 3" transform="translate(-1197.598 -324.636)">
    <g id="confirmation" transform="translate(1197.999 325.004)">
      <g id="Group_2" data-name="Group 2">
        <g id="Group_1" data-name="Group 1">
          <path id="Path_1" data-name="Path 1" d="M59.9,28.65a2.6,2.6,0,0,0-2.6,2.6A26.043,26.043,0,1,1,49.737,12.9a2.606,2.606,0,0,0,3.7-3.67,31.254,31.254,0,1,0,9.075,22.021,2.6,2.6,0,0,0-2.612-2.6Z" fill="red" stroke="#fff" stroke-width="0.7"/>
        </g>
      </g>
    </g>
    <g id="Antu_mail-meeting-request-reply" transform="translate(1228 348)">
      <path id="Path_3" data-name="Path 3" d="M598.491-865.8a1.549,1.549,0,0,0-1.1-.426,1.546,1.546,0,0,0-1.1.426,1.364,1.364,0,0,0-.454,1.033,1.369,1.369,0,0,0,.454,1.033,1.549,1.549,0,0,0,1.1.426,1.546,1.546,0,0,0,1.1-.426,1.365,1.365,0,0,0,.454-1.033A1.369,1.369,0,0,0,598.491-865.8Z" transform="translate(-595.839 879.498)" fill="red" stroke="red" stroke-width="0.813"/>
      <rect id="Rectangle_1" data-name="Rectangle 1" width="2.222" height="10.351" rx="1.015" transform="translate(0.447)" stroke-width="0.812" stroke="red" stroke-linecap="round" stroke-linejoin="round" fill="red"/>
    </g>
  </g>
</svg>
