<svg xmlns="http://www.w3.org/2000/svg" width="82" height="82" viewBox="0 0 82 82">
  <g id="Group_3988" data-name="Group 3988" transform="translate(-246 -3111)">
    <g id="Group_3987" data-name="Group 3987">
      <circle id="Ellipse_917" data-name="Ellipse 917" cx="41" cy="41" r="41" transform="translate(246 3111)" fill="#d12b8a" opacity="0.1"/>
      <g id="Ellipse_916" data-name="Ellipse 916" transform="translate(251 3116)" fill="#fff" stroke="#f2f2f2" stroke-width="1">
        <circle cx="36" cy="36" r="36" stroke="none"/>
        <circle cx="36" cy="36" r="35.5" fill="none"/>
      </g>
    </g>
    <g id="smartphone_1_" data-name="smartphone (1)" transform="translate(266.355 3142.216)">
      <path id="Path_187" data-name="Path 187" d="M28.03,0H15.237A2.24,2.24,0,0,0,13,2.237v26a2.24,2.24,0,0,0,2.237,2.238H28.03a2.24,2.24,0,0,0,2.238-2.237v-26A2.24,2.24,0,0,0,28.03,0ZM14.016,4.063H29.252v19.3H14.016Zm1.221-3.047H28.03a1.223,1.223,0,0,1,1.222,1.221v.81H14.016v-.81A1.223,1.223,0,0,1,15.237,1.016ZM28.03,29.456H15.237a1.223,1.223,0,0,1-1.221-1.221V24.378H29.252v3.857A1.223,1.223,0,0,1,28.03,29.456Z" transform="translate(-13)" stroke="#000" stroke-width="0.3"/>
      <path id="Path_188" data-name="Path 188" d="M28.031,49a2.031,2.031,0,1,0,2.031,2.031A2.034,2.034,0,0,0,28.031,49Zm0,3.047a1.016,1.016,0,1,1,1.016-1.016A1.017,1.017,0,0,1,28.031,52.047Z" transform="translate(-19.398 -24.114)" stroke="#000" stroke-width="0.3"/>
      <path id="Path_189" data-name="Path 189" d="M25.508,4.016h2.031a.508.508,0,0,0,0-1.016H25.508a.508.508,0,0,0,0,1.016Z" transform="translate(-18.906 -1.476)" stroke="#000" stroke-width="0.3"/>
      <path id="Path_190" data-name="Path 190" d="M32.508,4.016h.508a.508.508,0,0,0,0-1.016h-.508a.508.508,0,0,0,0,1.016Z" transform="translate(-22.351 -1.476)" stroke="#000" stroke-width="0.3"/>
    </g>
    <g id="play-button_1_" data-name="play-button (1)" transform="translate(283.78 3124.635)">
      <path id="Path_191" data-name="Path 191" d="M18.173,5.216A9.7,9.7,0,0,0,15.333,1.88a.392.392,0,0,0-.466.63,8.918,8.918,0,0,1,2.61,3.066,8.739,8.739,0,0,1,.977,4.044A8.836,8.836,0,1,1,9.619.783a.391.391,0,0,0,0-.783,9.613,9.613,0,1,0,8.554,5.216Z" stroke="#000" stroke-width="0.6"/>
      <path id="Path_192" data-name="Path 192" d="M106.862,78.236a.392.392,0,0,0-.2.34v8.592a.391.391,0,0,0,.783,0v-7.9l5.8,3.451-4.262,2.746a.391.391,0,1,0,.424.658l4.793-3.088a.392.392,0,0,0-.012-.666l-6.931-4.126A.391.391,0,0,0,106.862,78.236Z" transform="translate(-99.704 -73.083)" stroke="#000" stroke-width="0.6"/>
    </g>
    <g id="message" transform="translate(288 3150)">
      <g id="Group_1189" data-name="Group 1189" transform="translate(6.197 0)">
        <g id="Group_1188" data-name="Group 1188" transform="translate(0 0)">
          <path id="Path_193" data-name="Path 193" d="M142.389,100.35l-2.948-7.969a1.156,1.156,0,0,0-1.485-.683L123.58,97.016A1.156,1.156,0,0,0,122.9,98.5l2.948,7.969a1.154,1.154,0,0,0,1.485.683l14.375-5.318h0A1.157,1.157,0,0,0,142.389,100.35Zm-5.223-7.127L132.706,99.6l-7.534-1.938Zm-10.445,12.283-2.557-6.912,5.922,1.523Zm1.252.177,3.287-5.264,1.546.4a.588.588,0,0,0,.144.019.579.579,0,0,0,.474-.247l.915-1.309,5.922,1.858Zm7.061-7.4,3.5-5.011,2.558,6.913Z" transform="translate(-122.825 -91.625)" fill="#d12b8a"/>
        </g>
      </g>
      <g id="Group_1191" data-name="Group 1191" transform="translate(3.435 14.625)">
        <g id="Group_1190" data-name="Group 1190" transform="translate(0 0)">
          <path id="Path_194" data-name="Path 194" d="M71.378,381.872a.578.578,0,0,0-.742-.341l-2.178.806a.578.578,0,1,0,.4,1.084l2.178-.806A.578.578,0,0,0,71.378,381.872Z" transform="translate(-68.081 -381.494)" fill="#d12b8a"/>
        </g>
      </g>
      <g id="Group_1193" data-name="Group 1193" transform="translate(1.321 9.26)">
        <g id="Group_1192" data-name="Group 1192" transform="translate(0 0)">
          <path id="Path_195" data-name="Path 195" d="M28.646,275.542a.578.578,0,0,0-.742-.341l-1.344.5a.578.578,0,1,0,.4,1.084l1.344-.5A.578.578,0,0,0,28.646,275.542Z" transform="translate(-26.182 -275.164)" fill="#d12b8a"/>
        </g>
      </g>
      <g id="Group_1195" data-name="Group 1195" transform="translate(0 13.638)">
        <g id="Group_1194" data-name="Group 1194" transform="translate(0 0)">
          <path id="Path_196" data-name="Path 196" d="M2.118,362.3a.578.578,0,0,0-.742-.341l-1,.37a.578.578,0,1,0,.4,1.084l1-.37A.578.578,0,0,0,2.118,362.3Z" transform="translate(0 -361.926)" fill="#d12b8a"/>
        </g>
      </g>
    </g>
  </g>
</svg>
