<svg xmlns="http://www.w3.org/2000/svg" width="32" height="32.001" viewBox="0 0 32 32.001">
  <path id="flag" d="M26.757,16,31.8,9.554a.938.938,0,0,0-.738-1.515H21V5.512a.937.937,0,0,0-.938-.937H6.156A3.224,3.224,0,1,0,2.289,6.31V30.126H1.055a.937.937,0,1,0,0,1.875H5.4a.937.937,0,1,0,0-1.875H4.164V20.5H19.129v2.527a.938.938,0,0,0,.938.938h11a.938.938,0,0,0,.738-1.515ZM1.879,3.226a1.339,1.339,0,0,1,.394-.954h0a1.349,1.349,0,1,1-.394.954Zm2.285,15.4V6.449H19.129V18.627ZM21,22.091V9.913h8.137l-4.313,5.511a.937.937,0,0,0,0,1.156l4.313,5.511H21Z" transform="translate(-0.005 0)" fill="#fff"/>
</svg>
