<svg xmlns="http://www.w3.org/2000/svg" width="16.5" height="16.5" viewBox="0 0 16.5 16.5">
  <path id="internet" d="M13.983,13.3a7.979,7.979,0,0,0-.154-10.774h0l0,0A7.977,7.977,0,0,0,8.277.007h0L8.121,0,8,0,7.879,0l-.155,0h0A7.977,7.977,0,0,0,2.176,2.525l0,0h0A7.978,7.978,0,0,0,2.017,13.3s0,.005,0,.008.012.01.017.017a7.982,7.982,0,0,0,5.685,2.666h0l.155,0L8,16l.121,0,.155,0h0a7.981,7.981,0,0,0,5.69-2.672s.009-.006.013-.011S13.981,13.305,13.983,13.3ZM.559,8.276H3.87a10.2,10.2,0,0,0,.666,3.37A10.172,10.172,0,0,0,2.3,12.786,7.414,7.414,0,0,1,.559,8.276Zm1.89-5.235A10.147,10.147,0,0,0,4.628,4.112,10.187,10.187,0,0,0,3.87,7.724H.559A7.416,7.416,0,0,1,2.449,3.041ZM15.441,7.724H12.13a10.187,10.187,0,0,0-.759-3.612,10.147,10.147,0,0,0,2.179-1.071A7.416,7.416,0,0,1,15.441,7.724Zm-7.717-3.6a9.644,9.644,0,0,1-2.337-.354A9.652,9.652,0,0,1,7.724.729Zm0,.552V7.724h-3.3a9.635,9.635,0,0,1,.735-3.441A10.193,10.193,0,0,0,7.724,4.679Zm.552,0a10.184,10.184,0,0,0,2.567-.4,9.635,9.635,0,0,1,.735,3.441h-3.3Zm0-.552V.729a9.652,9.652,0,0,1,2.337,3.044A9.644,9.644,0,0,1,8.276,4.128Zm2.871-.522A10.188,10.188,0,0,0,8.971.617,7.427,7.427,0,0,1,13.16,2.636,9.6,9.6,0,0,1,11.147,3.606Zm-6.295,0a9.586,9.586,0,0,1-2.012-.97A7.426,7.426,0,0,1,7.029.617,10.183,10.183,0,0,0,4.853,3.606Zm-.431,4.67h3.3v2.769a10.175,10.175,0,0,0-2.665.425A9.634,9.634,0,0,1,4.422,8.276Zm3.3,3.321v3.674a9.647,9.647,0,0,1-2.451-3.287A9.619,9.619,0,0,1,7.724,11.6Zm.552,3.674V11.6a9.618,9.618,0,0,1,2.451.386A9.645,9.645,0,0,1,8.276,15.271Zm0-4.226V8.276h3.3a9.631,9.631,0,0,1-.638,3.194A10.16,10.16,0,0,0,8.276,11.045ZM12.13,8.276h3.311a7.412,7.412,0,0,1-1.74,4.51,10.172,10.172,0,0,0-2.238-1.14A10.188,10.188,0,0,0,12.13,8.276ZM2.673,13.2a9.614,9.614,0,0,1,2.074-1.043,10.179,10.179,0,0,0,2.282,3.227A7.432,7.432,0,0,1,2.673,13.2Zm6.3,2.184a10.173,10.173,0,0,0,2.282-3.227A9.62,9.62,0,0,1,13.327,13.2,7.432,7.432,0,0,1,8.971,15.383Z" transform="translate(0.25 0.25)" fill="#d12b8a" stroke="#d12b8a" stroke-width="0.5"/>
</svg>
