<svg xmlns="http://www.w3.org/2000/svg" xmlns:xlink="http://www.w3.org/1999/xlink" width="68.927" height="60" viewBox="0 0 68.927 60">
  <defs>
    <linearGradient id="linear-gradient" x1="0.5" x2="0.5" y2="1" gradientUnits="objectBoundingBox">
      <stop offset="0" stop-color="#23b7c0"/>
      <stop offset="1" stop-color="#70489d"/>
    </linearGradient>
  </defs>
  <g id="Group_5286" data-name="Group 5286" transform="translate(-761.943 -2544.005)">
    <g id="worldwide_1_" data-name="worldwide (1)" transform="translate(761.943 2558.87)">
      <path id="Path_197" data-name="Path 197" d="M22.577.047h-.009a22.567,22.567,0,1,0,0,45.135h.009a22.567,22.567,0,1,0,0-45.135ZM41.944,14.34H31.961a29.4,29.4,0,0,0-2.42-6.018H38.03A21.132,21.132,0,0,1,41.944,14.34ZM22.57,1.8a26.187,26.187,0,0,1,4.315,5.02H18.26A26.161,26.161,0,0,1,22.57,1.8Zm-6.112,5.02H8.667A20.975,20.975,0,0,1,20.535,1.652,28.074,28.074,0,0,0,16.458,6.817Zm8.15-5.166A20.975,20.975,0,0,1,36.486,6.817h-7.8A28.069,28.069,0,0,0,24.607,1.651Zm3.209,6.671a27.928,27.928,0,0,1,2.6,6.018H14.74a27.84,27.84,0,0,1,2.589-6.018Zm-20.693,0h8.482a29.359,29.359,0,0,0-2.414,6.018H3.209A21.126,21.126,0,0,1,7.123,8.322ZM2.636,15.844H42.517a20.981,20.981,0,0,1,0,13.54H2.636A20.981,20.981,0,0,1,2.636,15.844ZM22.57,43.432a26.156,26.156,0,0,1-4.31-5.021h8.624a26.178,26.178,0,0,1-4.315,5.021Zm6.118-5.021h7.8A20.977,20.977,0,0,1,24.6,43.578,28.079,28.079,0,0,0,28.688,38.411Zm-8.152,5.165A20.975,20.975,0,0,1,8.667,38.411h7.791A28.076,28.076,0,0,0,20.535,43.576Zm-3.207-6.67a27.832,27.832,0,0,1-2.589-6.018H30.413a27.928,27.928,0,0,1-2.6,6.018ZM3.209,30.889h9.982a29.359,29.359,0,0,0,2.414,6.018H7.123A21.121,21.121,0,0,1,3.209,30.889ZM38.03,36.907H29.541a29.383,29.383,0,0,0,2.42-6.018h9.983A21.127,21.127,0,0,1,38.03,36.907Zm0,0" transform="translate(0 -0.047)" fill="url(#linear-gradient)"/>
      <path id="Path_198" data-name="Path 198" d="M42.575,198.616a.752.752,0,0,0,.716.554h.01a.752.752,0,0,0,.721-.536l1.536-5.121,1.536,5.121a.752.752,0,0,0,.721.536h.01a.752.752,0,0,0,.716-.554l2.257-8.275-1.452-.4-1.565,5.74-1.5-5.005a.752.752,0,0,0-1.441,0l-1.5,5.005-1.565-5.74-1.452.4Zm0,0" transform="translate(-36.522 -172.089)" fill="url(#linear-gradient)"/>
      <path id="Path_199" data-name="Path 199" d="M187.291,199.17h.01a.752.752,0,0,0,.721-.536l1.536-5.121,1.536,5.121a.752.752,0,0,0,.721.536h.01a.752.752,0,0,0,.716-.554l2.257-8.275-1.452-.4-1.565,5.74-1.5-5.005a.752.752,0,0,0-1.441,0l-1.5,5.005-1.565-5.74-1.452.4,2.257,8.275A.752.752,0,0,0,187.291,199.17Zm0,0" transform="translate(-166.981 -172.089)" fill="url(#linear-gradient)"/>
      <path id="Path_200" data-name="Path 200" d="M331.291,199.17h.01a.752.752,0,0,0,.721-.536l1.536-5.121,1.536,5.121a.752.752,0,0,0,.721.536h.01a.752.752,0,0,0,.716-.554l2.257-8.275-1.452-.4-1.565,5.74-1.5-5.005a.752.752,0,0,0-1.441,0l-1.5,5.005-1.565-5.74-1.452.4,2.257,8.275A.752.752,0,0,0,331.291,199.17Zm0,0" transform="translate(-297.441 -172.089)" fill="url(#linear-gradient)"/>
    </g>
    <g id="speech-bubble_1_" data-name="speech-bubble (1)" transform="translate(802.572 2544.005)">
      <g id="Group_1196" data-name="Group 1196" transform="translate(0 0)">
        <path id="Path_201" data-name="Path 201" d="M21.4,48.694V38.95a2.454,2.454,0,0,0-2.45-2.45H2.45A2.454,2.454,0,0,0,0,38.95v9.745a2.454,2.454,0,0,0,2.45,2.45h.7v2.937a.982.982,0,0,0,.986.981h0a.99.99,0,0,0,.742-.341l3.095-3.582h10.98A2.445,2.445,0,0,0,21.4,48.694ZM7.663,49.816a.667.667,0,0,0-.5.228L4.471,53.149V50.477a.666.666,0,0,0-.667-.667H2.45a1.124,1.124,0,0,1-1.122-1.122V38.95A1.124,1.124,0,0,1,2.45,37.828h16.5a1.124,1.124,0,0,1,1.122,1.122v9.745a1.124,1.124,0,0,1-1.122,1.122Z" transform="translate(0 -36.5)" fill="url(#linear-gradient)"/>
        <path id="Path_202" data-name="Path 202" d="M165.235,128.726a.968.968,0,0,0,.737.341.982.982,0,0,0,.347-.065.972.972,0,0,0,.64-.921v-2.937h.7a2.454,2.454,0,0,0,2.45-2.45V112.95a2.454,2.454,0,0,0-2.45-2.45.664.664,0,1,0,0,1.328,1.124,1.124,0,0,1,1.122,1.122v9.745a1.124,1.124,0,0,1-1.122,1.122H166.3a.666.666,0,0,0-.667.667v2.672l-2.688-3.105a.658.658,0,0,0-.5-.228h-9.972a.667.667,0,1,0,0,1.333h9.669Z" transform="translate(-143.573 -106.489)" fill="url(#linear-gradient)"/>
        <circle id="Ellipse_26" data-name="Ellipse 26" cx="0.791" cy="0.791" r="0.791" transform="translate(9.907 6.764)" fill="url(#linear-gradient)"/>
        <circle id="Ellipse_27" data-name="Ellipse 27" cx="0.791" cy="0.791" r="0.791" transform="translate(12.557 6.764)" fill="url(#linear-gradient)"/>
        <circle id="Ellipse_28" data-name="Ellipse 28" cx="0.791" cy="0.791" r="0.791" transform="translate(7.257 6.764)" fill="url(#linear-gradient)"/>
      </g>
    </g>
    <g id="like_3_" data-name="like (3)" transform="translate(811.293 2569.748)">
      <g id="Group_1198" data-name="Group 1198" transform="translate(0 3.959)">
        <g id="Group_1197" data-name="Group 1197" transform="translate(0)">
          <path id="Path_204" data-name="Path 204" d="M50.078,100.832a1.957,1.957,0,0,0-1.458-3.263h-3.8a12.654,12.654,0,0,0,.537-3.307V93.61A2.614,2.614,0,0,0,42.747,91h-.653a.652.652,0,0,0-.633.494l-.355,1.422c-.5,1.992-2.08,4.189-3.716,4.589a1.96,1.96,0,0,0-1.821-1.241H31.653a.653.653,0,0,0-.653.653v11.747a.653.653,0,0,0,.653.653h3.916a1.96,1.96,0,0,0,1.767-1.116l2.242.747a7.162,7.162,0,0,0,2.27.368h5.467a1.958,1.958,0,0,0,1.82-2.679,1.957,1.957,0,0,0,.943-3.194,1.954,1.954,0,0,0,0-2.61Zm-13.857,6.526a.653.653,0,0,1-.653.653H32.305V97.569h3.263a.653.653,0,0,1,.653.653Zm11.094-5.873H48.62a.653.653,0,1,1,0,1.305H47.315a.653.653,0,1,0,0,1.305H48.62a.653.653,0,1,1,0,1.305H47.315a.653.653,0,1,0,0,1.305.653.653,0,0,1,0,1.305H41.848a5.86,5.86,0,0,1-1.858-.3l-2.464-.821V98.813a5.259,5.259,0,0,0,2.93-1.9,9.522,9.522,0,0,0,1.916-3.676l.232-.928h.143a1.307,1.307,0,0,1,1.305,1.305v.652a10.327,10.327,0,0,1-.625,3.307H42.094a.653.653,0,1,0,0,1.305H48.62a.653.653,0,1,1,0,1.305H47.315a.653.653,0,1,0,0,1.305Z" transform="translate(-31 -91)" fill="url(#linear-gradient)"/>
        </g>
      </g>
      <g id="Group_1200" data-name="Group 1200" transform="translate(2.661 18.265)">
        <g id="Group_1199" data-name="Group 1199" transform="translate(0 0)">
          <ellipse id="Ellipse_29" data-name="Ellipse 29" cx="0.563" cy="0.75" rx="0.563" ry="0.75" fill="url(#linear-gradient)"/>
        </g>
      </g>
      <g id="Group_1202" data-name="Group 1202" transform="translate(11.747)">
        <g id="Group_1201" data-name="Group 1201" transform="translate(0)">
          <path id="Path_205" data-name="Path 205" d="M301.653,0A.653.653,0,0,0,301,.653V2a.653.653,0,0,0,1.305,0V.653A.653.653,0,0,0,301.653,0Z" transform="translate(-301)" fill="url(#linear-gradient)"/>
        </g>
      </g>
      <g id="Group_1204" data-name="Group 1204" transform="translate(7.593 1.764)">
        <g id="Group_1203" data-name="Group 1203" transform="translate(0)">
          <path id="Path_206" data-name="Path 206" d="M207.577,41.656l-.923-.923a.653.653,0,1,0-.923.923l.923.923a.653.653,0,0,0,.923-.923Z" transform="translate(-205.54 -40.542)" fill="url(#linear-gradient)"/>
        </g>
      </g>
      <g id="Group_1206" data-name="Group 1206" transform="translate(14.977 1.764)">
        <g id="Group_1205" data-name="Group 1205" transform="translate(0)">
          <path id="Path_207" data-name="Path 207" d="M377.283,40.733a.653.653,0,0,0-.923,0l-.923.923a.653.653,0,0,0,.923.923l.923-.923A.653.653,0,0,0,377.283,40.733Z" transform="translate(-375.247 -40.542)" fill="url(#linear-gradient)"/>
        </g>
      </g>
    </g>
  </g>
</svg>
