<svg width="20" height="20" viewBox="0 0 20 20" fill="none" xmlns="http://www.w3.org/2000/svg">
<path d="M10 19.9793C12.5502 19.9793 15.1005 19.009 17.0686 17.0687C20.9771 13.1601 20.9771 6.84 17.0686 2.95921C15.1004 0.990999 12.5502 0.020752 10 0.020752C7.44982 0.020752 4.89953 0.991048 2.93142 2.93139C-0.97714 6.83995 -0.97714 13.16 2.93142 17.0408C4.89963 19.009 7.44982 19.9793 10 19.9793ZM4.51145 4.51158C5.98061 3.04242 7.92096 2.23844 10 2.23844C12.079 2.23844 14.0193 3.04222 15.4885 4.51158C18.51 7.533 18.51 12.4672 15.4885 15.4887C14.0194 16.9576 12.079 17.7616 10 17.7616C7.92096 17.7616 5.98066 16.9578 4.51145 15.4885C1.48983 12.467 1.48983 7.53285 4.51145 4.51138V4.51158Z" fill="#9E6900"/>
<rect x="9" y="5.02075" width="2" height="7" rx="1" fill="#9E6900"/>
<rect x="9" y="13.0208" width="2" height="2" rx="1" fill="#9E6900"/>
</svg>
