<svg xmlns="http://www.w3.org/2000/svg" width="54.896" height="54.896" viewBox="0 0 54.896 54.896">
  <g id="loan" transform="translate(-1 -1)">
    <path id="Path_1622" data-name="Path 1622" d="M55.042,7.2V8.969H49.16L39.665,1.2A.884.884,0,0,0,39.1,1H12.542a3.542,3.542,0,0,0,0,7.083h.089a4.435,4.435,0,0,0,4.338,3.542H21.4v6.2a3.548,3.548,0,0,0,1.264,2.694,9.734,9.734,0,1,0,14.213.847h18.17v1.771h1.771V7.2ZM21.915,9.854H16.969a2.653,2.653,0,0,1-2.493-1.771h9.21ZM21.4,27.563a7.977,7.977,0,0,1,7.083-7.917v1.844a3.534,3.534,0,0,0,.885,6.958,1.771,1.771,0,1,1-1.771,1.771H25.823a3.538,3.538,0,0,0,2.656,3.416v1.844A7.977,7.977,0,0,1,21.4,27.563Zm8.859-9.695c-.293-.027-.59-.045-.89-.045s-.6.019-.89.045c0-.015,0-.03,0-.045V12.831l3.956-4.748h3.646l2.137,2.137v4.061H33.792a3.545,3.545,0,0,0-3.542,3.542c0,.015,0,.03,0,.045Zm0,17.611V33.635a3.534,3.534,0,0,0-.885-6.958,1.771,1.771,0,1,1,1.771-1.771h1.771a3.538,3.538,0,0,0-2.656-3.416V19.646a7.966,7.966,0,0,1,0,15.833Zm4.7-15.885a9.7,9.7,0,0,0-2.883-1.382,1.77,1.77,0,0,1,1.727-2.16H39.1a.885.885,0,0,0,.885-.885V9.854a.882.882,0,0,0-.259-.626L37.074,6.572a.883.883,0,0,0-.626-.259H32.021a.887.887,0,0,0-.68.318l-4.427,5.313a.887.887,0,0,0-.205.568v5.313a1.789,1.789,0,0,1-.046.39,9.683,9.683,0,0,0-2.542,1.156,1.763,1.763,0,0,1-.954-1.546V11.106l3.282-3.282a.885.885,0,0,0-.626-1.511H12.542a1.771,1.771,0,1,1,0-3.542H38.788l9.5,7.769a.884.884,0,0,0,.56.2h6.2v8.854Z" transform="translate(-0.917 0)"/>
    <path id="Path_1623" data-name="Path 1623" d="M46.157,47.854H25.7a2.64,2.64,0,0,0-.547-1.073l-4.887-5.7a.884.884,0,0,0-.672-.31H9.854v-.885A.885.885,0,0,0,8.969,39H1.885A.885.885,0,0,0,1,39.885V57.594a.885.885,0,0,0,.885.885H8.969a.885.885,0,0,0,.885-.885v-.885h5.93L20.873,60.1a.89.89,0,0,0,.491.149.919.919,0,0,0,.189-.02l28.334-6.2a.885.885,0,0,0,.7-.865v-.885A4.432,4.432,0,0,0,46.157,47.854ZM8.083,56.709H2.771V40.771H8.083Zm40.73-4.254-27.27,5.965-5-3.334a.9.9,0,0,0-.491-.148h-6.2v-12.4h9.332l4.621,5.391a.886.886,0,0,1,.213.576v1.116a.886.886,0,0,1-.885.885H22.1a.881.881,0,0,1-.627-.259l-3.908-3.908-1.252,1.252L20.22,51.5a2.637,2.637,0,0,0,1.879.778h1.037a2.66,2.66,0,0,0,2.656-2.656H46.157a2.66,2.66,0,0,1,2.656,2.656Z" transform="translate(0 -4.354)"/>
    <path id="Path_1624" data-name="Path 1624" d="M56.249,41.588a4.74,4.74,0,0,1-2.982-2.982.885.885,0,0,0-1.68,0A4.74,4.74,0,0,1,48.6,41.588a.885.885,0,0,0,0,1.679,4.74,4.74,0,0,1,2.982,2.982.885.885,0,0,0,1.68,0,4.74,4.74,0,0,1,2.982-2.982.885.885,0,0,0,0-1.679Zm-3.822,2.437a6.579,6.579,0,0,0-1.6-1.6,6.564,6.564,0,0,0,1.6-1.6,6.58,6.58,0,0,0,1.6,1.6A6.58,6.58,0,0,0,52.427,44.024Z" transform="translate(-5.385 -4.239)" fill="#d12b8a"/>
    <path id="Path_1625" data-name="Path 1625" d="M6.606,21.267a4.74,4.74,0,0,1,2.982,2.982.885.885,0,0,0,1.68,0,4.74,4.74,0,0,1,2.982-2.982.885.885,0,0,0,0-1.679,4.74,4.74,0,0,1-2.982-2.982.885.885,0,0,0-1.68,0A4.74,4.74,0,0,1,6.6,19.588a.885.885,0,0,0,0,1.679Zm3.822-2.437a6.58,6.58,0,0,0,1.6,1.6,6.564,6.564,0,0,0-1.6,1.6,6.579,6.579,0,0,0-1.6-1.6A6.58,6.58,0,0,0,10.427,18.83Z" transform="translate(-0.573 -1.719)" fill="#d12b8a"/>
    <g id="Ellipse_1185" data-name="Ellipse 1185" transform="translate(20 19)" fill="#f7f7f7" stroke="#000" stroke-width="1">
      <circle cx="8.5" cy="8.5" r="8.5" stroke="none"/>
      <circle cx="8.5" cy="8.5" r="8" fill="none"/>
    </g>
    <text id="KD" transform="translate(24 30)" font-size="7" font-family="HelveticaNeue-Bold, Helvetica Neue" font-weight="700"><tspan x="0" y="0">KD</tspan></text>
  </g>
</svg>
