<svg xmlns="http://www.w3.org/2000/svg" xmlns:xlink="http://www.w3.org/1999/xlink" viewBox="10350 -50 142 142"><defs><style>.a{fill:none;}.b{clip-path:url(#a);}.c{fill:#dd231b;fill-rule:evenodd;}</style><clipPath id="a"><path class="a" d="M0-222.344H142v142H0Z" transform="translate(0 222.344)"/></clipPath></defs><g transform="translate(10350 -50)"><g class="b"><g transform="translate(0 0)"><path class="c" d="M-40.174-2.365a66.807,66.807,0,0,0-66.8,66.8,66.805,66.805,0,0,0,66.8,66.83,66.815,66.815,0,0,0,66.812-66.83,66.817,66.817,0,0,0-66.812-66.8m0-4.181a71,71,0,0,1,71,70.981,71.009,71.009,0,0,1-71,71.019,71.01,71.01,0,0,1-71-71.019,71,71,0,0,1,71-70.981" transform="translate(111.178 6.546)"/></g><g transform="translate(28.493 28.493)"><path class="c" d="M-24.053-2.365A38.318,38.318,0,0,0-62.37,35.943,38.32,38.32,0,0,0-24.053,74.278,38.323,38.323,0,0,0,14.271,35.943,38.321,38.321,0,0,0-24.053-2.365m0-4.181A42.493,42.493,0,0,1,18.456,35.943,42.5,42.5,0,0,1-24.053,78.464,42.5,42.5,0,0,1-66.564,35.943,42.49,42.49,0,0,1-24.053-6.546" transform="translate(66.564 6.546)"/></g><path class="c" d="M68.091-115.592h55.128v7.887H68.091Zm23.85-51.941h7.912v41.324h23.365v7.882H68.091v-7.882h23.85Z" transform="translate(-24.605 202.538)"/><g transform="translate(29.937 106.063)"><path class="c" d="M-4.641,0l3.022,2.182-6.24,8.689,5.305,3.817L-4.509,17.4l-8.334-6.008Z" transform="translate(12.843)"/></g><g transform="translate(46.074 115.387)"><path class="c" d="M-2.465-8.216c-3.7-1.3-5.163-3.622-3.925-7.067L-3-14.1c-.466,1.384-.274,2.157,1.436,2.771.748.254,2.147.66,2.516-.4.282-.745-1.024-1.425-1.488-1.726-2.36-1.526-5.279-2.859-4.023-6.379C-2.471-25.685,7.89-21.811,5.86-15.942l-.174.469L2.34-16.664c.315-1.433.141-2.044-1.454-2.6-1.751-.609-2.956.6-1.391,1.6l2.746,1.792C3.8-14.846,5.4-13.4,4.46-10.815,3.342-7.676.278-7.233-2.465-8.216" transform="translate(6.821 22.736)"/></g><g transform="translate(63.021 118.819)"><path class="c" d="M-4.439-4.612-5.423-7.73l-.992,3.12Zm1.107,3.23-4.117.051-.9,2.7-3.935.038,4.948-14.135,3.852-.031L1.553,1.269-2.472,1.3Z" transform="translate(12.284 12.764)"/></g><g transform="translate(77.335 114.972)"><path class="c" d="M-7.188,0-9.046,9.819l1.56,5.038-3.553,1.113-1.581-5.059L-19.893,4-15.7,2.694l3.778,4.061.69-5.489Z" transform="translate(19.893)"/></g><g transform="translate(93.325 107.15)"><path class="c" d="M0-3.405,8.768-9.424,10.642-6.7,4.9-2.76,5.886-1.3l5.275-3.622L13.03-2.21,7.758,1.418,9.109,3.4,15.116-.718,16.97,2,7.951,8.2Z" transform="translate(0 9.424)"/></g><g transform="translate(105.274 96.363)"><path class="c" d="M-2.72-3.812-.7-2.3.916-4.5C1.669-5.5,1.608-6,.856-6.561.44-6.876-.228-7.148-.982-6.149ZM5.968,2.622,3.774,5.58l-11.3-8.355C-5.754-5.14-1.709-13.111,2.865-9.723a3.737,3.737,0,0,1,1.62,3.029c1.229-.37,2.381.393,3.334,1.1l.935.687c.144.072.61.428.8.42l.412-.25.957.709L8.6-.894a10.255,10.255,0,0,1-2.78-1.529c-1.344-1-1.6-1.163-2.562.142L1.849-.416Z" transform="translate(7.528 10.549)"/></g><g transform="translate(16.444 96.821)"><path class="c" d="M-5.3-3.922l2.035-2.543-3.147.9Zm-2.065,2.71L-9.7-4.6l-2.73.739-2.239-3.261L-.2-10.855,1.974-7.664l-8.818,12L-9.118.981Z" transform="translate(14.674 10.855)"/></g><g transform="translate(21.164 5.949)"><path class="c" d="M-60.614-21.561l-.825-.232c-1.262-.318-.987-.253-1.672-.411-3.775,1.875-6.3,3.912-10.316,5.293,1.313.874,3.594,2.2,5.241,1.379,3.51-1.762,6.04-3.177,9.431-5.178a10.641,10.641,0,0,0-1.859-.851m-10.708,1.149c3.477-2.492,4.861-3.661,8.241-6.291A29.433,29.433,0,0,0-67.5-27.712c-2.052,1.59-2.619,2.277-4.632,3.935-.349-.446-1.7-2.361-2.071-2.961,1.242-1.451,3.266-3.864,3.266-3.864l-3.78-.48-1.318,1.935c-.437-.289-.641-.894-.968-1.268a10.732,10.732,0,0,0,3-3.247l-4.011-.118c-.608,1.518-1.219,1.334-2.231.054,1.657-1.116,1.563-1.51,2.555-3.276l-3.969.178-.789,1.068-.572-.454c-9.626-7.827-19.153-11.893-33.7-12.675-.04-2.442-.039-6.464-.037-9.471v-1.312a16.388,16.388,0,0,0-2.14,1.449c-1.238.992-.681.531-1.33,1.422.007,2.923.2,6.125.315,9,.134,2.858,1.95,2.7,3.987,2.812,14.253,1.039,21.752,5.11,29.774,11.236a1.921,1.921,0,0,0,2,.529c-.047.085-.29.975.024,1.206S-81.934-29.96-81.7-29.7c.313.348.836.264,1.142.244-.245.188-.219.72.109,1.084s1.511,1.81,1.829,2.235a1.436,1.436,0,0,0,1.14.423.873.873,0,0,0,0,.969c.271.4,2.039,3.028,2.587,3.9.893,1.415,1.659,1.789,3.573.433m-54.082-33.3c-.683,1.307-1.661,2-2.155,3.4a6.033,6.033,0,0,1,1.394,2c-17.108,3.3-27.583,10.621-37.021,23.681a10.408,10.408,0,0,0-4.557.044,36.782,36.782,0,0,0,2.052,3.806,6.721,6.721,0,0,1,3.094-.289c1.238,2.112,1.282,4.65-1.153,5.694l-.658.259a1.1,1.1,0,0,0-.715.826c-.151.742.671,1.005,1.22,1.088,5.57.616,7.3-5.984,4.02-9.361,5.742-8.645,16.365-19.216,35.789-22.1,1.288-.235,1.129-3.427.978-4.882-.349-3.451.157-1.756-2.286-4.17" transform="translate(167.744 59.669)"/></g><g transform="translate(46.626 27.436)"><path class="c" d="M-1.732-2.162-4.792-2.5a12.681,12.681,0,0,1,.818-2.548l1.952.232.438-1.171a17.421,17.421,0,0,1,3.045.391l-.741,2.5C.05-3.205-.6-3.325-1.287-3.391Z" transform="translate(4.792 5.982)"/></g></g></g></svg>