<svg xmlns="http://www.w3.org/2000/svg" width="51.558" height="54" viewBox="0 0 51.558 54">
  <g id="bill" transform="translate(-44.991 -35)">
    <path id="Path_2493" data-name="Path 2493" d="M240.224,35H220.676A5.675,5.675,0,0,0,215,40.62v7.138a.733.733,0,0,0,1.466,0V43.8h19.97a.733.733,0,1,0,0-1.466h-19.97V40.62a4.207,4.207,0,0,1,4.21-4.154h19.548a4.111,4.111,0,0,1,4.1,4.154v1.71h-1.654a.733.733,0,0,0,0,1.466h1.654V78.738H216.466V70.35a.733.733,0,1,0-1.466,0V83.38A5.675,5.675,0,0,0,220.676,89h19.548a5.579,5.579,0,0,0,5.564-5.62V40.62A5.579,5.579,0,0,0,240.224,35Zm0,52.534H220.676a4.207,4.207,0,0,1-4.21-4.154V80.2h27.855V83.38a4.111,4.111,0,0,1-4.1,4.154Z" transform="translate(-149.239)"/>
    <path id="Path_2494" data-name="Path 2494" d="M406.244,96.466a.733.733,0,1,0,0-1.466h-1.358a.733.733,0,1,0,0,1.466Z" transform="translate(-315.283 -52.67)"/>
    <path id="Path_2495" data-name="Path 2495" d="M323.025,414a2.566,2.566,0,1,0,2.566,2.566A2.566,2.566,0,0,0,323.025,414Zm0,3.665a1.1,1.1,0,1,1,1.1-1.1A1.1,1.1,0,0,1,323.025,417.665Z" transform="translate(-241.814 -332.697)"/>
    <path id="Path_2496" data-name="Path 2496" d="M68.162,157.068a4.485,4.485,0,0,0,8.594-1.754v-13.4h5.564a.751.751,0,0,0,.789-.694V136.91A3.962,3.962,0,0,0,79.147,133h-11.9a5.779,5.779,0,0,0-5.762,5.813v10.314h-8.2a5.889,5.889,0,0,0-5.849,5.854v6.587l-1.759,0a.694.694,0,0,0-.684.733v.7a3.192,3.192,0,0,0,3.216,3.229H60.182c.01,0,.02.021.029.021s.061.011.079.011a2.651,2.651,0,0,0,2.661-2.626v-6.568ZM62.951,155.6v-2.525a2.443,2.443,0,1,1,4.887,0v2.237c0,.111-.049.165-.041.288ZM81.644,136.91v3.543H76.757V136.91a2.443,2.443,0,0,1,4.887,0Zm-18.692,1.9a4.311,4.311,0,0,1,4.3-4.347H76.1a3.984,3.984,0,0,0-.81,2.443v18.4a3.018,3.018,0,0,1-5.885.916.705.705,0,0,0-.013-.115,2.983,2.983,0,0,1-.089-.8v-2.237a3.984,3.984,0,0,0-3.665-3.9v-.053H62.951ZM48.208,164.765a1.813,1.813,0,0,1-1.832-1.751l11.2,0v.619a2.539,2.539,0,0,0,.328,1.128Zm13.278-1.129a1.223,1.223,0,0,1-2.443,0v-1.353a.666.666,0,0,0-.188-.5.655.655,0,0,0-.491-.2h0l-9.46-.023v-6.584a4.421,4.421,0,0,1,4.383-4.388H62.3a4.1,4.1,0,0,0-.811,2.484Z" transform="translate(0 -86.027)" fill="#d12b8a"/>
    <path id="Path_2497" data-name="Path 2497" d="M208,174.466h6.886a.733.733,0,1,0,0-1.466H208a.733.733,0,1,0,0,1.466Z" transform="translate(-142.452 -121.14)" fill="#d12b8a"/>
    <path id="Path_2498" data-name="Path 2498" d="M208,201.466h6.886a.733.733,0,1,0,0-1.466H208a.733.733,0,1,0,0,1.466Z" transform="translate(-142.452 -144.842)" fill="#d12b8a"/>
    <path id="Path_2499" data-name="Path 2499" d="M211.556,228.466a.733.733,0,0,0,0-1.466H208a.733.733,0,1,0,0,1.466Z" transform="translate(-142.452 -168.543)" fill="#d12b8a"/>
    <path id="Path_2561" data-name="Path 2561" d="M208,201.466h6.886a.733.733,0,1,0,0-1.466H208a.733.733,0,1,0,0,1.466Z" transform="translate(-155.452 -131.842)" fill="#d12b8a"/>
    <path id="Path_2562" data-name="Path 2562" d="M211.556,228.466a.733.733,0,0,0,0-1.466H208a.733.733,0,1,0,0,1.466Z" transform="translate(-155.452 -155.543)" fill="#d12b8a"/>
  </g>
</svg>
