<svg xmlns="http://www.w3.org/2000/svg" xmlns:xlink="http://www.w3.org/1999/xlink" width="39.375" height="60" viewBox="0 0 39.375 60">
  <defs>
    <linearGradient id="linear-gradient" x1="0.5" x2="0.5" y2="1" gradientUnits="objectBoundingBox">
      <stop offset="0" stop-color="#23b7c0"/>
      <stop offset="1" stop-color="#70489d"/>
    </linearGradient>
  </defs>
  <g id="phone-call" transform="translate(-88)">
    <path id="Path_1317" data-name="Path 1317" d="M111.438,96H92.687A4.693,4.693,0,0,0,88,100.688v39.375a4.693,4.693,0,0,0,4.687,4.688h18.75a4.693,4.693,0,0,0,4.687-4.688V100.688A4.693,4.693,0,0,0,111.438,96Zm-21.563,7.5H114.25v33.75H89.875Zm2.813-5.625h18.75a2.816,2.816,0,0,1,2.813,2.813v.937H89.875v-.937A2.816,2.816,0,0,1,92.687,97.875Zm18.75,45H92.687a2.816,2.816,0,0,1-2.812-2.812v-.937H114.25v.937A2.816,2.816,0,0,1,111.438,142.875Z" transform="translate(0 -84.75)" fill="url(#linear-gradient)"/>
    <path id="Path_1318" data-name="Path 1318" d="M280.937,64a.937.937,0,1,0,0,1.875,6.57,6.57,0,0,1,6.563,6.563.937.937,0,1,0,1.875,0A8.447,8.447,0,0,0,280.937,64Z" transform="translate(-169.5 -56.5)" fill="url(#linear-gradient)"/>
    <path id="Path_1319" data-name="Path 1319" d="M280.937,32a.938.938,0,0,0,0,1.875A10.324,10.324,0,0,1,291.25,44.187a.937.937,0,1,0,1.875,0A12.2,12.2,0,0,0,280.937,32Z" transform="translate(-169.5 -28.25)" fill="url(#linear-gradient)"/>
    <path id="Path_1320" data-name="Path 1320" d="M280.937,0a.938.938,0,0,0,0,1.875A14.078,14.078,0,0,1,295,15.938a.938.938,0,0,0,1.875,0A15.956,15.956,0,0,0,280.937,0Z" transform="translate(-169.5)" fill="url(#linear-gradient)"/>
    <path id="Path_1321" data-name="Path 1321" d="M184.937,121.875h3.75a.937.937,0,1,0,0-1.875h-3.75a.938.938,0,0,0,0,1.875Z" transform="translate(-84.75 -105.938)" fill="url(#linear-gradient)"/>
    <path id="Path_1322" data-name="Path 1322" d="M182.562,472h-5.625a.938.938,0,0,0,0,1.875h5.625a.938.938,0,1,0,0-1.875Z" transform="translate(-77.688 -416.688)" fill="url(#linear-gradient)"/>
    <path id="Path_1323" data-name="Path 1323" d="M160.937,121.875a.936.936,0,1,0-.663-.274A.943.943,0,0,0,160.937,121.875Z" transform="translate(-63.562 -105.938)" fill="url(#linear-gradient)"/>
    <path id="Path_1324" data-name="Path 1324" d="M172.688,234.313a4.693,4.693,0,0,0,4.688-4.687v-.937a4.688,4.688,0,0,0-9.375,0v.938A4.693,4.693,0,0,0,172.688,234.313Zm-2.812-5.625a2.813,2.813,0,1,1,5.625,0v.938a2.813,2.813,0,0,1-5.625,0Z" transform="translate(-70.625 -197.75)" fill="url(#linear-gradient)"/>
    <path id="Path_1325" data-name="Path 1325" d="M157.983,313.538a3.64,3.64,0,0,0-2.725-1.276h-.8a.937.937,0,0,0-.8.446,2.374,2.374,0,0,1-4.329,0,.937.937,0,0,0-.8-.446h-.8A3.932,3.932,0,0,0,144,315.981v2.031a1.721,1.721,0,0,0,1.719,1.719h11.565A1.717,1.717,0,0,0,159,318.016v-2.034A3.832,3.832,0,0,0,157.983,313.538Zm-.858,4.318h-11.25v-1.875a2.053,2.053,0,0,1,1.867-1.844h.3a4.163,4.163,0,0,0,6.915,0h.3a2.053,2.053,0,0,1,1.867,1.844v1.875Z" transform="translate(-49.437 -275.669)" fill="url(#linear-gradient)"/>
  </g>
</svg>
