<svg xmlns="http://www.w3.org/2000/svg" xmlns:xlink="http://www.w3.org/1999/xlink" width="255" height="87.345" viewBox="0 0 255 87.345">
  <defs>
    <linearGradient id="linear-gradient" x1="0.101" y1="0.578" x2="1" y2="0.598" gradientUnits="objectBoundingBox">
      <stop offset="0" stop-color="#562b7c"/>
      <stop offset="1" stop-color="#23b7c0"/>
    </linearGradient>
  </defs>
  <g id="Group_2629" data-name="Group 2629" transform="translate(-1588 -994.831)">
    <g id="Group_1881" data-name="Group 1881" transform="translate(0 1)">
      <g id="Path_1313" data-name="Path 1313" transform="translate(1588 1027)" fill="#fff">
        <path d="M 244.5 53.6760139465332 L 0.5 53.6760139465332 L 0.5 10.22188758850098 C 0.5 4.861231327056885 4.761687278747559 0.5000126957893372 10 0.5000126957893372 L 235 0.5000126957893372 C 240.2383117675781 0.5000126957893372 244.5 4.861231327056885 244.5 10.22188758850098 L 244.5 53.6760139465332 Z" stroke="none"/>
        <path d="M 10 1.000011444091797 C 5.037368774414062 1.000011444091797 1 5.136917114257812 1 10.22188949584961 L 1 53.1760139465332 L 244 53.1760139465332 L 244 10.22188949584961 C 244 5.136917114257812 239.9626312255859 1.000011444091797 235 1.000011444091797 L 10 1.000011444091797 M 10 1.1444091796875e-05 L 235 1.1444091796875e-05 C 240.5228424072266 1.1444091796875e-05 245 4.576480865478516 245 10.22188949584961 L 245 54.1760139465332 L 0 54.1760139465332 L 0 10.22188949584961 C 0 4.576480865478516 4.477157592773438 1.1444091796875e-05 10 1.1444091796875e-05 Z" stroke="none" fill="#23b7c0"/>
      </g>
      <text id="Need_help_" data-name="Need help?" transform="translate(1628 1063)" fill="#562b7c" font-size="22" font-family="NunitoSans-Bold, Nunito Sans" font-weight="700" letter-spacing="0.05em"><tspan x="0" y="0">Need Help?</tspan></text>
    </g>
    <g id="Group_1883" data-name="Group 1883" transform="translate(1526.877 624.335)">
      <path id="Path_1308" data-name="Path 1308" d="M256.437,440.13a36.552,36.552,0,0,0,14.77-2.065,6.525,6.525,0,0,1,4.564-.056,27.5,27.5,0,0,0,32.066-11.027,21.448,21.448,0,0,1,2.867-3.347,17.2,17.2,0,0,0-.724-25.708,21.347,21.347,0,0,1-3.041-3.193A27.091,27.091,0,0,0,289.7,383.98c-2.987-.547-4.085-2.468-2.959-5.222.286-.7,1.028-1.2,1.439-1.863a4.116,4.116,0,0,0-5.442-5.819c-2.4,1.315-2.837,3.912-1.079,6.4,2.481,3.512,1.686,5.8-2.313,6.576a27.009,27.009,0,0,0-16.483,10.158,27.958,27.958,0,0,1-3.44,3.752c-7.914,6.953-8.273,18.335-.666,25.662,2.773,2.671,3.088,5.573,2.231,8.99C260.287,435.425,258.341,437.512,256.437,440.13Z" transform="translate(0 0)" fill="#fdfdfd"/>
      <path id="Path_1309" data-name="Path 1309" d="M256.437,440.13c1.9-2.618,3.849-4.7,4.553-7.515.856-3.417.542-6.319-2.231-8.99-7.607-7.327-7.249-18.709.666-25.662a27.958,27.958,0,0,0,3.44-3.752,27.009,27.009,0,0,1,16.483-10.158c4-.772,4.795-3.064,2.313-6.576-1.758-2.489-1.324-5.086,1.079-6.4a4.116,4.116,0,0,1,5.442,5.819c-.41.666-1.153,1.164-1.439,1.863-1.126,2.753-.028,4.674,2.959,5.222a27.091,27.091,0,0,1,17.238,10.753,21.347,21.347,0,0,0,3.041,3.193,17.2,17.2,0,0,1,.724,25.708,21.448,21.448,0,0,0-2.867,3.347,27.5,27.5,0,0,1-32.066,11.027,6.525,6.525,0,0,0-4.564.056A36.552,36.552,0,0,1,256.437,440.13Zm28.219-15.047c4.445,0,8.892.066,13.336-.014,8.386-.152,14.505-6.219,14.383-14.163-.12-7.821-6.213-13.653-14.465-13.711q-13.164-.091-26.33,0c-8.329.052-14.668,6.148-14.643,13.967.025,7.689,6.234,13.74,14.384,13.905C275.764,425.156,280.211,425.083,284.657,425.083Z" transform="translate(0 0)" fill="url(#linear-gradient)"/>
      <path id="Path_1310" data-name="Path 1310" d="M286.358,437.432c-4.446,0-8.892.074-13.336-.016-8.15-.165-14.359-6.216-14.384-13.9-.025-7.819,6.314-13.915,14.643-13.967q13.164-.082,26.33,0c8.253.058,14.346,5.89,14.465,13.711.122,7.944-6,14.011-14.383,14.163C295.249,437.5,290.8,437.432,286.358,437.432Zm9.462-13.811c.235,2.262,1.527,3.579,3.761,3.568a3.708,3.708,0,1,0-.284-7.409C296.995,419.9,295.918,421.362,295.819,423.62Zm-22.5-3.9c-2.094.312-3.463,1.47-3.427,3.785a3.4,3.4,0,0,0,3.624,3.668,3.458,3.458,0,0,0,3.736-3.912C277.153,421.1,275.738,419.806,273.321,419.725Z" transform="translate(-1.701 -12.349)" fill="#fbfcfc"/>
      <path id="Path_1311" data-name="Path 1311" d="M313.045,428.379c.1-2.259,1.175-3.722,3.478-3.841a3.708,3.708,0,1,1,.284,7.409C314.572,431.958,313.28,430.641,313.045,428.379Z" transform="translate(-18.927 -17.108)" fill="#338dac"/>
      <path id="Path_1312" data-name="Path 1312" d="M278.536,424.462c2.417.081,3.832,1.376,3.933,3.541a3.458,3.458,0,0,1-3.736,3.912,3.4,3.4,0,0,1-3.624-3.668C275.072,425.932,276.442,424.774,278.536,424.462Z" transform="translate(-6.915 -17.086)" fill="#562b7c"/>
    </g>
  </g>
</svg>
