<svg xmlns="http://www.w3.org/2000/svg" width="82" height="82" viewBox="0 0 82 82">
  <g id="Group_3138" data-name="Group 3138" transform="translate(-246 -1807)">
    <circle id="Ellipse_944" data-name="Ellipse 944" cx="41" cy="41" r="41" transform="translate(246 1807)" fill="#d12b8a" opacity="0.1"/>
    <g id="Ellipse_945" data-name="Ellipse 945" transform="translate(251 1812)" fill="#fff" stroke="#f2f2f2" stroke-width="1">
      <circle cx="36" cy="36" r="36" stroke="none"/>
      <circle cx="36" cy="36" r="35.5" fill="none"/>
    </g>
    <g id="tower" transform="translate(274 1830)">
      <path id="Path_1880" data-name="Path 1880" d="M2.781,11.43a.706.706,0,0,0,.5-1.205,6.377,6.377,0,0,1,0-9.019.706.706,0,0,0-1-1,7.789,7.789,0,0,0,0,11.016A.7.7,0,0,0,2.781,11.43Zm0,0" transform="translate(0 0)" fill="#d12b8a"/>
      <path id="Path_1881" data-name="Path 1881" d="M54.365,28.059a.706.706,0,0,0,.5-1.205,4.453,4.453,0,0,1,0-6.3.706.706,0,1,0-1-1,5.872,5.872,0,0,0,0,8.295A.7.7,0,0,0,54.365,28.059Zm0,0" transform="translate(-48.483 -17.99)" fill="#d12b8a"/>
      <path id="Path_1882" data-name="Path 1882" d="M105.9,44.687a.706.706,0,0,0,.5-1.205,2.532,2.532,0,0,1,0-3.577.706.706,0,0,0-1-1,3.946,3.946,0,0,0,0,5.574A.7.7,0,0,0,105.9,44.687Zm0,0" transform="translate(-96.919 -35.978)" fill="#d12b8a"/>
      <path id="Path_1883" data-name="Path 1883" d="M38.324,45.789a2.89,2.89,0,1,0-1.951,0l-10.659,26.6a.706.706,0,0,0,1.311.525l1.825-4.553h7.475a.706.706,0,1,0,0-1.412H31.459l11.455-5.91,2.368,5.91H41.99a.706.706,0,0,0,0,1.412h3.858l1.825,4.553a.706.706,0,1,0,1.311-.525Zm-3.376,7.352a.7.7,0,0,0,.157.018H37.8l-4.563,4.252Zm.559-1.394,1.842-4.6,1.842,4.6Zm.364-8.678a1.478,1.478,0,1,1,1.478,1.477A1.48,1.48,0,0,1,35.871,43.069Zm-6.185,23.2L31.9,60.759h8.476Zm3.545-6.925,6.557-6.11,2.449,6.11Zm0,0" transform="translate(-23.859 -37.355)"/>
      <path id="Path_1884" data-name="Path 1884" d="M334.324,11.223a.706.706,0,0,0,1,0,7.79,7.79,0,0,0,0-11.016.706.706,0,0,0-1,1,6.377,6.377,0,0,1,0,9.019A.706.706,0,0,0,334.324,11.223Zm0,0" transform="translate(-310.624 0)" fill="#d12b8a"/>
      <path id="Path_1885" data-name="Path 1885" d="M290.229,27.853a.706.706,0,0,0,1,0,5.872,5.872,0,0,0,0-8.295.706.706,0,0,0-1,1,4.453,4.453,0,0,1,0,6.3A.706.706,0,0,0,290.229,27.853Zm0,0" transform="translate(-269.63 -17.991)" fill="#d12b8a"/>
      <path id="Path_1886" data-name="Path 1886" d="M246.132,44.482a.706.706,0,0,0,1,0,3.946,3.946,0,0,0,0-5.574.706.706,0,1,0-1,1,2.531,2.531,0,0,1,0,3.577A.706.706,0,0,0,246.132,44.482Zm0,0" transform="translate(-228.633 -35.981)" fill="#d12b8a"/>
      <path id="Path_1887" data-name="Path 1887" d="M208.915,421.289a.706.706,0,1,0-.26.857A.711.711,0,0,0,208.915,421.289Zm0,0" transform="translate(-192.964 -391.262)"/>
    </g>
  </g>
</svg>
