<svg width="20" height="20" viewBox="0 0 20 20" fill="none" xmlns="http://www.w3.org/2000/svg">
<path d="M10 19.9585C12.5502 19.9585 15.1005 18.9882 17.0686 17.0479C20.9771 13.1393 20.9771 6.81925 17.0686 2.93846C15.1004 0.970247 12.5502 0 10 0C7.44982 0 4.89953 0.970296 2.93142 2.91064C-0.97714 6.8192 -0.97714 13.1393 2.93142 17.0201C4.89963 18.9883 7.44982 19.9585 10 19.9585ZM4.51145 4.49083C5.98061 3.02167 7.92096 2.21769 10 2.21769C12.079 2.21769 14.0193 3.02147 15.4885 4.49083C18.51 7.51225 18.51 12.4464 15.4885 15.4679C14.0194 16.9369 12.079 17.7409 10 17.7409C7.92096 17.7409 5.98066 16.9371 4.51145 15.4677C1.48983 12.4463 1.48983 7.5121 4.51145 4.49063V4.49083Z" fill="#C70024"/>
<path d="M8.22597 13.3058L10 11.5596L11.7741 13.3058L13.3264 11.7535L11.5802 9.97942L13.3264 8.20534L11.7741 6.65308L10 8.39928L8.22597 6.65308L6.67371 8.20534L8.41991 9.97942L6.67371 11.7535L8.22597 13.3058Z" fill="#C70024"/>
</svg>
