<svg xmlns="http://www.w3.org/2000/svg" width="22.068" height="22.7" viewBox="0 0 22.068 22.7">
  <g id="phone-call" transform="translate(-2.949)">
    <path id="Path_229" data-name="Path 229" d="M114.5,2.974A10.087,10.087,0,0,0,107.322,0a.8.8,0,0,0,0,1.609,8.544,8.544,0,0,1,8.544,8.545.8.8,0,0,0,1.609,0A10.086,10.086,0,0,0,114.5,2.974Z" transform="translate(-92.458 0)" fill="#d12b8a"/>
    <path id="Path_230" data-name="Path 230" d="M111.192,49.057a.8.8,0,0,0,1.609,0,5.486,5.486,0,0,0-5.479-5.479h0a.8.8,0,0,0,0,1.609A3.875,3.875,0,0,1,111.192,49.057Z" transform="translate(-92.458 -38.903)" fill="#d12b8a"/>
    <path id="Path_231" data-name="Path 231" d="M16.953,42.676A2.429,2.429,0,0,0,14.8,43.963a.8.8,0,0,0,1.328.908c.354-.518.514-.6.732-.589A10.363,10.363,0,0,1,20.576,47a.832.832,0,0,1-.008.587,2.776,2.776,0,0,1-1.379,1.736,2.581,2.581,0,0,1-2.068-.07A22.737,22.737,0,0,1,9.663,44.4l0,0a22.734,22.734,0,0,1-4.847-7.449,2.583,2.583,0,0,1-.07-2.068A2.775,2.775,0,0,1,6.48,33.5a.831.831,0,0,1,.586-.008A10.382,10.382,0,0,1,9.787,37.2c.012.226-.07.386-.588.739a.8.8,0,1,0,.908,1.329,2.427,2.427,0,0,0,1.287-2.153c-.07-1.285-2.57-4.689-3.765-5.128a2.432,2.432,0,0,0-1.662-.01A4.33,4.33,0,0,0,3.281,34.21a4.141,4.141,0,0,0,.042,3.346,24.334,24.334,0,0,0,5.2,7.982l.016.016a24.34,24.34,0,0,0,7.973,5.193,4.773,4.773,0,0,0,1.8.375,3.688,3.688,0,0,0,1.549-.332A4.33,4.33,0,0,0,22.093,48.1a2.433,2.433,0,0,0-.008-1.658C21.644,45.247,18.24,42.746,16.953,42.676Z" transform="translate(0 -28.421)" fill="#d12b8a"/>
  </g>
</svg>
