<svg xmlns="http://www.w3.org/2000/svg" width="44" height="43.915" viewBox="0 0 44 43.915">
  <g id="plane" transform="translate(0 -0.498)">
    <g id="Group_4442" data-name="Group 4442" transform="translate(0 0.498)">
      <g id="Path_1133" data-name="Path 1133" transform="translate(0 -0.498)" fill="#fff" stroke-miterlimit="10">
        <path d="M 15.18299770355225 43.986572265625 L 11.03551387786865 35.40369415283203 L 10.88242435455322 35.08689117431641 L 10.63363361358643 35.3356819152832 L 8.319343566894531 37.64997482299805 L 6.847593784332275 36.17822265625 L 9.165233612060547 33.8605842590332 L 9.41417407989502 33.61164474487305 L 9.09709358215332 33.45864105224609 L 0.510284423828125 29.31528282165527 L 4.128243446350098 25.69732284545898 L 12.23793411254883 25.22240257263184 L 12.33285427093506 25.21684265136719 L 12.4000940322876 25.14961242675781 L 18.18076324462891 19.36894226074219 L 18.45095443725586 19.0987434387207 L 18.09516334533691 18.95938301086426 L 0.4469819664955139 12.04681491851807 L 5.596819400787354 6.89696741104126 L 27.12586402893066 10.27846336364746 L 27.25150489807129 10.29820251464844 L 27.34143447875977 10.20827293395996 L 33.91994476318359 3.629762887954712 C 34.71563339233398 2.834062814712524 36.38983535766602 1.877352952957153 37.99129486083984 1.303212881088257 C 39.01993560791016 0.9345729351043701 39.94279479980469 0.7476529479026794 40.73421478271484 0.7476529479026794 C 41.68121337890625 0.7476529479026794 42.42861557006836 1.014902949333191 42.95565414428711 1.541992902755737 C 43.92765426635742 2.513833045959473 44.01022338867188 4.230362892150879 43.19443511962891 6.506032943725586 C 42.62032318115234 8.10749340057373 41.6635856628418 9.781682968139648 40.86781311035156 10.57735252380371 L 34.38554382324219 17.05971336364746 L 34.29561233520508 17.14964294433594 L 34.31535339355469 17.27528381347656 L 37.69615936279297 38.80010986328125 L 32.54640197753906 43.949951171875 L 25.63520431518555 26.30538368225098 L 25.4958438873291 25.94959259033203 L 25.22564315795898 26.21978378295898 L 19.34794425964355 32.09747314453125 L 19.28071403503418 32.16471481323242 L 19.27515411376953 32.2596321105957 L 18.8001537322998 40.36933517456055 L 15.18299770355225 43.986572265625 Z M 14.63410472869873 31.3355541229248 L 12.56680393218994 33.40286254882812 L 12.44120407104492 33.52847290039062 L 12.51848411560059 33.68841171264648 L 15.62958431243896 40.12667465209961 L 15.78267383575439 40.44347381591797 L 16.03146362304688 40.19468307495117 L 16.70151329040527 39.52463150024414 L 16.76874351501465 39.45739364624023 L 16.7743034362793 39.36247253417969 L 17.24931335449219 31.25278282165527 L 39.39605331420898 9.105873107910156 C 39.88743209838867 8.614493370056152 40.73025512695312 7.212352752685547 41.23506546020508 5.803933143615723 C 41.78594589233398 4.267033100128174 41.7502326965332 3.28026294708252 41.48394393920898 3.013803005218506 C 41.36006546020508 2.889932870864868 41.11374282836914 2.827142953872681 40.75177383422852 2.827142953872681 C 40.36701583862305 2.827142953872681 39.69762420654297 2.902693033218384 38.69369506835938 3.262603044509888 C 37.28494262695312 3.767693042755127 35.88285446166992 4.610453128814697 35.39169311523438 5.101603031158447 L 13.24487400054932 27.24859237670898 L 5.135183811187744 27.72351264953613 L 5.040264129638672 27.72907257080078 L 4.973023891448975 27.79630279541016 L 4.303743839263916 28.46558380126953 L 4.054803848266602 28.71453285217285 L 4.371883869171143 28.86752319335938 L 10.81332397460938 31.97562217712402 L 10.97320365905762 32.05276107788086 L 11.09873390197754 31.92724227905273 L 13.1623420715332 29.86379051208496 L 14.63410472869873 31.3355541229248 Z M 32.47468566894531 18.97083282470703 L 32.1271858215332 19.31832313537598 L 27.21775436401367 24.22775268554688 L 27.10210418701172 24.34341239929199 L 27.1617546081543 24.49571228027344 L 33.18485260009766 39.8729248046875 L 33.32421493530273 40.22872161865234 L 33.59441375732422 39.95851135253906 L 35.38577270507812 38.16706466674805 L 35.47570419311523 38.07713317871094 L 35.45596313476562 37.95150375366211 L 32.55093383789062 19.45631217956543 L 32.47468566894531 18.97083282470703 Z M 6.319963932037354 9.11750316619873 L 6.230033874511719 9.207432746887207 L 4.438573837280273 10.99888324737549 L 4.168374061584473 11.26908302307129 L 4.524184226989746 11.40844249725342 L 19.90509414672852 17.43274307250977 L 20.0573844909668 17.49239349365234 L 20.17304420471191 17.37674331665039 L 25.08317375183105 12.46662330627441 L 25.4306640625 12.11912250518799 L 24.9451847076416 12.04287338256836 L 6.445603847503662 9.137243270874023 L 6.319963932037354 9.11750316619873 Z" stroke="none"/>
        <path d="M 40.73413467407227 0.9976539611816406 L 40.7341423034668 0.9976539611816406 C 39.97160339355469 0.9976539611816406 39.07714462280273 1.179641723632812 38.07566452026367 1.538543701171875 C 36.53019332885742 2.092613220214844 34.85680389404297 3.046443939208984 34.09671401977539 3.806533813476562 L 27.33835411071777 10.56490325927734 L 5.683658599853516 7.163669586181641 L 0.8939323425292969 11.95339202880859 L 18.89793395996094 19.00532341003418 L 12.4423942565918 25.46086311340332 L 4.237770080566406 25.94133567810059 L 0.9359931945800781 29.24311256408691 L 9.839885711669922 33.53947448730469 L 7.201133728027344 36.17822265625 L 8.319343566894531 37.29643249511719 L 10.95444488525391 34.66133117675781 L 15.2550048828125 43.56100082397461 L 18.55614280700684 40.25978469848633 L 19.03670310974121 32.05517196655273 L 25.58926391601562 25.50262260437012 L 32.63982009887695 43.50297927856445 L 37.42945861816406 38.71326446533203 L 34.02891540527344 17.06280326843262 L 40.69104385375977 10.40057373046875 C 41.45121383666992 9.640483856201172 42.40506362915039 7.96710205078125 42.95910263061523 6.421661376953125 C 43.9455451965332 3.669891357421875 43.40558242797852 2.345371246337891 42.77886581420898 1.718761444091797 C 42.30042266845703 1.240272521972656 41.61247253417969 0.9976615905761719 40.73413467407227 0.9976539611816406 M 17.49332427978516 31.36231231689453 L 17.01275444030762 39.56693267822266 L 15.71065330505371 40.86904144287109 L 12.13881301879883 33.47730255126953 L 14.28056526184082 31.3355541229248 L 13.16234588623047 30.21733474731445 L 11.02444458007812 32.35507202148438 L 3.629074096679688 28.78669357299805 L 4.930713653564453 27.48505210876465 L 13.13534545898438 27.00458145141602 L 35.21491241455078 4.924831390380859 C 35.73640441894531 4.403331756591797 37.14865493774414 3.550971984863281 38.60933303833008 3.027263641357422 C 39.64706420898438 2.655231475830078 40.34719467163086 2.577144622802734 40.75178527832031 2.577144622802734 C 41.18855285644531 2.577144622802734 41.48586273193359 2.662143707275391 41.66077423095703 2.837081909179688 C 42.06464385986328 3.241191864013672 41.98992538452148 4.438861846923828 41.47040557861328 5.888282775878906 C 40.94698333740234 7.348613739013672 40.09455490112305 8.760913848876953 39.57282257080078 9.282642364501953 L 17.49332427978516 31.36231231689453 M 20.11850357055664 17.78482246398926 L 3.721405029296875 11.36251449584961 L 6.233104705810547 8.850803375244141 L 25.9549446105957 11.94840240478516 L 20.11850357055664 17.78482246398926 M 33.23080444335938 40.67570495605469 L 26.80966377258301 24.28229331970215 L 32.64540481567383 18.44656372070312 L 35.74240493774414 38.16398239135742 L 33.23080444335938 40.67570495605469 M 40.73420333862305 0.497650146484375 C 41.74435043334961 0.4976615905761719 42.55473327636719 0.7874717712402344 43.1324348449707 1.365222930908203 C 44.17768478393555 2.410301208496094 44.28046417236328 4.217311859130859 43.42977523803711 6.590381622314453 C 42.84454345703125 8.222854614257812 41.86373519897461 9.935073852539062 41.04457473754883 10.75414276123047 L 34.56232452392578 17.23649215698242 L 37.96286392211914 38.886962890625 L 32.45298385620117 44.39693450927734 L 25.40242385864258 26.39656257629395 L 19.52472305297852 32.27425384521484 L 19.04416465759277 40.47887420654297 L 15.11098480224609 44.41214370727539 L 10.8104133605957 35.5124626159668 L 8.319343566894531 38.00353240966797 L 6.494033813476562 36.17822265625 L 8.988452911376953 33.68380355834961 L 0.084564208984375 29.38744354248047 L 4.018695831298828 25.45331382751465 L 12.22331237792969 24.97283363342285 L 18.00398445129395 19.19216346740723 L -7.62939453125e-06 12.14023208618164 L 5.509963989257812 6.630264282226562 L 27.16465377807617 10.031494140625 L 33.7431640625 3.452983856201172 C 34.56232452392578 2.633823394775391 36.2745361328125 1.653114318847656 37.90692520141602 1.06787109375 C 38.96862411499023 0.6873893737792969 39.91680526733398 0.4976425170898438 40.73420333862305 0.497650146484375 Z M 15.85468482971191 40.01790237426758 L 16.52473449707031 39.34785461425781 L 17.00530433654785 31.14323425292969 L 39.21927261352539 8.929092407226562 C 39.69141387939453 8.456951141357422 40.50652313232422 7.095611572265625 40.99972534179688 5.719581604003906 C 41.55968475341797 4.157321929931641 41.44522476196289 3.328723907470703 41.30711364746094 3.190532684326172 C 41.16884231567383 3.052249908447266 40.34006500244141 2.937961578369141 38.7780647277832 3.497932434082031 C 37.40203475952148 3.991291046142578 36.04069519042969 4.80615234375 35.56847381591797 5.27838134765625 L 13.35442352294922 27.49260330200195 L 5.149795532226562 27.97308349609375 L 4.480514526367188 28.64236259460449 L 10.92196273803711 31.75046157836914 L 13.162353515625 29.5102424621582 L 14.98766326904297 31.33555221557617 L 12.74358367919922 33.57964324951172 L 15.85468482971191 40.01790237426758 Z M 19.99626350402832 17.1999626159668 L 24.90639305114746 12.28984451293945 L 6.406803131103516 9.384212493896484 L 4.615352630615234 11.17566299438477 L 19.99626350402832 17.1999626159668 Z M 33.41763305664062 39.78174209594727 L 35.20899200439453 37.99029159545898 L 32.30396270751953 19.49510383605957 L 27.39453315734863 24.40453338623047 L 33.41763305664062 39.78174209594727 Z" stroke="none" fill="#00235a"/>
      </g>
    </g>
  </g>
</svg>
