<svg id="play-button" xmlns="http://www.w3.org/2000/svg" width="26.501" height="26.5" viewBox="0 0 26.501 26.5">
  <path id="Path_1249" data-name="Path 1249" d="M157.079,138.1a.828.828,0,0,1-.828-.828V125.821a.828.828,0,0,1,1.241-.717l9.938,5.721a.828.828,0,0,1,0,1.435l-9.938,5.727A.83.83,0,0,1,157.079,138.1Zm.828-10.843v8.582l7.45-4.294Z" transform="translate(-147.97 -118.368)" fill="#d12b8a"/>
  <path id="Path_1250" data-name="Path 1250" d="M13.25,26.5A13.25,13.25,0,1,1,26.5,13.25,13.265,13.265,0,0,1,13.25,26.5Zm0-24.844A11.594,11.594,0,1,0,24.844,13.25,11.607,11.607,0,0,0,13.25,1.656Z" fill="#d12b8a"/>
</svg>
