<svg xmlns="http://www.w3.org/2000/svg" width="37.5" height="50" viewBox="0 0 37.5 50">
  <g id="sim" transform="translate(-64)">
    <g id="Group_3241" data-name="Group 3241" transform="translate(64)">
      <g id="Group_3240" data-name="Group 3240" transform="translate(0)">
        <path id="Path_1877" data-name="Path 1877" d="M101.195,10.722,90.774.305A1.041,1.041,0,0,0,90.038,0H68.167A4.171,4.171,0,0,0,64,4.167V45.833A4.171,4.171,0,0,0,68.167,50H97.333a4.171,4.171,0,0,0,4.167-4.167V11.458A1.041,1.041,0,0,0,101.195,10.722ZM99.417,45.833a2.086,2.086,0,0,1-2.083,2.083H68.167a2.086,2.086,0,0,1-2.083-2.083V4.167a2.086,2.086,0,0,1,2.083-2.083h21.44l9.81,9.806Z" transform="translate(-64)"/>
        <path id="Path_1878" data-name="Path 1878" d="M128,195.125v18.75A3.128,3.128,0,0,0,131.125,217h18.75A3.128,3.128,0,0,0,153,213.875v-18.75A3.128,3.128,0,0,0,149.875,192h-18.75A3.128,3.128,0,0,0,128,195.125Zm7.292,19.792h-4.167a1.042,1.042,0,0,1-1.042-1.042v-4.167h5.208v5.208Zm8.333,0h-6.25v-5.208h6.25Zm7.292-1.042a1.042,1.042,0,0,1-1.042,1.042h-4.167v-6.25a1.041,1.041,0,0,0-1.042-1.042H130.083v-6.25h20.833v12.5Zm-5.208-19.792h4.167a1.042,1.042,0,0,1,1.042,1.042v4.167h-5.208v-5.208Zm-8.333,0h6.25v5.208h-6.25Zm-2.083,5.208h-5.208v-4.167a1.042,1.042,0,0,1,1.042-1.042h4.167v5.208Z" transform="translate(-121.75 -173.25)" fill="#d12b8a"/>
      </g>
    </g>
  </g>
</svg>
