<svg xmlns="http://www.w3.org/2000/svg" width="52" height="60.321" viewBox="0 0 52 60.321">
  <g id="document_3_" data-name="document (3)" transform="translate(-52.772 -20.272)">
    <g id="Group_5094" data-name="Group 5094" transform="translate(52.772 20.272)">
      <path id="Path_2533" data-name="Path 2533" d="M91.268,34.392a1.654,1.654,0,0,0-.493-1.169L78.122,20.748a1.654,1.654,0,0,0-1.169-.476l-18.234.085a5.976,5.976,0,0,0-5.947,6l.184,38.367a5.975,5.975,0,0,0,5.975,5.947h.03L77.5,70.57l0-1.535h0l-18.533.105h-.022a4.441,4.441,0,0,1-4.439-4.419l-.185-38.368a4.44,4.44,0,0,1,4.419-4.462l17.757-.085.034,7.105a6.111,6.111,0,0,0,1.755,4.3,5.936,5.936,0,0,0,4.221,1.746h.03l7.209-.035.1,18.065,1.535-.008Zm-8.753-.965a4.44,4.44,0,0,1-4.462-4.419l-.029-6.126L88.664,33.4Z" transform="translate(-52.772 -20.272)"/>
      <path id="Path_2534" data-name="Path 2534" d="M192.512,241.771a.768.768,0,0,0,0,1.535h2.6a.768.768,0,1,0,0-1.535Z" transform="translate(-173.964 -213.433)"/>
      <path id="Path_2535" data-name="Path 2535" d="M136.449,191.655a.768.768,0,0,0-.768-.768H114.068a.768.768,0,0,0,0,1.535h21.614A.768.768,0,0,0,136.449,191.655Z" transform="translate(-105.556 -169.059)"/>
      <path id="Path_2536" data-name="Path 2536" d="M114.068,241.771a.768.768,0,1,0,0,1.535H120.8a.768.768,0,1,0,0-1.535Z" transform="translate(-105.556 -213.433)"/>
      <path id="Path_2537" data-name="Path 2537" d="M81.835,56.806a.768.768,0,1,0-1.535,0v.806a.768.768,0,1,0,1.535,0Z" transform="translate(-76.778 -51.462)"/>
      <path id="Path_2538" data-name="Path 2538" d="M81.068,85.333a.768.768,0,0,0-.768.768v8.06a.768.768,0,0,0,1.535,0V86.1A.768.768,0,0,0,81.068,85.333Z" transform="translate(-76.778 -77.009)"/>
    </g>
    <path id="Path_2539" data-name="Path 2539" d="M342.995,337.359a.768.768,0,0,0,.768-.768v-8.251a.768.768,0,1,0-1.535,0v8.251A.768.768,0,0,0,342.995,337.359Z" transform="translate(-252.423 -267.986)" fill="#d12b8a"/>
    <path id="Path_2540" data-name="Path 2540" d="M341.138,419.77a1.04,1.04,0,1,0-1.04-1.04A1.04,1.04,0,0,0,341.138,419.77Z" transform="translate(-250.566 -346.574)" fill="#d12b8a"/>
    <path id="Path_2541" data-name="Path 2541" d="M251.413,298.16a14.2,14.2,0,1,0-8.941-25.226.768.768,0,0,0,.962,1.195,12.659,12.659,0,1,1-3.11,3.714.768.768,0,0,0-.126-.917h0a.769.769,0,0,0-1.217.178,14.193,14.193,0,0,0,12.432,21.058Z" transform="translate(-160.841 -217.567)" fill="#d12b8a"/>
  </g>
</svg>
