<svg xmlns="http://www.w3.org/2000/svg" width="24" height="25.012" viewBox="0 0 24 25.012">
  <g id="commerce-and-shopping" transform="translate(-10.359 0.002)">
    <g id="Group_3922" data-name="Group 3922" transform="translate(10.359 -0.002)">
      <g id="Group_3921" data-name="Group 3921" transform="translate(0 0)">
        <path id="Path_2230" data-name="Path 2230" d="M33.2,12.828a.733.733,0,0,1,0-.648l.933-1.908A2.171,2.171,0,0,0,33.2,7.389l-1.876-1a.733.733,0,0,1-.381-.524l-.367-2.092a2.171,2.171,0,0,0-2.453-1.782l-2.1.3a.733.733,0,0,1-.616-.2L23.875.615a2.171,2.171,0,0,0-3.032,0L19.316,2.092a.733.733,0,0,1-.616.2l-2.1-.3a2.171,2.171,0,0,0-2.453,1.782l-.367,2.092a.733.733,0,0,1-.381.524l-1.876,1a2.171,2.171,0,0,0-.937,2.883l.933,1.908a.733.733,0,0,1,0,.648l-.933,1.908a2.171,2.171,0,0,0,.937,2.883l1.876,1a.733.733,0,0,1,.381.524l.367,2.092a2.17,2.17,0,0,0,2.14,1.8,2.231,2.231,0,0,0,.312-.022l2.1-.3a.733.733,0,0,1,.616.2l1.527,1.477a2.171,2.171,0,0,0,3.032,0L25.4,22.917a.734.734,0,0,1,.616-.2l2.1.3a2.171,2.171,0,0,0,2.453-1.782l.367-2.092a.733.733,0,0,1,.381-.524l1.876-1a2.171,2.171,0,0,0,.937-2.883Zm-.68,3.517-1.876,1A2.166,2.166,0,0,0,29.52,18.89l-.367,2.092a.735.735,0,0,1-.83.6l-2.1-.3a2.166,2.166,0,0,0-1.821.592l-1.527,1.477a.735.735,0,0,1-1.026,0L20.319,21.88a2.164,2.164,0,0,0-1.511-.614,2.214,2.214,0,0,0-.31.022l-2.1.3a.735.735,0,0,1-.83-.6L15.2,18.89a2.166,2.166,0,0,0-1.126-1.549l-1.876-1a.735.735,0,0,1-.317-.976l.933-1.908a2.166,2.166,0,0,0,0-1.915l-.933-1.908a.735.735,0,0,1,.317-.976l1.876-1A2.166,2.166,0,0,0,15.2,6.118l.367-2.092a.735.735,0,0,1,.83-.6l2.1.3a2.166,2.166,0,0,0,1.821-.592l1.527-1.477a.735.735,0,0,1,1.026,0L24.4,3.129a2.166,2.166,0,0,0,1.821.592l2.1-.3a.735.735,0,0,1,.83.6l.367,2.092a2.166,2.166,0,0,0,1.126,1.549l1.876,1a.735.735,0,0,1,.317.976l-.933,1.908a2.166,2.166,0,0,0,0,1.915l.933,1.908A.735.735,0,0,1,32.522,16.346Z" transform="translate(-10.359 0.002)" fill="#727272"/>
      </g>
    </g>
    <g id="Group_3924" data-name="Group 3924" transform="translate(16.877 7.023)">
      <g id="Group_3923" data-name="Group 3923" transform="translate(0)">
        <path id="Path_2231" data-name="Path 2231" d="M154.543,144a.721.721,0,0,0-1.02,0L144,153.523a.721.721,0,1,0,1.02,1.02l9.521-9.521A.721.721,0,0,0,154.543,144Z" transform="translate(-143.791 -143.791)" fill="#727272"/>
      </g>
    </g>
    <g id="Group_3926" data-name="Group 3926" transform="translate(16.829 6.013)">
      <g id="Group_3925" data-name="Group 3925" transform="translate(0)">
        <path id="Path_2232" data-name="Path 2232" d="M145.447,123.116a2.645,2.645,0,1,0,2.645,2.645A2.648,2.648,0,0,0,145.447,123.116Zm0,3.847a1.2,1.2,0,1,1,1.2-1.2A1.2,1.2,0,0,1,145.447,126.963Z" transform="translate(-142.802 -123.116)" fill="#727272"/>
      </g>
    </g>
    <g id="Group_3928" data-name="Group 3928" transform="translate(22.599 13.706)">
      <g id="Group_3927" data-name="Group 3927" transform="translate(0)">
        <path id="Path_2233" data-name="Path 2233" d="M263.567,280.61a2.645,2.645,0,1,0,2.645,2.645A2.648,2.648,0,0,0,263.567,280.61Zm0,3.847a1.2,1.2,0,1,1,1.2-1.2A1.2,1.2,0,0,1,263.567,284.457Z" transform="translate(-260.922 -280.61)" fill="#727272"/>
      </g>
    </g>
  </g>
</svg>
