<svg xmlns="http://www.w3.org/2000/svg" width="37.072" height="34.024" viewBox="0 0 37.072 34.024">
  <g id="shopping-cart" transform="translate(0.25 -21.084)">
    <g id="Group_3" data-name="Group 3" transform="translate(0 21.334)">
      <g id="Group_2" data-name="Group 2">
        <path id="Path_3" data-name="Path 3" d="M36.42,26.21a.792.792,0,0,0-.61-.3H6.857L6.1,21.944c0-.3-.457-.61-.762-.61H.762a.762.762,0,0,0,0,1.524H4.724L8.381,41.449a5.369,5.369,0,0,0,5.181,4.267H31.086a.762.762,0,0,0,0-1.524H13.714a3.513,3.513,0,0,1-3.048-1.676l22.248-3.048a.655.655,0,0,0,.61-.61l3.048-12.191A.752.752,0,0,0,36.42,26.21ZM32.153,38.1,9.9,40.991,7.162,27.277H34.743Z" transform="translate(0 -21.334)" fill="#fff" stroke="#fff" stroke-width="0.5"/>
      </g>
    </g>
    <g id="Group_5" data-name="Group 5" transform="translate(9.143 47.239)">
      <g id="Group_4" data-name="Group 4">
        <path id="Path_4" data-name="Path 4" d="M131.81,384a3.81,3.81,0,1,0,3.81,3.81A3.773,3.773,0,0,0,131.81,384Zm0,6.1a2.286,2.286,0,1,1,2.286-2.286A2.344,2.344,0,0,1,131.81,390.1Z" transform="translate(-128 -384)" fill="#fff" stroke="#fff" stroke-width="0.5"/>
      </g>
    </g>
    <g id="Group_7" data-name="Group 7" transform="translate(24.381 47.239)">
      <g id="Group_6" data-name="Group 6">
        <path id="Path_5" data-name="Path 5" d="M345.144,384a3.81,3.81,0,1,0,3.809,3.81A3.773,3.773,0,0,0,345.144,384Zm0,6.1a2.286,2.286,0,1,1,2.286-2.286A2.344,2.344,0,0,1,345.144,390.1Z" transform="translate(-341.334 -384)" fill="#fff" stroke="#fff" stroke-width="0.5"/>
      </g>
    </g>
  </g>
</svg>
