<svg xmlns="http://www.w3.org/2000/svg" xmlns:xlink="http://www.w3.org/1999/xlink" width="61.021" height="54.857" viewBox="0 0 61.021 54.857">
  <defs>
    <linearGradient id="linear-gradient" x1="0.5" x2="0.5" y2="1" gradientUnits="objectBoundingBox">
      <stop offset="0" stop-color="#23b7c0"/>
      <stop offset="1" stop-color="#70489d"/>
    </linearGradient>
  </defs>
  <path id="smart-home" d="M50.075,65.2a1.874,1.874,0,1,0,2.651,0,1.877,1.877,0,0,0-2.651,0ZM56,61.933a1,1,0,0,1-1.414,1.414,4.5,4.5,0,0,0-6.362,0,1,1,0,0,1-1.414-1.414A6.494,6.494,0,0,1,56,61.933Zm3-2a1,1,0,0,1-.707-.293,9.741,9.741,0,0,0-13.784,0,1,1,0,0,1-1.414-1.414,11.74,11.74,0,0,1,16.611,0A1,1,0,0,1,59,59.929ZM50.858,72.441a6,6,0,0,1-6,6H12.5a6,6,0,0,1-6-6V42.14L1.544,45.354A1,1,0,0,1,.456,43.677l23.3-15.115a8.891,8.891,0,0,1,9.668,0l5.816,3.774V26.581a1,1,0,0,1,0-2H49.858a1,1,0,1,1,0,2h-.125v6.748a1,1,0,1,1-2,0V26.581h-6.5v7.051L56.717,43.677a1,1,0,0,1-.545,1.838c-.438,0,1.142.932-23.84-15.276a6.89,6.89,0,0,0-7.492,0L8.5,40.842v31.6a4,4,0,0,0,4,4H36.238V59.879A2.186,2.186,0,0,0,34.054,57.7H23.176a2.186,2.186,0,0,0-2.184,2.183V72.316a1,1,0,1,1-2,0V59.879A4.188,4.188,0,0,1,23.176,55.7H34.054a4.188,4.188,0,0,1,4.183,4.183v16.56H44.86a4,4,0,0,0,4-4,1,1,0,1,1,2,0Zm-1-26.741a1,1,0,0,1,1,1v4.061a1,1,0,0,1-2,0V46.7A1,1,0,0,1,49.858,45.7Z" transform="translate(0.503 -24.082)" stroke="rgba(0,0,0,0)" stroke-width="1" fill="url(#linear-gradient)"/>
</svg>
