<svg id="smartphone_2_" data-name="smartphone (2)" xmlns="http://www.w3.org/2000/svg" width="50" height="50" viewBox="0 0 50 50">
  <g id="Group_3165" data-name="Group 3165" transform="translate(10 41.667)">
    <g id="Group_3164" data-name="Group 3164">
      <path id="Path_1847" data-name="Path 1847" d="M131.567,426.667H103.233a.833.833,0,0,0-.833.833v3.945A3.559,3.559,0,0,0,105.955,435h22.89a3.559,3.559,0,0,0,3.555-3.555V427.5A.833.833,0,0,0,131.567,426.667Zm-.833,4.778a1.89,1.89,0,0,1-1.888,1.888H105.955a1.89,1.89,0,0,1-1.888-1.888v-3.112h26.667Z" transform="translate(-102.4 -426.667)"/>
    </g>
  </g>
  <g id="Group_3167" data-name="Group 3167" transform="translate(21.667 45)">
    <g id="Group_3166" data-name="Group 3166">
      <path id="Path_1848" data-name="Path 1848" d="M227.7,460.8h-5a.833.833,0,1,0,0,1.667h5a.833.833,0,1,0,0-1.667Z" transform="translate(-221.867 -460.8)"/>
    </g>
  </g>
  <g id="Group_3169" data-name="Group 3169" transform="translate(30.833 45)">
    <g id="Group_3168" data-name="Group 3168">
      <path id="Path_1849" data-name="Path 1849" d="M319.9,460.8h-3.333a.833.833,0,0,0,0,1.667H319.9a.833.833,0,0,0,0-1.667Z" transform="translate(-315.734 -460.8)"/>
    </g>
  </g>
  <g id="Group_3171" data-name="Group 3171" transform="translate(14.167 45)">
    <g id="Group_3170" data-name="Group 3170">
      <path id="Path_1850" data-name="Path 1850" d="M149.234,460.8H145.9a.833.833,0,1,0,0,1.667h3.333a.833.833,0,1,0,0-1.667Z" transform="translate(-145.067 -460.8)"/>
    </g>
  </g>
  <g id="Group_3173" data-name="Group 3173" transform="translate(10)">
    <g id="Group_3172" data-name="Group 3172">
      <path id="Path_1851" data-name="Path 1851" d="M128.846,0H105.955A3.559,3.559,0,0,0,102.4,3.555V7.5a.833.833,0,0,0,.833.833h28.333A.833.833,0,0,0,132.4,7.5V3.555A3.558,3.558,0,0,0,128.846,0Zm1.888,6.667H104.067V3.555a1.891,1.891,0,0,1,1.888-1.888h22.89a1.89,1.89,0,0,1,1.888,1.888V6.667Z" transform="translate(-102.4)"/>
    </g>
  </g>
  <g id="Group_3175" data-name="Group 3175" transform="translate(20 3.333)">
    <g id="Group_3174" data-name="Group 3174">
      <path id="Path_1852" data-name="Path 1852" d="M213.968,34.133h-8.333a.833.833,0,0,0,0,1.667h8.333a.833.833,0,0,0,0-1.667Z" transform="translate(-204.801 -34.133)"/>
    </g>
  </g>
  <g id="Group_3177" data-name="Group 3177" transform="translate(10 6.667)">
    <g id="Group_3176" data-name="Group 3176">
      <path id="Path_1853" data-name="Path 1853" d="M131.567,68.267H103.233a.833.833,0,0,0-.833.833v35a.833.833,0,0,0,.833.833h28.333a.833.833,0,0,0,.833-.833v-35A.833.833,0,0,0,131.567,68.267Zm-.833,35H104.067V69.934h26.667v33.333Z" transform="translate(-102.4 -68.267)"/>
    </g>
  </g>
  <g id="Group_3179" data-name="Group 3179" transform="translate(42.494 18.333)">
    <g id="Group_3178" data-name="Group 3178">
      <path id="Path_1854" data-name="Path 1854" d="M436.781,188.331a.833.833,0,0,0-1.6.465,20.138,20.138,0,0,1-.006,11.219.834.834,0,0,0,.567,1.033.847.847,0,0,0,.234.033.834.834,0,0,0,.8-.6,21.8,21.8,0,0,0,.006-12.152Z" transform="translate(-435.141 -187.73)" fill="#d12b8a"/>
    </g>
  </g>
  <g id="Group_3181" data-name="Group 3181" transform="translate(5.006 18.332)">
    <g id="Group_3180" data-name="Group 3180">
      <path id="Path_1855" data-name="Path 1855" d="M53.727,200.008a20.13,20.13,0,0,1,0-11.22.833.833,0,0,0-1.6-.465,21.8,21.8,0,0,0,.006,12.152.832.832,0,0,0,.8.6.815.815,0,0,0,.234-.033A.833.833,0,0,0,53.727,200.008Z" transform="translate(-51.26 -187.721)" fill="#d12b8a"/>
    </g>
  </g>
  <g id="Group_3183" data-name="Group 3183" transform="translate(0 15)">
    <g id="Group_3182" data-name="Group 3182">
      <path id="Path_1856" data-name="Path 1856" d="M1.667,163.6a22.342,22.342,0,0,1,1.594-8.827.833.833,0,0,0-1.522-.68,26.858,26.858,0,0,0,0,19.013.836.836,0,0,0,.762.493.822.822,0,0,0,.34-.072.834.834,0,0,0,.421-1.1A22.342,22.342,0,0,1,1.667,163.6Z" transform="translate(0 -153.6)" fill="#d12b8a"/>
    </g>
  </g>
  <g id="Group_3185" data-name="Group 3185" transform="translate(46.667 15)">
    <g id="Group_3184" data-name="Group 3184">
      <path id="Path_1857" data-name="Path 1857" d="M479.46,154.091a.833.833,0,1,0-1.522.68,25.239,25.239,0,0,1,0,17.653.834.834,0,0,0,.421,1.1.818.818,0,0,0,.339.072.834.834,0,0,0,.761-.493,26.852,26.852,0,0,0,0-19.013Z" transform="translate(-477.866 -153.597)" fill="#d12b8a"/>
    </g>
  </g>
  <g id="Group_3187" data-name="Group 3187" transform="translate(30 28.333)">
    <g id="Group_3186" data-name="Group 3186">
      <path id="Path_1858" data-name="Path 1858" d="M313.033,290.133h-5a.833.833,0,0,0-.833.833v5a.833.833,0,0,0,.833.833h5a.833.833,0,0,0,.833-.833v-5A.833.833,0,0,0,313.033,290.133Zm-.833,5h-3.333V291.8H312.2Z" transform="translate(-307.2 -290.133)" fill="#d12b8a"/>
    </g>
  </g>
  <g id="Group_3189" data-name="Group 3189" transform="translate(13.333 28.333)">
    <g id="Group_3188" data-name="Group 3188">
      <path id="Path_1859" data-name="Path 1859" d="M150.7,290.133H137.367a.833.833,0,0,0-.833.833V304.3a.833.833,0,0,0,.833.833H150.7a.833.833,0,0,0,.833-.833V290.966A.833.833,0,0,0,150.7,290.133Zm-.833,13.333H138.2V291.8h11.667Z" transform="translate(-136.534 -290.133)"/>
    </g>
  </g>
  <g id="Group_3191" data-name="Group 3191" transform="translate(16.667 31.667)">
    <g id="Group_3190" data-name="Group 3190">
      <path id="Path_1860" data-name="Path 1860" d="M173.167,324.267H171.5a.833.833,0,1,0,0,1.667h1.667a.833.833,0,1,0,0-1.667Z" transform="translate(-170.667 -324.267)" fill="#d12b8a"/>
    </g>
  </g>
  <g id="Group_3193" data-name="Group 3193" transform="translate(16.667 35)">
    <g id="Group_3192" data-name="Group 3192">
      <path id="Path_1861" data-name="Path 1861" d="M178.167,358.4H171.5a.833.833,0,1,0,0,1.667h6.667a.833.833,0,1,0,0-1.667Z" transform="translate(-170.667 -358.4)" fill="#d12b8a"/>
    </g>
  </g>
  <g id="Group_3195" data-name="Group 3195" transform="translate(21.667 31.667)">
    <g id="Group_3194" data-name="Group 3194">
      <path id="Path_1862" data-name="Path 1862" d="M224.367,324.267H222.7a.833.833,0,1,0,0,1.667h1.667a.833.833,0,1,0,0-1.667Z" transform="translate(-221.867 -324.267)" fill="#d12b8a"/>
    </g>
  </g>
  <g id="Group_3197" data-name="Group 3197" transform="translate(16.667 38.333)">
    <g id="Group_3196" data-name="Group 3196">
      <path id="Path_1863" data-name="Path 1863" d="M173.167,392.533H171.5a.833.833,0,1,0,0,1.667h1.667a.833.833,0,1,0,0-1.667Z" transform="translate(-170.667 -392.533)" fill="#d12b8a"/>
    </g>
  </g>
  <g id="Group_3199" data-name="Group 3199" transform="translate(21.667 38.333)">
    <g id="Group_3198" data-name="Group 3198">
      <path id="Path_1864" data-name="Path 1864" d="M224.367,392.533H222.7a.833.833,0,1,0,0,1.667h1.667a.833.833,0,1,0,0-1.667Z" transform="translate(-221.867 -392.533)" fill="#d12b8a"/>
    </g>
  </g>
  <g id="Group_3201" data-name="Group 3201" transform="translate(17.5 24.167)">
    <g id="Group_3200" data-name="Group 3200">
      <path id="Path_1865" data-name="Path 1865" d="M185.033,247.467h-5a.833.833,0,1,0,0,1.667h5a.833.833,0,0,0,0-1.667Z" transform="translate(-179.2 -247.467)" fill="#d12b8a"/>
    </g>
  </g>
  <g id="Group_3203" data-name="Group 3203" transform="translate(25.833 24.167)">
    <g id="Group_3202" data-name="Group 3202">
      <path id="Path_1866" data-name="Path 1866" d="M270.367,247.467h-5a.833.833,0,0,0,0,1.667h5a.833.833,0,1,0,0-1.667Z" transform="translate(-264.534 -247.467)" fill="#d12b8a"/>
    </g>
  </g>
  <g id="Group_3205" data-name="Group 3205" transform="translate(19.167 10.833)">
    <g id="Group_3204" data-name="Group 3204">
      <path id="Path_1867" data-name="Path 1867" d="M202.1,110.933a5.833,5.833,0,1,0,5.833,5.833A5.84,5.84,0,0,0,202.1,110.933Zm0,10a4.167,4.167,0,1,1,4.167-4.167A4.171,4.171,0,0,1,202.1,120.933Z" transform="translate(-196.267 -110.933)" fill="#d12b8a"/>
    </g>
  </g>
</svg>
