<svg width="18" height="19" viewBox="0 0 18 19" fill="none" xmlns="http://www.w3.org/2000/svg">
<path d="M8.09753 0.890748C8.45981 0.131755 9.5402 0.131757 9.90247 0.89075L11.8949 5.06515C12.0365 5.36179 12.3149 5.56991 12.6395 5.62184L17.1102 6.33699C17.9078 6.46457 18.2329 7.43613 17.6727 8.01799L14.3943 11.4233C14.1774 11.6487 14.0783 11.9625 14.1267 12.2716L14.867 16.9994C14.9951 17.818 14.1292 18.4284 13.4013 18.0325L9.47776 15.8988C9.17985 15.7368 8.82015 15.7368 8.52225 15.8988L4.59875 18.0325C3.87081 18.4284 3.00485 17.818 3.13303 16.9994L3.87327 12.2716C3.92165 11.9625 3.82265 11.6487 3.60571 11.4233L0.32731 8.01799C-0.23286 7.43613 0.0922192 6.46457 0.889764 6.33699L5.36055 5.62184C5.68513 5.56991 5.96347 5.36179 6.10506 5.06514L8.09753 0.890748Z" fill="#D12B8A"/>
</svg>
