<svg xmlns="http://www.w3.org/2000/svg" width="64" height="64" viewBox="0 0 64 64">
  <g id="Group_5338" data-name="Group 5338" transform="translate(-998 -2185)">
    <circle id="Ellipse_1183" data-name="Ellipse 1183" cx="32" cy="32" r="32" transform="translate(998 2185)" fill="#23b7c0"/>
    <g id="track" transform="translate(1014 2202)">
      <path id="Path_2613" data-name="Path 2613" d="M29.5,1.924a6.644,6.644,0,1,0-8.274,10.31c.4.261.28.163,2.686,4.412a1.093,1.093,0,0,0,.149.2L20.555,20.23a2.807,2.807,0,0,0-4.353.491l-4.684-2.788a2.81,2.81,0,1,0-4.872,1.921L3.581,24.486a2.812,2.812,0,1,0,.9.443L7.44,20.455a2.812,2.812,0,0,0,3.883-1.481l4.5,2.679a2.811,2.811,0,1,0,5.307-.6c4.292-4.135,4.029-3.875,4.071-3.934a1.043,1.043,0,0,0,.559-.474c2.4-4.247,2.282-4.15,2.687-4.412A6.645,6.645,0,0,0,29.5,1.924ZM4.628,27.19A1.818,1.818,0,1,1,2.81,25.372,1.82,1.82,0,0,1,4.628,27.19Zm2.591-8.2a1.817,1.817,0,1,1,3.306-1.043A1.819,1.819,0,0,1,7.219,18.989Zm11.357,5.053a1.817,1.817,0,1,1,1.264-3.123A1.823,1.823,0,0,1,18.576,24.042Zm9.366-12.59a2.37,2.37,0,0,0-.771.815c-2.392,4.225-2.222,3.985-2.332,3.985s.064.246-2.332-3.985a2.361,2.361,0,0,0-.771-.815,5.713,5.713,0,1,1,6.206,0Zm0,0" transform="translate(0 0)" fill="#fff"/>
      <path id="Path_2614" data-name="Path 2614" d="M337.121,34.771a4.624,4.624,0,1,0-.666,6.217.5.5,0,1,0-.655-.746,3.63,3.63,0,1,1,.948-1.316.5.5,0,1,0,.916.383A4.623,4.623,0,0,0,337.121,34.771Zm0,0" transform="translate(-308.562 -30.869)" fill="#fff"/>
    </g>
  </g>
</svg>
