<svg xmlns="http://www.w3.org/2000/svg" width="14.972" height="12.734" viewBox="0 0 14.972 12.734">
  <g id="wifi" transform="translate(0 -45.5)">
    <g id="Group_1790" data-name="Group 1790" transform="translate(6.239 55.94)">
      <g id="Group_1789" data-name="Group 1789" transform="translate(0 0)">
        <circle id="Ellipse_674" data-name="Ellipse 674" cx="1" cy="1" r="1" transform="translate(-0.239 0.295)" fill="#d12b8a"/>
      </g>
    </g>
    <g id="Group_1792" data-name="Group 1792" transform="translate(0 45.5)">
      <g id="Group_1791" data-name="Group 1791" transform="translate(0 0)">
        <path id="Path_1251" data-name="Path 1251" d="M14.816,48.7a10,10,0,0,0-14.658,0,.585.585,0,1,0,.856.8,8.828,8.828,0,0,1,12.947,0,.585.585,0,1,0,.856-.8Z" transform="translate(0 -45.5)" fill="#d12b8a"/>
      </g>
    </g>
    <g id="Group_1794" data-name="Group 1794" transform="translate(2.135 48.894)">
      <g id="Group_1793" data-name="Group 1793" transform="translate(0 0)">
        <path id="Path_1252" data-name="Path 1252" d="M83.531,163.767a7.158,7.158,0,0,0-10.363,0,.585.585,0,1,0,.83.824,5.989,5.989,0,0,1,8.7,0,.585.585,0,1,0,.83-.824Z" transform="translate(-72.998 -161.547)" fill="#d12b8a"/>
      </g>
    </g>
    <g id="Group_1796" data-name="Group 1796" transform="translate(4.418 52.314)">
      <g id="Group_1795" data-name="Group 1795" transform="translate(0 0)">
        <path id="Path_1253" data-name="Path 1253" d="M156.985,279.722a4.22,4.22,0,0,0-2.846-1.222H154.1a4.22,4.22,0,0,0-2.847,1.222.585.585,0,0,0,.823.831,3.054,3.054,0,0,1,2.023-.883h.043a3.054,3.054,0,0,1,2.023.883.585.585,0,0,0,.823-.831Z" transform="translate(-151.076 -278.5)" fill="#d12b8a"/>
      </g>
    </g>
  </g>
</svg>
