<svg xmlns="http://www.w3.org/2000/svg" width="19.986" height="19.986" viewBox="0 0 19.986 19.986">
  <g id="wifi_1_" data-name="wifi (1)" transform="translate(-49.73 -49.851)">
    <path id="Path_232" data-name="Path 232" d="M89.61,54.931A16.711,16.711,0,0,0,77.714,50h-.032l0,1.223h.03a15.608,15.608,0,0,1,15.6,15.632l1.223,0A16.711,16.711,0,0,0,89.61,54.931Z" transform="translate(-24.973 0)" stroke="#000" stroke-width="0.3"/>
    <path id="Path_233" data-name="Path 233" d="M77.694,105.3v1.223a10.22,10.22,0,0,1,10.223,10.224H89.14A11.443,11.443,0,0,0,77.694,105.3Z" transform="translate(-24.984 -49.888)" stroke="#000" stroke-width="0.3"/>
    <path id="Path_234" data-name="Path 234" d="M77.668,160.6l-.007,1.223a4.831,4.831,0,0,1,4.817,4.817l1.223-.007a6.054,6.054,0,0,0-6.033-6.033Z" transform="translate(-24.955 -99.777)" stroke="#000" stroke-width="0.3"/>
    <path id="Path_235" data-name="Path 235" d="M50.538,213.037a1.834,1.834,0,1,0,2.594,0A1.834,1.834,0,0,0,50.538,213.037Z" transform="translate(0 -146.602)" stroke="#000" stroke-width="0.3"/>
  </g>
</svg>
