<svg xmlns="http://www.w3.org/2000/svg" width="25.286" height="25.323" viewBox="0 0 25.286 25.323">
  <g id="world" transform="translate(0.006 0.153)">
    <g id="Group_1818" data-name="Group 1818" transform="translate(0.144 0)">
      <g id="Group_1817" data-name="Group 1817" transform="translate(0 0)">
        <path id="Path_1264" data-name="Path 1264" d="M20.895,3.15l-.037-.032A12.453,12.453,0,0,0,3.331,4.155L3.3,4.188a12.453,12.453,0,0,0-3.132,7.55c0,.249-.023.5-.023.747a12.552,12.552,0,0,0,.125,1.739v.032A12.513,12.513,0,0,0,6.283,23.25a.462.462,0,0,0,.1.06A12.481,12.481,0,0,0,20.895,3.15ZM8.142,1.831A11.5,11.5,0,0,1,12.62.908h.42A.581.581,0,0,1,13,1.287c-.143.272-.595.461-1.278.54A2.887,2.887,0,0,0,9.078,4.215a1.734,1.734,0,0,1-.922-.646A1.622,1.622,0,0,1,8.142,1.831Zm-4.4,3.261L5.785,6.6a.319.319,0,0,0,.1.055c.138.069.314.383.148,1.1a.5.5,0,0,1-.115-.231.461.461,0,0,0-.54-.351l-.969.189a.461.461,0,0,0-.341.627s.24.641-.078.922a1.789,1.789,0,0,1-.461.272A3.539,3.539,0,0,0,1.514,11.41a2.464,2.464,0,0,1-.3.623,1.533,1.533,0,0,1-.125-.3A11.53,11.53,0,0,1,3.742,5.092Zm-2.389,10a4.151,4.151,0,0,0,1.753.526.641.641,0,0,1,.646.609.461.461,0,0,0,.277.374,2.066,2.066,0,0,1,1.1,1.605,1.444,1.444,0,0,0,.683,1.088,2.664,2.664,0,0,0,1.993.078.148.148,0,0,1,.046.046c.028.042.148.3-.166,1.047a5.5,5.5,0,0,1-1.158,1.845A11.6,11.6,0,0,1,1.352,15.091ZM12.62,24.062a11.494,11.494,0,0,1-5.276-1.278A6.8,6.8,0,0,0,8.529,20.8a2.075,2.075,0,0,0,.092-1.891,1.075,1.075,0,0,0-.816-.494.461.461,0,0,0-.184.028,1.965,1.965,0,0,1-1.347.042.53.53,0,0,1-.244-.429,3.026,3.026,0,0,0-1.421-2.2A1.522,1.522,0,0,0,3.1,14.671a4.612,4.612,0,0,1-1.96-.789c-.037-.3-.065-.613-.078-.922a.7.7,0,0,0,.1,0H1.2c.6,0,.955-.7,1.167-1.222A2.675,2.675,0,0,1,3.912,10a2.536,2.536,0,0,0,.706-.461,1.624,1.624,0,0,0,.438-1.425l.12-.023a1.485,1.485,0,0,0,1.107.687.461.461,0,0,0,.461-.3A2.79,2.79,0,0,0,6.832,6.36a1.245,1.245,0,0,0-.558-.59L4.364,4.4A11.632,11.632,0,0,1,7,2.393a2.2,2.2,0,0,0,.461,1.79,2.634,2.634,0,0,0,1.384.955.269.269,0,0,1,.171.078.461.461,0,0,0,.461.355h.065a.461.461,0,0,0,.4-.461,2.121,2.121,0,0,1,1.9-2.306,2.363,2.363,0,0,0,2-1.029,1.425,1.425,0,0,0,.157-.733A11.53,11.53,0,0,1,19.608,3.27c-3.745.964-3.69,1.656-3.644,1.965.069.678.106,1.522.106,1.531a.461.461,0,0,0,.374.434A2.145,2.145,0,0,0,18,6.8a4.611,4.611,0,0,1,0,.641,3.579,3.579,0,0,1-1.845.314,1.384,1.384,0,0,1-.987-.521.461.461,0,0,0-.8.092l-.134.318a.955.955,0,0,1-.254-.872.922.922,0,0,0-.521-1c-.678-.286-1.66.286-2.108.807a1.006,1.006,0,0,0-.217,1.241c.369.595,1.725,2.5,3.69,2.052.461-.106,1.54-.028,3.528,1.66l.065.051c.12.138.563.964.922,1.628,1.291,2.408,1.467,2.629,1.794,2.7a1.086,1.086,0,0,0,.231,0,5.331,5.331,0,0,0,2.509-.816A11.586,11.586,0,0,1,12.62,24.062ZM24.114,13.79a4.8,4.8,0,0,1-2.675,1.231c-.258-.341-.886-1.513-1.273-2.242-.738-1.384-.922-1.739-1.121-1.882l-.078-.065c-1.753-1.485-3.229-2.112-4.331-1.845-1.384.318-2.426-1.176-2.7-1.6a1.093,1.093,0,0,1,.461-.5,1.384,1.384,0,0,1,.687-.268.574.574,0,0,1,0,.078,1.678,1.678,0,0,0,1.384,2.006.461.461,0,0,0,.461-.281l.051-.12a3.421,3.421,0,0,0,2.509.291c.521-.115,1.324-.36,1.416-.839,0,0,.272-1.633-.41-2.006a.706.706,0,0,0-.862.184,1.342,1.342,0,0,1-.646.346c0-.286-.042-.664-.078-1.024a13.779,13.779,0,0,1,3.588-1.245,11.531,11.531,0,0,1,3.634,9.773Z" transform="translate(-0.144 0)" fill="#d12b8a" stroke="#d12b8a" stroke-width="0.3"/>
      </g>
    </g>
    <g id="Group_1820" data-name="Group 1820" transform="translate(8.553 10.4)">
      <g id="Group_1819" data-name="Group 1819">
        <path id="Path_1265" data-name="Path 1265" d="M158.508,187.454a.77.77,0,0,0-.756-.466l-.766-.5a.461.461,0,0,0-.143-.065c-.088,0-.853-.249-.627-1.342.387-1.882-.208-2.878-2.066-3.441-.461-.138-.895-.309-1.319-.461a8.266,8.266,0,0,0-4.017-.779.461.461,0,0,0-.4.323,2.066,2.066,0,0,1-1.384,1.347A1.259,1.259,0,0,0,146,183.4a2.925,2.925,0,0,0,1.9,2.744l.129.028c1.278.281,2.38.526,1.845,3.556-.268,1.536-.129,2.638.406,3.275a1.61,1.61,0,0,0,1.287.544c1.061,0,2.486-.807,4.243-2.4C158.5,188.7,158.693,187.915,158.508,187.454Zm-3.316,3.026c-2.071,1.882-3.159,2.145-3.625,2.145a.692.692,0,0,1-.577-.221,3.472,3.472,0,0,1-.2-2.523c.664-3.9-1.268-4.331-2.564-4.635h-.12a2.061,2.061,0,0,1-1.176-1.845c0-.4.184-.429.272-.461a2.809,2.809,0,0,0,1.983-1.679A7.693,7.693,0,0,1,152.5,182c.461.175.9.351,1.384.5,1.384.42,1.72.969,1.43,2.371a1.957,1.957,0,0,0,1.208,2.426l.826.553a.461.461,0,0,0,.194.074A11.31,11.31,0,0,1,155.192,190.479Z" transform="translate(-146.001 -180.383)" fill="#d12b8a" stroke="#d12b8a" stroke-width="0.3"/>
      </g>
    </g>
  </g>
</svg>
