<svg xmlns="http://www.w3.org/2000/svg" width="58.462" height="47.609" viewBox="0 0 58.462 47.609">
  <g id="worldwide" transform="translate(0.331 -47.639)">
    <g id="Group_1177" data-name="Group 1177" transform="translate(19.859 47.948)">
      <g id="Group_1176" data-name="Group 1176" transform="translate(0 0)">
        <path id="Path_175" data-name="Path 175" d="M206.913,54.841a23.468,23.468,0,0,0-29.977-2.715,1.13,1.13,0,0,0,1.287,1.857,21.15,21.15,0,0,1,6.975-3.154,14.621,14.621,0,0,0-1.278,1.879,31.918,31.918,0,0,0-3.477,11.08,1.13,1.13,0,0,0,2.235.33c.138-.932.3-1.84.492-2.717h14.264a47.441,47.441,0,0,1,1,8.923h-3.163a1.13,1.13,0,1,0,0,2.259h3.163a47.441,47.441,0,0,1-1,8.923h-5.591a1.13,1.13,0,1,0,0,2.259h5.028a28.19,28.19,0,0,1-1.058,3.07c-1.431,3.452-3.265,5.536-5.089,5.819q-.42.009-.841,0c-3.187-.479-6.208-6.411-7.289-14.457a1.13,1.13,0,1,0-2.239.3A32.954,32.954,0,0,0,183.809,90a14.959,14.959,0,0,0,1.363,2.044,20.923,20.923,0,0,1-7.545-3.551,1.129,1.129,0,0,0-1.35,1.811A23.469,23.469,0,0,0,190.3,94.948h0q.8,0,1.61-.055a23.494,23.494,0,0,0,15-40.052Zm4.592,15.483H200.692a50.22,50.22,0,0,0-.951-8.923h9.275A21.076,21.076,0,0,1,211.505,70.324ZM183.734,59.142a23.716,23.716,0,0,1,2.143-5.3c1.348-2.334,2.919-3.619,4.423-3.619,1.962,0,3.971,2.134,5.514,5.854a28.193,28.193,0,0,1,1.058,3.07ZM197.9,55.207a17.778,17.778,0,0,0-2.5-4.375,21.209,21.209,0,0,1,9.913,5.606,21.5,21.5,0,0,1,2.291,2.7h-8.393A31.131,31.131,0,0,0,197.9,55.207Zm7.415,31.262a21.1,21.1,0,0,1-9.876,5.56A17.872,17.872,0,0,0,197.9,87.7a31.137,31.137,0,0,0,1.313-3.935h8.393A21.461,21.461,0,0,1,205.316,86.469Zm-5.575-4.963a50.22,50.22,0,0,0,.951-8.923h10.814a21.074,21.074,0,0,1-2.49,8.923Z" transform="translate(-175.823 -47.948)" stroke="#fff" stroke-width="0.6"/>
      </g>
    </g>
    <g id="Group_1179" data-name="Group 1179" transform="translate(30.008 81.506)">
      <g id="Group_1178" data-name="Group 1178">
        <path id="Path_176" data-name="Path 176" d="M267.6,345.383a1.129,1.129,0,1,0,.331.8A1.138,1.138,0,0,0,267.6,345.383Z" transform="translate(-265.67 -345.052)"/>
      </g>
    </g>
    <g id="Group_1181" data-name="Group 1181" transform="translate(0 56.414)">
      <g id="Group_1180" data-name="Group 1180" transform="translate(0)">
        <path id="Path_177" data-name="Path 177" d="M35.234,137.251a9.487,9.487,0,0,0-7.486-3.7h-4.1L19.508,123.6a1.129,1.129,0,0,0-1.043-.7H14.2a1.13,1.13,0,0,0-1.13,1.13v9.521H8.948L6.063,130.1a1.13,1.13,0,0,0-.867-.406H1.129a1.129,1.129,0,0,0-.982,1.688l3.734,6.557L.148,144.5a1.13,1.13,0,0,0,.982,1.689H5.2a1.129,1.129,0,0,0,.867-.406l2.886-3.457H13.07v9.533a1.13,1.13,0,0,0,1.13,1.13h4.265a1.129,1.129,0,0,0,1.043-.7l4.139-9.966h4.1a9.487,9.487,0,0,0,7.486-3.7A1.129,1.129,0,0,0,35.234,137.251Zm-19.9-12.087h2.382l3.489,8.392H15.329v-8.392Zm2.382,25.56H15.329v-8.41H21.2Zm10.037-10.663H8.6a1.159,1.159,0,0,0-.218-.011,1.13,1.13,0,0,0-.814.4l-2.9,3.469H3.072L6.163,138.5a1.129,1.129,0,0,0,0-1.118l-3.091-5.428H4.667l2.9,3.469a1.129,1.129,0,0,0,.816.4,1.142,1.142,0,0,0,.217-.011H27.747a7.222,7.222,0,0,1,5.092,2.124A7.222,7.222,0,0,1,27.748,140.062Z" transform="translate(0 -122.905)" fill="#d12b8a" stroke="#fff" stroke-width="0.5"/>
      </g>
    </g>
    <g id="Group_1183" data-name="Group 1183" transform="translate(0.169 56.414)">
      <g id="Group_1182" data-name="Group 1182" transform="translate(0 0)">
        <path id="Path_178" data-name="Path 178" d="M3.429,123.233a1.129,1.129,0,1,0,.331.8A1.138,1.138,0,0,0,3.429,123.233Z" transform="translate(-1.501 -122.902)" fill="#d12b8a" stroke="#fff" stroke-width="1"/>
      </g>
    </g>
    <g id="Group_1185" data-name="Group 1185" transform="translate(4.292 56.414)">
      <g id="Group_1184" data-name="Group 1184">
        <path id="Path_179" data-name="Path 179" d="M43.93,122.905h-4.8a1.13,1.13,0,1,0,0,2.259h4.8a1.13,1.13,0,1,0,0-2.259Z" transform="translate(-38 -122.905)" fill="#d12b8a" stroke="#fff" stroke-width="1"/>
      </g>
    </g>
    <g id="Group_1187" data-name="Group 1187" transform="translate(1.016 84.234)">
      <g id="Group_1186" data-name="Group 1186">
        <path id="Path_180" data-name="Path 180" d="M17.1,369.2H10.13a1.13,1.13,0,1,0,0,2.259H17.1a1.13,1.13,0,1,0,0-2.259Z" transform="translate(-9 -369.198)" fill="#d12b8a" stroke="#fff" stroke-width="1"/>
      </g>
    </g>
  </g>
</svg>
