<svg xmlns="http://www.w3.org/2000/svg" width="59.915" height="55.067" viewBox="0 0 59.915 55.067">
  <g id="Group_5171" data-name="Group 5171" transform="translate(-749.042 -1813.433)">
    <path id="smart-home" d="M-14.012-15.159-42.24-39.7a1.231,1.231,0,0,0-1.61,0L-72.078-15.159a1.228,1.228,0,0,0-.119,1.733,1.225,1.225,0,0,0,.924.421h6.135V12.772A1.226,1.226,0,0,0-63.912,14h41.73a1.226,1.226,0,0,0,1.228-1.226V-13h6.136a1.228,1.228,0,0,0,1.233-1.223A1.227,1.227,0,0,0-14.012-15.159Zm-8.169-.3a1.226,1.226,0,0,0-1.229,1.224V11.545H-62.683V-14.229a1.226,1.226,0,0,0-1.227-1.227h-4.083l24.947-21.692L-18.1-15.456h-4.081Z" transform="translate(822.042 1854)" stroke="#fff" stroke-width="1"/>
    <path id="smart-home-2" data-name="smart-home" d="M-43.046-.728A2.454,2.454,0,0,0-45.5,1.727a2.454,2.454,0,0,0,2.455,2.455,2.454,2.454,0,0,0,2.455-2.455A2.459,2.459,0,0,0-43.046-.728Zm0-4.907A7.305,7.305,0,0,0-48.936-2.69a1.228,1.228,0,0,0,.292,1.712,1.226,1.226,0,0,0,1.671-.237,5.054,5.054,0,0,1,7.109-.744,5.059,5.059,0,0,1,.744.744,1.228,1.228,0,0,0,1.71.3,1.228,1.228,0,0,0,.3-1.71c-.016-.023-.033-.045-.05-.066A7.314,7.314,0,0,0-43.046-5.635Zm0-4.91a12.26,12.26,0,0,0-9.331,4.3,1.227,1.227,0,0,0,.042,1.735A1.227,1.227,0,0,0-50.6-4.55c.03-.031.058-.065.085-.1A9.818,9.818,0,0,1-36.673-5.74a9.758,9.758,0,0,1,1.091,1.091,1.227,1.227,0,0,0,1.728.17,1.227,1.227,0,0,0,.17-1.728l-.03-.036A12.267,12.267,0,0,0-43.046-10.545Zm-12.791.8a1.229,1.229,0,0,0,.093,1.734A1.228,1.228,0,0,0-54.009-8.1h0a14.727,14.727,0,0,1,20.8-1.129A14.776,14.776,0,0,1-32.084-8.1a1.228,1.228,0,0,0,1.734.094,1.229,1.229,0,0,0,.093-1.734h0A17.182,17.182,0,0,0-54.52-11.063a17.2,17.2,0,0,0-1.319,1.319Z" transform="translate(822.042 1852)" fill="#d12b8a" stroke="#fff" stroke-width="1"/>
  </g>
</svg>
