<svg id="albania" xmlns="http://www.w3.org/2000/svg" width="32" height="32" viewBox="0 0 32 32">
  <circle id="Ellipse_1072" data-name="Ellipse 1072" cx="16" cy="16" r="16" fill="#d80027"/>
  <path id="Path_1930" data-name="Path 1930" d="M129.392,137.094h-5.8a2.087,2.087,0,1,0-3.248-2.594,2.087,2.087,0,1,0-3.248,2.594h-5.8a2.863,2.863,0,0,0,2.875,2.783h-.093a2.783,2.783,0,0,0,2.783,2.783,2.766,2.766,0,0,0,.36,1.368l-2.308,2.308,1.771,1.771,2.512-2.512a1.907,1.907,0,0,0,.305.085l-1.518,3.427,2.356,2.547,2.356-2.547-1.518-3.427a1.9,1.9,0,0,0,.305-.085L124,148.106l1.771-1.771-2.308-2.308a2.765,2.765,0,0,0,.36-1.368,2.783,2.783,0,0,0,2.783-2.783h-.093A2.863,2.863,0,0,0,129.392,137.094Z" transform="translate(-104.348 -125.218)"/>
</svg>
