<svg id="antigua-and-barbuda" xmlns="http://www.w3.org/2000/svg" width="32" height="32" viewBox="0 0 32 32">
  <path id="Path_1948" data-name="Path 1948" d="M0,193.391a16.069,16.069,0,0,0,.32,3.2l15.68.974,15.68-.974a16.141,16.141,0,0,0,0-6.4L16,189.217l-15.68.974A16.069,16.069,0,0,0,0,193.391Z" transform="translate(0 -177.391)" fill="#0052b4"/>
  <path id="Path_1949" data-name="Path 1949" d="M36.486,307.2H5.127a16,16,0,0,0,31.359,0Z" transform="translate(-4.807 -288)" fill="#f0f0f0"/>
  <path id="Path_1950" data-name="Path 1950" d="M5.127,12.8H36.486a16,16,0,0,0-31.359,0Z" transform="translate(-4.807)"/>
  <path id="Path_1951" data-name="Path 1951" d="M158.609,105.535H144.7l2.842-1.337-1.514-2.753,3.087.59.391-3.118,2.15,2.293,2.15-2.293.391,3.118,3.087-.59-1.514,2.753Z" transform="translate(-135.652 -92.735)" fill="#ffda44"/>
  <g id="Group_3438" data-name="Group 3438" transform="translate(0 6.399)">
    <path id="Path_1952" data-name="Path 1952" d="M0,111.992a16,16,0,0,0,16,16l-12.8-25.6A15.929,15.929,0,0,0,0,111.992Z" transform="translate(0 -102.391)" fill="#a2001d"/>
    <path id="Path_1953" data-name="Path 1953" d="M256,127.992a16,16,0,0,0,12.8-25.6Z" transform="translate(-240 -102.391)" fill="#a2001d"/>
  </g>
</svg>
