<svg id="armenia" xmlns="http://www.w3.org/2000/svg" width="32" height="32" viewBox="0 0 32 32">
  <path id="Path_1957" data-name="Path 1957" d="M32,162.087a15.964,15.964,0,0,0-1-5.565l-15-.7-15,.7a16.058,16.058,0,0,0,0,11.13l15,.7,15-.7A15.964,15.964,0,0,0,32,162.087Z" transform="translate(0 -146.087)" fill="#0052b4"/>
  <path id="Path_1958" data-name="Path 1958" d="M30.928,355.478a16.006,16.006,0,0,0,15-10.435H15.923A16.006,16.006,0,0,0,30.928,355.478Z" transform="translate(-14.928 -323.478)" fill="#ff9811"/>
  <path id="Path_1959" data-name="Path 1959" d="M15.923,10.435h30.01a16.006,16.006,0,0,0-30.01,0Z" transform="translate(-14.928)" fill="#d80027"/>
</svg>
