<svg id="barbados" xmlns="http://www.w3.org/2000/svg" width="32" height="32" viewBox="0 0 32 32">
  <path id="Path_1964" data-name="Path 1964" d="M137.739,1.588a16.034,16.034,0,0,0-13.913,0L122.435,16l1.391,14.412a16.034,16.034,0,0,0,13.913,0L139.131,16Z" transform="translate(-114.783)" fill="#ffda44"/>
  <g id="Group_3441" data-name="Group 3441" transform="translate(0 1.588)">
    <path id="Path_1965" data-name="Path 1965" d="M9.043,25.411a16.005,16.005,0,0,0,0,28.824Z" transform="translate(0 -25.411)" fill="#0052b4"/>
    <path id="Path_1966" data-name="Path 1966" d="M367.3,25.411V54.235a16.005,16.005,0,0,0,0-28.824Z" transform="translate(-344.347 -25.411)" fill="#0052b4"/>
  </g>
  <path id="Path_1967" data-name="Path 1967" d="M173.826,134.956l.933.467-.933-.467-.933-.467a17.393,17.393,0,0,0-1.474,6.38H170v-5.913l-1.044-1.391-1.044,1.391v5.913h-1.419a17.392,17.392,0,0,0-1.474-6.38l-1.867.933a15.878,15.878,0,0,1,1.281,6.49v1.044h3.478v5.913H170v-5.913h3.478v-1.044a17.549,17.549,0,0,1,.639-4.7,11.6,11.6,0,0,1,.644-1.795Z" transform="translate(-152.957 -125.217)"/>
</svg>
