<svg id="belarus" xmlns="http://www.w3.org/2000/svg" width="32" height="32" viewBox="0 0 32 32">
  <circle id="Ellipse_1078" data-name="Ellipse 1078" cx="16" cy="16" r="16" fill="#fcfcfc"/>
  <g id="Group_3442" data-name="Group 3442" transform="translate(1.391 2.227)">
    <path id="Path_1968" data-name="Path 1968" d="M79.652,143.536l-1.739-3.155,1.739-3.106,1.739,3.106Z" transform="translate(-74.435 -130.922)" fill="#a2001d"/>
    <path id="Path_1969" data-name="Path 1969" d="M24,143.536l-1.739-3.155L24,137.275l1.739,3.106Z" transform="translate(-22.261 -130.922)" fill="#a2001d"/>
    <path id="Path_1970" data-name="Path 1970" d="M79.652,280.812l-1.739-3.155,1.739-3.106,1.739,3.106Z" transform="translate(-74.435 -259.618)" fill="#a2001d"/>
    <path id="Path_1971" data-name="Path 1971" d="M24,280.812l-1.739-3.155L24,274.551l1.739,3.106Z" transform="translate(-22.261 -259.618)" fill="#a2001d"/>
    <path id="Path_1972" data-name="Path 1972" d="M89.06,36.5l-.492-.879a16.043,16.043,0,0,0-2.475,1.807l1.228,2.228Z" transform="translate(-82.104 -35.624)" fill="#a2001d"/>
    <path id="Path_1973" data-name="Path 1973" d="M87.126,411.826l-1.241,2.216a16.043,16.043,0,0,0,2.473,1.81l.507-.92Z" transform="translate(-81.908 -388.313)" fill="#a2001d"/>
  </g>
  <path id="Path_1974" data-name="Path 1974" d="M155.826,322.783v10.554a16.014,16.014,0,0,0,21.266-9.163Z" transform="translate(-146.087 -302.609)" fill="#6da544"/>
  <path id="Path_1975" data-name="Path 1975" d="M177.092,21.565A16.008,16.008,0,0,0,155.826,1.272V21.565h21.266Z" transform="translate(-146.087)" fill="#a2001d"/>
</svg>
