<svg id="belgium" xmlns="http://www.w3.org/2000/svg" width="32" height="32" viewBox="0 0 32 32">
  <path id="Path_1976" data-name="Path 1976" d="M157.218,1a16.058,16.058,0,0,0-11.13,0L144.7,16l1.391,15a16.058,16.058,0,0,0,11.13,0l1.391-15Z" transform="translate(-135.652 0)" fill="#ffda44"/>
  <path id="Path_1977" data-name="Path 1977" d="M355.478,30.929a16.006,16.006,0,0,0-10.435-15v30.01A16.006,16.006,0,0,0,355.478,30.929Z" transform="translate(-323.478 -14.929)" fill="#d80027"/>
  <path id="Path_1978" data-name="Path 1978" d="M0,30.929a16.006,16.006,0,0,0,10.435,15V15.924A16.006,16.006,0,0,0,0,30.929Z" transform="translate(0 -14.929)"/>
</svg>
