<svg width="28" height="13" viewBox="0 0 28 13" fill="none" xmlns="http://www.w3.org/2000/svg">
<path d="M0.744 12V10.304H3.288V3.056L1.32 4.24L0.52 2.736L3.88 0.719999H5.336V10.304H7.72V12H0.744ZM13.4898 12.16C12.7538 12.16 12.0391 12.048 11.3458 11.824C10.6524 11.5893 10.0871 11.2747 9.64975 10.88L10.3218 9.312C11.2924 10.0587 12.3378 10.432 13.4578 10.432C14.1298 10.432 14.6524 10.2613 15.0258 9.92C15.4098 9.568 15.6018 9.09867 15.6018 8.512C15.6018 7.91467 15.4204 7.43467 15.0578 7.072C14.6951 6.69867 14.1991 6.512 13.5698 6.512C12.6738 6.512 11.9324 6.86933 11.3458 7.584H9.96975V0.719999H16.8978V2.416H11.9698V5.472C12.5351 5.04533 13.2284 4.832 14.0498 4.832C14.7644 4.832 15.3831 4.98667 15.9058 5.296C16.4391 5.59467 16.8498 6.016 17.1378 6.56C17.4364 7.09333 17.5858 7.71733 17.5858 8.432C17.5858 9.168 17.4204 9.81867 17.0898 10.384C16.7591 10.9387 16.2844 11.376 15.6658 11.696C15.0578 12.0053 14.3324 12.16 13.4898 12.16ZM22.9875 12.16C21.6542 12.16 20.6355 11.6587 19.9315 10.656C19.2275 9.64267 18.8755 8.20267 18.8755 6.336C18.8755 4.448 19.2275 3.01333 19.9315 2.032C20.6355 1.05067 21.6542 0.559999 22.9875 0.559999C24.3315 0.559999 25.3502 1.05067 26.0435 2.032C26.7475 3.01333 27.0995 4.44267 27.0995 6.32C27.0995 8.19733 26.7475 9.64267 26.0435 10.656C25.3395 11.6587 24.3208 12.16 22.9875 12.16ZM22.9875 10.48C23.7128 10.48 24.2462 10.1493 24.5875 9.488C24.9395 8.816 25.1155 7.76 25.1155 6.32C25.1155 4.89067 24.9395 3.856 24.5875 3.216C24.2462 2.56533 23.7128 2.24 22.9875 2.24C22.2728 2.24 21.7395 2.56533 21.3875 3.216C21.0355 3.856 20.8595 4.89067 20.8595 6.32C20.8595 7.76 21.0355 8.816 21.3875 9.488C21.7395 10.1493 22.2728 10.48 22.9875 10.48Z" fill="#2E2E2E"/>
</svg>
