<?xml version="1.0" encoding="utf-8"?>
<!-- Generator: Adobe Illustrator 15.1.0, SVG Export Plug-In . SVG Version: 6.00 Build 0)  -->
<!DOCTYPE svg PUBLIC "-//W3C//DTD SVG 1.1//EN" "http://www.w3.org/Graphics/SVG/1.1/DTD/svg11.dtd">
<svg version="1.1" id="Layer_1" xmlns="http://www.w3.org/2000/svg" xmlns:xlink="http://www.w3.org/1999/xlink" x="0px" y="0px"
	 width="15px" height="11px" viewBox="0 0 15 11" enable-background="new 0 0 15 11" xml:space="preserve">
<g id="Group_4709" transform="translate(0 -0.258)">
	<path id="Rectangle_3456" fill="#23B7C0" d="M1.5,0.258L1.5,0.258c0.829,0,1.5,0.671,1.5,1.5l0,0c0,0.829-0.671,1.5-1.5,1.5l0,0
		c-0.829,0-1.5-0.671-1.5-1.5l0,0C0,0.929,0.671,0.258,1.5,0.258z"/>
	<path id="Rectangle_3457" fill="#23B7C0" d="M1.5,4.258L1.5,4.258c0.829,0,1.5,0.671,1.5,1.5l0,0c0,0.828-0.671,1.5-1.5,1.5l0,0
		c-0.829,0-1.5-0.672-1.5-1.5l0,0C0,4.929,0.671,4.258,1.5,4.258z"/>
	<path id="Rectangle_3458" fill="#23B7C0" d="M1.5,8.258L1.5,8.258c0.829,0,1.5,0.672,1.5,1.5l0,0c0,0.828-0.671,1.5-1.5,1.5l0,0
		c-0.829,0-1.5-0.672-1.5-1.5l0,0C0,8.93,0.671,8.258,1.5,8.258z"/>
	<path id="Rectangle_3459" fill="#23B7C0" d="M5.5,1.258h9c0.276,0,0.5,0.224,0.5,0.5l0,0c0,0.276-0.224,0.5-0.5,0.5h-9
		c-0.276,0-0.5-0.224-0.5-0.5l0,0C5,1.482,5.224,1.258,5.5,1.258z"/>
	<path id="Rectangle_3460" fill="#23B7C0" d="M5.5,5.258h9c0.276,0,0.5,0.224,0.5,0.5l0,0c0,0.276-0.224,0.5-0.5,0.5h-9
		c-0.276,0-0.5-0.224-0.5-0.5l0,0C5,5.482,5.224,5.258,5.5,5.258z"/>
	<path id="Rectangle_3461" fill="#23B7C0" d="M5.5,9.258h9c0.276,0,0.5,0.224,0.5,0.5l0,0c0,0.276-0.224,0.5-0.5,0.5h-9
		c-0.276,0-0.5-0.224-0.5-0.5l0,0C5,9.482,5.224,9.258,5.5,9.258z"/>
</g>
</svg>
