<svg width="31" height="31" viewBox="0 0 31 31" fill="none" xmlns="http://www.w3.org/2000/svg">
<rect width="31" height="31" rx="4" fill="#050010"/>
<path d="M17.9362 17.7011C17.4397 18.3907 16.7133 18.8803 15.8878 19.0818C15.0623 19.2833 14.192 19.1834 13.4336 18.8001C12.6752 18.4168 12.0786 17.7754 11.7513 16.9912C11.4239 16.2071 11.3872 15.3318 11.648 14.5231C11.9087 13.7143 12.4496 13.0253 13.1733 12.58C13.8971 12.1347 14.756 11.9625 15.5954 12.0943C16.4349 12.2261 17.1997 12.6534 17.752 13.299C18.3044 13.9447 18.6081 14.7665 18.6084 15.6162V23.983L19.8698 24.2172V15.6216C19.869 14.5342 19.5012 13.4789 18.826 12.6265C18.1509 11.7742 17.2078 11.1746 16.1495 10.9249C15.0912 10.6751 13.9795 10.7899 12.9945 11.2505C12.0095 11.7111 11.2089 12.4907 10.722 13.463C10.2352 14.4353 10.0907 15.5435 10.312 16.6081C10.5333 17.6727 11.1075 18.6315 11.9415 19.3292C12.7755 20.027 13.8205 20.4229 14.9074 20.4528C15.9944 20.4827 17.0597 20.1449 17.9308 19.4941L17.9362 17.7011Z" fill="#FF00FF"/>
<path d="M17.9382 20.3076C16.9013 20.9492 15.6808 21.2285 14.468 21.1017C13.2553 20.9749 12.1189 20.4492 11.237 19.607C10.3552 18.7648 9.77788 17.6538 9.59552 16.4481C9.41316 15.2425 9.6361 14.0104 10.2294 12.9451C10.8227 11.8798 11.7528 11.0415 12.8738 10.5618C13.9948 10.082 15.2434 9.98784 16.4237 10.2941C17.604 10.6003 18.6492 11.2896 19.3955 12.2539C20.1418 13.2182 20.5471 14.4029 20.5476 15.6223V24.3441L21.809 24.5802V15.6223C21.8051 14.1608 21.3272 12.7401 20.447 11.5734C19.5668 10.4067 18.3318 9.55714 16.9275 9.15225C15.5232 8.74735 14.0255 8.809 12.6593 9.32793C11.2931 9.84687 10.1321 10.7951 9.35073 12.0302C8.56937 13.2652 8.20983 14.7204 8.32609 16.1773C8.44236 17.6341 9.02816 19.0139 9.99552 20.1094C10.9629 21.2049 12.2596 21.957 13.6908 22.2527C15.1221 22.5483 16.6106 22.3717 17.9329 21.7492L17.9382 20.3076Z" fill="#00CEE5"/>
<path d="M17.9379 22.469C16.4656 23.0909 14.8321 23.2219 13.2794 22.8428C11.7267 22.4637 10.3374 21.5946 9.31733 20.3642C8.29722 19.1338 7.70052 17.6075 7.61561 16.0115C7.53071 14.4155 7.96215 12.8346 8.84597 11.5029C9.72979 10.1712 11.019 9.15959 12.5227 8.61788C14.0264 8.07618 15.6646 8.03319 17.1946 8.49528C18.7246 8.95737 20.0651 9.89996 21.0175 11.1835C21.97 12.4669 22.4837 14.0231 22.4827 15.6214V24.7072L23.7441 24.9432V15.6214C23.743 13.7753 23.1547 11.9774 22.0643 10.4877C20.9738 8.99806 19.4378 7.89387 17.6783 7.33486C15.9189 6.77584 14.0273 6.79097 12.277 7.37807C10.5268 7.96517 9.00867 9.09378 7.94223 10.6007C6.87579 12.1076 6.31635 13.9147 6.34478 15.7606C6.37322 17.6064 6.98808 19.3954 8.10044 20.8688C9.21279 22.3421 10.765 23.4234 12.5325 23.9564C14.3 24.4893 16.1912 24.4461 17.9325 23.8332L17.9379 22.469Z" fill="#03FF16"/>
<path d="M17.9371 24.5406C16.0551 25.1492 14.0288 25.1467 12.1483 24.5333C10.2678 23.92 8.62957 22.7273 7.46829 21.1262C6.30701 19.525 5.68223 17.5974 5.68334 15.6194C5.68445 13.6414 6.31146 11.7145 7.47454 10.1147C8.63762 8.51477 10.2771 7.32396 12.1583 6.71275C14.0395 6.10154 16.0658 6.10128 17.9471 6.712C19.8285 7.32273 21.4683 8.51311 22.6318 10.1127C23.7953 11.7123 24.4228 13.639 24.4244 15.617V25.065L25.6858 25.301V15.6224C25.6837 13.2924 24.9163 11.0277 23.5015 9.17638C22.0868 7.32509 20.1031 5.98978 17.8555 5.3758C15.6079 4.76181 13.2209 4.90314 11.0614 5.77806C8.90198 6.65298 7.08978 8.21304 5.9034 10.2183C4.71703 12.2236 4.22218 14.5631 4.49504 16.877C4.76791 19.191 5.79337 21.3512 7.41365 23.0255C9.03393 24.6999 11.1593 25.7956 13.463 26.1442C15.7667 26.4928 18.1212 26.075 20.1644 24.9551L17.9371 24.5406Z" fill="#E0FF00"/>
</svg>
