<svg xmlns="http://www.w3.org/2000/svg" width="16.58" height="16.58" viewBox="0 0 16.58 16.58">
  <path id="Icon_awesome-check-circle" data-name="Icon awesome-check-circle" d="M17.143,8.853A8.29,8.29,0,1,1,8.853.563,8.29,8.29,0,0,1,17.143,8.853Zm-9.249,4.39,6.151-6.151a.535.535,0,0,0,0-.756l-.756-.756a.535.535,0,0,0-.756,0L7.515,10.595,5.174,8.253a.535.535,0,0,0-.756,0l-.756.756a.535.535,0,0,0,0,.756l3.476,3.476a.535.535,0,0,0,.756,0Z" transform="translate(-0.563 -0.563)" fill="#23b7c0"/>
</svg>
