<svg xmlns="http://www.w3.org/2000/svg" xmlns:xlink="http://www.w3.org/1999/xlink" width="120.863" height="100" viewBox="0 0 120.863 100">
  <defs>
    <linearGradient id="linear-gradient" x1="0.154" y1="0.548" x2="0.856" y2="0.556" gradientUnits="objectBoundingBox">
      <stop offset="0" stop-color="#d12b8a"/>
      <stop offset="1" stop-color="#70489d"/>
    </linearGradient>
  </defs>
  <g id="transportation" transform="translate(0 -32.112)">
    <g id="Group_3398" data-name="Group 3398" transform="translate(40.303 32.112)">
      <g id="Group_3397" data-name="Group 3397">
        <path id="Path_1919" data-name="Path 1919" d="M202.475,33.152a7.189,7.189,0,0,0-4.657-1,18.547,18.547,0,0,0-8.316,3.493q-3.243,2.495-7.484,5.988l-3.992,3.493c-.832.832-1.663,1.5-2.495,2.328a2.9,2.9,0,0,1-2.495.832c-.5-.166-1.164-.333-1.83-.5l-31.1-11.642c-1-.333-2-.665-3.16-1a5.239,5.239,0,0,0-4.99.832,14.861,14.861,0,0,0-4.324,4.823,3.933,3.933,0,0,0,.832,5.322,12.131,12.131,0,0,0,1.83,1.5c5.655,3.992,11.476,7.817,17.131,11.809a26.421,26.421,0,0,1,5.655,4.657c.333.5.665.832,1,1.331L143.265,75.729c-1.164,1.164-2.328,2.162-3.493,3.326-.166,0-.333-.166-.5-.166l-1.83-.832c-1.5-.665-2.827-1.5-4.324-2.162a4.8,4.8,0,0,0-5.322.665A31.931,31.931,0,0,0,125.3,78.89a3.474,3.474,0,0,0-.333,4.99,7.234,7.234,0,0,0,1,1.164l3.16,3.992c3.659,4.823,7.484,9.647,11.31,14.3a5.469,5.469,0,0,0,5.322,2.162,6.239,6.239,0,0,0,4.158-3.992,7.741,7.741,0,0,0,.166-5.489l-.333-1.5-1-3.992c4.491-3.493,8.981-6.819,13.306-10.312l2.162-1.663.5.832a25.686,25.686,0,0,1,2.827,5.655l7.651,19.626c.5,1.164.832,2.328,1.331,3.326a4.192,4.192,0,0,0,3.825,2.827,4.428,4.428,0,0,0,2-.5,3.343,3.343,0,0,0,1.331-.665,8.773,8.773,0,0,0,4.99-5.655,13.771,13.771,0,0,0,.166-5.156l-3.992-29.106c-.333-2.328-.665-4.823-1-7.152a2.372,2.372,0,0,1,1-2.495l3.493-2.994c2.827-2.328,5.489-4.657,8.316-6.985a27.014,27.014,0,0,0,5.156-5.821,17.464,17.464,0,0,0,2.495-5.322A4.974,4.974,0,0,0,202.475,33.152Zm-1.331,5.156a18.722,18.722,0,0,1-2.162,4.491,20.277,20.277,0,0,1-4.491,4.99c-2.661,2.328-5.489,4.657-8.316,6.985L182.849,57.6a5.685,5.685,0,0,0-2.328,5.655c.333,2.328.665,4.657,1,7.152l3.992,29.106a9.221,9.221,0,0,1-.166,3.825,5.881,5.881,0,0,1-3.16,3.493,8.109,8.109,0,0,1-1.164.5c-1,.333-1.331.166-1.663-.665-.5-1-.832-2.162-1.331-3.326l-7.318-19.626a42.964,42.964,0,0,0-3.16-6.154l-1-1.663-1.5-2.162L159.9,77.559c-4.657,3.493-9.314,7.152-13.8,10.644a2.092,2.092,0,0,0-.832,2.495c.333,1.5.832,2.994,1.164,4.491l.333,1.5a4.956,4.956,0,0,1-.166,3.493,3.517,3.517,0,0,1-2.328,2,1.679,1.679,0,0,1-.832-.333,2,2,0,0,1-.832-.832c-3.825-4.823-7.484-9.48-11.143-14.3l-3.16-3.992a7.042,7.042,0,0,1-.832-1.164.515.515,0,0,1-.166-.333l.333-.333a23.619,23.619,0,0,1,2.162-2,1.491,1.491,0,0,1,1.83-.166c1.5.665,2.827,1.331,4.324,2.162l1.83.832,1,.5a2.289,2.289,0,0,0,2.661-.333c1.331-1.331,2.661-2.495,3.992-3.825L156.9,67.247l1.331-1.331-.832-1.164c-.166-.333-.333-.5-.5-.832a17.421,17.421,0,0,0-1.331-1.83,27.564,27.564,0,0,0-6.32-5.322c-5.655-3.825-11.476-7.817-17.131-11.809a9.139,9.139,0,0,1-1.5-1.164c-.5-.5-.5-.665-.166-1a13.79,13.79,0,0,1,3.659-3.992c.333-.333.832-.5,2-.166a31.4,31.4,0,0,1,2.994,1l31.1,11.642a17.064,17.064,0,0,0,2.328.665,6,6,0,0,0,5.156-1.5c.832-.832,1.663-1.5,2.495-2.328l3.992-3.493c2.827-2.328,5.156-4.324,7.318-5.988a14.579,14.579,0,0,1,6.819-2.827,3.171,3.171,0,0,1,2.162.333C201.145,36.312,201.477,37.31,201.145,38.307Z" transform="translate(-124.068 -32.112)" fill="url(#linear-gradient)"/>
      </g>
    </g>
    <g id="Group_3400" data-name="Group 3400" transform="translate(0 95.398)">
      <g id="Group_3399" data-name="Group 3399" transform="translate(0)">
        <path id="Path_1920" data-name="Path 1920" d="M44.2,227.554a1.789,1.789,0,0,0-2.328-.333L.623,258.656a1.789,1.789,0,0,0-.333,2.328,1.513,1.513,0,0,0,1.331.665,2.364,2.364,0,0,0,1-.333l41.247-31.435A1.606,1.606,0,0,0,44.2,227.554Z" transform="translate(0 -226.931)" fill="url(#linear-gradient)"/>
      </g>
    </g>
    <g id="Group_3402" data-name="Group 3402" transform="translate(21.455 103.215)">
      <g id="Group_3401" data-name="Group 3401">
        <path id="Path_1921" data-name="Path 1921" d="M94.28,251.618a2.016,2.016,0,0,0-2.495-.333L66.671,270.578a1.789,1.789,0,0,0-.333,2.328,1.513,1.513,0,0,0,1.331.665,2.364,2.364,0,0,0,1-.333l25.281-19.293A1.789,1.789,0,0,0,94.28,251.618Z" transform="translate(-66.048 -250.995)" fill="url(#linear-gradient)"/>
      </g>
    </g>
    <g id="Group_3404" data-name="Group 3404" transform="translate(12.973 125.668)">
      <g id="Group_3403" data-name="Group 3403">
        <path id="Path_1922" data-name="Path 1922" d="M47.045,320.738a1.789,1.789,0,0,0-2.328-.333l-4.158,3.16a1.789,1.789,0,0,0-.333,2.328,1.513,1.513,0,0,0,1.331.665,2.364,2.364,0,0,0,1-.333l4.158-3.16A1.789,1.789,0,0,0,47.045,320.738Z" transform="translate(-39.936 -320.115)" fill="url(#linear-gradient)"/>
      </g>
    </g>
    <g id="Group_3406" data-name="Group 3406" transform="translate(7.484 107.04)">
      <g id="Group_3405" data-name="Group 3405">
        <path id="Path_1923" data-name="Path 1923" d="M30.149,263.394a1.789,1.789,0,0,0-2.328-.333l-4.158,3.16a1.789,1.789,0,0,0-.333,2.328,1.513,1.513,0,0,0,1.331.665,2.364,2.364,0,0,0,1-.333l4.158-3.16A1.789,1.789,0,0,0,30.149,263.394Z" transform="translate(-23.04 -262.771)" fill="url(#linear-gradient)"/>
      </g>
    </g>
    <g id="Group_3408" data-name="Group 3408" transform="translate(15.967 88.911)">
      <g id="Group_3407" data-name="Group 3407">
        <path id="Path_1924" data-name="Path 1924" d="M71.9,207.586a1.789,1.789,0,0,0-2.328-.333L49.775,222.222a1.789,1.789,0,0,0-.333,2.328,2.053,2.053,0,0,0,1.331.665,2.364,2.364,0,0,0,1-.333l19.792-14.969A1.789,1.789,0,0,0,71.9,207.586Z" transform="translate(-49.152 -206.963)" fill="url(#linear-gradient)"/>
      </g>
    </g>
  </g>
</svg>
