<svg xmlns="http://www.w3.org/2000/svg" width="23.762" height="24" viewBox="0 0 23.762 24">
  <g id="Group_4958" data-name="Group 4958" transform="translate(-226.516 -130.549)">
    <path id="Path_1681" data-name="Path 1681" d="M240.091,150.3h-5.86l1.474,3.991h5.859Z" transform="translate(-4.01 -10.266)" fill="#d12b8a"/>
    <path id="Path_1682" data-name="Path 1682" d="M262.125,133.605a3.056,3.056,0,1,1-3.056-3.056A3.056,3.056,0,0,1,262.125,133.605Z" transform="translate(-15.331)" fill="#d12b8a"/>
    <path id="Path_1683" data-name="Path 1683" d="M239.168,153.092v7.272H230.1v-8.778l-2.141-5.536h9.071l.727,1.878,1.358-.482-.741-1.916a1.44,1.44,0,0,0-1.344-.921h-9.071a1.421,1.421,0,0,0-1.43,1.485l-.01-.016v14.228a1.493,1.493,0,0,0,1.493,1.493l11.158,0a1.441,1.441,0,0,0,1.441-1.441v-7.272Z" transform="translate(0 -7.308)" fill="#d12b8a"/>
    <path id="Path_1684" data-name="Path 1684" d="M259.342,143.369a1.755,1.755,0,0,0-.747-1.1l-2.332-1s0-.128-.726-.128-.813.128-.813.128l-1.876.89a2.134,2.134,0,0,0-1.112,1.2c-.2.427-1.116,2.225-1.847,3.659l-3.307.911-.382,1.594h4.777l1.277-1.68.814,2.281.906,9.923H258L259,149.305l1.515-2.347Z" transform="translate(-10.232 -5.509)" fill="#d12b8a"/>
  </g>
</svg>
