<svg xmlns="http://www.w3.org/2000/svg" width="22.079" height="24" viewBox="0 0 22.079 24">
  <path id="iconfinder_store-front_3671868" d="M21.44,11.844V24H2.24V11.844a5.1,5.1,0,0,0,3.6-.456V16.8h12V11.4a5.112,5.112,0,0,0,3.6.444ZM3.44,0h4.8l-.8,7.236a4.116,4.116,0,0,1-4,3.564A2.433,2.433,0,0,1,.98,7.38Zm6,0h4.8l.84,7.56a2.842,2.842,0,0,1-2.9,3.24H11.5A2.856,2.856,0,0,1,8.6,7.56Zm6,0h4.8L22.7,7.38a2.437,2.437,0,0,1-2.46,3.42,4.1,4.1,0,0,1-4-3.564Z" transform="translate(-0.8)" fill="#d12b8a"/>
</svg>
