<svg xmlns="http://www.w3.org/2000/svg" width="24" height="24" viewBox="0 0 24 24">
  <path id="iconfinder_98_111048" d="M31.949,51.448a3.536,3.536,0,0,0,6,2.5l6.38-6.385,1.71,1.71a2.528,2.528,0,0,0,.655,2.45l2.48,2.48a2.5,2.5,0,1,0,3.53-3.53l-2.48-2.48a2.528,2.528,0,0,0-2.45-.655l-1.71-1.706,1.1-1.1a7.153,7.153,0,0,0,6.745-1.81,6.692,6.692,0,0,0,2.04-4.4v-.085a1,1,0,0,0-1-.985,1.034,1.034,0,0,0-.71.285l-.295.29-1.01.99A3.6,3.6,0,0,1,50.414,40,3.6,3.6,0,0,1,46.9,36.483a3.6,3.6,0,0,1,.985-2.515l.99-1.01.29-.294a1.033,1.033,0,0,0,.285-.71,1,1,0,0,0-.985-1h-.085a6.693,6.693,0,0,0-4.4,2.04,7.145,7.145,0,0,0-1.805,6.74l-1.1,1.1-4.615-4.62V34.948l-3-1.5-1.5,1.5,1.5,3h1.26l4.62,4.615-6.38,6.385A3.527,3.527,0,0,0,31.949,51.448Zm2.5-.25a1.25,1.25,0,1,1,1.25,1.25A1.25,1.25,0,0,1,34.449,51.2Z" transform="translate(-31.949 -30.948)" fill="#d12b8a" fill-rule="evenodd"/>
</svg>
