<svg xmlns="http://www.w3.org/2000/svg" width="24" height="20" viewBox="0 0 24 20">
  <path id="iconfinder_130_111082" d="M53.95,84.789a2,2,0,0,0,2-2v-12.5a2,2,0,0,0-2-2h-11a2,2,0,0,0-2,2v2H37.91a2.4,2.4,0,0,0-1.7.69l-2.529,2.54a2.486,2.486,0,0,0-.735,1.77v5.025a1.25,1.25,0,0,0,.25,2.475h1.76a3.748,3.748,0,0,0,7.48,0h3.515a3.751,3.751,0,0,0,7.485,0Zm-14-.25a1.25,1.25,0,1,1-1.25-1.25A1.251,1.251,0,0,1,39.95,84.539Zm11,0a1.25,1.25,0,1,1-1.25-1.25A1.251,1.251,0,0,1,50.95,84.539Zm-15.5-5.75V77.525a1.406,1.406,0,0,1,.575-1.11L37.1,75.339a1.409,1.409,0,0,1,1.09-.55h2.76v4Z" transform="translate(-31.95 -68.289)" fill="#d12b8a" fill-rule="evenodd"/>
</svg>
