<svg xmlns="http://www.w3.org/2000/svg" width="22.076" height="24" viewBox="0 0 22.076 24">
  <g id="Group_4285" data-name="Group 4285" transform="translate(-323.855 -131.642)">
    <rect id="Rectangle_3340" data-name="Rectangle 3340" width="10.027" height="6.352" rx="1.714" transform="translate(323.855 139.972)" fill="#d12b8a"/>
    <rect id="Rectangle_3341" data-name="Rectangle 3341" width="10.027" height="6.352" rx="1.714" transform="translate(335.728 131.642)" fill="#d12b8a"/>
    <rect id="Rectangle_3342" data-name="Rectangle 3342" width="10.027" height="6.352" rx="1.714" transform="translate(323.855 131.642)" fill="#d12b8a"/>
    <path id="Path_1685" data-name="Path 1685" d="M356.569,160.105s-3.81-1.645-3.81-1.661l-.084-3.582a.95.95,0,1,0-1.9,0l-.239,7.217-.182.182c-.074-.082-.161-.18-.274-.3-.324-.348-.953-1.564-2.006-1.713-.964-.136-1.681.4-.539,1.879.307.4,2.784,4.268,2.973,4.562a.04.04,0,0,0,.035.018h6a.043.043,0,0,0,.038-.024l.405-.81a3.949,3.949,0,0,0,.417-1.764V161.39A1.407,1.407,0,0,0,356.569,160.105Z" transform="translate(-11.472 -11.062)" fill="#d12b8a"/>
    <path id="Path_1686" data-name="Path 1686" d="M356.612,148.194h-8.3a.862.862,0,0,0-.863.863v4.627a.863.863,0,0,0,.863.863h1.622l.05-1.51h-1.025V149.7h7.007v3.333h-2.012l.035,1.51h2.624a.863.863,0,0,0,.863-.863v-4.627A.863.863,0,0,0,356.612,148.194Z" transform="translate(-11.72 -8.222)" fill="#d12b8a"/>
  </g>
</svg>
