<svg xmlns="http://www.w3.org/2000/svg" width="50" height="38.003" viewBox="0 0 50 38.003">
  <g id="router_2_" data-name="router (2)" transform="translate(0 -61.426)">
    <g id="Group_3207" data-name="Group 3207" transform="translate(0 84.845)">
      <g id="Group_3206" data-name="Group 3206" transform="translate(0 0)">
        <path id="Path_1868" data-name="Path 1868" d="M44.792,301.24H5.208A5.216,5.216,0,0,0,0,306.448v4.167a5.216,5.216,0,0,0,5.208,5.208H44.792A5.214,5.214,0,0,0,50,310.615v-4.167A5.215,5.215,0,0,0,44.792,301.24Zm3.125,9.375a3.129,3.129,0,0,1-3.125,3.125H5.208a3.129,3.129,0,0,1-3.125-3.125v-4.167a3.129,3.129,0,0,1,3.125-3.125H44.792a3.129,3.129,0,0,1,3.125,3.125v4.167Z" transform="translate(0 -301.24)"/>
      </g>
    </g>
    <g id="Group_3209" data-name="Group 3209" transform="translate(35.417 70.262)">
      <g id="Group_3208" data-name="Group 3208" transform="translate(0 0)">
        <path id="Path_1869" data-name="Path 1869" d="M363.708,151.907a1.042,1.042,0,0,0-1.042,1.042v14.583a1.042,1.042,0,1,0,2.083,0V152.949A1.042,1.042,0,0,0,363.708,151.907Z" transform="translate(-362.666 -151.907)"/>
      </g>
    </g>
    <g id="Group_3211" data-name="Group 3211" transform="translate(6.25 91.095)">
      <g id="Group_3210" data-name="Group 3210" transform="translate(0 0)">
        <circle id="Ellipse_1056" data-name="Ellipse 1056" cx="1.042" cy="1.042" r="1.042" fill="#d12b8a"/>
      </g>
    </g>
    <g id="Group_3213" data-name="Group 3213" transform="translate(12.5 91.095)">
      <g id="Group_3212" data-name="Group 3212" transform="translate(0 0)">
        <circle id="Ellipse_1057" data-name="Ellipse 1057" cx="1.042" cy="1.042" r="1.042" fill="#d12b8a"/>
      </g>
    </g>
    <g id="Group_3215" data-name="Group 3215" transform="translate(18.75 91.095)">
      <g id="Group_3214" data-name="Group 3214" transform="translate(0 0)">
        <circle id="Ellipse_1058" data-name="Ellipse 1058" cx="1.042" cy="1.042" r="1.042" fill="#d12b8a"/>
      </g>
    </g>
    <g id="Group_3217" data-name="Group 3217" transform="translate(25 91.095)">
      <g id="Group_3216" data-name="Group 3216" transform="translate(0 0)">
        <circle id="Ellipse_1059" data-name="Ellipse 1059" cx="1.042" cy="1.042" r="1.042" fill="#d12b8a"/>
      </g>
    </g>
    <g id="Group_3219" data-name="Group 3219" transform="translate(31.25 91.095)">
      <g id="Group_3218" data-name="Group 3218" transform="translate(0 0)">
        <path id="Path_1870" data-name="Path 1870" d="M331.458,365.24H321.042a1.042,1.042,0,0,0,0,2.083h10.417a1.042,1.042,0,1,0,0-2.083Z" transform="translate(-320 -365.24)" fill="#d12b8a"/>
      </g>
    </g>
    <g id="Group_3221" data-name="Group 3221" transform="translate(31.25 67.316)">
      <g id="Group_3220" data-name="Group 3220" transform="translate(0 0)">
        <path id="Path_1871" data-name="Path 1871" d="M322.083,125.723a3.11,3.11,0,0,1,.915-2.21,1.042,1.042,0,1,0-1.473-1.473,5.211,5.211,0,0,0,0,7.367,1.046,1.046,0,0,0,.738.3,1.029,1.029,0,0,0,.735-.3,1.042,1.042,0,0,0,0-1.473A3.109,3.109,0,0,1,322.083,125.723Z" transform="translate(-320 -121.735)" fill="#d12b8a"/>
      </g>
    </g>
    <g id="Group_3223" data-name="Group 3223" transform="translate(38.362 67.316)">
      <g id="Group_3222" data-name="Group 3222" transform="translate(0 0)">
        <path id="Path_1872" data-name="Path 1872" d="M394.606,122.041a1.042,1.042,0,0,0-1.473,1.473,3.126,3.126,0,0,1,0,4.421,1.042,1.042,0,0,0,1.475,1.473,5.211,5.211,0,0,0,0-7.367Z" transform="translate(-392.826 -121.736)" fill="#d12b8a"/>
      </g>
    </g>
    <g id="Group_3225" data-name="Group 3225" transform="translate(27.086 64.372)">
      <g id="Group_3224" data-name="Group 3224" transform="translate(0 0)">
        <path id="Path_1873" data-name="Path 1873" d="M281.578,93.37a1.042,1.042,0,0,0-1.473-1.473,9.388,9.388,0,0,0,0,13.258,1.042,1.042,0,0,0,1.473-1.473A7.3,7.3,0,0,1,281.578,93.37Z" transform="translate(-277.365 -91.592)" fill="#d12b8a"/>
      </g>
    </g>
    <g id="Group_3227" data-name="Group 3227" transform="translate(41.31 64.372)">
      <g id="Group_3226" data-name="Group 3226" transform="translate(0 0)">
        <path id="Path_1874" data-name="Path 1874" d="M424.791,91.9a1.042,1.042,0,0,0-1.473,1.473,7.3,7.3,0,0,1,0,10.313,1.042,1.042,0,0,0,1.473,1.473A9.388,9.388,0,0,0,424.791,91.9Z" transform="translate(-423.013 -91.592)" fill="#d12b8a"/>
      </g>
    </g>
    <g id="Group_3229" data-name="Group 3229" transform="translate(22.922 61.426)">
      <g id="Group_3228" data-name="Group 3228" transform="translate(0 0)">
        <path id="Path_1875" data-name="Path 1875" d="M240.152,63.2a1.042,1.042,0,0,0-1.473-1.473,13.557,13.557,0,0,0,0,19.15,1.042,1.042,0,0,0,1.473-1.473A11.469,11.469,0,0,1,240.152,63.2Z" transform="translate(-234.72 -61.426)" fill="#d12b8a"/>
      </g>
    </g>
    <g id="Group_3231" data-name="Group 3231" transform="translate(44.256 61.426)">
      <g id="Group_3230" data-name="Group 3230" transform="translate(0 0)">
        <path id="Path_1876" data-name="Path 1876" d="M454.956,61.732a1.042,1.042,0,0,0-1.473,1.473,11.469,11.469,0,0,1,0,16.2,1.042,1.042,0,0,0,1.473,1.473A13.557,13.557,0,0,0,454.956,61.732Z" transform="translate(-453.178 -61.427)" fill="#d12b8a"/>
      </g>
    </g>
  </g>
</svg>
