<svg id="calendar_2_" data-name="calendar (2)" xmlns="http://www.w3.org/2000/svg" width="26.539" height="26.539" viewBox="0 0 26.539 26.539">
  <g id="Group_2006" data-name="Group 2006" transform="translate(0)">
    <g id="Group_2005" data-name="Group 2005">
      <path id="Path_1332" data-name="Path 1332" d="M23.7,2.843H20.852V.948a.948.948,0,1,0-1.9,0v1.9H7.583V.948a.948.948,0,1,0-1.9,0v1.9H2.843A2.843,2.843,0,0,0,0,5.687V23.7a2.843,2.843,0,0,0,2.843,2.843H23.7A2.843,2.843,0,0,0,26.539,23.7V5.687A2.843,2.843,0,0,0,23.7,2.843ZM24.643,23.7a.948.948,0,0,1-.948.948H2.843A.948.948,0,0,1,1.9,23.7V11.374H24.643Zm0-14.217H1.9V5.687a.948.948,0,0,1,.948-.948H5.687v1.9a.948.948,0,1,0,1.9,0v-1.9H18.956v1.9a.948.948,0,1,0,1.9,0v-1.9H23.7a.948.948,0,0,1,.948.948V9.478Z" transform="translate(0)" fill="#a8a8a8"/>
    </g>
  </g>
  <g id="Group_2008" data-name="Group 2008" transform="translate(4.739 13.269)">
    <g id="Group_2007" data-name="Group 2007">
      <path id="Path_1333" data-name="Path 1333" d="M88.176,238.933h-1.9a.948.948,0,1,0,0,1.9h1.9a.948.948,0,1,0,0-1.9Z" transform="translate(-85.333 -238.933)" fill="#a8a8a8"/>
    </g>
  </g>
  <g id="Group_2010" data-name="Group 2010" transform="translate(11.374 13.269)">
    <g id="Group_2009" data-name="Group 2009">
      <path id="Path_1334" data-name="Path 1334" d="M207.643,238.933h-1.9a.948.948,0,1,0,0,1.9h1.9a.948.948,0,1,0,0-1.9Z" transform="translate(-204.8 -238.933)" fill="#a8a8a8"/>
    </g>
  </g>
  <g id="Group_2012" data-name="Group 2012" transform="translate(18.009 13.269)">
    <g id="Group_2011" data-name="Group 2011">
      <path id="Path_1335" data-name="Path 1335" d="M327.11,238.933h-1.9a.948.948,0,1,0,0,1.9h1.9a.948.948,0,1,0,0-1.9Z" transform="translate(-324.267 -238.933)" fill="#a8a8a8"/>
    </g>
  </g>
  <g id="Group_2014" data-name="Group 2014" transform="translate(4.739 17.061)">
    <g id="Group_2013" data-name="Group 2013">
      <path id="Path_1336" data-name="Path 1336" d="M88.176,307.2h-1.9a.948.948,0,1,0,0,1.9h1.9a.948.948,0,1,0,0-1.9Z" transform="translate(-85.333 -307.2)" fill="#a8a8a8"/>
    </g>
  </g>
  <g id="Group_2016" data-name="Group 2016" transform="translate(11.374 17.061)">
    <g id="Group_2015" data-name="Group 2015">
      <path id="Path_1337" data-name="Path 1337" d="M207.643,307.2h-1.9a.948.948,0,1,0,0,1.9h1.9a.948.948,0,1,0,0-1.9Z" transform="translate(-204.8 -307.2)" fill="#a8a8a8"/>
    </g>
  </g>
  <g id="Group_2018" data-name="Group 2018" transform="translate(18.009 17.061)">
    <g id="Group_2017" data-name="Group 2017">
      <path id="Path_1338" data-name="Path 1338" d="M327.11,307.2h-1.9a.948.948,0,1,0,0,1.9h1.9a.948.948,0,1,0,0-1.9Z" transform="translate(-324.267 -307.2)" fill="#a8a8a8"/>
    </g>
  </g>
  <g id="Group_2020" data-name="Group 2020" transform="translate(4.739 20.852)">
    <g id="Group_2019" data-name="Group 2019">
      <path id="Path_1339" data-name="Path 1339" d="M88.176,375.467h-1.9a.948.948,0,1,0,0,1.9h1.9a.948.948,0,1,0,0-1.9Z" transform="translate(-85.333 -375.467)" fill="#a8a8a8"/>
    </g>
  </g>
  <g id="Group_2022" data-name="Group 2022" transform="translate(11.374 20.852)">
    <g id="Group_2021" data-name="Group 2021">
      <path id="Path_1340" data-name="Path 1340" d="M207.643,375.467h-1.9a.948.948,0,1,0,0,1.9h1.9a.948.948,0,1,0,0-1.9Z" transform="translate(-204.8 -375.467)" fill="#a8a8a8"/>
    </g>
  </g>
  <g id="Group_2024" data-name="Group 2024" transform="translate(18.009 20.852)">
    <g id="Group_2023" data-name="Group 2023">
      <path id="Path_1341" data-name="Path 1341" d="M327.11,375.467h-1.9a.948.948,0,1,0,0,1.9h1.9a.948.948,0,1,0,0-1.9Z" transform="translate(-324.267 -375.467)" fill="#a8a8a8"/>
    </g>
  </g>
</svg>
