<svg width="52" height="46" viewBox="0 0 52 46" fill="none" xmlns="http://www.w3.org/2000/svg">
<path d="M7.33333 9.66699H10C11.4145 9.66699 12.771 9.10509 13.7712 8.10489C14.7714 7.1047 15.3333 5.74815 15.3333 4.33366C15.3333 3.62641 15.6143 2.94814 16.1144 2.44804C16.6145 1.94794 17.2928 1.66699 18 1.66699H34C34.7072 1.66699 35.3855 1.94794 35.8856 2.44804C36.3857 2.94814 36.6667 3.62641 36.6667 4.33366C36.6667 5.74815 37.2286 7.1047 38.2288 8.10489C39.229 9.10509 40.5855 9.66699 42 9.66699H44.6667C46.0812 9.66699 47.4377 10.2289 48.4379 11.2291C49.4381 12.2293 50 13.5858 50 15.0003V39.0003C50 40.4148 49.4381 41.7714 48.4379 42.7716C47.4377 43.7718 46.0812 44.3337 44.6667 44.3337H7.33333C5.91885 44.3337 4.56229 43.7718 3.5621 42.7716C2.5619 41.7714 2 40.4148 2 39.0003V15.0003C2 13.5858 2.5619 12.2293 3.5621 11.2291C4.56229 10.2289 5.91885 9.66699 7.33333 9.66699Z" stroke="#E5E5E5" stroke-width="3" stroke-linecap="round" stroke-linejoin="round"/>
<path d="M26 33.667C30.4183 33.667 34 30.0853 34 25.667C34 21.2487 30.4183 17.667 26 17.667C21.5817 17.667 18 21.2487 18 25.667C18 30.0853 21.5817 33.667 26 33.667Z" stroke="#E5E5E5" stroke-width="3" stroke-linecap="round" stroke-linejoin="round"/>
</svg>
