<?xml version="1.0" encoding="UTF-8"?><svg id="a" xmlns="http://www.w3.org/2000/svg" viewBox="0 0 223.23 144.88"><defs><style>.b{fill:#3d8743;}</style></defs><path class="b" d="M85.88,3.03c-8.52,2.01-16.67,4.99-24.31,8.83l4.16,9.36,4.74-2.11c4.28-1.9,8.74-3.52,13.24-4.81l4.98-1.42-2.81-9.85Zm-28.89,11.26c-1.49,.84-2.97,1.71-4.42,2.62l-.04,.03c-1.64,1.02-3.24,2.08-4.82,3.18h0l-.05,.04h0l-.05,.03h0s-.06,.05-.09,.07h0l-.05,.04-.05,.03h0l-.04,.03h0l-.04,.04h-.01l-.03,.03h-.01l-.04,.04h-.01l-.03,.03h-.02l-.04,.04h-.02l-.03,.03h-.02l-.03,.03h-.02l-.03,.04h-.02l-.03,.03h-.02l-.04,.04-.02,.02h-.02l-.02,.03-.02,.02-.04,.03h-.02l-.03,.03h-.01s-.03,.03-.05,.04h-.01l-.03,.03h0l-.06,.05h0l-.03,.03h0s-.06,.05-.1,.07h0c-1.98,1.43-3.9,2.91-5.77,4.45l-.03,.03h0s-.04,.03-.06,.05h0l-.03,.03h0l-.05,.05h0l-.02,.03h-.01l-.02,.03h-.01l-.04,.04-.02,.02-.02,.02-.03,.03h-.02l-.03,.04h-.02l-.03,.04h-.01l-.04,.04h-.01l-.04,.04h0l-.04,.04h0l-.04,.04c-1.33,1.11-2.63,2.25-3.9,3.42l6.58,7.86,3.98-3.33c3.6-3.01,7.44-5.8,11.42-8.28l4.4-2.75-5.43-8.69-.1-.02Zm-24.67,18.78c-1.76,1.78-3.47,3.61-5.11,5.51h0l-.04,.06h0l-.02,.03h-.01l-.02,.04-.02,.02-.03,.03-.02,.02-.02,.02-.02,.03-.02,.02-.02,.02-.02,.02-.02,.03-.02,.02-.02,.03v.02l-.04,.03h-.01l-.03,.05h-.01l-.03,.04h0l-.04,.05h0l-.03,.04h0l-.04,.05h0l-.04,.04h0l-.08,.09h0c-2.62,3.08-5.08,6.31-7.36,9.67-.97,1.43-1.91,2.88-2.81,4.36l8.48,5.76,2.91-4.29c2.63-3.88,5.57-7.61,8.71-11.09l3.48-3.84-7.6-6.88h-.03ZM13.73,57.89c-.83,1.5-1.62,3.02-2.38,4.57v.03c-2.29,4.63-4.26,9.43-5.88,14.39l-.02,.07c-.53,1.61-1.02,3.25-1.48,4.89l9.74,3.19,1.62-4.93c1.46-4.45,3.25-8.84,5.32-13.05l2.29-4.65-9.2-4.52h0ZM2.7,86.87c-.78,3.41-1.39,6.88-1.85,10.4,0,.04-.01,.08-.02,.13H.83c0,.06-.01,.12-.02,.17H.81c0,.05,0,.09-.02,.13H.79v.04H.79s-.01,.09-.01,.13H.78v.05H.78v.15s-.01,.02-.01,.03H.77v.12l-.02,.02v.1l-.02,.02v.09s-.01,.02-.01,.03v.08s-.01,.03-.01,.04v.08s-.01,.02-.01,.03v.12l-.02,.02v.05H.68v.11h-.01v.07H.67v.12h-.01v.06H.66v.06H.66v.13h-.01v.06H.65v.12h-.01c0,.06-.01,.12-.02,.18H.62c-.26,2.5-.45,5.02-.54,7.57v.07c-.05,1.41-.08,2.82-.08,4.24v.88l10.24,.39,.2-5.18c.18-4.7,.69-9.42,1.51-14.02l.91-5.1-10.09-1.8h-.07Zm7.59,29.89L.09,117.77c.09,1.72,.22,3.43,.39,5.13v.04c.15,1.51,.33,3.01,.54,4.5h0s.01,.08,.02,.12h0v.06s.02,.08,.02,.12h0v.07s.01,.04,.02,.06h0v.06h0v.07h0v.06h0v.06h0v.06h.01v.06h0v.07h0v.07l.02,.04h0v.08s.01,.02,.02,.03v.14l.02,.03v.15l.02,.02v.24l.02,.03v.09l.02,.04h0s.01,.09,.02,.13h0v.05h0s.01,.09,.02,.13h0c.75,4.67,1.79,9.24,3.1,13.69l9.96-2.43-1.23-5.04c-1.11-4.54-1.91-9.22-2.37-13.89l-.51-5.16h.09Zm202.49,1.53l-.59,5.15c-.54,4.66-1.41,9.32-2.58,13.85l-1.3,5.02,9.92,2.58c.67-2.17,1.28-4.37,1.83-6.6h0s0-.03,.01-.04h0l.03-.12h0s.02-.09,.03-.12h0v-.06l.03-.07h0v-.06l.02-.03v-.02l.02-.05v-.05l.02-.03v-.02s.01-.03,.02-.05v-.05l.02-.02v-.06s.02-.03,.02-.04v-.02s.01-.02,.01-.04v-.02s.01-.03,.02-.05h0s0-.04,.01-.05v-.02s.01-.03,.01-.05h0v-.06h.02v-.06h.01v-.07l.03-.06h0l.03-.12h0c.01-.06,.03-.12,.04-.18h0c.89-3.93,1.58-7.93,2.05-12v-.06c.2-1.69,.36-3.39,.47-5.11l-10.18-1.17-.02,.03Zm8.03-29.77l-10.11,1.65,.83,5.12c.75,4.61,1.19,9.34,1.3,14.05l.12,5.18,10.25-.24c.02-.85,.03-1.7,.03-2.56s-.01-1.72-.03-2.58v-.05c-.12-5.26-.61-10.42-1.43-15.48v-.06c-.29-1.69-.6-3.37-.95-5.04h0Zm-10.59-29.13l-9.26,4.38,2.22,4.69c2.01,4.24,3.73,8.65,5.12,13.12l1.54,4.95,9.78-3.05c-.85-3.25-1.84-6.45-2.97-9.58h0s-.03-.08-.04-.12h0v-.04h-.01s-.02-.05-.02-.07v-.02l-.02-.03v-.02l-.02-.05v-.02l-.02-.03v-.03l-.02-.02s-.01-.03-.02-.04v-.02l-.02-.03v-.02l-.02-.05h0l-.02-.05v-.02l-.02-.04h0s-.01-.04-.02-.06h0l-.02-.05h0s-.01-.05-.02-.06h0s-.01-.04-.02-.05h0s-.01-.05-.02-.07l-.02-.05h0s-.03-.08-.04-.12h0c-1.1-2.97-2.33-5.87-3.68-8.71l-.03-.06c-.73-1.55-1.5-3.07-2.3-4.58v.02Zm-18.22-25.09l-7.7,6.76,3.42,3.9c3.1,3.53,5.97,7.3,8.55,11.22l2.85,4.33,8.56-5.63c-.88-1.48-1.78-2.93-2.72-4.36l-.02-.04c-2.85-4.34-6-8.47-9.42-12.36l-.05-.05c-1.13-1.28-2.28-2.53-3.46-3.76h-.01Zm-24.39-19.16l-5.56,8.61,4.36,2.81c3.94,2.54,7.74,5.38,11.29,8.45l3.93,3.39,6.7-7.76c-2.58-2.44-5.28-4.77-8.08-6.96h0l-.1-.08h0l-.1-.08h0l-.09-.08h0l-.03-.03h0s-.04-.03-.06-.05h0l-.03-.03h0l-.06-.05h0l-.03-.03h-.01l-.05-.05h-.01l-.02-.03h-.01l-.03-.03-.03-.03-.02-.02-.02-.02-.02-.02-.04-.03h-.01l-.03-.03-.02-.02-.03-.02-.02-.02-.03-.02h-.02l-.02-.03h-.02l-.04-.04-.02-.02-.02-.02h-.02l-.04-.04h-.02l-.03-.03h-.01l-.04-.04h-.02l-.03-.03h-.02s-.02-.03-.04-.04h-.01l-.03-.03h-.02l-.03-.03h-.02l-.04-.04h-.02l-.03-.03h-.01l-.04-.04h-.01l-.03-.03h-.01l-.04-.04h0l-.04-.03h-.01l-.04-.04h0l-.04-.03h-.01s-.06-.05-.09-.07h0l-.04-.04h0l-.04-.04h0l-.04-.04h0l-.04-.04h0l-.04-.03h0l-.04-.04h0l-.04-.03h0l-.04-.04h0l-.04-.03h0l-.04-.04h0l-.05-.04h0l-.04-.03h0l-.05-.04h0l-.04-.03h-.01l-.04-.04h0l-.04-.03h0s-.06-.05-.09-.07h0l-.04-.04h0l-.04-.03h-.01l-.04-.04h0l-.04-.04h-.01l-.04-.03h-.01l-.04-.04h0l-.04-.03h-.01l-.04-.04h0s-.03-.02-.04-.03h-.01l-.04-.04h0l-.04-.03h-.01l-.03-.03h-.01l-.04-.04h-.01s-.02-.03-.03-.03h-.01l-.04-.04h-.01l-.03-.03h-.02l-.04-.04h-.01l-.03-.03h-.02l-.04-.04h-.01l-.03-.03h-.02l-.03-.03h-.01l-.04-.04h-.02l-.03-.03h-.02l-.04-.04h-.02l-.03-.03h-.02l-.04-.04h-.02l-.03-.03h-.02l-.02-.03-.04-.03h-.02l-.02-.03h-.02l-.04-.04h-.02l-.02-.03h-.02s-.03-.04-.05-.05h0l-.03-.02h-.02s-.06-.05-.09-.07h-.01l-.03-.03h0l-.05-.04h0l-.03-.03h0s-.06-.05-.1-.07h0l-.1-.07h0c-2.51-1.75-5.08-3.39-7.73-4.93h-.24Zm-28.72-11.7l-2.96,9.81,4.96,1.5c4.48,1.35,8.91,3.04,13.17,5.01l4.7,2.18,4.31-9.3c-1.95-1.01-3.93-1.97-5.94-2.87-.04-.02-.08-.03-.11-.05h0s-.07-.03-.11-.05h0l-.04-.02h0l-.07-.03h0l-.03-.02h-.01s-.07-.04-.1-.05h-.01l-.03-.02h-.01l-.06-.03h-.02l-.03-.02h-.02l-.05-.03h-.02l-.03-.02h-.02l-.02-.02-.04-.02h-.02l-.02-.02h-.03l-.03-.02-.04-.02h-.03l-.02-.02h-.03l-.02-.02-.04-.02h-.02l-.03-.02h-.02l-.05-.03h-.02l-.03-.02h-.02l-.04-.02h-.02l-.03-.03h-.02l-.04-.02h-.01l-.05-.03h-.01l-.04-.02h-.02l-.05-.03h-.01l-.04-.02h-.02l-.05-.03h0l-.05-.02h-.02l-.04-.02h-.01l-.05-.02h-.01l-.04-.02h-.01l-.05-.03h0l-.05-.02h0l-.05-.03-.05-.02h0l-.04-.02h-.01l-.05-.03h0l-.04-.02h-.01l-.1-.05h-.01l-.05-.02h0l-.05-.02h-.01l-.04-.02h0l-.05-.02h0l-.05-.02h0s-.07-.03-.1-.05h-.01l-.05-.02h0l-.05-.02h0l-.04-.02h0l-.05-.02h0l-.04-.02h-.01l-.1-.05h-.01l-.05-.02h0l-.05-.02h0l-.04-.02h0l-.05-.02h0l-.04-.02h-.01l-.05-.02h0l-.05-.02h-.01l-.04-.02h-.01l-.05-.02h-.01l-.04-.02h-.02l-.05-.03h-.01l-.04-.02h-.02l-.05-.03h0l-.05-.02h-.02l-.04-.02h-.01l-.05-.02h-.02l-.04-.02h-.02l-.05-.03h-.01l-.04-.02h-.02l-.04-.02h0l-.05-.02h-.02l-.03-.02h-.02l-.05-.03h-.01l-.04-.02h-.02l-.05-.02h-.01l-.04-.02h-.02l-.04-.02h-.01l-.05-.02h-.02l-.03-.02h-.02l-.04-.03h-.02l-.03-.02h-.02l-.03-.02h-.03l-.03-.02h-.02l-.03-.02h-.03l-.03-.03h-.02l-.03-.02h-.02l-.04-.02h-.03l-.02-.02h-.03l-.02-.02-.04-.02h-.02l-.03-.02h-.02l-.04-.02h-.02l-.03-.02h-.02l-.03-.02h0l-.06-.03h-.02l-.03-.02h-.01l-.06-.03h-.02l-.03-.02h-.02l-.06-.03h-.04l-.02-.02s-.07-.03-.1-.04h-.01l-.03-.02h-.01s-.04-.02-.07-.03h0l-.04-.02h-.01l-.11-.04h-.01s-.08-.03-.11-.05h0l-.04-.02h0l-.07-.03h-.04v-.02s-.08-.03-.12-.04h0l-.11-.05h0l-.04-.02h0l-.11-.04h0l-.11-.04h0c-1.48-.54-2.98-1.05-4.49-1.53h0l-.12-.04h0l-.12-.04h-.04v-.02l-.08-.02h-.04l-.02-.02h-.03l-.02-.02-.05-.02h-.02l-.03-.02h-.03l-.04-.02h-.03l-.03-.02h-.03l-.03-.02h-.04l-.02-.02h-.03l-.02-.02h-.05l-.02-.02h-.03l-.02-.02h-.04l-.02-.02h-.04l-.02-.02h-.04v-.02l-.06-.02h-.01l-.04-.02h-.01l-.05-.02h0l-.05-.02h-.01s-.07-.03-.11-.04c-1.65-.5-3.32-.96-5-1.38l-.2,.02ZM111.58,.07c-1.17,0-2.34,.02-3.5,.05-3.83,.12-7.62,.43-11.35,.93h0l-.17,.02h0l-.11,.02h-.07l-.06,.02h-.11l-.02,.02h-.1c-1.72,.25-3.44,.53-5.13,.85l1.41,10.15,5.13-.71c4.63-.64,9.37-.97,14.08-.97h1.53c4.71,.08,9.44,.48,14.06,1.19l5.12,.79,1.56-10.13c-1.68-.34-3.37-.64-5.08-.91h-.02c-2.37-.37-4.77-.66-7.18-.88h0l-.18-.02h-.13l-.05-.02h-.13l-.05-.02h-.13l-.05-.02h-.18l-.05-.02h-.18l-.02-.02h-.18l-.05-.02h-.19l-.04-.02h-.2l-.04-.02h-.19l-.03-.02h-.22l-.02-.02h-.21l-.05-.02h-.21l-.03-.02h-.21l-.04-.02h-.24l-.03-.02h-.26l-.03-.02h-.27l-.04-.02h-.27l-.03-.02h-.3l-.05-.02h-.24c-1.72-.09-3.45-.13-5.19-.13l.02,.07Z"/></svg>