<?xml version="1.0" encoding="utf-8"?>
<!-- Generator: Adobe Illustrator 26.2.1, SVG Export Plug-In . SVG Version: 6.00 Build 0)  -->
<svg version="1.1" id="a" xmlns="http://www.w3.org/2000/svg" xmlns:xlink="http://www.w3.org/1999/xlink" x="0px" y="0px"
	 viewBox="0 0 223.1 144.8" style="enable-background:new 0 0 223.1 144.8;" xml:space="preserve">
<style type="text/css">
	.st0{fill:#E5E5E5;}
</style>
<path class="st0" d="M85.8,3c-8.5,2-16.7,5-24.3,8.8l4.2,9.4l4.7-2.1c4.3-1.9,8.7-3.5,13.2-4.8l5-1.4C88.6,12.8,85.8,3,85.8,3z
	 M56.9,14.2c-1.5,0.8-3,1.7-4.4,2.6l0,0c-1.6,1-3.2,2.1-4.8,3.2l0,0l0,0l0,0l0,0l0,0c0,0-0.1,0-0.1,0.1l0,0l0,0l0,0l0,0l0,0l0,0
	c0,0,0,0,0,0h0l0,0h0l0,0h0l0,0h0l0,0h0l0,0h0l0,0h0l0,0h0l0,0h0l0,0l0,0h0l0,0l0,0l0,0h0l0,0h0c0,0,0,0,0,0h0l0,0l0,0l-0.1,0l0,0
	l0,0l0,0c0,0-0.1,0-0.1,0.1l0,0c-2,1.4-3.9,2.9-5.8,4.4l0,0l0,0c0,0,0,0-0.1,0l0,0l0,0l0,0c0,0,0,0,0,0l0,0l0,0h0l0,0h0l0,0l0,0l0,0
	c0,0,0,0,0,0h0l0,0h0l0,0h0l0,0h0l0,0l0,0l0,0l0,0l0,0c-1.3,1.1-2.6,2.2-3.9,3.4l6.6,7.9l4-3.3c3.6-3,7.4-5.8,11.4-8.3l4.4-2.8
	L57,14.3L56.9,14.2z M32.2,33c-1.8,1.8-3.5,3.6-5.1,5.5l0,0l0,0.1l0,0l0,0h0l0,0l0,0l0,0l0,0l0,0l0,0l0,0l0,0l0,0l0,0l0,0l0,0v0l0,0
	h0l0,0h0l0,0l0,0l0,0l0,0l0,0l0,0l0,0l0,0l0,0l0,0l-0.1,0.1l0,0c-2.6,3.1-5.1,6.3-7.4,9.7c-1,1.4-1.9,2.9-2.8,4.4l8.5,5.8l2.9-4.3
	c2.6-3.9,5.6-7.6,8.7-11.1l3.5-3.8L32.2,33L32.2,33z M13.6,57.8c-0.8,1.5-1.6,3-2.4,4.6v0C9,67.1,7,71.9,5.4,76.8l0,0.1
	c-0.5,1.6-1,3.2-1.5,4.9l9.7,3.2l1.6-4.9c1.5-4.4,3.2-8.8,5.3-13.1l2.3-4.7L13.6,57.8L13.6,57.8z M2.6,86.8
	c-0.8,3.4-1.4,6.9-1.9,10.4c0,0,0,0.1,0,0.1l0,0c0,0.1,0,0.1,0,0.2l0,0c0,0.1,0,0.1,0,0.1l0,0c0,0,0,0,0,0l0,0c0,0,0,0.1,0,0.1l0,0
	v0.1l0,0c0,0,0,0.1,0,0.1V98c0,0,0,0,0,0l0,0v0.1l0,0v0.1l0,0v0.1c0,0,0,0,0,0v0.1c0,0,0,0,0,0v0.1c0,0,0,0,0,0v0.1l0,0
	c0,0,0,0,0,0.1l0,0v0.1h0V99l0,0v0.1h0v0.1l0,0v0.1l0,0v0.1h0v0.1l0,0v0.1h0c0,0.1,0,0.1,0,0.2l0,0c-0.3,2.5-0.5,5-0.5,7.6v0.1
	c0,1.4-0.1,2.8-0.1,4.2c0,0.3,0,0.6,0,0.9l10.2,0.4l0.2-5.2c0.2-4.7,0.7-9.4,1.5-14l0.9-5.1L2.6,86.8L2.6,86.8z M10.2,116.7l-10.2,1
	c0.1,1.7,0.2,3.4,0.4,5.1v0c0.1,1.5,0.3,3,0.5,4.5l0,0c0,0,0,0.1,0,0.1l0,0v0.1c0,0,0,0.1,0,0.1l0,0v0.1c0,0,0,0,0,0.1l0,0v0.1l0,0
	v0.1l0,0v0.1l0,0c0,0,0,0.1,0,0.1l0,0v0.1h0v0.1l0,0v0.1l0,0v0.1l0,0l0,0v0.1c0,0,0,0,0,0v0c0,0,0,0,0,0v0.1l0,0v0c0,0,0,0,0,0.1
	v0.1l0,0c0,0,0,0,0,0.1v0c0,0,0,0,0,0v0c0,0,0,0,0,0v0.1l0,0v0.1l0,0l0,0c0,0,0,0.1,0,0.1l0,0v0.1l0,0c0,0,0,0.1,0,0.1l0,0
	c0.8,4.7,1.8,9.2,3.1,13.7l10-2.4l-1.2-5c-1.1-4.5-1.9-9.2-2.4-13.9L10.2,116.7L10.2,116.7z M212.7,118.2l-0.6,5.2
	c-0.5,4.7-1.4,9.3-2.6,13.9l-1.3,5l9.9,2.6c0.7-2.2,1.3-4.4,1.8-6.6l0,0c0,0,0,0,0,0l0,0c0,0,0-0.1,0-0.1l0,0c0,0,0-0.1,0-0.1l0,0
	v-0.1l0-0.1l0,0v-0.1l0,0v0l0-0.1v-0.1l0,0v0c0,0,0,0,0-0.1v-0.1l0,0v-0.1c0,0,0,0,0,0v0c0,0,0,0,0,0v0c0,0,0,0,0-0.1l0,0
	c0,0,0,0,0-0.1v0c0,0,0,0,0-0.1l0,0V137h0V137h0v-0.1c0,0,0,0,0-0.1l0,0c0,0,0-0.1,0-0.1l0,0c0-0.1,0-0.1,0-0.2l0,0
	c0.9-3.9,1.6-7.9,2-12v-0.1c0.2-1.7,0.4-3.4,0.5-5.1L212.7,118.2L212.7,118.2z M220.7,88.4l-10.1,1.7l0.8,5.1
	c0.8,4.6,1.2,9.3,1.3,14.1l0.1,5.2l10.2-0.2c0-0.8,0-1.7,0-2.6s0-1.7,0-2.6V109c-0.1-5.3-0.6-10.4-1.4-15.5v-0.1
	C221.4,91.8,221.1,90.1,220.7,88.4L220.7,88.4z M210.1,59.3l-9.3,4.4l2.2,4.7c2,4.2,3.7,8.7,5.1,13.1l1.5,4.9l9.8-3.1
	c-0.9-3.2-1.8-6.4-3-9.6l0,0c0,0,0-0.1,0-0.1l0,0v0h0c0,0,0-0.1,0-0.1v0l0,0v0l0-0.1v0l0,0v0l0,0c0,0,0,0,0,0v0l0,0v0l0-0.1l0,0
	l0-0.1v0l0,0l0,0c0,0,0,0,0-0.1l0,0l0-0.1l0,0c0,0,0-0.1,0-0.1l0,0c0,0,0,0,0-0.1l0,0c0,0,0-0.1,0-0.1l0-0.1l0,0c0,0,0-0.1,0-0.1
	l0,0c-1.1-3-2.3-5.9-3.7-8.7l0-0.1C211.7,62.3,210.9,60.8,210.1,59.3L210.1,59.3z M191.9,34.2l-7.7,6.8l3.4,3.9
	c3.1,3.5,6,7.3,8.5,11.2l2.9,4.3l8.6-5.6c-0.9-1.5-1.8-2.9-2.7-4.4l0,0c-2.9-4.3-6-8.5-9.4-12.4l0,0
	C194.3,36.7,193.1,35.5,191.9,34.2L191.9,34.2z M167.5,15.1l-5.6,8.6l4.4,2.8c3.9,2.5,7.7,5.4,11.3,8.4l3.9,3.4l6.7-7.8
	c-2.6-2.4-5.3-4.8-8.1-7l0,0l-0.1-0.1l0,0l-0.1-0.1l0,0l-0.1-0.1l0,0l0,0l0,0c0,0,0,0-0.1,0l0,0l0,0l0,0l-0.1,0l0,0l0,0h0l0,0h0l0,0
	h0l0,0c0,0,0,0,0,0l0,0l0,0l0,0l0,0h0l0,0l0,0l0,0l0,0l0,0h0l0,0h0l0,0l0,0l0,0h0l0,0h0l0,0h0l0,0h0l0,0h0c0,0,0,0,0,0h0l0,0h0l0,0
	h0l0,0h0l0,0h0l0,0h0l0,0h0l0,0l0,0l0,0h0c0,0,0,0,0,0l0,0l0,0h0c0,0-0.1,0-0.1-0.1l0,0l0,0l0,0l0,0l0,0l0,0l0,0l0,0l0,0l0,0l0,0
	l0,0l0,0l0,0l0,0l0,0l0,0l0,0l0,0l0,0l0,0l0,0l0,0l0,0l0,0l0,0l0,0l0,0h0c0,0,0,0,0,0l0,0l0,0l0,0c0,0-0.1,0-0.1-0.1l0,0l0,0l0,0
	l0,0h0c0,0,0,0,0,0l0,0l0,0h0l0,0h0l0,0l0,0l0,0h0l0,0l0,0c0,0,0,0,0,0h0l0,0l0,0l0,0h0l0,0h0l0,0h0c0,0,0,0,0,0h0l0,0h0l0,0h0l0,0
	h0l0,0h0l0,0h0l0,0h0l0,0h0l0,0h0l0,0h0c0,0,0,0,0,0h0l0,0h0l0,0h0l0,0h0l0,0l0,0h0l0,0h0l0,0h0l0,0h0c0,0,0,0,0,0l0,0l0,0h0
	c0,0-0.1,0-0.1-0.1h0l0,0l0,0l0,0l0,0l0,0l0,0c0,0-0.1,0-0.1-0.1l0,0l-0.1-0.1l0,0c-2.5-1.8-5.1-3.4-7.7-4.9L167.5,15.1z M138.8,3.4
	l-3,9.8l5,1.5c4.5,1.4,8.9,3,13.2,5l4.7,2.2l4.3-9.3c-2-1-3.9-2-5.9-2.9c0,0-0.1,0-0.1-0.1l0,0c0,0-0.1,0-0.1-0.1l0,0l0,0l0,0
	l-0.1,0l0,0l0,0h0c0,0-0.1,0-0.1-0.1h0l0,0h0l-0.1,0h0l0,0h0l0,0h0l0,0h0l0,0l0,0h0l0,0h0l0,0l0,0h0l0,0h0l0,0l0,0h0l0,0h0l0,0h0
	l0,0h0l0,0h0l0,0h0l0,0h0l0,0h0l0,0h0l0,0h0l0,0h0l0,0l0,0l0,0h0l0,0h0l0,0h0l0,0h0l0,0l0,0l0,0l0,0l0,0l0,0l0,0l0,0h0l0,0l0,0l0,0
	h0l-0.1-0.1h0l0,0l0,0l0,0h0l0,0l0,0l0,0l0,0l0,0l0,0c0,0-0.1,0-0.1-0.1h0l0,0l0,0l0,0l0,0l0,0l0,0l0,0l0,0l0,0h0l-0.1-0.1h0l0,0
	l0,0l0,0l0,0l0,0l0,0l0,0l0,0l0,0h0l0,0l0,0l0,0h0l0,0h0l0,0h0l0,0h0l0,0h0l0,0h0l0,0l0,0l0,0h0l0,0h0l0,0h0l0,0h0l0,0h0l0,0h0l0,0
	l0,0l0,0h0l0,0h0l0,0h0l0,0h0l0,0h0l0,0h0l0,0h0l0,0h0l0,0h0l0,0h0l0,0h0l0,0h0l0,0h0l0,0h0l0,0h0l0,0h0l0,0h0l0,0h0l0,0l0,0h0l0,0
	h0l0,0h0l0,0h0l0,0l0,0l-0.1,0h0l0,0h0l-0.1,0h0l0,0h0l-0.1,0h0l0,0c0,0-0.1,0-0.1,0h0l0,0h0c0,0,0,0-0.1,0l0,0l0,0h0l-0.1,0h0
	c0,0-0.1,0-0.1-0.1l0,0l0,0l0,0l-0.1,0h0v0c0,0-0.1,0-0.1,0l0,0l-0.1-0.1l0,0l0,0l0,0l-0.1,0l0,0l-0.1,0l0,0c-1.5-0.5-3-1.1-4.5-1.5
	l0,0l-0.1,0l0,0l-0.1,0h0v0l-0.1,0h0l0,0h0l0,0l0,0h0l0,0h0l0,0h0l0,0h0l0,0h0l0,0h0l0,0h0l0,0h0l0,0h0l0,0h0l0,0h0v0l-0.1,0h0l0,0
	h0l0,0l0,0l0,0h0c0,0-0.1,0-0.1,0c-1.6-0.5-3.3-1-5-1.4L138.8,3.4z M111.5,0c-1.2,0-2.3,0-3.5,0.1c-3.8,0.1-7.6,0.4-11.4,0.9l0,0
	l-0.2,0l0,0l-0.1,0h-0.1l-0.1,0h-0.1l0,0H96c-1.7,0.2-3.4,0.5-5.1,0.9l1.4,10.1l5.1-0.7c4.6-0.6,9.4-1,14.1-1h1.5
	c4.7,0.1,9.4,0.5,14.1,1.2l5.1,0.8l1.6-10.1c-1.7-0.3-3.4-0.6-5.1-0.9h0c-2.4-0.4-4.8-0.7-7.2-0.9l0,0l-0.2,0h-0.1l0,0H121l0,0h-0.1
	l0,0l0,0h-0.2l0,0h-0.2l0,0h-0.2l0,0h-0.2l0,0h-0.2l0,0h-0.2l0,0h-0.2l0,0H119l0,0h-0.2l0,0h-0.2l0,0h-0.2l0,0h-0.3l0,0h-0.3l0,0
	h-0.3l0,0H117l0,0h-0.2C114.9,0,113.2-0.1,111.5,0L111.5,0z"/>
</svg>
