<svg width="52" height="48" viewBox="0 0 52 48" fill="none" xmlns="http://www.w3.org/2000/svg">
<path d="M34 13.3337H39.3333M34 24.0003H39.3333M12.6667 34.667H39.3333M10 2.66699H42C46.4183 2.66699 50 6.24871 50 10.667V37.3337C50 41.7519 46.4183 45.3337 42 45.3337H10C5.58172 45.3337 2 41.7519 2 37.3337V10.667C2 6.24871 5.58172 2.66699 10 2.66699ZM23.3333 18.667C23.3333 21.6125 20.9455 24.0003 18 24.0003C15.0545 24.0003 12.6667 21.6125 12.6667 18.667C12.6667 15.7215 15.0545 13.3337 18 13.3337C20.9455 13.3337 23.3333 15.7215 23.3333 18.667Z" stroke="#D12B8A" stroke-width="4" stroke-linecap="round" stroke-linejoin="round"/>
</svg>
