<svg width="20" height="20" viewBox="0 0 20 20" fill="none" xmlns="http://www.w3.org/2000/svg">
<path d="M10 0C7.34786 0 4.80445 1.05356 2.92892 2.92892C1.0536 4.80441 0 7.34814 0 10C0 12.6519 1.05356 15.1956 2.92892 17.0711C4.80441 18.9464 7.34814 20 10 20C12.6519 20 15.1956 18.9464 17.0711 17.0711C18.9464 15.1956 20 12.6519 20 10C19.9971 7.34867 18.9428 4.8069 17.0679 2.93219C15.1932 1.05731 12.6511 0.00293875 10.0001 8.15885e-05L10 0ZM10 18.5716C7.72672 18.5716 5.54649 17.6685 3.93913 16.061C2.33165 14.4535 1.42858 12.2734 1.42858 10.0002C1.42858 7.72696 2.33165 5.54666 3.93913 3.9393C5.54662 2.33181 7.7268 1.42875 10 1.42875C12.2732 1.42875 14.4535 2.33181 16.0609 3.9393C17.6683 5.54678 18.5714 7.72696 18.5714 10.0002C18.569 12.2727 17.6652 14.4512 16.0582 16.0586C14.4512 17.6656 12.2724 18.5695 9.99975 18.5718L10 18.5716Z" fill="#6F6F6F"/>
<path d="M13.3603 6.63802C13.2264 6.50409 13.0448 6.42883 12.8554 6.42883C12.666 6.42883 12.4844 6.50409 12.3504 6.63802L9.99822 8.99008L7.646 6.63786V6.63801C7.46456 6.46279 7.2042 6.39614 6.96089 6.46279C6.71775 6.52959 6.5277 6.71965 6.46089 6.96279C6.39424 7.2061 6.46089 7.46647 6.63611 7.6479L8.98817 10.0001L6.63595 12.3523H6.63611C6.49819 12.4853 6.41975 12.6684 6.41799 12.8599C6.4164 13.0515 6.49166 13.2357 6.62718 13.3712C6.7627 13.5067 6.94685 13.582 7.13849 13.5804C7.32998 13.5786 7.51301 13.5002 7.646 13.3622L9.99823 11.0102L12.3505 13.3624V13.3622C12.5319 13.5375 12.7923 13.6041 13.0356 13.5375C13.2787 13.4707 13.4687 13.2806 13.5356 13.0375C13.6022 12.7942 13.5356 12.5338 13.3603 12.3524L11.0083 10.0001L13.3605 7.64791H13.3603C13.4943 7.51398 13.5695 7.33238 13.5695 7.14297C13.5695 6.95356 13.4943 6.77195 13.3603 6.63803L13.3603 6.63802Z" fill="#6F6F6F"/>
</svg>
