<svg xmlns="http://www.w3.org/2000/svg" width="24.357" height="22.409" viewBox="0 0 24.357 22.409">
  <g id="_001-comment" data-name="001-comment" transform="translate(-0.001 1.332)">
    <path id="Path_1292" data-name="Path 1292" d="M21.009-1.332H3.349A3.352,3.352,0,0,0,0,2.017V12.824a3.353,3.353,0,0,0,3.337,3.349v4.9l7.048-4.9H21.009a3.353,3.353,0,0,0,3.349-3.349V2.017a3.352,3.352,0,0,0-3.349-3.349Zm1.922,14.156a1.924,1.924,0,0,1-1.922,1.922H9.938l-5.173,3.6v-3.6H3.349a1.924,1.924,0,0,1-1.922-1.922V2.017A1.924,1.924,0,0,1,3.349.1h17.66a1.924,1.924,0,0,1,1.922,1.922Zm0,0" fill="#d12b8a"/>
    <path id="Path_1293" data-name="Path 1293" d="M171.293,131.172h11.319V132.6H171.293Zm0,0" transform="translate(-164.773 -127.461)" fill="#d12b8a"/>
    <path id="Path_1294" data-name="Path 1294" d="M171.293,211.172h11.319V212.6H171.293Zm0,0" transform="translate(-164.773 -204.416)" fill="#d12b8a"/>
    <path id="Path_1295" data-name="Path 1295" d="M171.293,291.172h11.319V292.6H171.293Zm0,0" transform="translate(-164.773 -281.372)" fill="#d12b8a"/>
  </g>
</svg>
