<svg xmlns="http://www.w3.org/2000/svg" width="18.892" height="17.381" viewBox="0 0 18.892 17.381">
  <g id="_001-comment" data-name="001-comment" transform="translate(-0.001 1.332)">
    <path id="Path_1292" data-name="Path 1292" d="M16.3-1.332H2.6A2.6,2.6,0,0,0,0,1.265V9.648a2.6,2.6,0,0,0,2.588,2.6v3.8l5.467-3.8H16.3a2.6,2.6,0,0,0,2.6-2.6V1.265a2.6,2.6,0,0,0-2.6-2.6Zm1.49,10.98a1.492,1.492,0,0,1-1.49,1.49H7.708L3.7,13.93V11.138H2.6a1.492,1.492,0,0,1-1.49-1.49V1.265A1.492,1.492,0,0,1,2.6-.225H16.3a1.492,1.492,0,0,1,1.49,1.49Zm0,0" transform="translate(0)"/>
    <path id="Path_1293" data-name="Path 1293" d="M171.293,131.172h8.779v1.107h-8.779Zm0,0" transform="translate(-166.236 -128.593)"/>
    <path id="Path_1294" data-name="Path 1294" d="M171.293,211.172h8.779v1.107h-8.779Zm0,0" transform="translate(-166.236 -206.231)"/>
    <path id="Path_1295" data-name="Path 1295" d="M171.293,291.172h8.779v1.107h-8.779Zm0,0" transform="translate(-166.236 -283.87)"/>
  </g>
</svg>
