<svg xmlns="http://www.w3.org/2000/svg" width="84" height="84" viewBox="0 0 84 84">
  <g id="Group_3986" data-name="Group 3986" transform="translate(-245 -2234)">
    <g id="Ellipse_911" data-name="Ellipse 911" transform="translate(251 2240)" fill="#fff" stroke="#fbe9f3" stroke-width="6">
      <circle cx="36" cy="36" r="36" stroke="none"/>
      <circle cx="36" cy="36" r="39" fill="none"/>
    </g>
    <g id="money" transform="translate(266.146 2253.402)">
      <g id="Group_2641" data-name="Group 2641" transform="translate(25.607 24.616)">
        <g id="Group_2640" data-name="Group 2640" transform="translate(0 0)">
          <path id="Path_1614" data-name="Path 1614" d="M303.54,262.361a1.643,1.643,0,1,1,1.878-1.626.854.854,0,0,0,1.707,0,3.4,3.4,0,0,0-2.732-3.237v-.444a.854.854,0,0,0-1.707,0v.444a3.4,3.4,0,0,0-2.732,3.237,3.47,3.47,0,0,0,3.586,3.333,1.643,1.643,0,1,1-1.878,1.626.854.854,0,1,0-1.707,0,3.4,3.4,0,0,0,2.732,3.237v.369a.854.854,0,0,0,1.707,0v-.369a3.4,3.4,0,0,0,2.732-3.237A3.47,3.47,0,0,0,303.54,262.361Z" transform="translate(-299.954 -256.201)" fill="#d12b8a"/>
        </g>
      </g>
      <g id="Group_2643" data-name="Group 2643" transform="translate(32.776 21.592)">
        <g id="Group_2642" data-name="Group 2642" transform="translate(0 0)">
          <path id="Path_1615" data-name="Path 1615" d="M389.692,224.89a11.124,11.124,0,0,0-4.544-4.021.854.854,0,1,0-.74,1.539,9.4,9.4,0,0,1,4.233,12.873.854.854,0,1,0,1.507.8,11.111,11.111,0,0,0-.457-11.193Z" transform="translate(-383.924 -220.785)" fill="#d12b8a"/>
        </g>
      </g>
      <g id="Group_2645" data-name="Group 2645" transform="translate(29.624 20.586)">
        <g id="Group_2644" data-name="Group 2644" transform="translate(0 0)">
          <path id="Path_1616" data-name="Path 1616" d="M347.911,209h-.057a.854.854,0,0,0,0,1.707h.054a.854.854,0,0,0,0-1.707Z" transform="translate(-347 -209.001)" fill="#d12b8a"/>
        </g>
      </g>
      <g id="Group_2647" data-name="Group 2647" transform="translate(18.099 26.025)">
        <g id="Group_2646" data-name="Group 2646">
          <path id="Path_1617" data-name="Path 1617" d="M219.037,286.839a9.4,9.4,0,0,1-4.233-12.873.854.854,0,1,0-1.507-.8,11.1,11.1,0,0,0,5,15.214.854.854,0,1,0,.74-1.539Z" transform="translate(-212.002 -272.711)" fill="#d12b8a"/>
        </g>
      </g>
      <g id="Group_2649" data-name="Group 2649" transform="translate(27.009 41.075)">
        <g id="Group_2648" data-name="Group 2648">
          <path id="Path_1618" data-name="Path 1618" d="M317.285,449h-.049a.854.854,0,0,0-.008,1.707h.057a.854.854,0,1,0,0-1.707Z" transform="translate(-316.378 -448.999)" fill="#d12b8a"/>
        </g>
      </g>
      <g id="Group_2651" data-name="Group 2651" transform="translate(0 3)">
        <g id="Group_2650" data-name="Group 2650" transform="translate(0 0)">
          <path id="Path_1619" data-name="Path 1619" d="M33.073,17.7a3.919,3.919,0,0,0-.379-.7h2.223a3.927,3.927,0,0,0,0-7.854H28.08A3.924,3.924,0,0,0,24.843,3H3.927a3.927,3.927,0,1,0,0,7.854h6.836a3.916,3.916,0,0,0,0,4.439H8.537a3.925,3.925,0,0,0-2.44,7,3.92,3.92,0,0,0,0,6.147,3.92,3.92,0,0,0,0,6.147,3.925,3.925,0,0,0,2.44,7H18.6A14.51,14.51,0,1,0,33.073,17.7Zm1.843-6.844a2.22,2.22,0,1,1,0,4.439H14a2.22,2.22,0,0,1,0-4.439ZM3.927,9.147a2.22,2.22,0,1,1,0-4.439H24.843a2.22,2.22,0,1,1,0,4.439ZM8.537,17H29.453a2.218,2.218,0,0,1,.969.223c-.4-.034-.812-.052-1.225-.052a14.468,14.468,0,0,0-10.27,4.268H8.537a2.22,2.22,0,1,1,0-4.439Zm0,6.147h8.931a14.472,14.472,0,0,0-2.194,4.439H8.537a2.22,2.22,0,1,1,0-4.439Zm0,6.147h6.345a14.525,14.525,0,0,0-.053,4.439H8.537a2.22,2.22,0,0,1,0-4.439Zm0,10.586a2.22,2.22,0,0,1,0-4.439h6.641a14.456,14.456,0,0,0,2.048,4.439ZM29.2,44.49A12.806,12.806,0,1,1,42,31.685,12.82,12.82,0,0,1,29.2,44.49Z" transform="translate(0 -3)"/>
        </g>
      </g>
    </g>
  </g>
</svg>
