<svg id="confirmation" xmlns="http://www.w3.org/2000/svg" width="62.509" height="62.509" viewBox="0 0 62.509 62.509">
  <g id="Group_1275" data-name="Group 1275" transform="translate(20.837 22.139)">
    <g id="Group_1274" data-name="Group 1274">
      <path id="Path_318" data-name="Path 318" d="M151.981,136.765a2.6,2.6,0,0,0-3.683,0l-11.181,11.18-4.67-4.669a2.6,2.6,0,0,0-3.683,3.683l6.511,6.511a2.6,2.6,0,0,0,3.683,0l13.023-13.023A2.6,2.6,0,0,0,151.981,136.765Z" transform="translate(-128.002 -136.002)" fill="#fff"/>
    </g>
  </g>
  <g id="Group_1277" data-name="Group 1277" transform="translate(0 0)">
    <g id="Group_1276" data-name="Group 1276" transform="translate(0 0)">
      <path id="Path_319" data-name="Path 319" d="M59.9,28.65a2.605,2.605,0,0,0-2.6,2.6A26.043,26.043,0,1,1,49.737,12.9a2.6,2.6,0,1,0,3.7-3.67,31.254,31.254,0,1,0,9.075,22.021A2.605,2.605,0,0,0,59.9,28.65Z" transform="translate(0 0)" fill="#fff"/>
    </g>
  </g>
</svg>
