<svg xmlns="http://www.w3.org/2000/svg" width="55.416" height="55.417" viewBox="0 0 55.416 55.417">
  <path id="confirmation" d="M310.652,414.382a2.268,2.268,0,0,0-3.206,0l-9.734,9.733-4.065-4.064a2.267,2.267,0,0,0-3.206,3.206l5.668,5.668a2.265,2.265,0,0,0,3.2,0h0l11.337-11.337A2.344,2.344,0,0,0,310.652,414.382Zm13.135,5a2.267,2.267,0,0,0-2.267,2.267,22.672,22.672,0,1,1-6.582-15.976,2.267,2.267,0,0,0,3.217-3.2,27.208,27.208,0,1,0,7.9,19.17A2.268,2.268,0,0,0,323.787,419.386Z" transform="translate(-271.139 -393.943)" fill="#23b7c0" stroke="#fdf4f9" stroke-width="1"/>
</svg>
