<svg xmlns="http://www.w3.org/2000/svg" xmlns:xlink="http://www.w3.org/1999/xlink" width="76" height="76" viewBox="0 0 76 76">
  <defs>
    <linearGradient id="linear-gradient" x1="1" y1="0.584" x2="0.167" y2="0.5" gradientUnits="objectBoundingBox">
      <stop offset="0" stop-color="#d12b8a"/>
      <stop offset="1" stop-color="#562b7c"/>
    </linearGradient>
  </defs>
  <g id="Group_2849" data-name="Group 2849" transform="translate(-736 -3269)">
    <g id="Ellipse_993" data-name="Ellipse 993" transform="translate(736 3269)" fill="#fff" stroke="#d12b8a" stroke-width="2">
      <circle cx="38" cy="38" r="38" stroke="none"/>
      <circle cx="38" cy="38" r="37" fill="none"/>
    </g>
    <path id="delivery-truck_1_" data-name="delivery-truck (1)" d="M34.612,639.613a3.909,3.909,0,0,0-2.759,1.138,3.83,3.83,0,0,0,0,5.483,3.924,3.924,0,0,0,2.759,1.138,3.879,3.879,0,0,0,0-7.759Zm0,6.034a2.155,2.155,0,1,1,0-4.31,2.155,2.155,0,0,1,0,4.31Zm1-18.957a.837.837,0,0,0-.578-.224H30.612a.865.865,0,0,0-.862.862V634.4a.865.865,0,0,0,.862.862h7.017a.865.865,0,0,0,.862-.862v-4.733a.863.863,0,0,0-.284-.638Zm1.155,6.845H31.474v-5.353H34.7l2.069,1.862ZM13.56,639.613a3.909,3.909,0,0,0-2.759,1.138,3.83,3.83,0,0,0,0,5.483,3.924,3.924,0,0,0,2.759,1.138,3.879,3.879,0,0,0,0-7.759Zm0,6.034a2.155,2.155,0,1,1,0-4.31,2.155,2.155,0,0,1,0,4.31Zm-5.75-4.974H6.078v-2.293a.862.862,0,1,0-1.724,0v3.155a.865.865,0,0,0,.862.862H7.81a.862.862,0,1,0,0-1.724Zm4.371-4.7a.865.865,0,0,0-.862-.862H.862a.862.862,0,1,0,0,1.724H11.319A.859.859,0,0,0,12.181,635.975Zm-9.569-3.112,10.457.06a.87.87,0,0,0,.871-.853.854.854,0,0,0-.853-.871l-10.457-.06H2.621a.862.862,0,0,0-.009,1.724Zm1.759-3.914H14.827a.862.862,0,0,0,0-1.724H4.371a.862.862,0,1,0,0,1.724Zm37.646-1.164h0l-6.172-5.112a.849.849,0,0,0-.552-.2H28.034v-3.1a.865.865,0,0,0-.862-.862H5.215a.865.865,0,0,0-.862.862v6.31a.862.862,0,0,0,1.724,0v-5.448H26.319v20.44H19.25a.862.862,0,1,0,0,1.724H29.776a.862.862,0,1,0,0-1.724H28.043V624.2h6.948l5.621,4.655-.06,11.8h-.9a.862.862,0,1,0,0,1.724H41.4a.857.857,0,0,0,.862-.853l.069-13.069A.91.91,0,0,0,42.017,627.786Z" transform="translate(752.325 2674.484)" fill="url(#linear-gradient)"/>
  </g>
</svg>
