<svg width="25" height="25" viewBox="0 0 25 25" fill="none" xmlns="http://www.w3.org/2000/svg">
<path d="M24.1928 13.7764C24.7136 12.9951 24.7136 11.9795 24.1928 11.2243L23.2813 9.87012C23.2032 9.71387 23.1772 9.55762 23.1772 9.37533L23.2813 7.7347C23.3334 6.7972 22.8386 5.93783 22.0053 5.52116L20.547 4.79199C20.3907 4.71387 20.2865 4.6097 20.2084 4.45345L19.4792 2.99512C19.0626 2.16178 18.1772 1.66699 17.2657 1.71908L15.6251 1.82324C15.4688 1.82324 15.2865 1.7972 15.1563 1.69303L13.8022 0.807617C13.0209 0.286784 12.0313 0.286784 11.2501 0.807617L9.89592 1.71908C9.71362 1.7972 9.55737 1.82324 9.37508 1.82324L7.73446 1.71908C6.79696 1.66699 5.93758 2.16178 5.52092 2.99512L4.79175 4.45345C4.71362 4.6097 4.60946 4.71387 4.45321 4.79199L2.99487 5.52116C2.16154 5.93783 1.66675 6.82324 1.71883 7.7347L1.823 9.37533C1.823 9.53158 1.79696 9.71387 1.69279 9.84408L0.807373 11.1982C0.28654 11.9795 0.28654 12.9951 0.807373 13.7503L1.71883 15.1045C1.79696 15.2868 1.823 15.443 1.823 15.6253L1.71883 17.266C1.66675 18.2035 2.16154 19.0628 2.99487 19.4795L4.45321 20.2087C4.60946 20.2868 4.71362 20.417 4.79175 20.5472L5.52092 22.0055C5.93758 22.8389 6.823 23.3337 7.73446 23.2816L9.37508 23.1774C9.53133 23.1774 9.71362 23.2035 9.84383 23.3076L11.198 24.193C11.5886 24.4535 12.0313 24.5837 12.474 24.5837C12.9167 24.5837 13.3595 24.4535 13.7501 24.193L15.1042 23.2816C15.2345 23.2035 15.4167 23.1514 15.573 23.1514L17.2136 23.2555C18.1511 23.3076 19.0105 22.8128 19.4272 21.9795L20.1563 20.5212C20.2345 20.3649 20.3386 20.2607 20.4949 20.1826L21.9532 19.4535C22.7865 19.0368 23.2813 18.1514 23.2292 17.2399L23.1772 15.6253C23.1772 15.4691 23.2032 15.2868 23.3074 15.1566L24.1928 13.7764ZM22.8907 12.917L22.0053 14.2712C21.7188 14.6878 21.5886 15.1826 21.6147 15.6774L21.7188 17.318C21.7449 17.6305 21.5626 17.917 21.3022 18.0472L19.8438 18.7764C19.4011 19.0107 19.0365 19.3753 18.8022 19.818L18.073 21.2764C17.9428 21.5628 17.6563 21.7191 17.3438 21.693L15.7032 21.6149C15.2084 21.5889 14.7136 21.7191 14.297 22.0055L12.9428 22.891C12.6824 23.0472 12.3438 23.0472 12.1095 22.891L10.7553 22.0055C10.3647 21.7451 9.92196 21.6149 9.47925 21.6149C9.42717 21.6149 9.40112 21.6149 9.34904 21.6149L7.70842 21.7191C7.39592 21.7451 7.10946 21.5628 6.97925 21.3024L6.25008 19.8441C6.01571 19.4014 5.65112 19.0368 5.20842 18.8024L3.75008 18.0732C3.46362 17.943 3.30737 17.6566 3.33342 17.3441L3.43758 15.7035C3.46362 15.2087 3.33342 14.7139 3.04696 14.2972L2.16154 12.943C2.00529 12.6826 2.00529 12.3441 2.16154 12.1097L3.04696 10.7555C3.33342 10.3389 3.46362 9.84408 3.43758 9.34929L3.33342 7.70866C3.30737 7.39616 3.48966 7.1097 3.75008 6.97949L5.20842 6.25033C5.65112 6.01595 6.01571 5.65137 6.25008 5.20866L6.97925 3.75033C7.10946 3.46387 7.39592 3.30762 7.70842 3.33366L9.34904 3.43783C9.84383 3.46387 10.3386 3.33366 10.7553 3.0472L12.1095 2.16178C12.3699 2.00553 12.7084 2.00553 12.9428 2.16178L14.297 3.0472C14.7136 3.33366 15.2084 3.46387 15.7032 3.43783L17.3438 3.33366C17.6563 3.30762 17.9428 3.48991 18.073 3.75033L18.8022 5.20866C19.0365 5.65137 19.4011 6.01595 19.8438 6.25033L21.3022 6.97949C21.5886 7.1097 21.7449 7.39616 21.7188 7.70866L21.6147 9.2972C21.5886 9.79199 21.7188 10.2868 22.0053 10.7035L22.8907 12.0576C23.073 12.3441 23.073 12.6566 22.8907 12.917Z" fill="url(#paint0_linear_1124_2217)"/>
<path d="M9.50537 11.9795C11.0939 11.9795 12.396 10.6774 12.396 9.08887C12.396 7.50033 11.0939 6.19824 9.50537 6.19824C7.91683 6.19824 6.61475 7.50033 6.61475 9.08887C6.61475 10.7035 7.89079 11.9795 9.50537 11.9795ZM9.50537 7.78678C10.2345 7.78678 10.8335 8.38574 10.8335 9.11491C10.8335 9.84408 10.2345 10.417 9.50537 10.417C8.7762 10.417 8.17725 9.81803 8.17725 9.08887C8.17725 8.3597 8.75016 7.78678 9.50537 7.78678Z" fill="url(#paint1_linear_1124_2217)"/>
<path d="M15.4949 13.0215C13.9063 13.0215 12.6042 14.3236 12.6042 15.9121C12.6042 17.5007 13.9063 18.8027 15.4949 18.8027C17.0834 18.8027 18.3855 17.5007 18.3855 15.9121C18.3855 14.2975 17.1095 13.0215 15.4949 13.0215ZM15.4949 17.2142C14.7657 17.2142 14.1667 16.6152 14.1667 15.8861C14.1667 15.1569 14.7657 14.5579 15.4949 14.5579C16.224 14.5579 16.823 15.1569 16.823 15.8861C16.823 16.6152 16.2501 17.2142 15.4949 17.2142Z" fill="url(#paint2_linear_1124_2217)"/>
<path d="M18.0209 6.97949C17.7084 6.66699 17.2136 6.66699 16.9272 6.97949L6.97925 16.9014C6.66675 17.2139 6.66675 17.7087 6.97925 17.9951C7.1355 18.1514 7.34383 18.2295 7.52612 18.2295C7.70841 18.2295 7.91675 18.1514 8.073 17.9951L17.9949 8.07324C18.3074 7.78678 18.3074 7.29199 18.0209 6.97949Z" fill="url(#paint3_linear_1124_2217)"/>
<defs>
<linearGradient id="paint0_linear_1124_2217" x1="8.00012" y1="2.00037" x2="27.5001" y2="27.0004" gradientUnits="userSpaceOnUse">
<stop stop-color="#D12B8A"/>
<stop offset="1" stop-color="#70489D"/>
</linearGradient>
<linearGradient id="paint1_linear_1124_2217" x1="8.42887" y1="6.57702" x2="13.0937" y2="12.5576" gradientUnits="userSpaceOnUse">
<stop stop-color="#D12B8A"/>
<stop offset="1" stop-color="#70489D"/>
</linearGradient>
<linearGradient id="paint2_linear_1124_2217" x1="14.4184" y1="13.4003" x2="19.0832" y2="19.3809" gradientUnits="userSpaceOnUse">
<stop stop-color="#D12B8A"/>
<stop offset="1" stop-color="#70489D"/>
</linearGradient>
<linearGradient id="paint3_linear_1124_2217" x1="10.3497" y1="7.49756" x2="19.6157" y2="19.3806" gradientUnits="userSpaceOnUse">
<stop stop-color="#D12B8A"/>
<stop offset="1" stop-color="#70489D"/>
</linearGradient>
</defs>
</svg>
