<svg xmlns="http://www.w3.org/2000/svg" width="22.178" height="22.175" viewBox="0 0 22.178 22.175">
  <g id="edit" transform="translate(0 -0.028)">
    <path id="Path_1331" data-name="Path 1331" d="M20.742,1.463a4.891,4.891,0,0,0-6.923,0L1.126,14.151a.635.635,0,0,0-.18.364L.006,21.48a.633.633,0,0,0,.18.534.646.646,0,0,0,.449.189.513.513,0,0,0,.085,0l4.2-.567a.639.639,0,0,0-.17-1.266l-3.365.454.657-4.858,5.113,5.113a.645.645,0,0,0,.449.189.626.626,0,0,0,.449-.189L20.742,8.386a4.888,4.888,0,0,0,0-6.923ZM14.065,3.023,16.2,5.154,4.614,16.736,2.483,14.6ZM7.6,19.722,5.521,17.639,17.1,6.056,19.187,8.14ZM20.075,7.228l-5.1-5.1a3.622,3.622,0,0,1,5.1,5.1Z" transform="translate(0)" fill="#a8a8a8"/>
  </g>
</svg>
