<svg xmlns="http://www.w3.org/2000/svg" width="51" height="51" viewBox="0 0 51 51">
  <g id="book_4_" data-name="book (4)" transform="translate(-1 -1)">
    <path id="Path_1718" data-name="Path 1718" d="M36.371,5.935H14.161V1.823a.823.823,0,0,0-1.19-.736L10.048,2.548,7.126,1.086a.823.823,0,0,0-1.19.736V5.935H3.468a.822.822,0,0,0-.823.823v5.087a2.453,2.453,0,0,0,0,4.633v3.594a2.453,2.453,0,0,0,0,4.632V28.3a2.453,2.453,0,0,0,0,4.632v3.594a2.453,2.453,0,0,0,0,4.632V51.177A.822.822,0,0,0,3.468,52h32.9a4.118,4.118,0,0,0,4.113-4.113V10.048A4.118,4.118,0,0,0,36.371,5.935ZM32.258,7.581V50.355h-3.29V7.581ZM7.581,3.153l2.1,1.05a.822.822,0,0,0,.736,0l2.1-1.05V5.935H7.581ZM3.468,13.339h3.29a.823.823,0,1,1,0,1.645H3.468a.823.823,0,1,1,0-1.645Zm0,8.226h3.29a.823.823,0,0,1,0,1.645H3.468a.823.823,0,0,1,0-1.645Zm0,8.226h3.29a.823.823,0,0,1,0,1.645H3.468a.823.823,0,0,1,0-1.645Zm0,8.226h3.29a.823.823,0,0,1,0,1.645H3.468a.823.823,0,0,1,0-1.645Zm.823,3.29H6.758a2.468,2.468,0,0,0,0-4.935H4.29V33.08H6.758a2.468,2.468,0,0,0,0-4.935H4.29v-3.29H6.758a2.468,2.468,0,1,0,0-4.935H4.29v-3.29H6.758a2.468,2.468,0,1,0,0-4.935H4.29V7.581H27.322V50.355H4.29Zm34.548,6.581a2.471,2.471,0,0,1-2.468,2.468H33.9V7.581h2.468a2.471,2.471,0,0,1,2.468,2.468Z" transform="translate(0 0)"/>
    <path id="Path_1719" data-name="Path 1719" d="M61.226,5.113a4.113,4.113,0,1,0-8.226,0V42.951a.817.817,0,0,0,.062.3h0l3.29,8.226a.822.822,0,0,0,1.528,0l3.29-8.226h0a.833.833,0,0,0,.061-.3ZM55.038,43.774h4.151l-.658,1.645H55.7ZM54.645,7.581H56.29V42.129H54.645Zm3.29,34.548V7.581h1.645V42.129ZM57.113,2.645a2.471,2.471,0,0,1,2.468,2.468v.823H54.645V5.113A2.471,2.471,0,0,1,57.113,2.645Zm0,46.318-.759-1.9h1.518Z" transform="translate(-9.226 0)" fill="#d12b8a"/>
    <path id="Path_1720" data-name="Path 1720" d="M24.693,13H14.823a.822.822,0,0,0-.823.823v4.935a.822.822,0,0,0,.823.823h9.871a.822.822,0,0,0,.823-.823V13.823A.822.822,0,0,0,24.693,13Zm-.823,4.935H15.645v-3.29h8.226Z" transform="translate(-2.307 -2.129)"/>
  </g>
</svg>
