<svg xmlns="http://www.w3.org/2000/svg" width="26.399" height="26.399" viewBox="0 0 26.399 26.399">
  <g id="Group_2850" data-name="Group 2850" transform="translate(-604.07 -3895.734)">
    <g id="calendar_2_" data-name="calendar (2)" transform="translate(604.07 3895.734)">
      <g id="Group_2006" data-name="Group 2006" transform="translate(0)">
        <g id="Group_2005" data-name="Group 2005">
          <path id="Path_1332" data-name="Path 1332" d="M23.57,2.828H20.742V.943a.943.943,0,1,0-1.886,0V2.828H7.542V.943a.943.943,0,1,0-1.886,0V2.828H2.828A2.828,2.828,0,0,0,0,5.657V23.57A2.828,2.828,0,0,0,2.828,26.4H23.57A2.828,2.828,0,0,0,26.4,23.57V5.657A2.828,2.828,0,0,0,23.57,2.828Zm.943,20.742a.943.943,0,0,1-.943.943H2.828a.943.943,0,0,1-.943-.943V11.314H24.513Zm0-14.142H1.886V5.657a.943.943,0,0,1,.943-.943H5.657V6.6a.943.943,0,1,0,1.886,0V4.714H18.856V6.6a.943.943,0,1,0,1.886,0V4.714H23.57a.943.943,0,0,1,.943.943V9.428Z" transform="translate(0)" fill="#70489d"/>
        </g>
      </g>
      <g id="Group_2008" data-name="Group 2008" transform="translate(4.714 13.199)">
        <g id="Group_2007" data-name="Group 2007">
          <path id="Path_1333" data-name="Path 1333" d="M88.161,238.933H86.276a.943.943,0,1,0,0,1.886h1.886a.943.943,0,1,0,0-1.886Z" transform="translate(-85.333 -238.933)" fill="#70489d"/>
        </g>
      </g>
      <g id="Group_2010" data-name="Group 2010" transform="translate(11.314 13.199)">
        <g id="Group_2009" data-name="Group 2009">
          <path id="Path_1334" data-name="Path 1334" d="M207.628,238.933h-1.886a.943.943,0,1,0,0,1.886h1.886a.943.943,0,1,0,0-1.886Z" transform="translate(-204.8 -238.933)" fill="#70489d"/>
        </g>
      </g>
      <g id="Group_2012" data-name="Group 2012" transform="translate(17.913 13.199)">
        <g id="Group_2011" data-name="Group 2011">
          <path id="Path_1335" data-name="Path 1335" d="M327.1,238.933H325.21a.943.943,0,0,0,0,1.886H327.1a.943.943,0,1,0,0-1.886Z" transform="translate(-324.267 -238.933)" fill="#70489d"/>
        </g>
      </g>
      <g id="Group_2014" data-name="Group 2014" transform="translate(4.714 16.971)">
        <g id="Group_2013" data-name="Group 2013">
          <path id="Path_1336" data-name="Path 1336" d="M88.161,307.2H86.276a.943.943,0,0,0,0,1.886h1.886a.943.943,0,1,0,0-1.886Z" transform="translate(-85.333 -307.2)" fill="#70489d"/>
        </g>
      </g>
      <g id="Group_2016" data-name="Group 2016" transform="translate(11.314 16.971)">
        <g id="Group_2015" data-name="Group 2015">
          <path id="Path_1337" data-name="Path 1337" d="M207.628,307.2h-1.886a.943.943,0,1,0,0,1.886h1.886a.943.943,0,1,0,0-1.886Z" transform="translate(-204.8 -307.2)" fill="#70489d"/>
        </g>
      </g>
      <g id="Group_2018" data-name="Group 2018" transform="translate(17.913 16.971)">
        <g id="Group_2017" data-name="Group 2017">
          <path id="Path_1338" data-name="Path 1338" d="M327.1,307.2H325.21a.943.943,0,0,0,0,1.886H327.1a.943.943,0,1,0,0-1.886Z" transform="translate(-324.267 -307.2)" fill="#70489d"/>
        </g>
      </g>
      <g id="Group_2020" data-name="Group 2020" transform="translate(4.714 20.742)">
        <g id="Group_2019" data-name="Group 2019">
          <path id="Path_1339" data-name="Path 1339" d="M88.161,375.467H86.276a.943.943,0,1,0,0,1.886h1.886a.943.943,0,1,0,0-1.886Z" transform="translate(-85.333 -375.467)" fill="#70489d"/>
        </g>
      </g>
      <g id="Group_2022" data-name="Group 2022" transform="translate(11.314 20.742)">
        <g id="Group_2021" data-name="Group 2021">
          <path id="Path_1340" data-name="Path 1340" d="M207.628,375.467h-1.886a.943.943,0,1,0,0,1.886h1.886a.943.943,0,1,0,0-1.886Z" transform="translate(-204.8 -375.467)" fill="#70489d"/>
        </g>
      </g>
      <g id="Group_2024" data-name="Group 2024" transform="translate(17.913 20.742)">
        <g id="Group_2023" data-name="Group 2023">
          <path id="Path_1341" data-name="Path 1341" d="M327.1,375.467H325.21a.943.943,0,1,0,0,1.886H327.1a.943.943,0,1,0,0-1.886Z" transform="translate(-324.267 -375.467)" fill="#70489d"/>
        </g>
      </g>
    </g>
    <g id="cancel_2_" data-name="cancel (2)" transform="translate(608.938 3901.518)">
      <path id="Close" d="M9.9,8.783l7.107-7.068a.855.855,0,0,0,0-1.22.876.876,0,0,0-1.232,0l-7.1,7.062L1.512.391A.872.872,0,0,0,.281,1.626L7.442,8.787.255,15.935a.857.857,0,0,0,0,1.22.876.876,0,0,0,1.232,0l7.181-7.141L15.8,17.152a.872.872,0,1,0,1.232-1.235Z" transform="translate(0 0)" fill="#d12b8a" stroke="#d12b8a" stroke-width="1"/>
    </g>
  </g>
</svg>
