<svg xmlns="http://www.w3.org/2000/svg" xmlns:xlink="http://www.w3.org/1999/xlink" width="32" height="32" viewBox="0 0 32 32">
  <defs>
    <clipPath id="clip-path">
      <rect id="Rectangle_3560" data-name="Rectangle 3560" width="32" height="32" transform="translate(100 67)" fill="#fff"/>
    </clipPath>
    <clipPath id="clip-path-2">
      <rect id="Rectangle_3578" data-name="Rectangle 3578" width="32" height="32" transform="translate(-24015 -22310)" fill="#fff" stroke="#707070" stroke-width="1"/>
    </clipPath>
  </defs>
  <g id="logo" transform="translate(-100 -67)">
    <g id="Mask_Group_32" data-name="Mask Group 32" clip-path="url(#clip-path)">
      <g id="intl_mins_desktop" data-name="intl mins desktop" transform="translate(24115 22377)" clip-path="url(#clip-path-2)">
        <g id="Group_4829" data-name="Group 4829" transform="translate(-24015.145 -22310)">
          <g id="Group_4827" data-name="Group 4827" transform="translate(0.144)">
            <g id="Group_4826" data-name="Group 4826">
              <path id="Path_2449" data-name="Path 2449" d="M26.732,4.033l-.047-.041A15.964,15.964,0,0,0,4.228,5.321l-.041.041A15.94,15.94,0,0,0,.174,15.03c0,.319-.03.638-.03.957A16.061,16.061,0,0,0,.3,18.213v.041A16.022,16.022,0,0,0,8.01,29.771a.593.593,0,0,0,.13.077A15.984,15.984,0,0,0,26.732,4.033ZM10.392,2.344A14.747,14.747,0,0,1,16.13,1.163h.538a.744.744,0,0,1-.047.484c-.183.348-.762.591-1.637.691A3.7,3.7,0,0,0,11.591,5.4a2.222,2.222,0,0,1-1.182-.827,2.075,2.075,0,0,1-.017-2.229ZM4.754,6.52,7.372,8.451a.409.409,0,0,0,.124.071c.177.089.4.49.189,1.406a.644.644,0,0,1-.148-.3.591.591,0,0,0-.691-.449L5.6,9.425a.59.59,0,0,0-.437.8s.307.821-.1,1.181a2.293,2.293,0,0,1-.591.348A4.533,4.533,0,0,0,1.9,14.611a3.154,3.154,0,0,1-.384.8,1.962,1.962,0,0,1-.16-.384,14.758,14.758,0,0,1,3.4-8.507ZM1.693,19.32A5.322,5.322,0,0,0,3.938,20a.821.821,0,0,1,.827.78.591.591,0,0,0,.355.478A2.646,2.646,0,0,1,6.527,23.31,1.848,1.848,0,0,0,7.4,24.7a3.415,3.415,0,0,0,2.553.1.19.19,0,0,1,.059.059c.035.053.189.378-.213,1.341a7.044,7.044,0,0,1-1.483,2.362,14.854,14.854,0,0,1-6.624-9.239ZM16.13,30.81a14.735,14.735,0,0,1-6.761-1.636,8.7,8.7,0,0,0,1.519-2.545,2.656,2.656,0,0,0,.118-2.421,1.377,1.377,0,0,0-1.046-.632.591.591,0,0,0-.236.035A2.519,2.519,0,0,1,8,23.664a.679.679,0,0,1-.313-.549A3.874,3.874,0,0,0,5.865,20.3a1.95,1.95,0,0,0-1.938-1.512,5.912,5.912,0,0,1-2.512-1.01c-.047-.39-.083-.785-.1-1.181a.893.893,0,0,0,.124,0h.053c.768,0,1.223-.892,1.5-1.565A3.427,3.427,0,0,1,4.972,12.8a3.249,3.249,0,0,0,.9-.591,2.078,2.078,0,0,0,.561-1.825l.154-.03a1.9,1.9,0,0,0,1.418.88.591.591,0,0,0,.591-.39,3.571,3.571,0,0,0,.112-2.7A1.6,1.6,0,0,0,8,7.388L5.551,5.64A14.9,14.9,0,0,1,8.926,3.065a2.822,2.822,0,0,0,.591,2.291A3.374,3.374,0,0,0,11.29,6.579a.345.345,0,0,1,.219.1.591.591,0,0,0,.591.455h.083a.591.591,0,0,0,.508-.591A2.716,2.716,0,0,1,15.125,3.59a3.029,3.029,0,0,0,2.559-1.317,1.824,1.824,0,0,0,.2-.939,14.78,14.78,0,0,1,7.2,2.853c-4.8,1.234-4.728,2.12-4.669,2.516.089.868.136,1.949.136,1.961a.591.591,0,0,0,.479.555,2.749,2.749,0,0,0,2-.514,5.9,5.9,0,0,1,0,.821,4.589,4.589,0,0,1-2.364.4A1.773,1.773,0,0,1,19.4,9.26a.591.591,0,0,0-1.028.118l-.171.408a1.222,1.222,0,0,1-.325-1.116,1.181,1.181,0,0,0-.668-1.282c-.869-.366-2.128.366-2.7,1.034a1.287,1.287,0,0,0-.278,1.589c.473.762,2.21,3.207,4.728,2.628.591-.136,1.974-.035,4.521,2.126l.083.065c.154.177.721,1.234,1.182,2.085,1.656,3.085,1.876,3.365,2.3,3.46a1.392,1.392,0,0,0,.3,0,6.834,6.834,0,0,0,3.215-1.045A14.843,14.843,0,0,1,16.13,30.81ZM30.857,17.658a6.148,6.148,0,0,1-3.428,1.577C27.1,18.8,26.3,17.3,25.8,16.365c-.946-1.772-1.182-2.226-1.436-2.41l-.1-.083c-2.246-1.9-4.137-2.7-5.549-2.362C16.94,11.917,15.6,10,15.249,9.467a1.4,1.4,0,0,1,.591-.644,1.774,1.774,0,0,1,.881-.343.735.735,0,0,1,0,.1,2.149,2.149,0,0,0,1.773,2.569.591.591,0,0,0,.591-.36l.065-.154a4.386,4.386,0,0,0,3.215.372c.668-.148,1.7-.461,1.814-1.075,0,0,.349-2.091-.526-2.569a.9.9,0,0,0-1.1.236,1.72,1.72,0,0,1-.827.443c0-.366-.053-.85-.1-1.311a17.663,17.663,0,0,1,4.6-1.6A14.759,14.759,0,0,1,30.878,17.65Z" transform="translate(-0.144)" fill="#70489d"/>
            </g>
          </g>
          <g id="Group_4828" data-name="Group 4828" transform="translate(10.919 13.317)">
            <path id="Path_2450" data-name="Path 2450" d="M162.027,189.437a.987.987,0,0,0-.969-.6l-.981-.644a.592.592,0,0,0-.183-.083c-.112,0-1.093-.319-.8-1.719.5-2.41-.266-3.685-2.648-4.406-.591-.177-1.146-.4-1.69-.591a10.6,10.6,0,0,0-5.147-1,.591.591,0,0,0-.514.413,2.646,2.646,0,0,1-1.773,1.725,1.612,1.612,0,0,0-1.312,1.707c0,1.394,1,3.2,2.429,3.514l.165.035c1.637.36,3.049.673,2.364,4.553-.343,1.967-.165,3.378.52,4.193a2.063,2.063,0,0,0,1.649.7c1.359,0,3.185-1.034,5.437-3.077C162.015,191.037,162.263,190.027,162.027,189.437Zm-4.249,3.874c-2.653,2.41-4.048,2.746-4.645,2.746a.887.887,0,0,1-.739-.283c-.431-.514-.526-1.7-.26-3.23.851-5-1.625-5.546-3.286-5.935h-.154a2.639,2.639,0,0,1-1.507-2.362c0-.508.236-.549.349-.591a3.6,3.6,0,0,0,2.541-2.15,9.863,9.863,0,0,1,4.255.945c.591.224,1.152.449,1.773.638,1.773.537,2.2,1.24,1.832,3.036a2.506,2.506,0,0,0,1.548,3.106l1.058.709a.591.591,0,0,0,.248.094,14.487,14.487,0,0,1-3.013,3.277Z" transform="translate(-146.001 -180.383)" fill="#70489d"/>
          </g>
        </g>
      </g>
    </g>
  </g>
</svg>
