<svg xmlns="http://www.w3.org/2000/svg" xmlns:xlink="http://www.w3.org/1999/xlink" width="32" height="32" viewBox="0 0 32 32">
  <defs>
    <clipPath id="clip-path">
      <rect id="Rectangle_3560" data-name="Rectangle 3560" width="32" height="32" transform="translate(100 67)" fill="#fff"/>
    </clipPath>
    <clipPath id="clip-path-2">
      <rect id="Rectangle_3575" data-name="Rectangle 3575" width="32" height="32" transform="translate(-24085 -22310)" fill="#fff" stroke="#707070" stroke-width="1"/>
    </clipPath>
  </defs>
  <g id="logo" transform="translate(-100 -67)">
    <g id="Mask_Group_29" data-name="Mask Group 29" clip-path="url(#clip-path)">
      <g id="roaming_no_net_desktop" data-name="roaming no net desktop" transform="translate(24185 22377)" clip-path="url(#clip-path-2)">
        <path id="Path_2448" data-name="Path 2448" d="M27.966,26.6a15.957,15.957,0,0,0-.309-21.548h0a.007.007,0,0,1-.007-.007A15.955,15.955,0,0,0,16.554.014h0L16.242.006C16.162,0,16.081,0,16,0s-.162,0-.242.006l-.311.008h0a15.955,15.955,0,0,0-11.1,5.035.007.007,0,0,0-.007.007h0A15.956,15.956,0,0,0,4.03,26.6a.02.02,0,0,0,.007.015.247.247,0,0,1,.035.033,15.964,15.964,0,0,0,11.37,5.332h0l.311.008H16c.081,0,.162,0,.242-.006l.311-.008h0a15.963,15.963,0,0,0,11.379-5.343c.007-.009.019-.012.025-.022S27.962,26.61,27.966,26.6ZM1.117,16.552H7.74a20.39,20.39,0,0,0,1.332,6.74A20.344,20.344,0,0,0,4.6,25.571a14.828,14.828,0,0,1-3.483-9.019ZM4.9,6.082A20.294,20.294,0,0,0,9.257,8.223,20.374,20.374,0,0,0,7.74,15.448H1.117A14.831,14.831,0,0,1,4.9,6.082Zm25.985,9.367H24.26a20.374,20.374,0,0,0-1.517-7.225A20.294,20.294,0,0,0,27.1,6.082a14.831,14.831,0,0,1,3.783,9.366ZM15.448,8.255a19.287,19.287,0,0,1-4.674-.708,19.3,19.3,0,0,1,4.674-6.089Zm0,1.1v6.089h-6.6a19.269,19.269,0,0,1,1.471-6.883,20.385,20.385,0,0,0,5.134.8Zm1.1,0a20.369,20.369,0,0,0,5.135-.793,19.269,19.269,0,0,1,1.471,6.883h-6.6Zm0-1.1v-6.8a19.3,19.3,0,0,1,4.674,6.089,19.287,19.287,0,0,1-4.67.711Zm5.743-1.043a20.375,20.375,0,0,0-4.352-5.978,14.854,14.854,0,0,1,8.377,4.038A19.19,19.19,0,0,1,22.3,7.212ZM9.7,7.212a19.173,19.173,0,0,1-4.024-1.94,14.852,14.852,0,0,1,8.377-4.038A20.367,20.367,0,0,0,9.7,7.212Zm-.862,9.34h6.6V22.09a20.349,20.349,0,0,0-5.33.85,19.269,19.269,0,0,1-1.272-6.388Zm6.6,6.642v7.348a19.294,19.294,0,0,1-4.9-6.575,19.237,19.237,0,0,1,4.9-.774Zm1.1,7.348V23.193a19.236,19.236,0,0,1,4.9.772,19.291,19.291,0,0,1-4.893,6.576Zm0-8.451V16.552h6.6a19.261,19.261,0,0,1-1.276,6.389,20.319,20.319,0,0,0-5.322-.851Zm7.709-5.538h6.622a14.824,14.824,0,0,1-3.48,9.02,20.344,20.344,0,0,0-4.475-2.279,20.376,20.376,0,0,0,1.339-6.742ZM5.347,26.4a19.228,19.228,0,0,1,4.147-2.086,20.359,20.359,0,0,0,4.563,6.454A14.865,14.865,0,0,1,5.347,26.4Zm12.6,4.368a20.346,20.346,0,0,0,4.563-6.454A19.241,19.241,0,0,1,26.653,26.4a14.865,14.865,0,0,1-8.71,4.366Z" transform="translate(-24085 -22310)" fill="#70489d"/>
      </g>
    </g>
  </g>
</svg>
