<svg xmlns="http://www.w3.org/2000/svg" xmlns:xlink="http://www.w3.org/1999/xlink" width="32" height="32" viewBox="0 0 32 32">
  <defs>
    <clipPath id="clip-path">
      <rect id="Rectangle_3560" data-name="Rectangle 3560" width="32" height="32" transform="translate(100 67)" fill="#fff"/>
    </clipPath>
    <clipPath id="clip-path-2">
      <rect id="Rectangle_3579" data-name="Rectangle 3579" width="32" height="32" transform="translate(-23963 -22310)" fill="#fff" stroke="#707070" stroke-width="1"/>
    </clipPath>
  </defs>
  <g id="Mask_Group_33" data-name="Mask Group 33" transform="translate(-100 -67)" clip-path="url(#clip-path)">
    <g id="data_desktop" data-name="data desktop" transform="translate(24063 22377)" clip-path="url(#clip-path-2)">
      <g id="Group_4830" data-name="Group 4830" transform="translate(-23961 -22308)">
        <path id="Path_2451" data-name="Path 2451" d="M94.752,57.056A23.915,23.915,0,0,0,77.728,50h-.046v1.75h.043a22.337,22.337,0,0,1,22.328,22.371h1.75A23.915,23.915,0,0,0,94.752,57.056Z" transform="translate(-73.807 -50.001)" fill="#70489d"/>
        <path id="Path_2452" data-name="Path 2452" d="M77.694,105.3v1.75a14.625,14.625,0,0,1,14.631,14.63h1.75A16.377,16.377,0,0,0,77.69,105.3Z" transform="translate(-73.817 -97.557)" fill="#70489d"/>
        <path id="Path_2453" data-name="Path 2453" d="M77.67,160.6l-.009,1.75a6.914,6.914,0,0,1,6.894,6.894l1.75-.01A8.664,8.664,0,0,0,77.67,160.6Z" transform="translate(-73.788 -145.113)" fill="#70489d"/>
        <path id="Path_2454" data-name="Path 2454" d="M50.769,213.268a2.625,2.625,0,1,0,3.712,0,2.625,2.625,0,0,0-3.712,0Z" transform="translate(-50.001 -189.749)" fill="#70489d"/>
      </g>
    </g>
  </g>
</svg>
