<svg width="120" height="32" viewBox="0 0 120 32" fill="none" xmlns="http://www.w3.org/2000/svg">
<g clip-path="url(#clip0_1842_9353)">
<path d="M92.6223 29.8932V11.4812C92.6223 10.0458 92.2416 9.07601 91.5346 8.36168C90.7777 7.59763 89.6605 7.18395 88.3168 7.18395C88.2148 7.18395 88.0834 7.18395 87.986 7.19751V25.6118C87.986 27.0359 88.3621 28.0124 89.0736 28.7245C89.8214 29.484 90.9477 29.9045 92.2823 29.9045C92.3866 29.9045 92.5112 29.9045 92.6223 29.8955V29.8932ZM93.046 2.72619C93.046 1.22294 91.8178 0 90.3041 0C88.7904 0 87.5645 1.22294 87.5645 2.72619C87.5645 4.22944 88.7927 5.46821 90.3041 5.46821C91.8155 5.46821 93.046 4.23849 93.046 2.72619ZM79.1484 20.9709V25.6095C79.1484 27.0336 79.5246 28.0102 80.2407 28.7222C80.9907 29.4818 82.1215 29.9022 83.4562 29.9022C83.5649 29.9022 83.685 29.9022 83.7938 29.8932V20.0011C83.7938 15.7446 82.6313 12.8805 80.5602 10.6516C78.4278 8.36395 75.2373 7.03928 71.5459 7.03928C64.46 7.03928 59.5518 12.2136 59.5518 18.9545C59.5518 25.6954 64.0974 29.9972 69.9937 29.9972C74.5393 29.9972 77.2699 27.3004 77.2699 24.1379C77.2699 22.9579 76.8983 21.692 76.0893 20.4894C75.4344 23.8892 73.5491 25.7587 70.5148 25.7587C67.2744 25.7587 64.4237 23.306 64.4237 18.837C64.4237 14.3679 67.2812 11.4383 71.5617 11.4383C73.7054 11.4383 75.4276 12.1842 76.7306 13.4614C78.2647 14.976 79.1552 17.2953 79.1552 20.9664L79.1484 20.9709ZM115.378 23.8124C115.326 23.8124 115.283 23.783 115.237 23.7242C111.908 19.3998 105.795 11.4292 104.469 9.68861C103.066 7.86889 101.97 7.26985 100.519 7.26985C99.4475 7.26985 98.5819 7.66318 97.986 8.29387C97.3197 9.00367 96.9866 10.1023 96.9866 11.3501V25.6095C96.9866 27.0336 97.356 28.0102 98.0743 28.7222C98.8289 29.4818 99.9053 29.9022 101.211 29.9022C101.312 29.9022 101.38 29.9022 101.473 29.8932V13.5451C101.473 13.4275 101.525 13.362 101.605 13.362C101.664 13.362 101.7 13.3891 101.745 13.4569C103.699 15.991 111.109 25.657 112.527 27.4744C113.93 29.2919 115.022 29.9045 116.463 29.9045C117.542 29.9045 118.41 29.5157 118.999 28.8873C119.661 28.1752 120 27.0901 120 25.831V11.5671C120 10.143 119.62 9.16417 118.908 8.44306C118.151 7.69031 117.084 7.27211 115.765 7.27211C115.675 7.27211 115.604 7.27211 115.507 7.27889V23.6361C115.507 23.7536 115.45 23.8124 115.375 23.8124H115.378ZM42.3798 25.5191C42.1962 25.5191 42.092 25.458 42.092 25.336C42.092 25.2704 42.1441 25.189 42.2484 25.1077C43.6737 23.9571 53.1027 16.3685 54.5416 15.1885C57.041 13.1811 57.5667 12.2001 57.5667 10.7759C57.5667 9.88754 57.1498 9.0308 56.5221 8.50636C55.7652 7.86663 54.6345 7.51851 52.8058 7.51851H36.7442V7.77395C36.7442 8.60356 36.9254 9.50777 37.3379 10.1023C37.986 11.0314 39.2119 11.5671 40.8683 11.5671H51.4099C51.5957 11.5671 51.6977 11.6236 51.6977 11.7186C51.6977 11.7999 51.6524 11.8565 51.5346 11.9446C50.0435 13.1517 41.3397 20.1571 39.1688 21.8864C36.6626 23.8938 36.1641 24.8929 36.1641 26.317C36.1641 27.2009 36.5833 28.0554 37.2132 28.5753C37.9701 29.2196 39.1031 29.5722 40.9386 29.5722H57.7367V29.4117C57.7367 28.2227 57.399 27.1986 56.6852 26.5521C55.8649 25.7971 54.8044 25.5213 52.8149 25.5213H42.3798V25.5191Z" fill="#231F20"/>
<path d="M25.6312 11.9287C25.6312 9.26128 23.5737 7.24037 20.6369 7.46642C14.4053 7.94339 13.6009 15.0143 17.6571 15.4664C21.8968 15.9389 23.4151 11.4653 23.4966 11.2144C23.4966 11.2121 23.5012 11.2144 23.5012 11.2144C23.5102 11.5173 23.7368 17.6727 17.4441 17.6727C14.1742 17.6727 12.4905 15.0075 12.4905 12.6973C12.4905 9.27258 15.8306 5.86597 20.5417 5.68512C23.1817 5.5834 24.9197 6.20505 26.2816 7.56362C29.0575 10.3328 28.2576 15.5252 26.0119 18.0886C22.4452 22.1576 17.4327 23.1929 12.7624 21.1042C8.09215 19.0154 6.41755 12.9663 9.24783 7.90496C10.2879 6.04455 14.0699 1.89648 20.5667 1.89648C28.815 1.89648 32.9981 7.72864 32.2435 14.5803C31.6657 19.8292 28.4683 23.6337 26.9863 25.2387C20.476 32.2983 10.9066 33.7043 4.87892 30.0332C1.56145 28.0146 -0.369214 24.3887 0.0590661 20.2836C0.426163 23.2471 1.90815 25.8128 4.37359 27.4879C9.30221 30.8403 17.5415 31.3014 23.4989 24.7662C17.512 29.2262 10.5191 29.1607 5.74227 26.0547C1.3575 23.2087 0.154239 17.5235 2.30017 11.8993C1.22381 16.9132 2.95279 21.5608 6.75519 23.9841C12.6809 27.7592 21.3122 25.5891 26.7507 19.5082C28.6043 17.4353 29.667 14.6413 29.6331 12.0915C29.5764 7.83941 26.6056 4.02138 20.6074 4.02138C14.4506 4.02138 10.2222 8.76848 10.2222 12.7199C10.2222 17.1053 13.2406 19.61 17.1767 19.61C21.1128 19.61 25.6312 17.1596 25.6312 11.931V11.9287Z" fill="#231F20"/>
</g>
<defs>
<clipPath id="clip0_1842_9353">
<rect width="120" height="32" fill="white"/>
</clipPath>
</defs>
</svg>
