<svg width="40" height="40" viewBox="0 0 40 40" fill="none" xmlns="http://www.w3.org/2000/svg">
<circle cx="20" cy="20" r="20" fill="#F8F8F8"/>
<path d="M26 11H14C13.4477 11 13 11.4477 13 12V28C13 28.5523 13.4477 29 14 29H26C26.5523 29 27 28.5523 27 28V12C27 11.4477 26.5523 11 26 11Z" stroke="#6F6F6F" stroke-width="1.5" stroke-linecap="round" stroke-linejoin="round"/>
<path d="M20 26C20.5523 26 21 25.5523 21 25C21 24.4477 20.5523 24 20 24C19.4477 24 19 24.4477 19 25C19 25.5523 19.4477 26 20 26Z" stroke="#6F6F6F" stroke-width="1.5" stroke-linecap="round" stroke-linejoin="round"/>
</svg>
