<svg width="40" height="40" viewBox="0 0 40 40" fill="none" xmlns="http://www.w3.org/2000/svg">
<circle cx="20" cy="20" r="20" fill="#F8F8F8"/>
<path d="M27.5 21.572L20 29L12.5 21.572C12.0053 21.0906 11.6156 20.512 11.3555 19.8726C11.0954 19.2333 10.9706 18.547 10.9887 17.8569C11.0069 17.1669 11.1678 16.4881 11.4612 15.8633C11.7545 15.2385 12.1741 14.6813 12.6935 14.2266C13.2128 13.7719 13.8207 13.4297 14.4788 13.2215C15.1369 13.0133 15.831 12.9436 16.5174 13.0168C17.2037 13.09 17.8675 13.3046 18.4669 13.6469C19.0662 13.9893 19.5882 14.452 20 15.006C20.4135 14.456 20.9361 13.9973 21.5351 13.6586C22.1341 13.3199 22.7965 13.1085 23.4809 13.0375C24.1654 12.9666 24.8571 13.0377 25.5128 13.2464C26.1685 13.4551 26.774 13.7969 27.2915 14.2504C27.8091 14.7039 28.2274 15.2593 28.5204 15.8819C28.8134 16.5045 28.9747 17.1809 28.9943 17.8687C29.0139 18.5565 28.8913 19.241 28.6341 19.8793C28.377 20.5175 27.9909 21.0958 27.5 21.578" stroke="#6F6F6F" stroke-width="1.5" stroke-linecap="round" stroke-linejoin="round"/>
</svg>
