<svg width="40" height="40" viewBox="0 0 40 40" fill="none" xmlns="http://www.w3.org/2000/svg">
<circle cx="20" cy="20" r="20" fill="#F8F8F8"/>
<path d="M16 17H24M16 21H22M20 28L17 25H15C14.2044 25 13.4413 24.6839 12.8787 24.1213C12.3161 23.5587 12 22.7956 12 22V16C12 15.2044 12.3161 14.4413 12.8787 13.8787C13.4413 13.3161 14.2044 13 15 13H25C25.7956 13 26.5587 13.3161 27.1213 13.8787C27.6839 14.4413 28 15.2044 28 16V22C28 22.7956 27.6839 23.5587 27.1213 24.1213C26.5587 24.6839 25.7956 25 25 25H23L20 28Z" stroke="#6F6F6F" stroke-width="1.5" stroke-linecap="round" stroke-linejoin="round"/>
</svg>
