<svg width="20" height="20" viewBox="0 0 20 20" fill="none" xmlns="http://www.w3.org/2000/svg">
<path d="M10 0C7.34772 0 4.80414 1.05376 2.92907 2.92907C1.05376 4.80438 0 7.34795 0 10C0 12.652 1.05376 15.1959 2.92907 17.0709C4.80438 18.9462 7.34795 20 10 20C12.652 20 15.1959 18.9462 17.0709 17.0709C18.9462 15.1956 20 12.652 20 10C20 7.34795 18.9462 4.80414 17.0709 2.92907C15.1956 1.05376 12.652 0 10 0ZM10 18.0647C7.86121 18.0647 5.80997 17.2151 4.2974 15.7027C2.78506 14.1901 1.93539 12.1389 1.93539 10.0001C1.93539 7.86132 2.78506 5.81009 4.2974 4.29751C5.80997 2.78517 7.86121 1.93551 10 1.93551C12.1388 1.93551 14.19 2.78517 15.7026 4.29751C17.2149 5.81009 18.0646 7.86132 18.0646 10.0001C18.0646 12.1389 17.2149 14.1901 15.7026 15.7027C14.19 17.2151 12.1388 18.0647 10 18.0647Z" fill="#049FB4"/>
<path d="M9.03228 11.2128L6.81296 8.99345L5.44531 10.3611L8.34846 13.2642V13.2645C8.52982 13.4456 8.77577 13.5475 9.03228 13.5475C9.28879 13.5475 9.53474 13.4456 9.7161 13.2645L14.8776 8.10299L13.5099 6.73535L9.03228 11.2128Z" fill="#049FB4"/>
</svg>
