<svg xmlns="http://www.w3.org/2000/svg" xmlns:xlink="http://www.w3.org/1999/xlink" width="71" height="71" viewBox="0 0 71 71">
  <defs>
    <linearGradient id="linear-gradient" x1="0.112" y1="0.5" x2="1" y2="0.5" gradientUnits="objectBoundingBox">
      <stop offset="0" stop-color="#d12b8a"/>
      <stop offset="1" stop-color="#562b7c"/>
    </linearGradient>
  </defs>
  <g id="Group_2487" data-name="Group 2487" transform="translate(-923.5 -225)">
    <g id="Path_1289" data-name="Path 1289" transform="translate(923.5 225)" fill="none">
      <path d="M35.5,0A35.5,35.5,0,1,1,0,35.5,35.5,35.5,0,0,1,35.5,0Z" stroke="none"/>
      <path d="M 35.5 1 C 30.84209060668945 1 26.32403945922852 1.912033081054688 22.07135009765625 3.710769653320313 C 17.96323013305664 5.448356628417969 14.2735595703125 7.936069488525391 11.10482025146484 11.10482025146484 C 7.936069488525391 14.2735595703125 5.448356628417969 17.96323013305664 3.710769653320313 22.07135009765625 C 1.912033081054688 26.32403945922852 1 30.84209060668945 1 35.5 C 1 40.15790939331055 1.912033081054688 44.67596054077148 3.710769653320313 48.92864990234375 C 5.448356628417969 53.03676986694336 7.936069488525391 56.7264404296875 11.10482025146484 59.89517974853516 C 14.2735595703125 63.06393051147461 17.96323013305664 65.55164337158203 22.07135009765625 67.28923034667969 C 26.32403945922852 69.08796691894531 30.84209060668945 70 35.5 70 C 40.15790939331055 70 44.67596054077148 69.08796691894531 48.92864990234375 67.28923034667969 C 53.03676986694336 65.55164337158203 56.7264404296875 63.06393051147461 59.89517974853516 59.89517974853516 C 63.06393051147461 56.7264404296875 65.55164337158203 53.03676986694336 67.28923034667969 48.92864990234375 C 69.08796691894531 44.67596054077148 70 40.15790939331055 70 35.5 C 70 30.84209060668945 69.08796691894531 26.32403945922852 67.28923034667969 22.07135009765625 C 65.55164337158203 17.96323013305664 63.06393051147461 14.2735595703125 59.89517974853516 11.10482025146484 C 56.7264404296875 7.936069488525391 53.03676986694336 5.448356628417969 48.92864990234375 3.710769653320313 C 44.67596054077148 1.912033081054688 40.15790939331055 1 35.5 1 M 35.5 0 C 55.10610961914063 0 71 15.89389038085938 71 35.5 C 71 55.10610961914063 55.10610961914063 71 35.5 71 C 15.89389038085938 71 0 55.10610961914063 0 35.5 C 0 15.89389038085938 15.89389038085938 0 35.5 0 Z" stroke="none" fill="#d12b8a"/>
    </g>
    <g id="favorite-heart-button" transform="translate(943.019 248.278)">
      <g id="favorite" transform="translate(0 0)">
        <path id="Path_6" data-name="Path 6" d="M16.981,51.645,14.6,49.267C5.773,41.456,0,36.192,0,29.739A9.207,9.207,0,0,1,9.339,20.4a10.2,10.2,0,0,1,7.641,3.566A10.2,10.2,0,0,1,24.622,20.4a9.207,9.207,0,0,1,9.339,9.339c0,6.453-5.773,11.717-14.6,19.528Z" transform="translate(0 -20.4)" fill="url(#linear-gradient)"/>
      </g>
    </g>
  </g>
</svg>
