<svg width="130" height="40" viewBox="0 0 130 40" fill="none" xmlns="http://www.w3.org/2000/svg">
<path d="M120.83 0H8.1224C7.8286 0 7.5348 0 7.2384 0C6.59197 0.00964053 5.94714 0.0684687 5.3092 0.176C4.67539 0.286098 4.06166 0.49472 3.4892 0.794667C2.91338 1.0966 2.38704 1.48888 1.9292 1.95733C1.47144 2.42602 1.08885 2.96603 0.7956 3.55733C0.499601 4.15282 0.294415 4.79136 0.1872 5.45067C0.0794436 6.10368 0.0220658 6.7644 0.0156 7.42667C0 7.73333 0 8.032 0 8.336V31.6667C0 31.9733 0 32.272 0.0156 32.5787C0.0222914 33.2409 0.0796677 33.9016 0.1872 34.5547C0.293487 35.2046 0.496026 35.8341 0.7878 36.4213C1.37759 37.6157 2.32037 38.5882 3.4814 39.2C4.05411 39.5005 4.66765 39.7108 5.3014 39.824C5.9394 39.9307 6.58424 39.9886 7.2306 39.9973C7.527 39.9973 7.8208 39.9973 8.1146 39.9973H121.865C122.158 39.9973 122.457 39.9973 122.751 39.9973C123.396 39.9892 124.039 39.9312 124.675 39.824C125.315 39.7104 125.934 39.5001 126.513 39.2C127.091 38.9012 127.618 38.5086 128.073 38.0373C128.533 37.5694 128.918 37.0293 129.212 36.4373C129.501 35.8494 129.702 35.2201 129.808 34.5707C129.915 33.9175 129.975 33.257 129.987 32.5947C129.987 32.288 129.987 31.9893 129.987 31.6827C129.987 31.3253 129.987 30.968 129.987 30.616V9.41333C129.987 9.05067 129.987 8.69333 129.987 8.34667C129.987 8.04267 129.987 7.73867 129.987 7.43733C129.975 6.775 129.915 6.11449 129.808 5.46133C129.701 4.81217 129.5 4.183 129.212 3.59467C128.623 2.39685 127.682 1.41924 126.521 0.8C125.942 0.50313 125.322 0.297275 124.683 0.189333C124.047 0.0812174 123.404 0.0223844 122.759 0.0133333C122.465 0.0133333 122.166 0.0133333 121.872 0.0133333L120.83 0Z" fill="black"/>
<path d="M8.12761 39.1361C7.83381 39.1361 7.54781 39.1361 7.25661 39.1361C6.65386 39.1281 6.0525 39.0746 5.45741 38.9761C4.90348 38.8796 4.36645 38.6999 3.86361 38.4428C2.86458 37.9176 2.05087 37.0849 1.53661 36.0615C1.28352 35.5458 1.10819 34.9937 1.01661 34.4241C0.917191 33.8124 0.864166 33.1936 0.858007 32.5735C0.858007 32.3654 0.842407 31.6721 0.842407 31.6721V8.33611C0.842407 8.33611 0.842407 7.65344 0.858007 7.45344C0.862504 6.83242 0.914665 6.21273 1.01401 5.60011C1.10441 5.0285 1.27978 4.4745 1.53401 3.95744C1.78673 3.44865 2.1177 2.98494 2.51421 2.58411C2.91021 2.17752 3.36545 1.83656 3.86361 1.57344C4.36533 1.31583 4.90158 1.13609 5.45481 1.04011C6.05144 0.939475 6.65461 0.885099 7.25921 0.877441H8.12761H121.867H122.746C123.345 0.882701 123.944 0.936199 124.535 1.03744C125.093 1.13145 125.635 1.31125 126.142 1.57077C127.143 2.10053 127.956 2.94024 128.466 3.97078C128.718 4.4839 128.894 5.03322 128.986 5.60011C129.086 6.21732 129.141 6.84122 129.152 7.46678C129.152 7.74678 129.152 8.04811 129.152 8.34678C129.152 8.71744 129.152 9.06944 129.152 9.41344V30.5868C129.152 30.9468 129.152 31.2961 129.152 31.6534C129.152 32.0108 129.152 32.2695 129.152 32.5735C129.143 33.1866 129.088 33.7981 128.989 34.4028C128.9 34.9765 128.724 35.5324 128.469 36.0508C127.952 37.0704 127.14 37.9006 126.144 38.4268C125.639 38.6866 125.098 38.8665 124.54 38.9601C123.945 39.0592 123.344 39.1127 122.741 39.1201C122.46 39.1201 122.164 39.1201 121.878 39.1201H8.12761V39.1361Z" fill="white"/>
<path d="M48.2535 27.0026H43.6801L42.5699 30.1333H40.5601L45.0321 18.4373H46.9301L51.5035 30.1333H49.4001L48.2535 27.0026ZM44.2625 25.4026H47.6685L46.4491 22.0533C46.2827 21.5919 46.1163 21.0799 45.9551 20.5199C45.8069 21.0159 45.6457 21.5199 45.4741 22.0373L44.2625 25.4026Z" fill="black"/>
<path d="M52.312 23.5547C52.312 22.9093 52.2912 22.1982 52.2496 21.4213H54.0696C54.138 21.787 54.1849 22.1566 54.21 22.528C54.5285 22.1366 54.9257 21.8205 55.3745 21.6014C55.8233 21.3823 56.313 21.2654 56.81 21.2587C57.3928 21.2492 57.9651 21.4182 58.4537 21.7441C58.9423 22.07 59.325 22.5379 59.553 23.088C59.8729 23.8443 60.0247 24.6641 59.9976 25.488C60.0174 26.3864 59.8397 27.2777 59.4776 28.096C59.1748 28.7751 58.6803 29.3455 58.058 29.7333C57.4178 30.1128 56.6887 30.3055 55.9494 30.2907C55.3677 30.2903 54.7902 30.1893 54.2412 29.992V33.6L52.2964 33.7707L52.312 23.5547ZM57.4236 28C57.8188 27.4667 58.019 26.6667 58.019 25.6C58.019 24.6276 57.8544 23.9165 57.525 23.4667C57.3762 23.2576 57.1802 23.0888 56.9538 22.9745C56.7274 22.8602 56.4773 22.804 56.225 22.8107C55.8617 22.8057 55.5033 22.8976 55.185 23.0773C54.8469 23.2738 54.5393 23.521 54.2724 23.8107V28.4773C54.4879 28.5815 54.7149 28.6585 54.9484 28.7067C55.1996 28.7624 55.4558 28.791 55.7128 28.792C56.0392 28.8121 56.3655 28.7504 56.6635 28.6125C56.9615 28.4745 57.2224 28.2643 57.4236 28Z" fill="black"/>
<path d="M61.1806 23.5547C61.1806 22.9093 61.1598 22.1982 61.1182 21.4213H62.9382C63.0087 21.7867 63.0564 22.1564 63.0812 22.528C63.8386 21.6818 64.7053 21.2587 65.6812 21.2587C66.2639 21.2492 66.8362 21.4182 67.3248 21.7441C67.8134 22.07 68.1962 22.5379 68.4242 23.088C68.744 23.8443 68.8959 24.6641 68.8688 25.488C68.8926 26.3853 68.7193 27.2767 68.3617 28.096C68.0582 28.7755 67.5627 29.3459 66.9396 29.7333C66.2995 30.1131 65.5703 30.3059 64.831 30.2907C64.2492 30.2903 63.6717 30.1893 63.1228 29.992V33.6L61.178 33.7707L61.1806 23.5547ZM66.3 28C66.6952 27.4542 66.8928 26.6542 66.8928 25.6C66.8928 24.6276 66.729 23.9165 66.4014 23.4667C66.2526 23.2576 66.0565 23.0888 65.8301 22.9745C65.6037 22.8602 65.3536 22.804 65.1014 22.8107C64.7381 22.8062 64.3798 22.898 64.0614 23.0773C63.7232 23.2738 63.4156 23.521 63.1488 23.8107V28.4773C63.3645 28.5808 63.5914 28.6577 63.8248 28.7067C64.076 28.7624 64.3322 28.791 64.5892 28.792C64.9155 28.8116 65.2416 28.7498 65.5395 28.6118C65.8375 28.4739 66.0984 28.264 66.3 28Z" fill="black"/>
<path d="M72.4438 29.5814C71.6125 29.1147 70.9375 28.4019 70.5068 27.536C70.0354 26.5582 69.8034 25.4772 69.8308 24.3867C69.7971 23.22 70.0663 22.065 70.6108 21.04C71.1025 20.1506 71.841 19.4312 72.7324 18.9734C73.6692 18.5039 74.7007 18.2673 75.7432 18.2827C76.3755 18.2799 77.0057 18.3551 77.6204 18.5067C78.1953 18.6455 78.7534 18.8494 79.2844 19.1147L78.78 20.648C77.8603 20.1722 76.8485 19.9134 75.8186 19.8907C75.0917 19.8783 74.3743 20.0622 73.7386 20.424C73.1354 20.7792 72.6507 21.3126 72.3476 21.9547C71.9991 22.7162 71.8299 23.5511 71.8536 24.392C71.8407 25.1497 71.9695 25.9028 72.2332 26.6107C72.4726 27.2372 72.8937 27.7734 73.4396 28.1467C74.0616 28.5458 74.7866 28.7429 75.5196 28.712C75.8995 28.7111 76.2786 28.6781 76.6532 28.6134C77.0157 28.5543 77.3718 28.4596 77.7166 28.3307V25.952H75.0802V24.4027H79.6068V29.3334C78.9501 29.6473 78.2623 29.8878 77.5554 30.0507C76.8545 30.2163 76.1376 30.3004 75.4182 30.3014C74.383 30.3268 73.3587 30.0789 72.4438 29.5814Z" fill="black"/>
<path d="M86.515 30.1333C86.4414 29.7525 86.3962 29.3665 86.3798 28.9786C86.0555 29.3668 85.6585 29.6842 85.2123 29.912C84.7091 30.1734 84.1514 30.3052 83.5873 30.296C83.1258 30.3019 82.6689 30.2008 82.2509 30C81.8539 29.8079 81.5216 29.4987 81.2967 29.112C81.0484 28.673 80.925 28.1713 80.9405 27.664C80.926 27.2792 80.999 26.8962 81.1538 26.5453C81.3086 26.1945 81.5409 25.8854 81.8323 25.6426C82.4251 25.1378 83.414 24.8862 84.7989 24.888C85.3148 24.8877 85.8301 24.9252 86.3407 25V24.8293C86.3407 24.0613 86.1813 23.5191 85.8623 23.2026C85.4811 22.8662 84.9862 22.6967 84.4843 22.7306C84.0348 22.7363 83.5877 22.799 83.1531 22.9173C82.7227 23.0238 82.303 23.172 81.8999 23.36L81.5931 21.9093C82.0341 21.7163 82.492 21.5672 82.9607 21.464C83.5503 21.3273 84.1529 21.2593 84.7573 21.2613C85.3977 21.2434 86.0349 21.3604 86.6294 21.6053C87.1522 21.8424 87.578 22.2593 87.8332 22.784C88.1522 23.4865 88.3012 24.2577 88.2674 25.032V28.4986C88.2674 28.8542 88.2882 29.4 88.3298 30.136L86.515 30.1333ZM85.3501 28.5333C85.7249 28.3547 86.0616 28.1018 86.3407 27.7893V26.1893C85.9092 26.137 85.4753 26.1076 85.0407 26.1013C84.2382 26.1013 83.6827 26.2346 83.3742 26.5013C83.2236 26.6317 83.104 26.7955 83.0243 26.9803C82.9446 27.1651 82.9068 27.366 82.9139 27.568C82.8999 27.7425 82.9225 27.918 82.9804 28.0827C83.0383 28.2474 83.13 28.3975 83.2493 28.5226C83.5028 28.7419 83.8283 28.8535 84.1593 28.8346C84.5734 28.8282 84.9807 28.7252 85.3501 28.5333Z" fill="black"/>
<path d="M89.7701 28.0427V17.7494L91.7045 17.5894V27.688C91.677 27.9684 91.742 28.2501 91.8892 28.488C91.9635 28.57 92.055 28.6335 92.1568 28.6737C92.2586 28.7139 92.3681 28.7297 92.4767 28.72C92.6531 28.7122 92.8278 28.6817 92.9967 28.6294L93.2255 30.0587C93.0078 30.143 92.7822 30.2038 92.5521 30.24C92.304 30.2842 92.0526 30.3074 91.8007 30.3094C90.447 30.3005 89.7701 29.5449 89.7701 28.0427Z" fill="black"/>
<path d="M94.6088 28.0427V17.7494L96.5458 17.5894V27.688C96.5183 27.9684 96.5833 28.2501 96.7304 28.488C96.8047 28.57 96.8962 28.6335 96.998 28.6737C97.0998 28.7139 97.2093 28.7297 97.318 28.72C97.4943 28.7122 97.669 28.6817 97.838 28.6294L98.0642 30.0587C97.8474 30.143 97.6225 30.2038 97.3934 30.24C97.1443 30.2843 96.8921 30.3075 96.6394 30.3094C95.2874 30.3005 94.6105 29.5449 94.6088 28.0427Z" fill="black"/>
<path d="M106.02 26.032H100.464C100.552 27.8578 101.4 28.7707 103.007 28.7707C103.419 28.7685 103.83 28.7184 104.231 28.6214C104.641 28.5235 105.042 28.3897 105.43 28.2214L105.856 29.5867C104.855 30.0705 103.76 30.3132 102.653 30.296C101.861 30.3195 101.075 30.136 100.37 29.7627C99.76 29.4244 99.2701 28.8958 98.9716 28.2534C98.6416 27.5091 98.4815 26.6974 98.5036 25.88C98.482 25.0236 98.6519 24.1734 99.0002 23.3947C99.2972 22.7339 99.7774 22.1774 100.381 21.7947C100.999 21.4211 101.707 21.2309 102.424 21.2454C103.137 21.2195 103.839 21.4218 104.434 21.824C104.971 22.2061 105.387 22.741 105.63 23.3627C105.898 24.0399 106.031 24.7653 106.02 25.496V26.032ZM104.125 24.7654C104.13 24.199 103.946 23.6478 103.605 23.2027C103.452 23.0274 103.264 22.8888 103.053 22.7966C102.842 22.7044 102.614 22.661 102.385 22.6694C102.155 22.6645 101.926 22.7095 101.714 22.8014C101.501 22.8933 101.31 23.03 101.153 23.2027C100.786 23.6408 100.562 24.1851 100.511 24.76L104.125 24.7654Z" fill="black"/>
<path d="M107.492 23.6106C107.492 23.1333 107.468 22.4026 107.427 21.424H109.247C109.278 21.6666 109.307 21.9573 109.338 22.2906C109.369 22.624 109.385 22.9013 109.395 23.112C109.591 22.7721 109.813 22.4492 110.061 22.1467C110.275 21.888 110.534 21.672 110.825 21.5093C111.131 21.3401 111.474 21.2547 111.821 21.2613C112.084 21.2547 112.347 21.288 112.601 21.36L112.356 23.088C112.052 22.9976 111.732 22.9746 111.418 23.0206C111.105 23.0666 110.804 23.1804 110.536 23.3546C110.106 23.6827 109.731 24.0809 109.426 24.5333V30.1333H107.492V23.6106Z" fill="black"/>
<path d="M113.682 33.6987C113.445 33.6594 113.211 33.6015 112.983 33.5254L113.337 32.0721C113.5 32.1172 113.666 32.1537 113.833 32.1814C114.02 32.2155 114.21 32.2333 114.4 32.2347C115.267 32.2347 115.912 31.6667 116.334 30.5307L116.462 30.2081L113.329 21.4241H115.409L117 26.3334C117.204 26.9649 117.369 27.6088 117.494 28.2614C117.642 27.6321 117.814 27.0027 118.014 26.3734L119.6 21.4241H121.558L118.438 30.2481C118.202 30.9588 117.882 31.6369 117.484 32.2667C117.18 32.7425 116.765 33.133 116.277 33.4027C115.754 33.6647 115.177 33.7928 114.595 33.7761C114.289 33.7773 113.984 33.7514 113.682 33.6987Z" fill="black"/>
<path d="M40.5601 7.30127H44.0181L43.9219 8.15994H41.5689V9.82127H43.7867V10.6213H41.5689V12.4613H44.0467L43.9609 13.3333H40.5601V7.30127Z" fill="black"/>
<path d="M46.4074 10.2559L44.5874 7.30127H45.7418L46.9794 9.47194L48.2794 7.30127H49.4L47.58 10.2186L49.5482 13.3333H48.3782L46.9768 10.9599L45.5494 13.3333H44.4288L46.4074 10.2559Z" fill="black"/>
<path d="M50.2944 7.30127H51.8804C52.624 7.30127 53.1943 7.45683 53.5912 7.76794C53.7887 7.92727 53.9457 8.13315 54.0489 8.36808C54.1521 8.60301 54.1985 8.86002 54.184 9.11727C54.195 9.48471 54.1049 9.84791 53.924 10.1653C53.7475 10.4636 53.49 10.7027 53.183 10.8533C52.842 11.0186 52.4682 11.1008 52.091 11.0933C51.8292 11.0895 51.5681 11.0618 51.311 11.0106V13.3333H50.2944V7.30127ZM52.8424 9.9946C52.9534 9.88535 53.0399 9.75272 53.096 9.60586C53.1521 9.45899 53.1765 9.3014 53.1674 9.14394C53.1807 8.99303 53.1575 8.84111 53.0999 8.70158C53.0423 8.56206 52.9521 8.43923 52.8372 8.34394C52.5446 8.16116 52.2041 8.07548 51.8622 8.0986H51.311V10.2319C51.5042 10.2676 51.6998 10.2881 51.896 10.2933C52.2369 10.3195 52.5749 10.2128 52.8424 9.9946Z" fill="black"/>
<path d="M55.1876 7.30127H56.2016V12.4426H58.6352L58.5494 13.3333H55.1876V7.30127Z" fill="black"/>
<path d="M60.1796 13.0373C59.7535 12.7914 59.4093 12.4198 59.1916 11.9707C58.9551 11.4729 58.8383 10.9243 58.851 10.3707C58.8386 9.79219 58.9635 9.21928 59.215 8.70134C59.4456 8.23447 59.808 7.84973 60.255 7.59734C60.7554 7.32853 61.3155 7.19802 61.88 7.21867C62.4138 7.20398 62.942 7.33366 63.4114 7.59467C63.835 7.84147 64.1765 8.21309 64.3916 8.66134C64.6235 9.15393 64.7384 9.6958 64.727 10.2427C64.7411 10.8276 64.6152 11.4072 64.3604 11.9307C64.1277 12.3959 63.7658 12.7801 63.3204 13.0347C62.8288 13.3029 62.2782 13.437 61.7214 13.424C61.1831 13.438 60.6509 13.3045 60.1796 13.0373ZM62.8108 12.2987C63.0975 12.1039 63.3203 11.8251 63.4504 11.4987C63.5963 11.125 63.6679 10.7251 63.661 10.3227C63.6676 9.92758 63.6041 9.53454 63.4738 9.16267C63.3572 8.84058 63.1488 8.56186 62.8758 8.36267C62.5592 8.16398 62.1953 8.05884 61.8241 8.05884C61.453 8.05884 61.089 8.16398 60.7724 8.36267C60.485 8.5672 60.2611 8.85236 60.1276 9.18401C59.9797 9.5423 59.9062 9.92829 59.9118 10.3173C59.9056 10.7182 59.9744 11.1165 60.1146 11.4907C60.2392 11.833 60.4669 12.1257 60.7648 12.3262C61.0626 12.5266 61.4151 12.6244 61.7708 12.6053C62.1399 12.6147 62.5029 12.5076 62.8108 12.2987Z" fill="black"/>
<path d="M65.858 7.30142H67.6988C68.2381 7.26227 68.7749 7.40763 69.225 7.71476C69.3978 7.85384 69.5352 8.0336 69.6257 8.23879C69.7163 8.44398 69.7572 8.66855 69.745 8.89342C69.7511 9.18583 69.6868 9.47526 69.5578 9.73609C69.445 9.9648 69.2875 10.1672 69.095 10.3308C68.923 10.4732 68.7299 10.5867 68.523 10.6668L70.343 13.3334H69.16L67.6286 10.9334H66.8824V13.3334H65.858V7.30142ZM67.4518 10.1548C67.6776 10.1598 67.9014 10.1095 68.1044 10.0081C68.2873 9.91802 68.4415 9.77653 68.549 9.60009C68.6563 9.41176 68.7112 9.19685 68.7076 8.97876C68.7181 8.85289 68.6979 8.72632 68.6489 8.61042C68.5999 8.49452 68.5236 8.39293 68.4268 8.31476C68.1831 8.15824 67.8974 8.08452 67.6104 8.10409H66.8746V10.1654L67.4518 10.1548Z" fill="black"/>
<path d="M71.136 7.30127H74.6018L74.503 8.15994H72.163V9.82127H74.36V10.6213H72.1422V12.4613H74.62L74.5446 13.3333H71.136V7.30127Z" fill="black"/>
<path d="M78.3718 7.30127H79.3858V13.3333H78.3718V7.30127Z" fill="black"/>
<path d="M82.0716 8.1706H80.2516L80.34 7.30127H84.916L84.8224 8.1706H83.0882V13.3333H82.0716V8.1706Z" fill="black"/>
<path d="M89.323 13.0372C88.8976 12.7912 88.5543 12.4195 88.3376 11.9706C88.099 11.4735 87.9812 10.9245 87.9944 10.3706C87.982 9.7921 88.1069 9.21919 88.3584 8.70125C88.5896 8.23486 88.9519 7.85029 89.3984 7.59725C89.895 7.32711 90.4511 7.19301 91.013 7.20791C91.5531 7.193 92.0872 7.3265 92.56 7.59458C92.9842 7.84059 93.3259 8.21242 93.5402 8.66125C93.773 9.15361 93.8888 9.6955 93.8782 10.2426C93.8927 10.8279 93.7658 11.4077 93.509 11.9306C93.277 12.3964 92.9149 12.7807 92.469 13.0346C91.9776 13.3035 91.4268 13.4376 90.87 13.4239C90.3299 13.4388 89.7958 13.3053 89.323 13.0372ZM91.9568 12.2986C92.242 12.1029 92.4638 11.8243 92.5938 11.4986C92.7397 11.1249 92.8113 10.7251 92.8044 10.3226C92.8109 9.92748 92.7475 9.53445 92.6172 9.16258C92.5015 8.84067 92.294 8.56192 92.0218 8.36258C91.7048 8.16366 91.3404 8.05839 90.9688 8.05839C90.5972 8.05839 90.2328 8.16366 89.9158 8.36258C89.6284 8.56711 89.4045 8.85227 89.271 9.18391C89.1243 9.54259 89.0509 9.92831 89.0552 10.3172C89.0489 10.7181 89.1178 11.1164 89.258 11.4906C89.3821 11.8195 89.5983 12.1034 89.8794 12.3066C90.1872 12.515 90.5509 12.6194 90.9194 12.6052C91.2875 12.613 91.6492 12.5061 91.9568 12.2986Z" fill="black"/>
<path d="M95.004 7.30127H96.1688L99.0782 11.9759C99.0522 11.5306 99.0418 11.1226 99.0418 10.7466V7.30127H99.983V13.3333H98.8546L95.901 8.58394C95.9296 9.11727 95.9452 9.59994 95.9452 10.0186V13.3333H95.004V7.30127Z" fill="black"/>
<path fill-rule="evenodd" clip-rule="evenodd" d="M26.26 7.33325H15.4674C10.3792 7.33325 8.51758 9.24259 8.51758 14.4613V25.5386C8.51758 30.7573 10.3792 32.6666 15.4674 32.6666H26.26C31.3482 32.6666 33.2124 30.7573 33.2124 25.5386V14.4613C33.2176 9.24259 31.356 7.33325 26.26 7.33325Z" fill="#C8102E"/>
<path d="M13.4082 20H14.0634V23.3147H13.4082V21.968H11.9288V23.3147H11.2736V20H11.9288V21.3333H13.4082V20ZM17.1002 21.896C17.1002 22.4293 16.8402 22.7227 16.367 22.7227C15.8938 22.7227 15.6286 22.4293 15.6286 21.8667V20H14.9734V21.8933C14.9734 22.824 15.4778 23.3573 16.3566 23.3573C17.2354 23.3573 17.7554 22.824 17.7554 21.864V20H17.1002V21.896ZM24.6714 22.2773L23.9382 20H23.4L22.672 22.28L21.957 20H21.2602L22.386 23.3147H22.9294L23.66 21.1387L24.3932 23.3147H24.9418L26.0676 20H25.3864L24.6714 22.2773ZM27.2402 21.8853H28.4336V21.2853H27.2402V20.608H28.9718V20H26.5954V23.3067H29.0342V22.7093H27.2402V21.8853ZM29.8142 23.3067H30.4616V20H29.8142V23.3067ZM19.0502 22.6213L18.7564 23.3093H18.0882L19.5 20H20.0772L21.4942 23.3093H20.8182L20.54 22.624L19.0502 22.6213ZM19.2946 22.024H20.28L19.786 20.84L19.2946 22.024Z" fill="white"/>
<path d="M20.8676 15.7841C19.7776 15.7834 18.7324 15.339 17.9617 14.5485C17.1909 13.758 16.7576 12.6861 16.757 11.5681H17.3368C17.3368 12.5286 17.7088 13.4497 18.3709 14.1288C19.0331 14.8079 19.9311 15.1894 20.8676 15.1894C21.804 15.1894 22.7021 14.8079 23.3642 14.1288C24.0264 13.4497 24.3984 12.5286 24.3984 11.5681H24.9782C24.9775 12.6861 24.5442 13.758 23.7734 14.5485C23.0027 15.339 21.9575 15.7834 20.8676 15.7841Z" fill="white"/>
</svg>
