<svg xmlns="http://www.w3.org/2000/svg" width="25.365" height="25.366" viewBox="0 0 25.365 25.366">
  <g id="icon" transform="translate(-0.001 -0.002)">
    <g id="c142_x" transform="translate(0.001 0.002)">
      <path id="Subtraction_2" data-name="Subtraction 2" d="M12.68,25.366A12.683,12.683,0,0,1,3.714,3.715,12.683,12.683,0,1,1,21.65,21.65,12.6,12.6,0,0,1,12.68,25.366ZM7.369,12.073a1.195,1.195,0,0,0-.845,2.039L9.9,17.49a1.193,1.193,0,0,0,1.689,0l7.767-7.766a1.2,1.2,0,0,0-1.69-1.69l-6.921,6.922L8.214,12.424A1.186,1.186,0,0,0,7.369,12.073Z" transform="translate(0 0)" fill="#23b7c0"/>
    </g>
  </g>
</svg>
