<?xml version="1.0" encoding="utf-8"?>
<!-- Generator: Adobe Illustrator 26.3.1, SVG Export Plug-In . SVG Version: 6.00 Build 0)  -->
<svg version="1.1" id="Layer_1" xmlns="http://www.w3.org/2000/svg" xmlns:xlink="http://www.w3.org/1999/xlink" x="0px" y="0px"
	 viewBox="0 0 24 17.6" style="enable-background:new 0 0 24 17.6;" xml:space="preserve">
<style type="text/css">
	.st0{stroke:#F8F8F8;stroke-width:1.5;stroke-linecap:round;stroke-linejoin:round;}
</style>
<path class="st0" d="M15,6.8h2 M15,10.8h2 M7,14.8h10 M6,0.8h12c1.7,0,3,1.3,3,3v10c0,1.7-1.3,3-3,3H6c-1.7,0-3-1.3-3-3v-10
	C3,2.2,4.3,0.8,6,0.8z M11,8.8c0,1.1-0.9,2-2,2s-2-0.9-2-2s0.9-2,2-2S11,7.7,11,8.8z"/>
</svg>
