<svg xmlns="http://www.w3.org/2000/svg" width="15.945" height="14" viewBox="0 0 15.945 14">
  <path id="Path_2469" data-name="Path 2469" d="M39.825,36.486l-7.972,4.763v7.29A1.95,1.95,0,0,0,33.8,50.486H45.85A1.95,1.95,0,0,0,47.8,48.538v-7.29ZM45.749,41.5,39.9,45.15l-.03.016-.016.007-.007,0a.13.13,0,0,1-.024,0,.166.166,0,0,1-.028-.005h0l-.019-.009-.025-.014L33.9,41.5l5.923-3.539Zm.1,7.711H33.8a.678.678,0,0,1-.677-.677V42.517l5.969,3.722c.022.014.044.026.067.038l.036.019a1.361,1.361,0,0,0,.276.108l.049.012a1.324,1.324,0,0,0,.609,0l.042-.01a1.35,1.35,0,0,0,.279-.108l.04-.021,6.035-3.76v6.022A.678.678,0,0,1,45.85,49.216Z" transform="translate(-31.853 -36.486)" fill="#727272"/>
</svg>
