<svg xmlns="http://www.w3.org/2000/svg" width="24" height="21.656" viewBox="0 0 24 21.656">
  <g id="Group_5110" data-name="Group 5110" transform="translate(-1 5)">
    <path id="Path_2450" data-name="Path 2450" d="M136.859,157a5.859,5.859,0,1,0,5.859,5.859A5.866,5.866,0,0,0,136.859,157Zm0,9.844a3.984,3.984,0,1,1,3.984-3.984A3.989,3.989,0,0,1,136.859,166.844Z" transform="translate(-123.859 -155.813)" fill="#727272"/>
    <path id="Path_2451" data-name="Path 2451" d="M21.188,28.375H17.739a.29.29,0,0,1-.258-.156l-.954-2-.008-.016A2.155,2.155,0,0,0,14.58,25H9.486a2.155,2.155,0,0,0-1.938,1.2l-.008.016-.954,2.005a.29.29,0,0,1-.258.156H2.813A2.816,2.816,0,0,0,0,31.188V43.844a2.816,2.816,0,0,0,2.813,2.813H21.188A2.816,2.816,0,0,0,24,43.844V31.188A2.816,2.816,0,0,0,21.188,28.375Zm.938,15.469a.939.939,0,0,1-.937.938H2.813a.939.939,0,0,1-.937-.937V31.188a.939.939,0,0,1,.938-.937H6.328a2.155,2.155,0,0,0,1.938-1.2l.008-.016.954-2.005a.29.29,0,0,1,.258-.156H14.58a.29.29,0,0,1,.258.156l.954,2.005.008.016a2.155,2.155,0,0,0,1.938,1.2h3.449a.939.939,0,0,1,.938.938Z" transform="translate(1 -30)" fill="#727272"/>
    <rect id="Rectangle_3556" data-name="Rectangle 3556" width="1.875" height="1.875" transform="translate(19.375 2.125)" fill="#727272"/>
  </g>
</svg>
