<svg xmlns="http://www.w3.org/2000/svg" width="16" height="16" viewBox="0 0 16 16">
  <path id="Union_48" data-name="Union 48" d="M21286,4004a8,8,0,1,1,8,8A8.009,8.009,0,0,1,21286,4004Zm1,0a7,7,0,1,0,7-7A7,7,0,0,0,21287,4004Zm5.773,1.829a1.216,1.216,0,0,1,.092-.463l1.168-4.1,1.146,4.1a1.215,1.215,0,0,1,.09.463,1.248,1.248,0,0,1-2.5,0Zm4.633-4.563,1.426-.824a6.09,6.09,0,0,1,.623,1.056l-1.422.823A4.452,4.452,0,0,0,21297.406,4001.264Zm-8.857.225a5.965,5.965,0,0,1,.623-1.055l1.422.82a4.531,4.531,0,0,0-.633,1.055Zm7.063-1.554.816-1.422a6.042,6.042,0,0,1,1.064.609l-.818,1.423A4.408,4.408,0,0,0,21295.611,3999.934Zm-5.1-.82a5.851,5.851,0,0,1,1.07-.609l.818,1.426a4.04,4.04,0,0,0-1.068.6Zm3.479.517a4.092,4.092,0,0,0-.6.04v-1.64a5.607,5.607,0,0,1,.605-.032,5.818,5.818,0,0,1,.615.032v1.644A4.385,4.385,0,0,0,21293.994,3999.631Z" transform="translate(-21285.998 -3995.998)" fill="#d12b8a"/>
</svg>
