<svg xmlns="http://www.w3.org/2000/svg" xmlns:xlink="http://www.w3.org/1999/xlink" width="24" height="24" viewBox="0 0 24 24">
  <defs>
    <clipPath id="clip-path">
      <rect id="Rectangle_3471" data-name="Rectangle 3471" width="24" height="24" transform="translate(17.5 8)" fill="#fff"/>
    </clipPath>
    <clipPath id="clip-path-2">
      <rect id="Rectangle_3475" data-name="Rectangle 3475" width="24" height="24" transform="translate(28 1056)" fill="#fff" stroke="#707070" stroke-width="1"/>
    </clipPath>
  </defs>
  <g id="Mask_Group_5" data-name="Mask Group 5" transform="translate(-17.5 -8)" clip-path="url(#clip-path)">
    <g id="intmins" transform="translate(-10.5 -1048)" clip-path="url(#clip-path-2)">
      <g id="Group_4721" data-name="Group 4721" transform="translate(31.855 1059)">
        <g id="Group_4719" data-name="Group 4719" transform="translate(0.144)">
          <g id="Group_4718" data-name="Group 4718">
            <path id="Path_2388" data-name="Path 2388" d="M14.269,2.144l-.025-.022a8.477,8.477,0,0,0-11.93.706l-.022.022A8.477,8.477,0,0,0,.16,7.99c0,.17-.016.339-.016.509A8.544,8.544,0,0,0,.229,9.682V9.7a8.518,8.518,0,0,0,4.094,6.122.315.315,0,0,0,.069.041A8.5,8.5,0,0,0,14.269,2.144Zm-8.681-.9A7.83,7.83,0,0,1,8.636.618h.286A.4.4,0,0,1,8.9.876c-.1.185-.4.314-.87.367a1.965,1.965,0,0,0-1.8,1.626A1.18,1.18,0,0,1,5.6,2.43a1.1,1.1,0,0,1-.012-1.184Zm-3,2.22,1.4,1.029a.217.217,0,0,0,.066.038c.094.047.213.261.1.747a.343.343,0,0,1-.078-.157A.314.314,0,0,0,3.7,4.882l-.659.129a.314.314,0,0,0-.232.427s.163.436-.053.628a1.218,1.218,0,0,1-.314.185A2.409,2.409,0,0,0,1.076,7.767a1.677,1.677,0,0,1-.2.424,1.044,1.044,0,0,1-.085-.2,7.848,7.848,0,0,1,1.8-4.525ZM.967,10.273a2.826,2.826,0,0,0,1.193.358.436.436,0,0,1,.44.414.314.314,0,0,0,.188.254,1.407,1.407,0,0,1,.747,1.093A.983.983,0,0,0,4,13.133a1.813,1.813,0,0,0,1.356.053.1.1,0,0,1,.031.031c.019.028.1.2-.113.713a3.745,3.745,0,0,1-.788,1.256A7.9,7.9,0,0,1,.967,10.273Zm7.67,6.106a7.824,7.824,0,0,1-3.592-.87,4.627,4.627,0,0,0,.807-1.353,1.413,1.413,0,0,0,.063-1.287.731.731,0,0,0-.556-.336.314.314,0,0,0-.126.019,1.337,1.337,0,0,1-.917.028.361.361,0,0,1-.166-.292,2.059,2.059,0,0,0-.967-1.5,1.036,1.036,0,0,0-1.03-.8A3.14,3.14,0,0,1,.819,9.45C.794,9.243.775,9.032.766,8.822a.474.474,0,0,0,.066,0H.86c.408,0,.65-.474.794-.832A1.821,1.821,0,0,1,2.709,6.806a1.726,1.726,0,0,0,.48-.314,1.105,1.105,0,0,0,.3-.97l.082-.016a1.011,1.011,0,0,0,.753.468.314.314,0,0,0,.314-.207A1.9,1.9,0,0,0,4.7,4.329a.848.848,0,0,0-.38-.4L3.017,3A7.918,7.918,0,0,1,4.809,1.629a1.5,1.5,0,0,0,.314,1.218,1.793,1.793,0,0,0,.942.65.183.183,0,0,1,.116.053.314.314,0,0,0,.314.242h.044a.314.314,0,0,0,.27-.314A1.444,1.444,0,0,1,8.1,1.909a1.609,1.609,0,0,0,1.359-.7.97.97,0,0,0,.107-.5A7.849,7.849,0,0,1,13.39,2.225c-2.549.656-2.512,1.127-2.48,1.337.047.462.072,1.036.072,1.042a.314.314,0,0,0,.254.3A1.46,1.46,0,0,0,12.3,4.628a3.139,3.139,0,0,1,0,.436,2.436,2.436,0,0,1-1.256.213.942.942,0,0,1-.672-.355.314.314,0,0,0-.546.063L9.735,5.2a.65.65,0,0,1-.173-.593.628.628,0,0,0-.355-.681c-.462-.2-1.13.195-1.435.549a.684.684,0,0,0-.148.845c.251.4,1.174,1.7,2.512,1.4.314-.072,1.049-.019,2.4,1.13l.044.035c.082.094.383.656.628,1.108.879,1.639,1,1.79,1.221,1.84a.739.739,0,0,0,.157,0,3.629,3.629,0,0,0,1.708-.556,7.887,7.887,0,0,1-7.658,6.1ZM16.46,9.387a3.265,3.265,0,0,1-1.821.838c-.176-.232-.6-1.03-.867-1.526-.5-.942-.628-1.184-.763-1.281l-.053-.044c-1.193-1.011-2.2-1.438-2.948-1.256-.942.217-1.651-.8-1.84-1.086a.744.744,0,0,1,.314-.342.942.942,0,0,1,.468-.182.391.391,0,0,1,0,.053,1.142,1.142,0,0,0,.942,1.366.314.314,0,0,0,.314-.192l.035-.082a2.329,2.329,0,0,0,1.708.2c.355-.078.9-.245.964-.571,0,0,.185-1.111-.279-1.366a.48.48,0,0,0-.587.126.914.914,0,0,1-.44.235c0-.2-.028-.452-.053-.7A9.379,9.379,0,0,1,14,2.731a7.849,7.849,0,0,1,2.47,6.653Z" transform="translate(-0.144)" fill="#70489d"/>
          </g>
        </g>
        <g id="Group_4720" data-name="Group 4720" transform="translate(5.868 7.079)">
          <path id="Path_2389" data-name="Path 2389" d="M154.514,185.2a.524.524,0,0,0-.515-.317l-.521-.342a.315.315,0,0,0-.1-.044c-.06,0-.581-.17-.427-.914a1.736,1.736,0,0,0-1.407-2.342c-.314-.094-.609-.21-.9-.314a5.627,5.627,0,0,0-2.735-.531.314.314,0,0,0-.273.22,1.406,1.406,0,0,1-.942.917.857.857,0,0,0-.7.907,1.991,1.991,0,0,0,1.29,1.868l.088.019c.87.192,1.62.358,1.256,2.421a2.758,2.758,0,0,0,.276,2.229,1.1,1.1,0,0,0,.876.37,5.07,5.07,0,0,0,2.888-1.636C154.508,186.047,154.64,185.51,154.514,185.2Zm-2.257,2.06c-1.41,1.281-2.151,1.46-2.468,1.46a.471.471,0,0,1-.392-.151,2.363,2.363,0,0,1-.138-1.717c.452-2.656-.863-2.948-1.746-3.155h-.082a1.4,1.4,0,0,1-.8-1.256c0-.27.126-.292.185-.314a1.912,1.912,0,0,0,1.35-1.143,5.236,5.236,0,0,1,2.26.5c.314.119.612.239.942.339.942.286,1.171.659.973,1.614a1.332,1.332,0,0,0,.823,1.651l.562.377a.314.314,0,0,0,.132.05,7.7,7.7,0,0,1-1.6,1.74Z" transform="translate(-146.001 -180.383)" fill="#70489d"/>
        </g>
      </g>
    </g>
  </g>
</svg>
