<svg width="21" height="16" viewBox="0 0 21 16" fill="none" xmlns="http://www.w3.org/2000/svg">
<g clip-path="url(#clip0_1131_4021)">
<path d="M20.8696 0H0V16H20.8696V0Z" fill="white"/>
<path d="M20.3278 0.542969H0.539062V4.50104H20.3278V0.542969Z" fill="#00549A"/>
<path d="M20.3278 4.88672H0.539062V11.1125H20.3278V4.88672Z" fill="#00549A"/>
<path d="M20.3278 11.4961H0.539062V15.4545H20.3278V11.4961Z" fill="#00549A"/>
<path d="M17.7741 3.55469H17.1914V3.91977H17.7741V3.55469Z" fill="white"/>
<path d="M17.0319 3.55469H16.4492V3.91977H17.0319V3.55469Z" fill="white"/>
<path d="M8.29263 2.87146H7.93666V2.35648H7.21847V2.87146H2.02988L1.96694 2.73567L2.45874 2.09046V1.62891H1.75232L0.972656 2.65182L1.4166 3.60831H9.01082V2.35648H8.29263V2.87146Z" fill="white"/>
<path d="M8.96163 1.68359H8.37891V2.04868H8.96163V1.68359Z" fill="white"/>
<path d="M3.49679 1.79297H2.91406V2.15806H3.49679V1.79297Z" fill="white"/>
<path d="M4.2507 1.79297H3.66797V2.15806H4.2507V1.79297Z" fill="white"/>
<path d="M19.4461 2.20835H17.3235L17.0007 1.93713H19.255L19.0198 1.52344H16.1894L16.1441 1.66999L17.1163 2.48661H18.789V2.70366H16.9816L16.3679 2.18794H15.1421V3.27986H13.1237V2.83241H14.8259V2.18794H12.0742V3.80894H15.8688V2.94742L16.2969 3.30695H19.4741L19.9195 2.84725V2.69735L19.4461 2.20835Z" fill="white"/>
<path d="M11.0627 2.55469H9.71875V3.1461H11.0627V2.55469Z" fill="white"/>
<path d="M17.7112 10.4967L14.0783 7.7422L17.6475 5.53906H11.2541L8.12695 7.4695V5.53906H3.66797V10.4967H8.12695V7.91584L10.9887 10.4967H17.7112Z" fill="#FFF200"/>
<path d="M2.78125 14.9247V12.4677H3.4203V12.7594C3.50523 12.6455 3.61591 12.5536 3.74314 12.4915C3.87305 12.4308 4.01484 12.4004 4.158 12.4024C4.42673 12.4024 4.62809 12.4728 4.76208 12.6136C4.89608 12.7543 4.96295 12.9664 4.9627 13.2499V14.9243H4.3104V13.4402C4.3104 13.2641 4.28083 13.1383 4.22169 13.0629C4.16254 12.9874 4.06659 12.9503 3.93382 12.9516C3.7797 12.9516 3.65786 12.9978 3.56828 13.0903C3.47871 13.1828 3.4338 13.309 3.43355 13.4688V14.9265L2.78125 14.9247Z" fill="white"/>
<path d="M10.8483 14.1464H11.4983C11.4421 14.3907 11.301 14.6067 11.1004 14.7552C10.9009 14.9021 10.6577 14.9756 10.3708 14.9756C10.0179 14.9756 9.73839 14.8563 9.53224 14.6176C9.3261 14.3789 9.2229 14.0554 9.22266 13.647C9.22266 13.2448 9.32426 12.9277 9.52746 12.6957C9.73065 12.4637 10.0087 12.3477 10.3616 12.3477C10.7354 12.3477 11.0238 12.4617 11.227 12.6897C11.4302 12.9178 11.5318 13.2429 11.5318 13.6652C11.5318 13.7115 11.5318 13.7468 11.5318 13.7702C11.5312 13.7924 11.5294 13.8146 11.5263 13.8366H9.89741C9.90674 14.0295 9.95349 14.1749 10.0377 14.2729C10.1218 14.3708 10.2433 14.4203 10.4021 14.4213C10.4984 14.4253 10.5938 14.4021 10.6778 14.3545C10.7544 14.3043 10.8138 14.2316 10.8483 14.1464ZM9.89741 13.4043H10.8571C10.8512 13.2389 10.8074 13.1123 10.726 13.0259C10.6447 12.9394 10.5276 12.896 10.3752 12.896C10.2331 12.896 10.1213 12.9397 10.0399 13.027C9.95852 13.1149 9.91103 13.2411 9.89741 13.4051V13.4043Z" fill="white"/>
<path d="M18.0095 15.2276C17.9496 15.229 17.8782 15.2316 17.7953 15.2354C17.7125 15.2391 17.6598 15.2413 17.6374 15.2413C17.3874 15.2413 17.217 15.1942 17.1249 15.0999C17.0329 15.0057 16.9869 14.8202 16.9869 14.5434V13.214H16.6641V12.7532H16.9869V12.082H17.6329V12.7532H18.0099V13.214H17.6329V14.5746C17.6329 14.6391 17.6473 14.6818 17.6756 14.7022C17.704 14.7226 17.7625 14.7326 17.8505 14.7326H18.0099L18.0095 15.2276Z" fill="white"/>
</g>
<defs>
<clipPath id="clip0_1131_4021">
<rect width="20.8696" height="16" fill="white"/>
</clipPath>
</defs>
</svg>
