<svg xmlns="http://www.w3.org/2000/svg" xmlns:xlink="http://www.w3.org/1999/xlink" width="71" height="71" viewBox="0 0 71 71">
  <defs>
    <linearGradient id="linear-gradient" x1="0.112" y1="0.5" x2="1" y2="0.5" gradientUnits="objectBoundingBox">
      <stop offset="0" stop-color="#d12b8a"/>
      <stop offset="1" stop-color="#562b7c"/>
    </linearGradient>
  </defs>
  <g id="Group_4289" data-name="Group 4289" transform="translate(-924 -225)">
    <g id="Path_1289" data-name="Path 1289" transform="translate(924 225)" fill="none">
      <path d="M35.5,0A35.5,35.5,0,1,1,0,35.5,35.5,35.5,0,0,1,35.5,0Z" stroke="none"/>
      <path d="M 35.5 1 C 30.84209060668945 1 26.32403945922852 1.912033081054688 22.07135009765625 3.710769653320312 C 17.96323013305664 5.448356628417969 14.2735595703125 7.936069488525391 11.10482025146484 11.10482025146484 C 7.936069488525391 14.2735595703125 5.448356628417969 17.96323013305664 3.710769653320312 22.07135009765625 C 1.912033081054688 26.32403945922852 1 30.84209060668945 1 35.5 C 1 40.15790939331055 1.912033081054688 44.67596054077148 3.710769653320312 48.92864990234375 C 5.448356628417969 53.03676986694336 7.936069488525391 56.7264404296875 11.10482025146484 59.89517974853516 C 14.2735595703125 63.06393051147461 17.96323013305664 65.55164337158203 22.07135009765625 67.28923034667969 C 26.32403945922852 69.08796691894531 30.84209060668945 70 35.5 70 C 40.15790939331055 70 44.67596054077148 69.08796691894531 48.92864990234375 67.28923034667969 C 53.03676986694336 65.55164337158203 56.7264404296875 63.06393051147461 59.89517974853516 59.89517974853516 C 63.06393051147461 56.7264404296875 65.55164337158203 53.03676986694336 67.28923034667969 48.92864990234375 C 69.08796691894531 44.67596054077148 70 40.15790939331055 70 35.5 C 70 30.84209060668945 69.08796691894531 26.32403945922852 67.28923034667969 22.07135009765625 C 65.55164337158203 17.96323013305664 63.06393051147461 14.2735595703125 59.89517974853516 11.10482025146484 C 56.7264404296875 7.936069488525391 53.03676986694336 5.448356628417969 48.92864990234375 3.710769653320312 C 44.67596054077148 1.912033081054688 40.15790939331055 1 35.5 1 M 35.5 0 C 55.10610961914062 0 71 15.89389038085938 71 35.5 C 71 55.10610961914062 55.10610961914062 71 35.5 71 C 15.89389038085938 71 0 55.10610961914062 0 35.5 C 0 15.89389038085938 15.89389038085938 0 35.5 0 Z" stroke="none" fill="#d12b8a"/>
    </g>
    <g id="login_2_" data-name="login (2)" transform="translate(913.951 241)">
      <path id="Path_1290" data-name="Path 1290" d="M352.492,122.247h2.237v5.681h3.93V119h-10.1v8.925h3.93Z" transform="translate(-296.611 -110.128)" fill="url(#linear-gradient)"/>
      <path id="Path_1291" data-name="Path 1291" d="M351.284,6.638V5.012a2.775,2.775,0,0,1,5.55,0V6.638h2.237V5.012a5.012,5.012,0,0,0-10.025,0V6.638Z" transform="translate(-297.06)" fill="url(#linear-gradient)"/>
      <path id="Path_1292" data-name="Path 1292" d="M49.714,135.452v-8.8a14.436,14.436,0,0,0-16.331,23.7V148.47a7.392,7.392,0,0,1,5.017-6.991,5.458,5.458,0,1,1,8.18,0A7.392,7.392,0,0,1,51.6,148.47v1.886a14.429,14.429,0,0,0,4.852-14.9Z" transform="translate(0 -115.415)" fill="url(#linear-gradient)"/>
      <path id="Path_1293" data-name="Path 1293" d="M181.72,257.909a3.221,3.221,0,1,0,3.221,3.221A3.225,3.225,0,0,0,181.72,257.909Z" transform="translate(-139.231 -238.675)" fill="url(#linear-gradient)"/>
      <path id="Path_1294" data-name="Path 1294" d="M143.319,379.433a5.148,5.148,0,0,0-5.142-5.142h-3.455a5.147,5.147,0,0,0-5.142,5.142v3.387a14.422,14.422,0,0,0,13.739,0v-3.387Z" transform="translate(-93.96 -346.377)" fill="url(#linear-gradient)"/>
    </g>
  </g>
</svg>
