<svg xmlns="http://www.w3.org/2000/svg" width="28" height="24.457" viewBox="0 0 28 24.457">
  <g id="Group_4363" data-name="Group 4363" transform="translate(0 0)">
    <g id="Group_4362" data-name="Group 4362" transform="translate(0 0)">
      <path id="Path_2275" data-name="Path 2275" d="M27.869,36.608l-4.055-2.864V29.561a.9.9,0,0,0-.772-.8H5.278a.9.9,0,0,0-.772.8v4.151L.29,36.608a.708.708,0,0,0-.29.515V52.409a.933.933,0,0,0,.8.8h26.71c.354,0,.483-.418.483-.8V37.123C28,36.93,28.03,36.737,27.869,36.608Zm-4.055-1.319,2.768,1.9-2.768,2.092ZM5.793,30.043H22.527V40.277L14.16,46.584,5.793,40.277V30.043ZM4.505,35.257v4.055L1.738,37.187Zm-3.218,3.25L10.3,45.329,1.287,51.411ZM2.832,51.926l8.56-5.76L13.677,47.9a.772.772,0,0,0,.451.161c.129,0,.193-.064.322-.161l2.381-1.834,8.657,5.857Zm23.878-.74-8.818-5.921,8.818-6.758Z" transform="translate(0 -28.756)" fill="#fff"/>
      <path id="Path_2276" data-name="Path 2276" d="M136.481,97.961h2.9a.644.644,0,0,0,0-1.287h-2.9a.644.644,0,1,0,0,1.287Z" transform="translate(-127.47 -92.491)" fill="#fff"/>
      <path id="Path_2277" data-name="Path 2277" d="M136.481,144.982h10.3a.644.644,0,1,0,0-1.287h-10.3a.644.644,0,1,0,0,1.287Z" transform="translate(-127.47 -136.615)" fill="#fff"/>
      <path id="Path_2278" data-name="Path 2278" d="M147.422,191.359a.644.644,0,0,0-.644-.644h-10.3a.644.644,0,1,0,0,1.287h10.3A.644.644,0,0,0,147.422,191.359Z" transform="translate(-127.47 -180.739)" fill="#fff"/>
    </g>
  </g>
</svg>
