<svg xmlns="http://www.w3.org/2000/svg" width="55.697" height="55.697" viewBox="0 0 55.697 55.697">
  <g id="outline" transform="translate(-16 -16)">
    <path id="Path_1699" data-name="Path 1699" d="M80,200v1.857a.928.928,0,0,0,.928.928h1.857v-1.857h-.928V200Z" transform="translate(-56.574 -162.649)" fill="#d12b8a"/>
    <path id="Path_1700" data-name="Path 1700" d="M135.333,208H139.2v1.857h-3.868Z" transform="translate(-105.486 -169.721)" fill="#d12b8a"/>
    <path id="Path_1701" data-name="Path 1701" d="M200.928,210.785h1.857v-1.857a.928.928,0,0,0-.928-.928H200v1.857h.928Z" transform="translate(-162.649 -169.721)" fill="#d12b8a"/>
    <path id="Path_1702" data-name="Path 1702" d="M208,381.429h1.857v3.514H208Z" transform="translate(-169.721 -323.026)" fill="#d12b8a"/>
    <path id="Path_1703" data-name="Path 1703" d="M208,320.857h1.857v3.514H208Z" transform="translate(-169.721 -269.483)" fill="#d12b8a"/>
    <path id="Path_1704" data-name="Path 1704" d="M208,260.286h1.857V263.8H208Z" transform="translate(-169.721 -215.94)" fill="#d12b8a"/>
    <path id="Path_1705" data-name="Path 1705" d="M208,441.857a.928.928,0,0,0,.928.928h1.857v-1.857h-.928V440H208Z" transform="translate(-169.721 -374.801)" fill="#d12b8a"/>
    <path id="Path_1706" data-name="Path 1706" d="M258,448h3.249v1.857H258Z" transform="translate(-213.919 -381.872)" fill="#d12b8a"/>
    <path id="Path_1707" data-name="Path 1707" d="M312,440.928v1.857h1.857a.928.928,0,0,0,.928-.928V440h-1.857v.928Z" transform="translate(-261.653 -374.801)" fill="#d12b8a"/>
    <path id="Path_1708" data-name="Path 1708" d="M16.928,32.709H31.781a.928.928,0,0,0,.928-.928V16.928A.928.928,0,0,0,31.781,16H16.928a.928.928,0,0,0-.928.928V31.781A.928.928,0,0,0,16.928,32.709ZM20.641,22.5c0-1.133.55-1.857.928-1.857s.928.723.928,1.857-.55,1.857-.928,1.857S20.641,23.631,20.641,22.5Zm-2.785-4.641h13v13H27.139V27.139a2.788,2.788,0,0,0,2.785-2.785v-.777a5,5,0,0,0-3.42-4.744.928.928,0,0,0-1.222.88V30.853H22.5V26.006A3.753,3.753,0,0,0,24.355,22.5c0-2.082-1.223-3.713-2.785-3.713s-2.785,1.631-2.785,3.713a3.753,3.753,0,0,0,1.857,3.508v4.846H17.857Zm9.283,7.426V21.345a3.141,3.141,0,0,1,.928,2.232v.777A.929.929,0,0,1,27.139,25.283Z"/>
    <path id="Path_1709" data-name="Path 1709" d="M36.422,35.494V16H34.566V34.566H16v1.857H35.494A.928.928,0,0,0,36.422,35.494Z"/>
    <path id="Path_1710" data-name="Path 1710" d="M240.928,36.422h18.566a.928.928,0,0,0,.928-.928V16h-1.857V34.566H241.857V16H240V35.494A.928.928,0,0,0,240.928,36.422Z" transform="translate(-198.008)"/>
    <path id="Path_1711" data-name="Path 1711" d="M36.422,261.351V240.928a.928.928,0,0,0-.928-.928H16v1.857H34.566v18.566H16v1.857H35.494A.928.928,0,0,0,36.422,261.351Z" transform="translate(0 -198.008)"/>
    <path id="Path_1712" data-name="Path 1712" d="M16,480H71.7v1.857H16Z" transform="translate(0 -410.159)"/>
    <path id="Path_1713" data-name="Path 1713" d="M240.928,262.279h18.566a.928.928,0,0,0,.928-.928V240.928a.928.928,0,0,0-.928-.928H240.928a.928.928,0,0,0-.928.928v20.422A.928.928,0,0,0,240.928,262.279Zm.928-20.422h16.709v18.566H241.857Z" transform="translate(-198.008 -198.008)" fill="#d12b8a"/>
    <path id="Path_1714" data-name="Path 1714" d="M464.928,262.279h2.785v-1.857h-1.857V241.857h1.857V240h-2.785a.928.928,0,0,0-.928.928v20.422A.928.928,0,0,0,464.928,262.279Z" transform="translate(-396.016 -198.008)"/>
    <path id="Path_1715" data-name="Path 1715" d="M285.57,272a5.576,5.576,0,0,0-5.57,5.57,6.684,6.684,0,0,0,1.252,3.907l3.562,4.987a.928.928,0,0,0,1.511,0l3.562-4.987a6.684,6.684,0,0,0,1.252-3.907A5.576,5.576,0,0,0,285.57,272Zm2.807,8.4-2.807,3.93-2.807-3.93a4.839,4.839,0,0,1-.906-2.828,3.713,3.713,0,0,1,7.426,0A4.839,4.839,0,0,1,288.377,280.4Z" transform="translate(-233.366 -226.295)" fill="#d12b8a"/>
    <path id="Path_1716" data-name="Path 1716" d="M306.785,296a2.785,2.785,0,1,0,2.785,2.785A2.785,2.785,0,0,0,306.785,296Zm0,3.713a.928.928,0,1,1,.928-.928A.928.928,0,0,1,306.785,299.713Z" transform="translate(-254.582 -247.51)" fill="#d12b8a"/>
    <path id="Path_1717" data-name="Path 1717" d="M464.928,36.422h2.785V34.566h-1.857V16H464V35.494A.928.928,0,0,0,464.928,36.422Z" transform="translate(-396.016)"/>
  </g>
</svg>
