<svg width="21" height="14" viewBox="0 0 21 14" fill="none" xmlns="http://www.w3.org/2000/svg">
<rect width="21" height="14" rx="2" fill="#00364E"/>
<path d="M12.4582 3.32812H8.53125V10.666H12.4582V3.32812Z" fill="#FF5F00"/>
<path d="M8.77971 6.99869C8.77909 6.292 8.93309 5.59443 9.23007 4.95878C9.52705 4.32313 9.95922 3.76607 10.4939 3.32977C9.83178 2.78864 9.03665 2.45213 8.19935 2.35868C7.36205 2.26524 6.51635 2.41863 5.75892 2.80133C5.0015 3.18403 4.3629 3.78059 3.91612 4.52284C3.46935 5.26508 3.23242 6.12305 3.23242 6.99869C3.23242 7.87433 3.46935 8.7323 3.91612 9.47455C4.3629 10.2168 5.0015 10.8134 5.75892 11.1961C6.51635 11.5788 7.36205 11.7321 8.19935 11.6387C9.03665 11.5453 9.83178 11.2087 10.4939 10.6676C9.95922 10.2313 9.52706 9.67425 9.23008 9.0386C8.9331 8.40295 8.77909 7.70538 8.77971 6.99869Z" fill="#EB001B"/>
<path d="M17.7553 6.99869C17.7554 7.87432 17.5185 8.73229 17.0717 9.47453C16.625 10.2168 15.9864 10.8133 15.229 11.196C14.4716 11.5787 13.6259 11.7321 12.7886 11.6387C11.9513 11.5453 11.1562 11.2087 10.4941 10.6676C11.0283 10.2309 11.4601 9.67372 11.7571 9.03817C12.054 8.40262 12.2083 7.70527 12.2083 6.99869C12.2083 6.29211 12.054 5.59476 11.7571 4.95921C11.4601 4.32366 11.0283 3.76651 10.4941 3.32976C11.1562 2.78864 11.9513 2.45213 12.7886 2.35868C13.6259 2.26524 14.4716 2.41863 15.229 2.80134C15.9864 3.18404 16.625 3.78061 17.0717 4.52285C17.5185 5.26509 17.7554 6.12306 17.7553 6.99869Z" fill="#F79E1B"/>
<path d="M17.3264 9.89207V9.74184H17.3847V9.71123H17.2363V9.74184H17.2946V9.89207H17.3264ZM17.6145 9.89207V9.71094H17.569L17.5167 9.83552L17.4644 9.71094H17.4189V9.89207H17.451V9.75544L17.5 9.87324H17.5333L17.5824 9.75514V9.89207H17.6145Z" fill="#F79E1B"/>
</svg>
