<svg id="instagram-logo" xmlns="http://www.w3.org/2000/svg" width="22.71" height="22.71" viewBox="0 0 22.71 22.71">
  <path id="Path_157" data-name="Path 157" d="M16.443,0H6.267A6.274,6.274,0,0,0,0,6.267V16.443A6.274,6.274,0,0,0,6.267,22.71H16.443a6.274,6.274,0,0,0,6.267-6.267V6.267A6.274,6.274,0,0,0,16.443,0ZM20.7,16.443A4.257,4.257,0,0,1,16.443,20.7H6.267a4.257,4.257,0,0,1-4.252-4.252V6.267A4.257,4.257,0,0,1,6.267,2.015H16.443A4.257,4.257,0,0,1,20.7,6.267V16.443Z" fill="#fff"/>
  <path id="Path_158" data-name="Path 158" d="M46.82,40.97a5.852,5.852,0,1,0,5.852,5.852A5.858,5.858,0,0,0,46.82,40.97Zm0,9.688a3.837,3.837,0,1,1,3.837-3.837A3.841,3.841,0,0,1,46.82,50.658Z" transform="translate(-35.465 -35.466)" fill="#fff"/>
  <path id="Path_159" data-name="Path 159" d="M120.4,28.251a1.477,1.477,0,1,0,1.045.433A1.483,1.483,0,0,0,120.4,28.251Z" transform="translate(-102.946 -24.456)" fill="#fff"/>
</svg>
