<svg xmlns="http://www.w3.org/2000/svg" xmlns:xlink="http://www.w3.org/1999/xlink" width="24" height="24" viewBox="0 0 24 24">
  <defs>
    <clipPath id="clip-path">
      <rect id="Rectangle_3471" data-name="Rectangle 3471" width="24" height="24" transform="translate(17.5 8)" fill="#fff"/>
    </clipPath>
    <clipPath id="clip-path-2">
      <rect id="Rectangle_3507" data-name="Rectangle 3507" width="24" height="24" transform="translate(28 1184)" fill="#fff" stroke="#707070" stroke-width="1"/>
    </clipPath>
  </defs>
  <g id="Mask_Group_14" data-name="Mask Group 14" transform="translate(-17.5 -8)" clip-path="url(#clip-path)">
    <g id="missu" transform="translate(-10.5 -1176)" clip-path="url(#clip-path-2)">
      <g id="Group_4769" data-name="Group 4769" transform="translate(31 1187.5)">
        <g id="Group_5111" data-name="Group 5111">
          <path id="Path_2424" data-name="Path 2424" d="M40.368,262.6a.368.368,0,1,0,.368.368A.368.368,0,0,0,40.368,262.6Zm0,0" transform="translate(-38.527 -252.455)" fill="#70489d"/>
          <g id="Group_5110" data-name="Group 5110">
            <path id="Path_2425" data-name="Path 2425" d="M16.909,225.345l-3.468,1.192a1.468,1.468,0,0,0-1.448-1.732H9.611a.368.368,0,0,1-.181-.047l-1.944-1.093a2.578,2.578,0,0,0-1.263-.331H3.616a1.105,1.105,0,0,0-1.04-.736H.368a.368.368,0,0,0-.368.368v6.622a.368.368,0,0,0,.368.368H2.575a1.106,1.106,0,0,0,1.03-.708,3.359,3.359,0,0,1,1.2.357l1.924,1.154a4.69,4.69,0,0,0,4.354.248l6.866-3.023a1.418,1.418,0,0,0-1.042-2.638ZM2.943,228.853a.368.368,0,0,1-.368.366H.736v-5.886H2.575a.368.368,0,0,1,.368.368ZM17.671,227.3h-.012l-6.878,3.028a3.954,3.954,0,0,1-3.672-.209l-1.924-1.154a4.056,4.056,0,0,0-1.506-.458v-4.446H6.224a1.841,1.841,0,0,1,.9.236l1.945,1.1a1.1,1.1,0,0,0,.541.142h2.382a.736.736,0,0,1,0,1.472H8.253a.368.368,0,0,0,0,.736h3.74a1.469,1.469,0,0,0,.69-.172l4.473-1.538a.683.683,0,1,1,.515,1.265Zm0,0" transform="translate(0 -213.928)" fill="#70489d"/>
            <path id="Path_2426" data-name="Path 2426" d="M164.779,9.423a.368.368,0,0,0,.482,0c3-2.6,4.858-3.918,4.858-5.964A2.817,2.817,0,0,0,167.364.5a2.724,2.724,0,0,0-2.388,1.524,2.675,2.675,0,0,0-5.012.511.368.368,0,1,0,.706.207,2,2,0,0,1,1.919-1.505,2.3,2.3,0,0,1,2.033,1.8.368.368,0,0,0,.709,0c.005-.018.516-1.8,2.033-1.8a2.082,2.082,0,0,1,2.02,2.224c0,1.637-1.6,2.816-4.364,5.2a29.509,29.509,0,0,1-3.782-3.46.368.368,0,1,0-.585.446,32.6,32.6,0,0,0,4.126,3.776Zm0,0" transform="translate(-154.064)" fill="#70489d"/>
          </g>
          <path id="Path_2427" data-name="Path 2427" d="M159.368,88.6a.368.368,0,1,0,.368.368A.368.368,0,0,0,159.368,88.6Zm0,0" transform="translate(-153.15 -84.857)" fill="#70489d"/>
        </g>
      </g>
    </g>
  </g>
</svg>
