<svg id="square" xmlns="http://www.w3.org/2000/svg" width="24" height="24" viewBox="0 0 24 24">
  <g id="Group_3917" data-name="Group 3917">
    <g id="Group_3916" data-name="Group 3916">
      <path id="Path_2227" data-name="Path 2227" d="M19.531,0H4.469A4.474,4.474,0,0,0,0,4.469V19.531A4.474,4.474,0,0,0,4.469,24H19.531A4.474,4.474,0,0,0,24,19.531V4.469A4.474,4.474,0,0,0,19.531,0Zm3.062,19.531a3.066,3.066,0,0,1-3.062,3.062H4.469a3.066,3.066,0,0,1-3.062-3.062V4.469A3.066,3.066,0,0,1,4.469,1.406H19.531a3.066,3.066,0,0,1,3.062,3.063Z" fill="#727272"/>
    </g>
  </g>
  <g id="Group_3919" data-name="Group 3919" transform="translate(4.519 4.519)">
    <g id="Group_3918" data-name="Group 3918">
      <path id="Path_2228" data-name="Path 2228" d="M110.659,96.4h-9.038a.7.7,0,0,0-.7.7v3.816H97.1a.7.7,0,0,0-.7.7v9.038a.7.7,0,0,0,.7.7h9.037a.7.7,0,0,0,.7-.7v-3.816h3.816a.7.7,0,0,0,.7-.7V97.1A.7.7,0,0,0,110.659,96.4Zm-5.222,13.556H97.806v-7.631h7.631Zm4.519-4.519h-3.113v-3.816a.7.7,0,0,0-.7-.7h-3.816V97.806h7.631Z" transform="translate(-96.4 -96.4)" fill="#727272"/>
    </g>
  </g>
</svg>
