<svg id="technology_5_" data-name="technology (5)" xmlns="http://www.w3.org/2000/svg" width="24" height="24" viewBox="0 0 24 24">
  <path id="Path_2234" data-name="Path 2234" d="M137.345,422h-.865a.7.7,0,1,0,0,1.406h.865a.7.7,0,0,0,0-1.406Zm0,0" transform="translate(-129.413 -402.215)" fill="#727272"/>
  <path id="Path_2235" data-name="Path 2235" d="M19.06.785H16.237a4.923,4.923,0,0,0-1.533.244A2.1,2.1,0,0,0,12.891,0H2.109A2.112,2.112,0,0,0,0,2.109V21.891A2.112,2.112,0,0,0,2.109,24H12.891A2.112,2.112,0,0,0,15,21.891V11.715a4.932,4.932,0,0,0,1.237.157H19.06A4.946,4.946,0,0,0,24,6.931V5.725A4.946,4.946,0,0,0,19.06.785Zm-16.95.621H12.891a.7.7,0,0,1,.542.254,4.981,4.981,0,0,0-1.277,1.284H1.406V2.109A.7.7,0,0,1,2.109,1.406ZM12.891,22.594H2.109a.7.7,0,0,1-.7-.7V18.375H13.594v3.516A.7.7,0,0,1,12.891,22.594ZM8.646,10.08a1.172,1.172,0,0,1-2.344,0V9.143a1.172,1.172,0,0,1,2.344,0ZM6.695,12.727H8.305a1.643,1.643,0,0,1,1.641,1.641v2.6H5.054v-2.6A1.643,1.643,0,0,1,6.695,12.727Zm6.9,4.242H11.352v-2.6a3.05,3.05,0,0,0-1.792-2.775,2.564,2.564,0,0,0,.492-1.512V9.143a2.578,2.578,0,1,0-5.156,0v.938a2.563,2.563,0,0,0,.5,1.53,3.051,3.051,0,0,0-1.753,2.758v2.6H1.406V4.351H11.491A4.93,4.93,0,0,0,11.3,5.725V6.931a4.941,4.941,0,0,0,2.3,4.172Zm9-10.038a3.538,3.538,0,0,1-3.534,3.534H16.237A3.538,3.538,0,0,1,12.7,6.931V5.725a3.538,3.538,0,0,1,3.534-3.534H19.06a3.538,3.538,0,0,1,3.534,3.534Zm0,0" fill="#727272"/>
  <path id="Path_2236" data-name="Path 2236" d="M320.965,90H316.7a.7.7,0,0,0,0,1.406h4.265a.7.7,0,0,0,0-1.406Zm0,0" transform="translate(-301.184 -85.785)" fill="#727272"/>
  <path id="Path_2237" data-name="Path 2237" d="M319.09,150H316.7a.7.7,0,0,0,0,1.406h2.39a.7.7,0,1,0,0-1.406Zm0,0" transform="translate(-301.184 -142.972)" fill="#727272"/>
</svg>
