<svg id="square" xmlns="http://www.w3.org/2000/svg" width="22.75" height="22.75" viewBox="0 0 22.75 22.75">
  <g id="Group_3917" data-name="Group 3917">
    <g id="Group_3916" data-name="Group 3916">
      <path id="Path_2227" data-name="Path 2227" d="M18.514,0H4.236A4.241,4.241,0,0,0,0,4.236V18.514A4.241,4.241,0,0,0,4.236,22.75H18.514a4.241,4.241,0,0,0,4.236-4.236V4.236A4.241,4.241,0,0,0,18.514,0Zm2.9,18.514a2.906,2.906,0,0,1-2.9,2.9H4.236a2.906,2.906,0,0,1-2.9-2.9V4.236a2.906,2.906,0,0,1,2.9-2.9H18.514a2.906,2.906,0,0,1,2.9,2.9Z" fill="#727272"/>
    </g>
  </g>
  <g id="Group_3919" data-name="Group 3919" transform="translate(4.283 4.283)">
    <g id="Group_3918" data-name="Group 3918">
      <path id="Path_2228" data-name="Path 2228" d="M109.917,96.4H101.35a.667.667,0,0,0-.667.667v3.617H97.067a.667.667,0,0,0-.667.667v8.567a.667.667,0,0,0,.667.667h8.567a.667.667,0,0,0,.667-.667V106.3h3.617a.667.667,0,0,0,.667-.667V97.067A.666.666,0,0,0,109.917,96.4Zm-4.95,12.85H97.733v-7.234h7.234Zm4.283-4.283H106.3V101.35a.667.667,0,0,0-.667-.667h-3.617v-2.95h7.234Z" transform="translate(-96.4 -96.4)" fill="#727272"/>
    </g>
  </g>
</svg>
