<?xml version="1.0" encoding="utf-8"?>
<!-- Generator: Adobe Illustrator 15.1.0, SVG Export Plug-In . SVG Version: 6.00 Build 0)  -->
<!DOCTYPE svg PUBLIC "-//W3C//DTD SVG 1.1//EN" "http://www.w3.org/Graphics/SVG/1.1/DTD/svg11.dtd">
<svg version="1.1" id="Layer_1" xmlns="http://www.w3.org/2000/svg" xmlns:xlink="http://www.w3.org/1999/xlink" x="0px" y="0px"
	 width="370px" height="100.377px" viewBox="0 0 370 100.377" enable-background="new 0 0 370 100.377" xml:space="preserve">
<g id="layer1" transform="translate(-384.28572,-428.81172)">
	<g id="g3235" transform="matrix(2.5445375,0,0,2.5445375,1157.1714,-1457.8678)">
		<path id="path3015" fill="#B81D24" d="M-179.616,778.402c2.026,0.196,4.048,0.407,6.068,0.626l4.459-11.009l4.238,12.024
			c2.175,0.273,4.348,0.558,6.515,0.857l-7.429-21.085l7.432-18.352h-6.295l-0.065,0.09l-4.014,9.914l-3.524-10.004h-6.215
			l6.417,18.207L-179.616,778.402z"/>
		<path id="path3019" fill="#B81D24" d="M-184.317,777.972v-36.508h-6.213v35.996C-188.457,777.619-186.385,777.791-184.317,777.972
			"/>
		<path id="path3023" fill="#B81D24" d="M-230.983,775.929c1.677,0,3.351,0.013,5.024,0.026v-13.413h7.463v-5.712h-7.463v-9.651
			h8.595v-5.718h-14.832v34.472C-231.793,775.934-231.389,775.929-230.983,775.929"/>
		<path id="path3035" fill="#B81D24" d="M-250.272,776.279c2.069-0.074,4.141-0.136,6.216-0.187v-28.911h5.806v-5.718h-17.829v5.718
			h5.807V776.279L-250.272,776.279z"/>
		<path id="path3039" fill="#B81D24" d="M-297.783,780.129v-21.751l7.355,20.873c2.262-0.254,4.528-0.494,6.799-0.718v-37.068h-5.96
			v22.53l-7.938-22.53h-0.256h-5.96v39.447h0.037C-301.736,780.638-299.761,780.379-297.783,780.129"/>
		<path id="path3051" fill="#B81D24" d="M-262.069,747.181v-5.718h-14.834v30.726v5.72v0.005c4.922-0.426,9.862-0.782,14.822-1.072
			v-0.005v-1.648v-4.07c-2.867,0.167-5.729,0.359-8.584,0.572v-9.145h7.463v-5.715h-7.463v-9.649H-262.069L-262.069,747.181z"/>
		<path id="path3055" fill="#B81D24" d="M-205.051,770.845v-29.382h-6.239v29.113v5.718v0.006c4.963,0.182,9.907,0.436,14.834,0.756
			v-0.007v-1.847v-3.871C-199.316,771.144-202.181,770.984-205.051,770.845"/>
	</g>
</g>
</svg>
