<svg width="20" height="20" viewBox="0 0 20 20" fill="none" xmlns="http://www.w3.org/2000/svg">
<path d="M19 9H11V0.999987C11 0.642621 10.8094 0.3125 10.5 0.133929C10.1906 -0.0446429 9.80937 -0.0446429 9.5 0.133929C9.19063 0.3125 9 0.642632 9 0.999987V9H0.999987C0.642621 9 0.3125 9.19062 0.133929 9.5C-0.0446429 9.80938 -0.0446429 10.1906 0.133929 10.5C0.3125 10.8094 0.642633 11 0.999987 11H9V19C9 19.3574 9.19062 19.6875 9.5 19.8661C9.80938 20.0446 10.1906 20.0446 10.5 19.8661C10.8094 19.6875 11 19.3574 11 19V11H19C19.3574 11 19.6875 10.8094 19.8661 10.5C20.0446 10.1906 20.0446 9.80937 19.8661 9.5C19.6875 9.19063 19.3574 9 19 9Z" fill="#AEAEAE"/>
</svg>
