<svg xmlns="http://www.w3.org/2000/svg" width="70.171" height="70.171" viewBox="0 0 70.171 70.171">
  <g id="Group_3985" data-name="Group 3985" transform="translate(-769.108 -2219.721)">
    <g id="monthly" transform="translate(634.108 1885.108)">
      <path id="Path_1628" data-name="Path 1628" d="M85,23.017H81.493v-1.17a1.17,1.17,0,0,0-1.17-1.17H72.137v-1.17a3.509,3.509,0,1,0-7.017,0v1.17H62.781v-1.17a3.509,3.509,0,0,0-7.017,0v1.17H41.729v-1.17a3.509,3.509,0,1,0-7.017,0v1.17H32.373v-1.17a3.509,3.509,0,1,0-7.017,0v1.17H17.17A1.17,1.17,0,0,0,16,21.848V80.323a1.17,1.17,0,0,0,1.17,1.17h1.17V85a1.17,1.17,0,0,0,1.17,1.17H85A1.17,1.17,0,0,0,86.171,85V24.187A1.17,1.17,0,0,0,85,23.017ZM18.339,79.154v-42.1H79.154v42.1Zm49.12-59.645a1.17,1.17,0,0,1,2.339,0v1.17H67.459Zm-9.356,0a1.17,1.17,0,0,1,2.339,0v1.17H58.1Zm-21.051,0a1.17,1.17,0,0,1,2.339,0v1.17H37.051Zm-9.356,0a1.17,1.17,0,1,1,2.339,0v1.17H27.7Zm-2.339,3.509v1.17A3.513,3.513,0,0,0,28.865,27.7a1.17,1.17,0,0,0,0-2.339,1.171,1.171,0,0,1-1.17-1.17v-1.17h7.017v1.17A3.513,3.513,0,0,0,38.221,27.7a1.17,1.17,0,0,0,0-2.339,1.171,1.171,0,0,1-1.17-1.17v-1.17H55.764v1.17A3.513,3.513,0,0,0,59.272,27.7a1.17,1.17,0,0,0,0-2.339,1.171,1.171,0,0,1-1.17-1.17v-1.17H65.12v1.17A3.513,3.513,0,0,0,68.628,27.7a1.17,1.17,0,1,0,0-2.339,1.171,1.171,0,0,1-1.17-1.17v-1.17h11.7v11.7H18.339v-11.7ZM83.832,83.832H20.678V81.493H80.323a1.17,1.17,0,0,0,1.17-1.17V25.356h2.339Z" transform="translate(119 318.612)" fill="#e3e3e3"/>
    </g>
    <path id="Path_1629" data-name="Path 1629" d="M268.413,67.195a.448.448,0,1,0-.634.635l6.567,6.562a.448.448,0,0,0,.317.131h.031a.45.45,0,0,0,.327-.177,12.046,12.046,0,0,0-8.535-19.256.448.448,0,1,0-.08.893,11.148,11.148,0,0,1,8.2,17.4Zm0,0" transform="translate(535.906 2194.813)" fill="#23b7c0" stroke="#23b7c0" stroke-width="0.8"/>
    <path id="Path_1630" data-name="Path 1630" d="M138.357,55.5a.449.449,0,0,0-.487-.407,12.014,12.014,0,0,0-6.179,2.384.448.448,0,0,0-.046.675l8.214,8.206a.448.448,0,0,0,.634-.634l-7.84-7.834a11.112,11.112,0,0,1,5.3-1.9A.449.449,0,0,0,138.357,55.5Zm0,0" transform="translate(662.35 2194.812)" fill="#23b7c0" stroke="#23b7c0" stroke-width="0.8"/>
    <path id="Path_1631" data-name="Path 1631" d="M57.095,131.948a.449.449,0,0,0-.327.178,11.937,11.937,0,0,0-2.409,7.225,12.059,12.059,0,0,0,19.287,9.639.448.448,0,0,0,.048-.676l-16.25-16.236A.449.449,0,0,0,57.095,131.948ZM66.415,150.5a11.167,11.167,0,0,1-11.159-11.149,11.042,11.042,0,0,1,1.927-6.265l15.5,15.489A11.064,11.064,0,0,1,66.415,150.5Zm0,0" transform="translate(734.891 2122.547)" fill="#23b7c0" stroke="#23b7c0" stroke-width="0.8"/>
    <path id="Path_1632" data-name="Path 1632" d="M26.129,4.479a15.316,15.316,0,0,0-21.646,0,15.293,15.293,0,0,0,9.746,26.07.448.448,0,0,0,.062-.895,14.417,14.417,0,1,1,2.031,0,.448.448,0,0,0,.031.9h.032a15.29,15.29,0,0,0,9.746-26.07Zm0,0" transform="translate(786 2246.604)" fill="#23b7c0" stroke="#23b7c0" stroke-width="0.8"/>
  </g>
</svg>
