<svg xmlns="http://www.w3.org/2000/svg" width="70.171" height="70.171" viewBox="0 0 70.171 70.171">
  <g id="monthly" transform="translate(-135 -334.612)">
    <path id="Path_1628" data-name="Path 1628" d="M85,23.017H81.493v-1.17a1.17,1.17,0,0,0-1.17-1.17H72.137v-1.17a3.509,3.509,0,1,0-7.017,0v1.17H62.781v-1.17a3.509,3.509,0,0,0-7.017,0v1.17H41.729v-1.17a3.509,3.509,0,1,0-7.017,0v1.17H32.373v-1.17a3.509,3.509,0,1,0-7.017,0v1.17H17.17A1.17,1.17,0,0,0,16,21.848V80.323a1.17,1.17,0,0,0,1.17,1.17h1.17V85a1.17,1.17,0,0,0,1.17,1.17H85A1.17,1.17,0,0,0,86.171,85V24.187A1.17,1.17,0,0,0,85,23.017ZM18.339,79.154v-42.1H79.154v42.1Zm49.12-59.645a1.17,1.17,0,0,1,2.339,0v1.17H67.459Zm-9.356,0a1.17,1.17,0,0,1,2.339,0v1.17H58.1Zm-21.051,0a1.17,1.17,0,0,1,2.339,0v1.17H37.051Zm-9.356,0a1.17,1.17,0,1,1,2.339,0v1.17H27.7Zm-2.339,3.509v1.17A3.513,3.513,0,0,0,28.865,27.7a1.17,1.17,0,0,0,0-2.339,1.171,1.171,0,0,1-1.17-1.17v-1.17h7.017v1.17A3.513,3.513,0,0,0,38.221,27.7a1.17,1.17,0,0,0,0-2.339,1.171,1.171,0,0,1-1.17-1.17v-1.17H55.764v1.17A3.513,3.513,0,0,0,59.272,27.7a1.17,1.17,0,0,0,0-2.339,1.171,1.171,0,0,1-1.17-1.17v-1.17H65.12v1.17A3.513,3.513,0,0,0,68.628,27.7a1.17,1.17,0,1,0,0-2.339,1.171,1.171,0,0,1-1.17-1.17v-1.17h11.7v11.7H18.339v-11.7ZM83.832,83.832H20.678V81.493H80.323a1.17,1.17,0,0,0,1.17-1.17V25.356h2.339Z" transform="translate(119 318.612)" fill="#e3e3e3"/>
  </g>
</svg>
