<svg width="36" height="37" viewBox="0 0 36 37" fill="none" xmlns="http://www.w3.org/2000/svg">
<path d="M32.6893 0H3.31065C1.48223 0 0 1.5234 0 3.40262V33.5974C0 35.4766 1.48223 37 3.31065 37H32.6893C34.5178 37 36 35.4766 36 33.5974V3.40262C36 1.5234 34.5178 0 32.6893 0Z" fill="black"/>
<path fill-rule="evenodd" clip-rule="evenodd" d="M19.9282 5.96777L19.9187 11.5143L19.9092 17.0608L19.4652 15.7732C19.4651 15.7727 19.4645 15.7711 19.4644 15.7707L18.8906 28.1186C19.4547 29.7559 19.7569 30.6299 19.7603 30.6334C19.7648 30.6379 20.0863 30.6579 20.4747 30.6777C21.6517 30.7377 23.1102 30.8663 24.2166 31.0076C24.4728 31.0403 24.6932 31.0571 24.7065 31.0449C24.7198 31.0326 24.727 25.3853 24.7226 18.4952L24.7145 5.96777H22.3214H19.9282Z" fill="#B1060F" stroke="black" stroke-width="0.0820533"/>
<path fill-rule="evenodd" clip-rule="evenodd" d="M11.2734 5.95117V18.4913C11.2734 25.3884 11.28 31.0382 11.288 31.0465C11.2961 31.0547 11.7117 31.0144 12.2116 30.9569C12.7115 30.8993 13.4024 30.8278 13.7469 30.7979C14.2753 30.752 15.8528 30.6478 16.0355 30.6466C16.0886 30.6463 16.0921 30.3645 16.0998 25.3352L16.1079 20.0241L16.4896 21.134C16.5486 21.3056 16.5671 21.3592 16.6246 21.5263L17.1981 9.18136C17.0766 8.82821 17.1403 9.0136 17.001 8.60887C16.5324 7.247 16.1347 6.0919 16.1173 6.04196L16.0855 5.95117H13.6795H11.2734Z" fill="#B1060F" stroke="black" stroke-width="0.0820533"/>
<path fill-rule="evenodd" clip-rule="evenodd" d="M11.2734 5.95117V12.9903L16.0981 26.144C16.0986 25.8426 16.0992 25.6797 16.0998 25.3352L16.1079 20.0241L16.4896 21.134C18.6143 27.3132 19.7559 30.6264 19.7626 30.6333C19.767 30.6378 20.0885 30.6578 20.4769 30.6776C21.6539 30.7376 23.1124 30.8662 24.2188 31.0075C24.475 31.0402 24.6955 31.057 24.7087 31.0448C24.7179 31.0364 24.7238 28.2673 24.7254 24.361L19.9233 10.1714L19.921 11.5142L19.9114 17.0607L19.4674 15.7731C19.0336 14.515 18.7439 13.6736 17.001 8.60887C16.5324 7.247 16.1347 6.0919 16.1173 6.04196L16.0855 5.95117H13.6795H11.2734H11.2734Z" fill="url(#paint0_radial_10_9407)"/>
<path fill-rule="evenodd" clip-rule="evenodd" d="M11.2734 5.95117L16.1078 20.0305V20.0241L16.4895 21.134C18.6142 27.3132 19.7558 30.6264 19.7625 30.6333C19.7669 30.6378 20.0884 30.6578 20.4769 30.6776C21.6538 30.7376 23.1123 30.8662 24.2187 31.0075C24.4736 31.0401 24.6929 31.0568 24.7082 31.0449L19.9113 17.0581V17.0607L19.4673 15.7731C19.0335 14.515 18.7439 13.6736 17.0009 8.60887C16.5323 7.247 16.1346 6.0919 16.1172 6.04196L16.0854 5.95117H13.6794H11.2734V5.95117Z" fill="#E50914"/>
<path fill-rule="evenodd" clip-rule="evenodd" d="M19.9282 5.96777L19.9187 11.5143L19.9092 17.0608L19.4652 15.7732C19.4651 15.7727 19.4645 15.7711 19.4644 15.7707L18.8906 28.1186C19.4547 29.7559 19.7569 30.6299 19.7603 30.6334C19.7648 30.6379 20.0863 30.6579 20.4747 30.6777C21.6517 30.7377 23.1102 30.8663 24.2166 31.0076C24.4728 31.0403 24.6932 31.0571 24.7065 31.0449C24.7198 31.0326 24.727 25.3853 24.7226 18.4952L24.7145 5.96777H22.3214H19.9282Z" fill="#B1060F" stroke="black" stroke-width="0.0820533"/>
<path fill-rule="evenodd" clip-rule="evenodd" d="M11.2734 5.95117V18.4913C11.2734 25.3884 11.28 31.0382 11.288 31.0465C11.2961 31.0547 11.7117 31.0144 12.2116 30.9569C12.7115 30.8993 13.4024 30.8278 13.7469 30.7979C14.2753 30.752 15.8528 30.6478 16.0355 30.6466C16.0886 30.6463 16.0921 30.3645 16.0998 25.3352L16.1079 20.0241L16.4896 21.134C16.5486 21.3056 16.5671 21.3592 16.6246 21.5263L17.1981 9.18136C17.0766 8.82821 17.1403 9.0136 17.001 8.60887C16.5324 7.247 16.1347 6.0919 16.1173 6.04196L16.0855 5.95117H13.6795H11.2734Z" fill="#B1060F" stroke="black" stroke-width="0.0820533"/>
<path fill-rule="evenodd" clip-rule="evenodd" d="M11.2734 5.95117V12.9903L16.0981 26.144C16.0986 25.8426 16.0992 25.6797 16.0998 25.3352L16.1079 20.0241L16.4896 21.134C18.6143 27.3132 19.7559 30.6264 19.7626 30.6333C19.767 30.6378 20.0885 30.6578 20.4769 30.6776C21.6539 30.7376 23.1124 30.8662 24.2188 31.0075C24.475 31.0402 24.6955 31.057 24.7087 31.0448C24.7179 31.0364 24.7238 28.2673 24.7254 24.361L19.9233 10.1714L19.921 11.5142L19.9114 17.0607L19.4674 15.7731C19.0336 14.515 18.7439 13.6736 17.001 8.60887C16.5324 7.247 16.1347 6.0919 16.1173 6.04196L16.0855 5.95117H13.6795H11.2734H11.2734Z" fill="url(#paint1_radial_10_9407)"/>
<path fill-rule="evenodd" clip-rule="evenodd" d="M11.2734 5.95117L16.1078 20.0305V20.0241L16.4895 21.134C18.6142 27.3132 19.7558 30.6264 19.7625 30.6333C19.7669 30.6378 20.0884 30.6578 20.4769 30.6776C21.6538 30.7376 23.1123 30.8662 24.2187 31.0075C24.4736 31.0401 24.6929 31.0568 24.7082 31.0449L19.9113 17.0581V17.0607L19.4673 15.7731C19.0335 14.515 18.7439 13.6736 17.0009 8.60887C16.5323 7.247 16.1346 6.0919 16.1172 6.04196L16.0854 5.95117H13.6794H11.2734V5.95117Z" fill="#E50914"/>
<defs>
<radialGradient id="paint0_radial_10_9407" cx="0" cy="0" r="1" gradientUnits="userSpaceOnUse" gradientTransform="translate(17.7761 18.3541) rotate(-19.5888) scale(3.05814 114.439)">
<stop/>
<stop offset="1" stop-opacity="0"/>
</radialGradient>
<radialGradient id="paint1_radial_10_9407" cx="0" cy="0" r="1" gradientUnits="userSpaceOnUse" gradientTransform="translate(17.7761 18.3541) rotate(-19.5888) scale(3.05814 114.439)">
<stop/>
<stop offset="1" stop-opacity="0"/>
</radialGradient>
</defs>
</svg>
