<svg xmlns="http://www.w3.org/2000/svg" width="21.261" height="26" viewBox="0 0 21.261 26">
  <g id="content" transform="translate(0 -0.5)">
    <path id="Path_2014" data-name="Path 2014" d="M17.686.5H3.575A3.579,3.579,0,0,0,0,4.075V22.925A3.579,3.579,0,0,0,3.575,26.5h14.11a3.579,3.579,0,0,0,3.575-3.575V4.075A3.579,3.579,0,0,0,17.686.5ZM19.6,22.925a1.912,1.912,0,0,1-1.91,1.91H3.575a1.912,1.912,0,0,1-1.91-1.91V4.075a1.912,1.912,0,0,1,1.91-1.91h14.11a1.912,1.912,0,0,1,1.91,1.91Zm0,0" transform="translate(0)" fill="#fff"/>
    <path id="Path_2015" data-name="Path 2015" d="M67.561,99.137h-4.97a.833.833,0,0,0,0,1.666h4.97a.833.833,0,0,0,0-1.666Zm0,0" transform="translate(-58.329 -93.16)" fill="#fff"/>
    <path id="Path_2016" data-name="Path 2016" d="M67.561,159.141h-4.97a.833.833,0,0,0,0,1.666h4.97a.833.833,0,0,0,0-1.666Zm0,0" transform="translate(-58.329 -149.833)" fill="#fff"/>
    <path id="Path_2017" data-name="Path 2017" d="M67.561,219.145h-4.97a.833.833,0,1,0,0,1.666h4.97a.833.833,0,1,0,0-1.666Zm0,0" transform="translate(-58.329 -206.505)" fill="#fff"/>
    <path id="Path_2018" data-name="Path 2018" d="M67.561,279.148h-4.97a.833.833,0,1,0,0,1.666h4.97a.833.833,0,1,0,0-1.666Zm0,0" transform="translate(-58.329 -263.178)" fill="#fff"/>
    <path id="Path_2019" data-name="Path 2019" d="M67.561,340.156h-4.97a.833.833,0,0,0,0,1.666h4.97a.833.833,0,0,0,0-1.666Zm0,0" transform="translate(-58.329 -320.798)" fill="#fff"/>
    <path id="Path_2020" data-name="Path 2020" d="M207.459,99.137h-4.97a.833.833,0,0,0,0,1.666h4.97a.833.833,0,0,0,0-1.666Zm0,0" transform="translate(-190.46 -93.16)" fill="#fff"/>
    <path id="Path_2021" data-name="Path 2021" d="M207.459,159.141h-4.97a.833.833,0,0,0,0,1.666h4.97a.833.833,0,0,0,0-1.666Zm0,0" transform="translate(-190.46 -149.833)" fill="#fff"/>
  </g>
</svg>
