<svg width="31" height="31" viewBox="0 0 31 31" fill="none" xmlns="http://www.w3.org/2000/svg">
<rect x="0.2" y="0.2" width="30.6" height="30.6" rx="3.8" fill="white"/>
<g clip-path="url(#clip0_1837_8996)">
<path d="M21.6756 16.5151C21.5595 15.7411 21.2346 15.0709 20.6652 14.5432C19.7759 13.7199 18.7245 13.4697 17.5614 13.6929C16.7616 13.8457 16.0984 14.2529 15.5879 14.9061C15.1056 15.5239 14.8714 16.2376 14.8646 17.0235C14.8548 18.1026 14.8618 19.1821 14.8618 20.2612C14.8618 20.2834 14.864 20.3056 14.8652 20.3294H16.582V20.2325C16.5828 19.2164 16.584 18.2004 16.5856 17.1846C16.5846 17.0377 16.5946 16.891 16.6155 16.7457C16.6962 16.222 16.9362 15.798 17.3855 15.5149C17.7083 15.3121 18.0634 15.2398 18.4386 15.2714C18.991 15.318 19.4288 15.5692 19.7264 16.0548C19.9315 16.3894 19.9985 16.7622 19.9987 17.1512C19.9987 18.1799 19.9987 19.2085 19.9987 20.2371V20.3334H21.7223V20.2357C21.7223 19.2019 21.7247 18.1682 21.7202 17.1346C21.7203 16.9272 21.7054 16.7202 21.6756 16.5151Z" fill="#220750"/>
<path d="M16.6208 12.8803L16.7925 12.8117C16.782 12.777 16.775 12.7505 16.7661 12.7245C16.6317 12.3358 16.2883 11.3294 16.2518 11.2146L16.245 11.2114C16.1025 11.2692 15.9589 11.3242 15.8176 11.3851C14.3686 12.0087 13.3236 13.0551 12.6826 14.5243C12.3138 15.3702 12.1232 16.2628 12.0211 17.1775C11.9763 17.5783 11.9008 17.9759 11.7797 18.3597C11.358 19.6972 10.5555 20.6703 9.33137 21.2375C9.1991 21.2987 9.06265 21.3506 8.92188 21.4093C9.10535 21.9393 9.28808 22.4671 9.4726 22.999C9.5247 22.9801 9.56859 22.9645 9.61233 22.948C11.1957 22.3492 12.3452 21.2725 13.0351 19.6903C13.4032 18.8456 13.5938 17.9546 13.6952 17.0403C13.7451 16.5906 13.8348 16.1453 13.9818 15.7187C14.4523 14.3531 15.3244 13.3982 16.6208 12.8803Z" fill="#220750"/>
<path d="M10.5469 18.6278C10.868 17.9247 10.9384 17.1841 10.8023 16.4246C10.6291 15.4585 10.1462 14.6917 9.33136 14.1697C8.38652 13.5643 7.36509 13.4567 6.31022 13.7997C5.33059 14.1181 4.6373 14.778 4.25004 15.7563C3.99372 16.4068 3.94251 17.0819 4.0597 17.7708C4.17465 18.4473 4.45502 19.0418 4.92199 19.5363C5.60767 20.262 6.45966 20.587 7.29074 20.6018C7.74264 20.6009 8.04748 20.5679 8.34502 20.4858C9.35301 20.2075 10.102 19.6011 10.5469 18.6278ZM9.13759 17.191C9.12116 17.6335 8.99681 18.0397 8.70793 18.3778C8.3374 18.8119 7.86252 18.9958 7.30463 18.9586C6.50414 18.9063 5.86012 18.2972 5.74979 17.4102C5.73695 17.3073 5.73218 17.2034 5.72382 17.1001C5.73262 16.6797 5.82414 16.2849 6.07255 15.9428C6.40293 15.4877 6.85811 15.2711 7.40405 15.2669C8.07719 15.2615 8.6009 15.5444 8.92679 16.1618C9.09579 16.4817 9.15042 16.831 9.13759 17.1908V17.191Z" fill="#220750"/>
<path d="M24.5417 7H22.875V15.2164H24.5417V7Z" fill="#FF00D1"/>
<path d="M27.4288 10.2162C26.2463 10.6559 25.3897 10.6078 24.5344 10.4317L22.8679 10.0431C21.9261 9.8568 20.8425 9.77976 19.4531 10.1997L19.9249 11.8364C21.1234 11.4742 21.9792 11.5816 22.8679 11.7864L24.5344 12.1668C24.9066 12.2314 25.2832 12.2647 25.6607 12.2661C26.3455 12.2661 27.1118 12.1504 27.9979 11.8208L27.4288 10.2162Z" fill="#FF00D1"/>
</g>
<rect x="0.2" y="0.2" width="30.6" height="30.6" rx="3.8" stroke="#E5E5E5" stroke-width="0.4"/>
<defs>
<clipPath id="clip0_1837_8996">
<rect width="24" height="16" fill="white" transform="translate(4 7)"/>
</clipPath>
</defs>
</svg>
