<svg width="31" height="31" viewBox="0 0 31 31" fill="none" xmlns="http://www.w3.org/2000/svg">
<rect x="0.2" y="0.2" width="30.6" height="30.6" rx="3.8" fill="white"/>
<g clip-path="url(#clip0_1837_8979)">
<path d="M18.4765 15.0001C18.5029 13.9159 18.9635 12.8848 19.76 12.1271C20.5565 11.3694 21.6257 10.9452 22.739 10.9452C23.8523 10.9452 24.9214 11.3694 25.7179 12.1271C26.5144 12.8848 26.975 13.9159 27.0014 15.0001V18.8375H24.8528V15.0001C24.8702 14.7193 24.8284 14.438 24.7301 14.1735C24.6317 13.909 24.4788 13.6669 24.2808 13.4621C24.0829 13.2573 23.844 13.094 23.5788 12.9825C23.3137 12.8709 23.028 12.8134 22.7392 12.8134C22.4504 12.8134 22.1647 12.8709 21.8995 12.9825C21.6344 13.094 21.3955 13.2573 21.1976 13.4621C20.9996 13.6669 20.8467 13.909 20.7484 14.1735C20.65 14.438 20.6082 14.7193 20.6256 15.0001L20.6198 18.8375H18.477L18.4765 15.0001ZM9.26362 10.8468C8.42035 10.8468 7.59601 11.0903 6.89486 11.5467C6.1937 12.0031 5.64722 12.6518 5.32451 13.4107C5.00181 14.1696 4.91743 15.0047 5.08194 15.8104C5.24646 16.616 5.6525 17.3561 6.24878 17.937C6.84506 18.5178 7.6048 18.9134 8.43187 19.0737C9.25894 19.2339 10.1162 19.1517 10.8953 18.8373C11.6743 18.5229 12.3403 17.9906 12.8088 17.3076C13.2773 16.6246 13.5273 15.8216 13.5273 15.0001C13.5407 14.4511 13.4397 13.9052 13.2302 13.3953C13.0207 12.8855 12.7071 12.4224 12.3085 12.0341C11.9098 11.6458 11.4344 11.3403 10.911 11.1362C10.3877 10.9321 9.82721 10.8337 9.26362 10.8468ZM11.3778 15.0001C11.3968 15.2819 11.3562 15.5645 11.2585 15.8303C11.1609 16.0962 11.0083 16.3398 10.8101 16.5459C10.612 16.752 10.3725 16.9163 10.1065 17.0286C9.84058 17.141 9.5538 17.1989 9.26392 17.1989C8.97403 17.1989 8.68719 17.141 8.42123 17.0286C8.15526 16.9163 7.91581 16.752 7.71766 16.5459C7.51951 16.3398 7.36688 16.0962 7.26924 15.8303C7.17161 15.5645 7.13101 15.2819 7.15 15.0001C7.13321 14.7196 7.17546 14.4387 7.2741 14.1746C7.37274 13.9106 7.52569 13.6689 7.72363 13.4645C7.92157 13.2602 8.16029 13.0973 8.42515 12.986C8.69001 12.8747 8.97546 12.8174 9.26392 12.8174C9.55237 12.8174 9.83777 12.8747 10.1026 12.986C10.3675 13.0973 10.6062 13.2602 10.8041 13.4645C11.0021 13.6689 11.155 13.9106 11.2537 14.1746C11.3523 14.4387 11.3946 14.7196 11.3778 15.0001ZM20.8939 9.90131C19.2109 10.4613 17.3828 11.893 17.0317 15.0006C16.6532 18.3494 15.0445 20.9025 11.7965 22.0006L11.1085 20.0994C12.7915 19.5394 14.6196 18.1081 14.9707 15.0001C15.3487 11.6513 16.9579 9.09819 20.2059 8.00012L20.8939 9.90131Z" fill="#FF0000"/>
</g>
<rect x="0.2" y="0.2" width="30.6" height="30.6" rx="3.8" stroke="#E5E5E5" stroke-width="0.4"/>
<defs>
<clipPath id="clip0_1837_8979">
<rect width="22" height="14" fill="white" transform="translate(5 8)"/>
</clipPath>
</defs>
</svg>
