<svg xmlns="http://www.w3.org/2000/svg" width="60.59" height="60" viewBox="0 0 60.59 60">
  <g id="paper" transform="translate(0 -2.493)">
    <path id="Path_2586" data-name="Path 2586" d="M60.091,9.845,52.938,3.024a1.451,1.451,0,0,0-1.079-.531H23.207a1.519,1.519,0,0,0-1.518,1.518V8.671L11.59,10.4a1.5,1.5,0,0,0-1.214,1.725l.513,2.988c-3.282,1.1-6.652,2.243-9.906,3.412a1.5,1.5,0,0,0-.9,1.909l6.471,17.99a.888.888,0,0,0,1.67-.6L1.852,20.1c3.065-1.1,6.239-2.171,9.341-3.216l3.05,17.78,3.509,20.477a1.5,1.5,0,0,0,1.725,1.217l9.5-1.631,7.427-1.273-11.17,4.015L16.43,60.638,9.589,41.61a.888.888,0,0,0-1.67.6l6.938,19.3a1.5,1.5,0,0,0,1.4.984,1.468,1.468,0,0,0,.5-.09l9.073-3.262,20.6-7.4,3.936-.675h8.695A1.521,1.521,0,0,0,60.59,49.54v-38.7a1.277,1.277,0,0,0-.5-1Zm-2.352.21H53.188c-.213,0-.711.005-.837-.12a.5.5,0,0,1-.063-.306l-.01-4.783Zm1.075,39.231H23.464v-17.3a.888.888,0,1,0-1.775,0V49.54a1.521,1.521,0,0,0,1.518,1.521H39.87L28.682,52.979l-9.228,1.584-3.461-20.2L12.174,12.1l9.515-1.631v17.4a.888.888,0,1,0,1.775,0V4.268H50.5l.012,5.364A2.113,2.113,0,0,0,51.1,11.2a2.714,2.714,0,0,0,1.972.636h5.742Z"/>
    <path id="Path_2587" data-name="Path 2587" d="M234.43,112.337a.888.888,0,0,0,.888.888h25.376a.888.888,0,0,0,0-1.775H235.318A.888.888,0,0,0,234.43,112.337Z" transform="translate(-206.688 -96.062)" fill="#d12b8a"/>
    <path id="Path_2588" data-name="Path 2588" d="M260.694,164.731H235.318a.888.888,0,1,0,0,1.775h25.376a.888.888,0,1,0,0-1.775Z" transform="translate(-206.688 -143.039)" fill="#d12b8a"/>
    <path id="Path_2589" data-name="Path 2589" d="M260.694,218.013H235.318a.888.888,0,0,0,0,1.775h25.376a.888.888,0,1,0,0-1.775Z" transform="translate(-206.688 -190.015)" fill="#d12b8a"/>
    <path id="Path_2590" data-name="Path 2590" d="M260.694,271.3H235.318a.888.888,0,1,0,0,1.775h25.376a.888.888,0,1,0,0-1.775Z" transform="translate(-206.688 -236.992)" fill="#d12b8a"/>
    <path id="Path_2591" data-name="Path 2591" d="M260.694,324.578H235.318a.888.888,0,1,0,0,1.775h25.376a.888.888,0,1,0,0-1.775Z" transform="translate(-206.688 -283.97)" fill="#d12b8a"/>
  </g>
</svg>
