<svg xmlns="http://www.w3.org/2000/svg" width="23" height="23.374" viewBox="0 0 23 23.374">
  <path id="Shape" d="M17.6,0H4.4A4.405,4.405,0,0,0,0,4.4v9.533a4.4,4.4,0,0,0,4.4,4.4H14.719L17.8,21.766A.727.727,0,0,0,18.33,22a.739.739,0,0,0,.336-.081.722.722,0,0,0,.39-.78L18.583,18.2A4.46,4.46,0,0,0,22,13.933V4.4A4.405,4.405,0,0,0,17.6,0Zm0,.733a3.649,3.649,0,0,1,2.288.807L12.244,8.9l-.227.22a1.473,1.473,0,0,1-2.034,0L2.112,1.54A3.648,3.648,0,0,1,4.4.733ZM.733,13.933V4.4a3.649,3.649,0,0,1,.854-2.347L8.972,9.167,1.587,16.28a3.651,3.651,0,0,1-.854-2.347ZM18.4,17.49a.731.731,0,0,0-.545.826l.48,2.954-3.073-3.428a.733.733,0,0,0-.546-.242H4.4a3.647,3.647,0,0,1-2.288-.807L9.5,9.674a2.172,2.172,0,0,0,2.995,0l7.37,7.1a3.734,3.734,0,0,1-1.464.719Zm2.863-3.557a3.608,3.608,0,0,1-.873,2.329l-7.364-7.1,7.384-7.113A3.649,3.649,0,0,1,21.267,4.4Z" transform="translate(0.5 0.5)" fill="#d12b8a" stroke="#d12b8a" stroke-width="1"/>
</svg>
