<svg id="password" xmlns="http://www.w3.org/2000/svg" width="18.984" height="26" viewBox="0 0 18.984 26">
  <path id="Path_2023" data-name="Path 2023" d="M172.676,296.878a.762.762,0,0,0,.762-.762v-3.155a.762.762,0,0,0-1.523,0v3.155A.762.762,0,0,0,172.676,296.878Zm0,0" transform="translate(-163.184 -277.361)" fill="#fff"/>
  <path id="Path_2024" data-name="Path 2024" d="M18.222,8.355H14.617V4.645A4.908,4.908,0,0,0,9.492,0,4.908,4.908,0,0,0,4.367,4.645V8.355H.762A.762.762,0,0,0,0,9.117v9.741A7.15,7.15,0,0,0,7.142,26h4.7a7.15,7.15,0,0,0,7.142-7.142V9.117A.762.762,0,0,0,18.222,8.355ZM5.89,4.645a3.391,3.391,0,0,1,3.6-3.121,3.391,3.391,0,0,1,3.6,3.121V8.355H5.89ZM17.46,18.858a5.625,5.625,0,0,1-5.618,5.618h-4.7a5.625,5.625,0,0,1-5.618-5.618V9.879H17.46Zm0,0" fill="#fff"/>
</svg>
