<svg width="52" height="52" viewBox="0 0 52 52" fill="none" xmlns="http://www.w3.org/2000/svg">
<path d="M3.6 18H48.4M3.6 34H48.4M24.6667 2C20.1742 9.19897 17.7925 17.5143 17.7925 26C17.7925 34.4857 20.1742 42.801 24.6667 50M27.3333 2C31.8258 9.19897 34.2075 17.5143 34.2075 26C34.2075 34.4857 31.8258 42.801 27.3333 50M50 26C50 39.2548 39.2548 50 26 50C12.7452 50 2 39.2548 2 26C2 12.7452 12.7452 2 26 2C39.2548 2 50 12.7452 50 26Z" stroke="#D12B8A" stroke-width="4" stroke-linecap="round" stroke-linejoin="round"/>
</svg>
