<svg xmlns="http://www.w3.org/2000/svg" width="50" height="50" viewBox="0 0 50 50">
  <g id="Group_2772" data-name="Group 2772" transform="translate(-873 -2281)">
    <g id="XMLID_684_" transform="translate(873 2281)">
      <g id="XMLID_685_">
        <path id="XMLID_699_" d="M452.977,153.953a.977.977,0,1,0-.69-.286A.983.983,0,0,0,452.977,153.953Z" transform="translate(-407.859 -137.156)"/>
        <path id="XMLID_698_" d="M187.342,443.667h-.015a.977.977,0,0,0,0,1.953h.015a.977.977,0,1,0,0-1.953Z" transform="translate(-168.153 -400.34)"/>
        <path id="XMLID_691_" d="M50,39.218V6.836a2.933,2.933,0,0,0-2.93-2.93H43.725V3.32a3.32,3.32,0,0,0-6.641,0v.586H28.308V3.32a3.32,3.32,0,0,0-6.641,0v.586H12.891V3.32a3.32,3.32,0,0,0-6.641,0v.586H2.93A2.933,2.933,0,0,0,0,6.836V47.07A2.933,2.933,0,0,0,2.93,50H39.218a.973.973,0,0,0,.69-.286h0l9.806-9.806h0A.974.974,0,0,0,50,39.218ZM39.038,3.32a1.367,1.367,0,0,1,2.734,0V8.105a1.367,1.367,0,0,1-2.734,0Zm-15.417,0a1.367,1.367,0,1,1,2.734,0V8.105a1.367,1.367,0,0,1-2.734,0V3.32ZM8.2,3.32a1.367,1.367,0,0,1,2.734,0V8.105a1.367,1.367,0,0,1-2.734,0ZM1.953,47.07V45.28h13.33a.977.977,0,0,0,0-1.953H1.953V16.8H41.211a.977.977,0,0,0,0-1.953H1.953V6.836a.978.978,0,0,1,.977-.977H6.25V8.105a3.32,3.32,0,0,0,6.641,0V5.859h8.777V8.105a3.32,3.32,0,1,0,6.641,0V5.859h8.777V8.105a3.32,3.32,0,0,0,6.641,0V5.859H47.07a.978.978,0,0,1,.977.977V38.241H41.171a2.933,2.933,0,0,0-2.93,2.93v6.876H2.93A.978.978,0,0,1,1.953,47.07Zm38.241-.4V41.171a.978.978,0,0,1,.977-.977h5.495Z"/>
      </g>
    </g>
    <g id="price" transform="translate(888 2301.39)">
      <g id="Group_2656" data-name="Group 2656">
        <g id="Group_2655" data-name="Group 2655">
          <path id="Path_1626" data-name="Path 1626" d="M16.739,2.872A9.805,9.805,0,0,0,2.872,16.739,9.805,9.805,0,0,0,16.739,2.872ZM9.805,18.461a8.656,8.656,0,1,1,8.656-8.656A8.666,8.666,0,0,1,9.805,18.461Z" fill="#d12b8a" stroke="#d12b8a" stroke-width="0.6"/>
        </g>
      </g>
      <g id="Group_2658" data-name="Group 2658" transform="translate(6.769 3.692)">
        <g id="Group_2657" data-name="Group 2657">
          <path id="Path_1627" data-name="Path 1627" d="M180.385,101.939h-1.231a1.272,1.272,0,1,1,0-2.543h2.462a.575.575,0,1,0,0-1.149h-1.272V96.976a.575.575,0,1,0-1.149,0v1.272h-.041a2.421,2.421,0,1,0,0,4.841h1.231a1.272,1.272,0,0,1,0,2.543h-2.462a.575.575,0,1,0,0,1.149H179.2v1.272a.575.575,0,1,0,1.149,0v-1.272h.041a2.421,2.421,0,0,0,0-4.841Z" transform="translate(-176.734 -96.401)" fill="#d12b8a" stroke="#d12b8a" stroke-width="0.6"/>
        </g>
      </g>
    </g>
  </g>
</svg>
