<svg width="16" height="18" viewBox="0 0 16 18" fill="none" xmlns="http://www.w3.org/2000/svg">
<path d="M4.77723 16.8197L5.09791 14.9063L4.38359 14.8907H0.972656L3.34308 0.771552C3.35044 0.728929 3.37435 0.689186 3.4093 0.660962C3.44425 0.632739 3.48901 0.617188 3.53561 0.617188H9.28693C11.1963 0.617188 12.5139 0.990427 13.2019 1.72711C13.5244 2.07271 13.7298 2.43385 13.8291 2.83128C13.9334 3.24829 13.9352 3.74652 13.8334 4.35419L13.8261 4.39854V4.78791L14.1486 4.95955C14.4202 5.09491 14.636 5.24985 14.8016 5.42725C15.0775 5.72273 15.2559 6.09828 15.3313 6.54351C15.4092 7.00142 15.3835 7.54631 15.2559 8.16319C15.1088 8.8728 14.8709 9.49084 14.5496 9.99655C14.254 10.4625 13.8776 10.849 13.4306 11.1485C13.0038 11.4331 12.4968 11.6491 11.9235 11.7873C11.368 11.9232 10.7346 11.9918 10.0399 11.9918H9.59228C9.27221 11.9918 8.96135 12.1001 8.71732 12.2942C8.47267 12.4923 8.3108 12.763 8.26114 13.0591L8.22741 13.2313L7.66086 16.6037L7.63511 16.7275C7.62837 16.7667 7.61672 16.7863 7.59955 16.7995C7.58422 16.8116 7.56215 16.8197 7.54069 16.8197H4.77723Z" fill="#253B80"/>
<path d="M14.4507 4.45312C14.4336 4.55623 14.4139 4.66163 14.3919 4.76992C13.6334 8.42801 11.0386 9.69172 7.72451 9.69172H6.03713C5.63184 9.69172 5.29032 9.9682 5.22717 10.3437L4.36324 15.4908L4.1186 16.9497C4.07751 17.1963 4.27985 17.4186 4.54473 17.4186H7.5375C7.8919 17.4186 8.19296 17.1767 8.24875 16.8484L8.27818 16.7055L8.84167 13.3464L8.87784 13.162C8.93303 12.8326 9.23469 12.5907 9.58909 12.5907H10.0367C12.9363 12.5907 15.2061 11.4848 15.8696 8.28459C16.1467 6.94772 16.0032 5.83146 15.2699 5.04639C15.0479 4.80966 14.7726 4.61325 14.4507 4.45312Z" fill="#179BD7"/>
<path d="M13.6606 4.14636C13.5447 4.11468 13.4252 4.08588 13.3025 4.05997C13.1793 4.03462 13.053 4.01216 12.923 3.99257C12.4681 3.92346 11.9696 3.89062 11.4355 3.89062H6.92766C6.81668 3.89062 6.71122 3.91424 6.61679 3.95686C6.40894 4.05075 6.25442 4.23564 6.21702 4.462L5.25806 10.1677L5.23047 10.3342C5.29362 9.95864 5.63515 9.68217 6.04044 9.68217H7.72782C11.0419 9.68217 13.6367 8.41788 14.3952 4.76036C14.4179 4.65208 14.4369 4.54667 14.454 4.44357C14.2621 4.34796 14.0543 4.26617 13.8305 4.19647C13.7753 4.17919 13.7183 4.16249 13.6606 4.14636Z" fill="#222D65"/>
<path d="M6.2151 4.46577C6.2525 4.23941 6.40702 4.05452 6.61487 3.96121C6.70991 3.91858 6.81476 3.89497 6.92574 3.89497H11.4336C11.9676 3.89497 12.4661 3.9278 12.9211 3.99692C13.0511 4.0165 13.1774 4.03896 13.3006 4.06431C13.4233 4.09023 13.5428 4.11903 13.6587 4.15071C13.7163 4.16683 13.7734 4.18354 13.8292 4.20024C14.053 4.26993 14.2608 4.3523 14.4527 4.44734C14.6784 3.0955 14.4509 2.17507 13.6728 1.34162C12.815 0.424073 11.2668 0.03125 9.28574 0.03125H3.53442C3.12975 0.03125 2.78454 0.307724 2.722 0.683843L0.326437 14.9481C0.279225 15.2304 0.510994 15.485 0.813889 15.485H4.36462L5.25614 10.1715L6.2151 4.46577Z" fill="#253B80"/>
</svg>
