<svg xmlns="http://www.w3.org/2000/svg" width="84" height="84" viewBox="0 0 84 84">
  <g id="Group_3985" data-name="Group 3985" transform="translate(-245 -2234)">
    <g id="Ellipse_911" data-name="Ellipse 911" transform="translate(251 2240)" fill="#fff" stroke="#fbe9f3" stroke-width="6">
      <circle cx="36" cy="36" r="36" stroke="none"/>
      <circle cx="36" cy="36" r="39" fill="none"/>
    </g>
    <g id="choice" transform="translate(213.157 2257.343)">
      <path id="Path_1620" data-name="Path 1620" d="M293.189,0h-7.628a3.23,3.23,0,0,0-3.226,3.226v7.628a3.23,3.23,0,0,0,3.226,3.226h7.628a3.23,3.23,0,0,0,3.226-3.226V3.226A3.23,3.23,0,0,0,293.189,0Zm.757,10.854a.758.758,0,0,1-.757.757h-7.628a.758.758,0,0,1-.757-.757V3.226a.758.758,0,0,1,.757-.757h7.628a.758.758,0,0,1,.757.757Z" transform="translate(-205.305)" fill="#d12b8a" stroke="#fff" stroke-width="0.6"/>
      <path id="Path_1621" data-name="Path 1621" d="M81.975,17.163a3.5,3.5,0,0,0-1.641.407,3.517,3.517,0,0,0-4.666-1.113,3.52,3.52,0,0,0-3.888-1.277v-1.1h.293A3.23,3.23,0,0,0,75.3,10.854V3.226A3.23,3.23,0,0,0,72.074,0H64.446A3.23,3.23,0,0,0,61.22,3.226v7.628a3.23,3.23,0,0,0,3.226,3.226h.293v7.649a3.543,3.543,0,0,0-.641-.508,3.5,3.5,0,0,0-2.52-.467,3.008,3.008,0,0,0-2.873,3.8L60.328,31.5c.926,5.794,5.445,10.129,5.638,10.311a1.235,1.235,0,0,0,.849.338H80.7a1.235,1.235,0,0,0,1.032-.556,22.813,22.813,0,0,0,3.761-12.563V20.683h0A3.525,3.525,0,0,0,81.975,17.163ZM67.333,39.676c-1-1.058-3.928-4.477-4.573-8.607q-.007-.046-.018-.09L61.11,23.99a.661.661,0,0,1,.077-.566.723.723,0,0,1,.522-.223c.12-.011.17-.026.281-.032a1.35,1.35,0,0,1,.806.15,1.044,1.044,0,0,1,.469.654L64.673,30a1.235,1.235,0,0,0,1.049.944l.1.012a1.235,1.235,0,0,0,1.388-1.225V10.108a1.051,1.051,0,0,1,2.1,0V21.686a1.235,1.235,0,1,0,2.469,0V18.54a1.051,1.051,0,0,1,2.1,0v3.287a1.235,1.235,0,1,0,2.469,0V19.519a1.051,1.051,0,1,1,2.1,0v3.17a1.235,1.235,0,0,0,2.469,0V20.683a1.051,1.051,0,0,1,2.1,0v8.343a20.346,20.346,0,0,1-3,10.65H67.333ZM63.69,10.854V3.226a.758.758,0,0,1,.757-.757h7.628a.758.758,0,0,1,.757.757v7.628a.758.758,0,0,1-.757.757h-.293v-1.5a3.521,3.521,0,0,0-7.041,0v1.5h-.293A.758.758,0,0,1,63.69,10.854Z" stroke="#fff" stroke-width="0.6"/>
    </g>
  </g>
</svg>
