<svg xmlns="http://www.w3.org/2000/svg" width="76" height="76" viewBox="0 0 76 76">
  <g id="Group_4319" data-name="Group 4319" transform="translate(-224 -406)">
    <g id="Ellipse_891" data-name="Ellipse 891" transform="translate(224 406)" fill="#fff" stroke="#a8a8a8" stroke-width="1">
      <circle cx="38" cy="38" r="38" stroke="none"/>
      <circle cx="38" cy="38" r="37.5" fill="none"/>
    </g>
    <path id="save-money" d="M-129.915-90.014l-5.942,2.808a4.841,4.841,0,0,0-4.126-2.546l-5.481-.151a5.792,5.792,0,0,1-2.493-.644l-.558-.289a9.844,9.844,0,0,0-9.119.01l.034-1.264a.758.758,0,0,0-.736-.78h0l-6.012-.165a.758.758,0,0,0-.779.737l-.372,13.2a.758.758,0,0,0,.736.78h0l6.012.165h.02a.758.758,0,0,0,.758-.738l.018-.631,1.563-.836a2.684,2.684,0,0,1,2-.219l9.331,2.619.049.012a9.929,9.929,0,0,0,2.051.211,10.112,10.112,0,0,0,4.228-.923.739.739,0,0,0,.094-.052l13.526-8.752a.759.759,0,0,0,.248-1.01A3.831,3.831,0,0,0-129.915-90.014Zm-34.047,10.2.321-11.68,4.5.124-.322,11.684Zm24.551-.2a8.6,8.6,0,0,1-5.259.587l-9.306-2.609a4.193,4.193,0,0,0-3.127.342l-.8.428.214-7.772a8.339,8.339,0,0,1,8.471-.452l.558.289a7.323,7.323,0,0,0,3.149.813l5.486.151a3.326,3.326,0,0,1,3.162,2.652l-8.171-.225a.759.759,0,0,0-.78.738.76.76,0,0,0,.738.779l9.017.248h.021a.757.757,0,0,0,.758-.738,4.762,4.762,0,0,0-.073-.984l6.095-2.879.018-.009a2.319,2.319,0,0,1,2.621.367Z" transform="translate(407.385 544.785)"/>
    <path id="save-money-2" data-name="save-money" d="M-156.917-98.9a11,11,0,0,0,11,11,11,11,0,0,0,11-11,11,11,0,0,0-11-11,11,11,0,0,0-11,11Zm11-9.482a9.482,9.482,0,0,1,9.482,9.482,9.482,9.482,0,0,1-9.482,9.482A9.482,9.482,0,0,1-155.4-98.9h0a9.482,9.482,0,0,1,9.479-9.483Zm.754-3.651v-7.206a.758.758,0,0,0-.759-.759.758.758,0,0,0-.759.759v7.206a.758.758,0,0,0,.759.759A.758.758,0,0,0-145.163-112.036Zm5.69,0v-3.413a.758.758,0,0,0-.759-.759.758.758,0,0,0-.759.759h0v3.413a.758.758,0,0,0,.759.759A.758.758,0,0,0-139.474-112.036Zm-11.379,0v-3.413a.758.758,0,0,0-.759-.759.758.758,0,0,0-.758.759h0v3.413a.758.758,0,0,0,.758.759A.758.758,0,0,0-150.852-112.036Z" transform="translate(407.652 539.656)"/>
    <path id="save-money-3" data-name="save-money" d="M-145.858-94.762a.715.715,0,0,0-.26-.009,1.725,1.725,0,0,1-1.525-1.71.758.758,0,0,0-.759-.759.758.758,0,0,0-.759.759h0a3.246,3.246,0,0,0,2.387,3.124v.759a.758.758,0,0,0,.759.758.758.758,0,0,0,.759-.758v-.713a3.239,3.239,0,0,0,2.505-3.835,3.24,3.24,0,0,0-3.169-2.574,1.722,1.722,0,0,1-1.722-1.722,1.722,1.722,0,0,1,1.722-1.722,1.722,1.722,0,0,1,1.722,1.722h0a.758.758,0,0,0,.759.759.758.758,0,0,0,.759-.759,3.246,3.246,0,0,0-2.575-3.171v-.69a.758.758,0,0,0-.759-.759.758.758,0,0,0-.759.759h0v.736a3.239,3.239,0,0,0-2.277,3.975,3.239,3.239,0,0,0,3.13,2.391,1.721,1.721,0,0,1,1.729,1.712,1.721,1.721,0,0,1-1.666,1.729Z" transform="translate(407.652 539.656)" fill="#d12b8a"/>
  </g>
</svg>
