<svg xmlns="http://www.w3.org/2000/svg" width="18.281" height="24" viewBox="0 0 18.281 24">
  <g id="document" transform="translate(-61)">
    <path id="Path_2244" data-name="Path 2244" d="M78.578,2.813h-4A1.635,1.635,0,0,0,73.1,1.875h-.649l.25-1A.7.7,0,0,0,72.016,0h-3.75a.7.7,0,0,0-.682.874l.25,1h-.649a1.635,1.635,0,0,0-1.483.938h-4a.7.7,0,0,0-.7.7V23.3a.7.7,0,0,0,.7.7H78.578a.7.7,0,0,0,.7-.7V3.516A.7.7,0,0,0,78.578,2.813Zm-11.393.469h1.55a.7.7,0,0,0,.682-.874l-.25-1h1.949l-.25,1a.7.7,0,0,0,.682.874H73.1a.234.234,0,0,1,.231.2l.2,1.21H66.752l.2-1.21A.234.234,0,0,1,67.185,3.281Zm10.69,19.313H62.406V4.219h3l-.176,1.056a.7.7,0,0,0,.694.819h8.438a.7.7,0,0,0,.694-.819l-.176-1.056h3Z" fill="#d12b8a"/>
    <path id="Path_2245" data-name="Path 2245" d="M127.328,182a6.328,6.328,0,1,0,6.328,6.328A6.335,6.335,0,0,0,127.328,182Zm-2.546,10.539a1.986,1.986,0,0,1,1.951-1.632h1.191a1.986,1.986,0,0,1,1.951,1.633,4.914,4.914,0,0,1-5.093,0Zm3.718-4.211a1.172,1.172,0,0,1-2.344,0v-.937a1.172,1.172,0,0,1,2.344,0Zm2.54,3.229a3.41,3.41,0,0,0-1.628-1.713,2.564,2.564,0,0,0,.5-1.517v-.937a2.578,2.578,0,0,0-5.156,0v.938a2.564,2.564,0,0,0,.5,1.517,3.41,3.41,0,0,0-1.628,1.713,4.922,4.922,0,1,1,7.423,0Z" transform="translate(-57.187 -173.469)" fill="#d12b8a"/>
  </g>
</svg>
