<svg width="30" height="30" viewBox="0 0 30 30" fill="none" xmlns="http://www.w3.org/2000/svg">
<path d="M15 30C12.0333 30 9.13319 29.1203 6.66645 27.4721C4.19972 25.8238 2.27713 23.4812 1.14181 20.7403C0.00649926 17.9994 -0.290551 14.9834 0.288228 12.0737C0.867006 9.16394 2.29562 6.49119 4.39341 4.39341C6.49119 2.29562 9.16394 0.867006 12.0737 0.288228C14.9834 -0.290551 17.9994 0.00649926 20.7403 1.14181C23.4812 2.27713 25.8238 4.19972 27.4721 6.66645C29.1203 9.13319 30 12.0333 30 15C29.9955 18.9769 28.4137 22.7895 25.6016 25.6016C22.7895 28.4137 18.9769 29.9955 15 30ZM22.5 15C22.5 14.6022 22.342 14.2207 22.0607 13.9393C21.7794 13.658 21.3978 13.5 21 13.5H9.00001C8.60218 13.5 8.22065 13.658 7.93935 13.9393C7.65804 14.2207 7.50001 14.6022 7.50001 15C7.50001 15.3978 7.65804 15.7794 7.93935 16.0607C8.22065 16.342 8.60218 16.5 9.00001 16.5H21C21.3978 16.5 21.7794 16.342 22.0607 16.0607C22.342 15.7794 22.5 15.3978 22.5 15Z" fill="#2E2E2E"/>
</svg>
