<svg width="32" height="32" viewBox="0 0 32 32" fill="none" xmlns="http://www.w3.org/2000/svg">
<path d="M16.0001 0.40979C12.9166 0.40979 9.90244 1.32414 7.33865 3.03721C4.77486 4.75028 2.77663 7.18513 1.59665 10.0339C0.416667 12.8826 0.10793 16.0172 0.70948 19.0414C1.31103 22.0656 2.79585 24.8435 4.97617 27.0239C7.15649 29.2042 9.93439 30.689 12.9586 31.2906C15.9828 31.8921 19.1174 31.5834 21.9662 30.4034C24.8149 29.2234 27.2497 27.2252 28.9628 24.6614C30.6759 22.0976 31.5902 19.0834 31.5902 16C31.59 11.8652 29.9475 7.89994 27.0238 4.97625C24.1001 2.05257 20.1348 0.409981 16.0001 0.40979ZM23.7952 17.9486H17.9488V23.795H14.0514V17.9486H8.205V14.0513H14.0514V8.20487H17.9488V14.0513H23.7952V17.9486Z" fill="#2E2E2E"/>
</svg>
