<svg xmlns="http://www.w3.org/2000/svg" width="10" height="10" viewBox="0 0 10 10">
  <path id="Path_1260" data-name="Path 1260" d="M263.27,179.29a.609.609,0,0,0-.823-.108.5.5,0,0,0-.118.756,3.336,3.336,0,0,1,.765,2.105,3.837,3.837,0,0,1-7.646,0,3.6,3.6,0,0,1,3.235-3.454v.27a.55.55,0,0,0,.294.459.6.6,0,0,0,.294.081.92.92,0,0,0,.265-.054l1.5-.7a.567.567,0,0,0,.323-.459.482.482,0,0,0-.265-.486l-1.5-.945a.628.628,0,0,0-.618-.027.507.507,0,0,0-.323.486v.3a4.632,4.632,0,1,0,5.587,4.561,4.2,4.2,0,0,0-.97-2.78Z" transform="translate(-254.242 -176.657)" fill="#037bff"/>
</svg>
