<svg xmlns="http://www.w3.org/2000/svg" xmlns:xlink="http://www.w3.org/1999/xlink" width="24" height="24" viewBox="0 0 24 24">
  <defs>
    <clipPath id="clip-path">
      <rect id="Rectangle_3471" data-name="Rectangle 3471" width="24" height="24" transform="translate(17.5 8)" fill="#fff"/>
    </clipPath>
    <clipPath id="clip-path-2">
      <rect id="Rectangle_3476" data-name="Rectangle 3476" width="24" height="24" transform="translate(28 1120)" fill="#fff" stroke="#707070" stroke-width="1"/>
    </clipPath>
  </defs>
  <g id="Mask_Group_6" data-name="Mask Group 6" transform="translate(-17.5 -8)" clip-path="url(#clip-path)">
    <g id="roaming" transform="translate(-10.5 -1112)" clip-path="url(#clip-path-2)">
      <g id="Group_5113" data-name="Group 5113">
        <path id="Path_2390" data-name="Path 2390" d="M14.857,14.134a8.477,8.477,0,0,0-.164-11.447h0A8.476,8.476,0,0,0,8.8.008h0L8.629,0H8.206A8.476,8.476,0,0,0,2.312,2.682h0a8.476,8.476,0,0,0-.164,11.447s0,.006,0,.008.013.011.018.018a8.481,8.481,0,0,0,6.04,2.833h.165L8.5,17h.294a8.48,8.48,0,0,0,6.045-2.839.041.041,0,0,0,.013-.012C14.855,14.143,14.855,14.137,14.857,14.134ZM.594,8.793H4.112a10.832,10.832,0,0,0,.708,3.581,10.808,10.808,0,0,0-2.377,1.211A7.877,7.877,0,0,1,.594,8.793ZM2.6,3.231A10.781,10.781,0,0,0,4.918,4.369a10.823,10.823,0,0,0-.806,3.838H.594A7.879,7.879,0,0,1,2.6,3.231ZM16.4,8.207H12.888a10.823,10.823,0,0,0-.806-3.838A10.781,10.781,0,0,0,14.4,3.231a7.879,7.879,0,0,1,2.006,4.976ZM8.2,4.386A10.246,10.246,0,0,1,5.724,4.01,10.255,10.255,0,0,1,8.207.775Zm0,.586V8.207H4.7A10.237,10.237,0,0,1,5.479,4.55a10.83,10.83,0,0,0,2.728.422Zm.586,0a10.821,10.821,0,0,0,2.728-.421A10.237,10.237,0,0,1,12.3,8.207H8.793Zm0-.586V.775a10.255,10.255,0,0,1,2.49,3.235,10.246,10.246,0,0,1-2.483.376Zm3.051-.554A10.824,10.824,0,0,0,9.532.656,7.891,7.891,0,0,1,13.982,2.8a10.2,10.2,0,0,1-2.138,1.031Zm-6.688,0A10.186,10.186,0,0,1,3.018,2.8,7.89,7.89,0,0,1,7.468.656,10.82,10.82,0,0,0,5.156,3.831ZM4.7,8.793H8.207v2.942a10.811,10.811,0,0,0-2.832.452A10.236,10.236,0,0,1,4.7,8.793Zm3.509,3.528v3.9a10.25,10.25,0,0,1-2.6-3.493,10.22,10.22,0,0,1,2.6-.407Zm.586,3.9v-3.9a10.219,10.219,0,0,1,2.6.41,10.248,10.248,0,0,1-2.6,3.494Zm0-4.49V8.793H12.3a10.232,10.232,0,0,1-.678,3.394,10.8,10.8,0,0,0-2.829-.452Zm4.1-2.942h3.518a7.876,7.876,0,0,1-1.849,4.792,10.808,10.808,0,0,0-2.377-1.211,10.825,10.825,0,0,0,.7-3.577ZM2.84,14.024a10.215,10.215,0,0,1,2.2-1.108,10.816,10.816,0,0,0,2.424,3.429A7.9,7.9,0,0,1,2.84,14.024Zm6.692,2.321a10.809,10.809,0,0,0,2.424-3.429,10.222,10.222,0,0,1,2.2,1.108,7.9,7.9,0,0,1-4.624,2.32Z" transform="translate(32 1124)" fill="#70489d"/>
      </g>
    </g>
  </g>
</svg>
