<svg xmlns="http://www.w3.org/2000/svg" xmlns:xlink="http://www.w3.org/1999/xlink" width="24.049" height="27.3" viewBox="0 0 24.049 27.3">
  <defs>
    <linearGradient id="linear-gradient" y1="0.737" x2="1" y2="0.71" gradientUnits="objectBoundingBox">
      <stop offset="0" stop-color="#d12b8a"/>
      <stop offset="1" stop-color="#70489d"/>
    </linearGradient>
  </defs>
  <path id="save-money" d="M-153.156-105.1a.421.421,0,0,0-.153-.005,1.018,1.018,0,0,1-.9-1.009.448.448,0,0,0-.448-.448.448.448,0,0,0-.448.448h0a1.916,1.916,0,0,0,1.409,1.844v.448a.448.448,0,0,0,.448.448.448.448,0,0,0,.448-.448v-.421a1.912,1.912,0,0,0,1.479-2.264,1.912,1.912,0,0,0-1.871-1.52,1.017,1.017,0,0,1-1.017-1.017,1.017,1.017,0,0,1,1.017-1.017,1.017,1.017,0,0,1,1.017,1.017h0a.448.448,0,0,0,.448.448.448.448,0,0,0,.448-.448,1.916,1.916,0,0,0-1.52-1.872v-.408a.448.448,0,0,0-.448-.448.448.448,0,0,0-.448.448h0v.435a1.912,1.912,0,0,0-1.344,2.346,1.912,1.912,0,0,0,1.848,1.411,1.016,1.016,0,0,1,1.021,1.011,1.016,1.016,0,0,1-.984,1.021Zm-6.528-2.444a6.493,6.493,0,0,0,6.493,6.493,6.493,6.493,0,0,0,6.493-6.493,6.493,6.493,0,0,0-6.493-6.493,6.493,6.493,0,0,0-6.493,6.493Zm6.493-5.6a5.6,5.6,0,0,1,5.6,5.6,5.6,5.6,0,0,1-5.6,5.6,5.6,5.6,0,0,1-5.6-5.6h0a5.6,5.6,0,0,1,5.6-5.6Zm8.7,13.195L-148-98.29a2.858,2.858,0,0,0-2.436-1.5l-3.236-.089a3.419,3.419,0,0,1-1.472-.38l-.329-.171a5.811,5.811,0,0,0-5.383.006l.02-.746a.448.448,0,0,0-.435-.46h0l-3.549-.1a.447.447,0,0,0-.46.435l-.22,7.792a.448.448,0,0,0,.435.46h0l3.549.1h.012a.448.448,0,0,0,.448-.436l.01-.373.923-.494a1.584,1.584,0,0,1,1.181-.129l5.509,1.546.029.007a5.862,5.862,0,0,0,1.211.125,5.97,5.97,0,0,0,2.5-.545.439.439,0,0,0,.055-.031l7.985-5.167a.448.448,0,0,0,.147-.6A2.262,2.262,0,0,0-144.493-99.948Zm-20.1,6.021.189-6.9,2.655.073-.19,6.9Zm14.493-.117a5.079,5.079,0,0,1-3.1.347l-5.494-1.54a2.475,2.475,0,0,0-1.846.2l-.47.253.126-4.588a4.923,4.923,0,0,1,5-.267l.329.171a4.323,4.323,0,0,0,1.859.48l3.238.089a1.964,1.964,0,0,1,1.867,1.566l-4.824-.133a.448.448,0,0,0-.46.436.448.448,0,0,0,.436.46l5.323.147h.013a.447.447,0,0,0,.447-.436,2.813,2.813,0,0,0-.043-.581l3.6-1.7.01-.005a1.369,1.369,0,0,1,1.547.217Zm-2.648-21.254v-4.254a.448.448,0,0,0-.448-.448.448.448,0,0,0-.448.448v4.254a.448.448,0,0,0,.448.448A.448.448,0,0,0-152.746-115.3Zm3.359,0v-2.015a.448.448,0,0,0-.448-.448.448.448,0,0,0-.448.448h0v2.015a.448.448,0,0,0,.448.448A.448.448,0,0,0-149.387-115.3Zm-6.717,0v-2.015a.448.448,0,0,0-.448-.448.448.448,0,0,0-.448.448h0v2.015a.448.448,0,0,0,.448.448A.448.448,0,0,0-156.1-115.3Z" transform="translate(165.5 120)" fill="url(#linear-gradient)"/>
</svg>
