<svg xmlns="http://www.w3.org/2000/svg" xmlns:xlink="http://www.w3.org/1999/xlink" width="100.582" height="92.192" viewBox="0 0 100.582 92.192">
  <defs>
    <linearGradient id="linear-gradient" x1="0.154" y1="0.548" x2="0.856" y2="0.556" gradientUnits="objectBoundingBox">
      <stop offset="0" stop-color="#d12b8a"/>
      <stop offset="1" stop-color="#70489d"/>
    </linearGradient>
  </defs>
  <path id="smart-home" d="M27.354,2.41l-48.193-41.9a2.1,2.1,0,0,0-2.749,0L-71.78,2.41a2.1,2.1,0,0,0-.2,2.958,2.091,2.091,0,0,0,1.578.719h10.474V50.1a2.094,2.094,0,0,0,2.092,2.1H13.406A2.094,2.094,0,0,0,15.5,50.1V6.094H25.979A2.1,2.1,0,0,0,27.354,2.41ZM13.408,1.9a2.094,2.094,0,0,0-2.1,2.09V48H-55.74V4A2.094,2.094,0,0,0-57.834,1.9H-64.8l42.59-37.034L20.374,1.9H13.406ZM-22.214,27.048A4.19,4.19,0,0,0-26.4,31.239a4.19,4.19,0,0,0,4.191,4.191,4.19,4.19,0,0,0,4.191-4.191A4.2,4.2,0,0,0-22.214,27.048Zm0-8.378A12.472,12.472,0,0,0-32.271,23.7a2.1,2.1,0,0,0,.5,2.922,2.094,2.094,0,0,0,2.853-.4,8.629,8.629,0,0,1,12.137-1.271,8.637,8.637,0,0,1,1.271,1.271,2.1,2.1,0,0,0,2.92.512,2.1,2.1,0,0,0,.512-2.92c-.028-.04-.056-.077-.085-.113A12.486,12.486,0,0,0-22.214,18.67Zm0-8.383a20.931,20.931,0,0,0-15.931,7.345,2.1,2.1,0,0,0,.071,2.962,2.094,2.094,0,0,0,2.96-.071c.052-.054.1-.111.145-.169a16.761,16.761,0,0,1,23.634-1.862,16.66,16.66,0,0,1,1.862,1.862,2.1,2.1,0,0,0,2.95.29,2.1,2.1,0,0,0,.29-2.95l-.052-.062A20.943,20.943,0,0,0-22.214,10.287Zm-21.837,1.368a2.1,2.1,0,0,0,.159,2.96,2.1,2.1,0,0,0,2.96-.161h0A25.142,25.142,0,0,1-5.427,12.526,25.227,25.227,0,0,1-3.5,14.454a2.1,2.1,0,0,0,2.96.161,2.1,2.1,0,0,0,.159-2.96h0A29.334,29.334,0,0,0-41.8,9.4a29.374,29.374,0,0,0-2.251,2.251Z" transform="translate(72.499 40)" fill="url(#linear-gradient)"/>
</svg>
