<svg xmlns="http://www.w3.org/2000/svg" width="17.101" height="15" viewBox="0 0 17.101 15">
  <g id="speech-bubble" transform="translate(0 -4.833)">
    <path id="Path_2331" data-name="Path 2331" d="M2.063,19.833a2.857,2.857,0,0,1-.937-.155l-.677-.234.52-.492a2.72,2.72,0,0,0,.873-1.967A6.952,6.952,0,0,1,0,12.333c0-4.135,3.836-7.5,8.55-7.5S17.1,8.2,17.1,12.333s-3.836,7.5-8.551,7.5a9.522,9.522,0,0,1-4.023-.882A4.5,4.5,0,0,1,2.063,19.833Zm2.363-1.9.25.126a8.623,8.623,0,0,0,3.875.907c4.235,0,7.681-2.974,7.681-6.63S12.786,5.7,8.55,5.7.869,8.677.869,12.333a6.107,6.107,0,0,0,1.723,4.182l.113.12.005.165A3.6,3.6,0,0,1,2.1,18.963a3.893,3.893,0,0,0,2.11-.858Z" fill="#d12b8a"/>
    <path id="Path_2332" data-name="Path 2332" d="M15.882,34.232a3.286,3.286,0,0,1-.778-.075A1.387,1.387,0,0,1,14.691,34c-.019-.019-.026-.063-.022-.132a1.38,1.38,0,0,1,.032-.214.981.981,0,0,1,.064-.2c.026-.057.051-.083.075-.078q.186.064.4.125a2.114,2.114,0,0,0,.553.06,1.5,1.5,0,0,0,.582-.1.359.359,0,0,0,.239-.357.459.459,0,0,0-.157-.36,1.96,1.96,0,0,0-.564-.3,4.024,4.024,0,0,1-.417-.19,1.59,1.59,0,0,1-.346-.243,1,1,0,0,1-.235-.332,1.116,1.116,0,0,1-.086-.457,1.03,1.03,0,0,1,.082-.407.853.853,0,0,1,.253-.332,1.287,1.287,0,0,1,.439-.221,2.19,2.19,0,0,1,.639-.082q.242,0,.4.011a2.64,2.64,0,0,1,.264.029,1.187,1.187,0,0,1,.168.039c.043.014.083.026.121.036s.05.056.05.125a.95.95,0,0,1-.029.221.82.82,0,0,1-.078.207q-.05.089-.1.075-.121-.036-.332-.078a2.045,2.045,0,0,0-.41-.043.99.99,0,0,0-.56.114.363.363,0,0,0-.153.307.391.391,0,0,0,.171.332,2.185,2.185,0,0,0,.535.253,2.311,2.311,0,0,1,.853.524,1.054,1.054,0,0,1,.275.746,1.1,1.1,0,0,1-.128.557.963.963,0,0,1-.343.349,1.487,1.487,0,0,1-.489.182A2.98,2.98,0,0,1,15.882,34.232Z" transform="translate(-11.479 -19.848)" fill="#d12b8a"/>
    <path id="Path_2333" data-name="Path 2333" d="M33.129,34.556a.272.272,0,0,1-.2-.05.288.288,0,0,1-.046-.193v-2.5q-.285.464-.439.717l-.225.371c-.048.078-.076.125-.086.139a.073.073,0,0,0-.014.029c-.043.071-.073.118-.089.139a.127.127,0,0,1-.1.032h-.114a.165.165,0,0,1-.121-.032.856.856,0,0,1-.086-.139l-.728-1.241v2.526a.283.283,0,0,1-.032.147q-.032.053-.168.053h-.3a.44.44,0,0,1-.175-.032c-.05-.021-.075-.091-.075-.211V30.888a.249.249,0,0,1,.053-.189.228.228,0,0,1,.153-.046H30.7a.355.355,0,0,1,.132.021.273.273,0,0,1,.111.107l.949,1.513.949-1.5a.259.259,0,0,1,.1-.111.249.249,0,0,1,.118-.032h.393c.09,0,.142.019.157.057a.576.576,0,0,1,.021.186v3.453a.33.33,0,0,1-.028.157c-.019.033-.074.05-.164.05Z" transform="translate(-23.582 -20.207)" fill="#d12b8a"/>
    <path id="Path_2334" data-name="Path 2334" d="M50.476,34.232a3.285,3.285,0,0,1-.778-.075A1.384,1.384,0,0,1,49.285,34c-.019-.019-.026-.063-.022-.132a1.353,1.353,0,0,1,.032-.214.968.968,0,0,1,.064-.2c.026-.057.051-.083.075-.078q.186.064.4.125a2.1,2.1,0,0,0,.553.06,1.5,1.5,0,0,0,.582-.1.359.359,0,0,0,.239-.357.458.458,0,0,0-.157-.36,1.962,1.962,0,0,0-.564-.3,4.045,4.045,0,0,1-.417-.19,1.6,1.6,0,0,1-.346-.243,1,1,0,0,1-.235-.332,1.113,1.113,0,0,1-.086-.457,1.034,1.034,0,0,1,.082-.407.856.856,0,0,1,.253-.332,1.285,1.285,0,0,1,.439-.221,2.193,2.193,0,0,1,.639-.082q.243,0,.4.011a2.653,2.653,0,0,1,.264.029,1.2,1.2,0,0,1,.168.039c.043.014.083.026.122.036s.05.056.05.125a.939.939,0,0,1-.029.221.82.82,0,0,1-.078.207q-.05.089-.1.075c-.081-.024-.192-.05-.332-.078a2.046,2.046,0,0,0-.41-.043.989.989,0,0,0-.56.114.363.363,0,0,0-.154.307.391.391,0,0,0,.172.332,2.181,2.181,0,0,0,.535.253,2.313,2.313,0,0,1,.853.524,1.054,1.054,0,0,1,.275.746,1.1,1.1,0,0,1-.128.557.963.963,0,0,1-.343.349,1.487,1.487,0,0,1-.489.182A2.981,2.981,0,0,1,50.476,34.232Z" transform="translate(-38.553 -19.848)" fill="#d12b8a"/>
  </g>
</svg>
