<svg xmlns="http://www.w3.org/2000/svg" width="52" height="50" viewBox="0 0 52 50">
  <g id="Group_5853" data-name="Group 5853" transform="translate(22733 9787)">
    <g id="Rectangle_3742" data-name="Rectangle 3742" transform="translate(-22733 -9787)" fill="#fff" stroke="#e5e5e5" stroke-width="1">
      <rect width="52" height="50" rx="5" stroke="none"/>
      <rect x="0.5" y="0.5" width="51" height="49" rx="4.5" fill="none"/>
    </g>
    <g id="Group_2182" data-name="Group 2182" transform="translate(-22720.656 -9775.314)">
      <path id="Path_3465" data-name="Path 3465" d="M378.931,262.346a6.377,6.377,0,0,0-4.548-1.9h-.048a6.3,6.3,0,0,0-3.463,1.031l.024-.015a.487.487,0,1,0,.52.823h0a5.5,5.5,0,1,1,2.954,10.143h0a5.926,5.926,0,0,1-1.052-.1l.037.006.268-.536a.361.361,0,0,0,.043-.172.365.365,0,0,0-.365-.365h-.023l-2.358.077a.373.373,0,0,0-.288.6h0l1.381,1.917a.369.369,0,0,0,.632-.055v0l.288-.575a6.03,6.03,0,0,0,1.45.173h.007a6.481,6.481,0,0,0,6.462-6.461h0a6.487,6.487,0,0,0-1.917-4.583h0Z" transform="translate(-360.671 -253.501)" fill="#5b1f69"/>
      <path id="Path_3466" data-name="Path 3466" d="M495.986,318.674h0a.475.475,0,0,0-.475.475v0h0v4.583l.057.057h0a.019.019,0,0,0,.019.019h0l.019.019h0a.019.019,0,0,0,.019.019h0l.077.077,2.531,1.9a.565.565,0,0,0,.287.1h.017a.447.447,0,0,0,.367-.191h0a.485.485,0,0,0-.095-.67h0l-2.34-1.764v-4.146a.475.475,0,0,0-.475-.475h0Z" transform="translate(-482.29 -310.173)" fill="#5b1f69"/>
      <path id="Path_3467" data-name="Path 3467" d="M303.793,373.948a.46.46,0,1,1-.629.168A.46.46,0,0,1,303.793,373.948Z" transform="translate(-295.018 -363.913)" fill="#5b1f69"/>
      <path id="Path_3468" data-name="Path 3468" d="M273.591,485.9a.46.46,0,1,1-.46-.46A.46.46,0,0,1,273.591,485.9Z" transform="translate(-265.398 -472.494)" fill="#5b1f69"/>
      <path id="Path_3469" data-name="Path 3469" d="M303.551,597.118a.46.46,0,1,1-.629-.168A.46.46,0,0,1,303.551,597.118Z" transform="translate(-294.618 -580.966)" fill="#5b1f69"/>
      <path id="Path_3470" data-name="Path 3470" d="M27.314,13.657A13.657,13.657,0,1,1,13.657,0h0A13.657,13.657,0,0,1,27.314,13.657Zm-.055,0a13.6,13.6,0,1,0-13.6,13.6h0a13.6,13.6,0,0,0,13.6-13.6Z" fill="#5b1f69" stroke="#5b1f69" stroke-width="1"/>
    </g>
  </g>
</svg>
