<svg width="16" height="16" viewBox="0 0 16 16" fill="none" xmlns="http://www.w3.org/2000/svg">
<path d="M8.0026 14.6387C9.70276 14.6387 11.4029 13.9918 12.715 12.6983C15.3207 10.0926 15.3207 5.87917 12.715 3.29198C11.4028 1.97984 9.70273 1.33301 8.0026 1.33301C6.30248 1.33301 4.60229 1.97987 3.29022 3.27344C0.684511 5.87914 0.684511 10.0925 3.29022 12.6797C4.60236 13.9919 6.30248 14.6387 8.0026 14.6387ZM4.34357 4.32689C5.32301 3.34745 6.61657 2.81147 8.0026 2.81147C9.38863 2.81147 10.6822 3.34732 11.6616 4.32689C13.6759 6.34117 13.6759 9.63064 11.6616 11.645C10.6822 12.6243 9.38863 13.1602 8.0026 13.1602C6.61657 13.1602 5.32304 12.6244 4.34357 11.6448C2.32916 9.63054 2.32916 6.34107 4.34357 4.32676V4.32689Z" fill="#2E2E2E"/>
<rect x="7.33594" y="4.66699" width="1.33333" height="4.66667" rx="0.666667" fill="#2E2E2E"/>
<rect x="7.33594" y="10" width="1.33333" height="1.33333" rx="0.666667" fill="#2E2E2E"/>
</svg>
