<svg xmlns="http://www.w3.org/2000/svg" width="15.113" height="15.547" viewBox="0 0 15.113 15.547">
  <g id="phone-call" transform="translate(-2.949)">
    <path id="Path_229" data-name="Path 229" d="M111.985,2.037A6.908,6.908,0,0,0,107.068,0a.551.551,0,1,0,0,1.1,5.852,5.852,0,0,1,5.852,5.852.551.551,0,0,0,1.1,0A6.908,6.908,0,0,0,111.985,2.037Z" transform="translate(-95.959 0)" fill="#d12b8a"/>
    <path id="Path_230" data-name="Path 230" d="M109.719,47.33a.551.551,0,0,0,1.1,0,3.757,3.757,0,0,0-3.752-3.752h0a.551.551,0,0,0,0,1.1A2.654,2.654,0,0,1,109.719,47.33Z" transform="translate(-95.959 -40.377)" fill="#d12b8a"/>
    <path id="Path_231" data-name="Path 231" d="M12.54,39.26a1.663,1.663,0,0,0-1.473.881.551.551,0,0,0,.91.622c.242-.354.352-.41.5-.4a7.1,7.1,0,0,1,2.543,1.863.57.57,0,0,1-.005.4,1.9,1.9,0,0,1-.944,1.189,1.768,1.768,0,0,1-1.416-.048,15.572,15.572,0,0,1-5.108-3.326l0,0a15.57,15.57,0,0,1-3.32-5.1,1.769,1.769,0,0,1-.048-1.417,1.9,1.9,0,0,1,1.189-.944.569.569,0,0,1,.4-.006A7.11,7.11,0,0,1,7.632,35.51c.008.155-.048.264-.4.506a.551.551,0,1,0,.622.91,1.662,1.662,0,0,0,.881-1.474,6.745,6.745,0,0,0-2.578-3.512,1.666,1.666,0,0,0-1.138-.007,2.966,2.966,0,0,0-1.839,1.529,2.836,2.836,0,0,0,.029,2.291A16.666,16.666,0,0,0,6.768,41.22l.011.011a16.67,16.67,0,0,0,5.461,3.556,3.269,3.269,0,0,0,1.23.257,2.526,2.526,0,0,0,1.061-.228,2.965,2.965,0,0,0,1.529-1.84,1.666,1.666,0,0,0-.006-1.135A6.743,6.743,0,0,0,12.54,39.26Z" transform="translate(0 -29.497)" fill="#d12b8a"/>
  </g>
</svg>
