<svg width="16" height="12" viewBox="0 0 16 12" fill="none" xmlns="http://www.w3.org/2000/svg">
<g clip-path="url(#clip0_837_4798)">
<rect width="16" height="11.4286" fill="white"/>
<path fill-rule="evenodd" clip-rule="evenodd" d="M0 0H6.85714V5.33333H0V0Z" fill="#1A47B8"/>
<path fill-rule="evenodd" clip-rule="evenodd" d="M6.85714 0V0.761905H16V0H6.85714ZM6.85714 1.52381V2.28571H16V1.52381H6.85714ZM6.85714 3.04762V3.80952H16V3.04762H6.85714ZM6.85714 4.57143V5.33333H16V4.57143H6.85714ZM0 6.09524V6.85714H16V6.09524H0ZM0 7.61905V8.38095H16V7.61905H0ZM0 9.14286V9.90476H16V9.14286H0ZM0 10.6667V11.4286H16V10.6667H0Z" fill="#F93939"/>
<path fill-rule="evenodd" clip-rule="evenodd" d="M0.761719 0.761963V1.52387H1.52362V0.761963H0.761719ZM2.28553 0.761963V1.52387H3.04743V0.761963H2.28553ZM3.80934 0.761963V1.52387H4.57124V0.761963H3.80934ZM5.33315 0.761963V1.52387H6.09505V0.761963H5.33315ZM4.57124 1.52387V2.28577H5.33315V1.52387H4.57124ZM3.04743 1.52387V2.28577H3.80934V1.52387H3.04743ZM1.52362 1.52387V2.28577H2.28553V1.52387H1.52362ZM0.761719 2.28577V3.04768H1.52362V2.28577H0.761719ZM2.28553 2.28577V3.04768H3.04743V2.28577H2.28553ZM3.80934 2.28577V3.04768H4.57124V2.28577H3.80934ZM5.33315 2.28577V3.04768H6.09505V2.28577H5.33315ZM0.761719 3.80958V4.57149H1.52362V3.80958H0.761719ZM2.28553 3.80958V4.57149H3.04743V3.80958H2.28553ZM3.80934 3.80958V4.57149H4.57124V3.80958H3.80934ZM5.33315 3.80958V4.57149H6.09505V3.80958H5.33315ZM4.57124 3.04768V3.80958H5.33315V3.04768H4.57124ZM3.04743 3.04768V3.80958H3.80934V3.04768H3.04743ZM1.52362 3.04768V3.80958H2.28553V3.04768H1.52362Z" fill="white"/>
</g>
<defs>
<clipPath id="clip0_837_4798">
<rect width="16" height="11.4286" fill="white"/>
</clipPath>
</defs>
</svg>
