<svg xmlns="http://www.w3.org/2000/svg" width="24" height="16.541" viewBox="0 0 24 16.541">
  <g id="transportation" transform="translate(0 -0.496)">
    <path id="Path_2238" data-name="Path 2238" d="M20.485,4.011A12,12,0,0,0,0,12.5a11.959,11.959,0,0,0,.709,4.072.709.709,0,1,0,1.335-.481,10.478,10.478,0,0,1-.6-2.881H3.625a.71.71,0,1,0,0-1.419H1.443A10.5,10.5,0,0,1,2.5,7.833l1.888,1.09A.71.71,0,0,0,5.1,7.694L3.215,6.6A10.668,10.668,0,0,1,6.109,3.711L7.2,5.6a.709.709,0,1,0,1.229-.71L7.337,3A10.5,10.5,0,0,1,11.29,1.94V4.121a.71.71,0,0,0,1.419,0V1.94A10.5,10.5,0,0,1,16.663,3l-1.09,1.889A.71.71,0,1,0,16.8,5.6l1.089-1.887A10.666,10.666,0,0,1,20.785,6.6L18.9,7.694a.71.71,0,1,0,.71,1.229L21.5,7.833a10.5,10.5,0,0,1,1.061,3.954H20.375a.71.71,0,1,0,0,1.419h2.182a10.465,10.465,0,0,1-.546,2.728.71.71,0,1,0,1.342.461A12.017,12.017,0,0,0,20.485,4.011Zm0,0" fill="#727272"/>
    <path id="Path_2239" data-name="Path 2239" d="M218.892,145.365l-3.025,3.26a1.995,1.995,0,1,0,.909,1.107l3.157-3.4a.71.71,0,1,0-1.04-.965Zm-4.008,5.567a.574.574,0,1,1,.574-.574A.575.575,0,0,1,214.884,150.932Zm0,0" transform="translate(-202.911 -137.862)" fill="#727272"/>
  </g>
</svg>
