<svg width="20" height="20" viewBox="0 0 20 20" fill="none" xmlns="http://www.w3.org/2000/svg">
<path d="M3.44972 16.6332C3.33053 17.0299 3.55549 17.4481 3.95219 17.5673C4.34888 17.6865 4.76709 17.4615 4.88628 17.0648L3.44972 16.6332ZM8 14L7.99978 14.75H8V14ZM12 14V14.75H12.0003L12 14ZM15.1154 17.0697C15.234 17.4666 15.6518 17.6922 16.0487 17.5736C16.4456 17.455 16.6712 17.0372 16.5526 16.6403L15.1154 17.0697ZM18.25 10C18.25 14.5563 14.5563 18.25 10 18.25V19.75C15.3848 19.75 19.75 15.3848 19.75 10H18.25ZM10 18.25C5.44365 18.25 1.75 14.5563 1.75 10H0.25C0.25 15.3848 4.61522 19.75 10 19.75V18.25ZM1.75 10C1.75 5.44365 5.44365 1.75 10 1.75V0.25C4.61522 0.25 0.25 4.61522 0.25 10H1.75ZM10 1.75C14.5563 1.75 18.25 5.44365 18.25 10H19.75C19.75 4.61522 15.3848 0.25 10 0.25V1.75ZM12.25 8C12.25 9.24264 11.2426 10.25 10 10.25V11.75C12.0711 11.75 13.75 10.0711 13.75 8H12.25ZM10 10.25C8.75736 10.25 7.75 9.24264 7.75 8H6.25C6.25 10.0711 7.92893 11.75 10 11.75V10.25ZM7.75 8C7.75 6.75736 8.75736 5.75 10 5.75V4.25C7.92893 4.25 6.25 5.92893 6.25 8H7.75ZM10 5.75C11.2426 5.75 12.25 6.75736 12.25 8H13.75C13.75 5.92893 12.0711 4.25 10 4.25V5.75ZM4.88628 17.0648C5.08738 16.3955 5.49888 15.8088 6.05973 15.3919L5.16476 14.1881C4.34506 14.7975 3.74364 15.655 3.44972 16.6332L4.88628 17.0648ZM6.05973 15.3919C6.62058 14.9749 7.30091 14.7498 7.99978 14.75L8.00022 13.25C6.97879 13.2497 5.98447 13.5787 5.16476 14.1881L6.05973 15.3919ZM8 14.75H12V13.25H8V14.75ZM12.0003 14.75C12.7 14.7498 13.3812 14.9754 13.9424 15.3933L14.8383 14.1902C14.018 13.5794 13.0225 13.2496 11.9997 13.25L12.0003 14.75ZM13.9424 15.3933C14.5037 15.8113 14.9151 16.3992 15.1154 17.0697L16.5526 16.6403C16.2599 15.6604 15.6586 14.8011 14.8383 14.1902L13.9424 15.3933Z" fill="#AEAEAE"/>
</svg>
