<svg width="89" height="21" viewBox="0 0 89 21" fill="none" xmlns="http://www.w3.org/2000/svg">
<path fill-rule="evenodd" clip-rule="evenodd" d="M66.0457 1.11359V12.6944H88.5314V18.4842H84.7847V16.5578H62.3036V1.11359H66.0457ZM54.3359 2.56193C55.9346 2.55984 57.4699 3.2056 58.6104 4.35977C59.7508 5.51393 60.4049 7.08389 60.4314 8.73065V16.5578H29.986V12.6979H36.871V11.2945C36.871 9.22051 35.653 8.20655 33.9664 8.20655C33.1095 8.22387 32.2651 8.42108 31.4847 8.78613L31.11 5.74544C32.1871 5.26384 33.452 4.97346 34.482 4.97346C38.7913 4.97346 40.6176 7.62816 40.6176 10.7645V12.6944H43.0696C42.689 11.6751 42.5839 10.5686 42.7656 9.49262C42.9473 8.41669 43.4089 7.41168 44.1012 6.58468C44.7936 5.75767 45.6907 5.13966 46.6971 4.79647C47.7034 4.45328 48.7813 4.39778 49.8159 4.63587C50.3863 3.98209 51.084 3.45948 51.8636 3.10214C52.6432 2.74479 53.4872 2.56072 54.3405 2.56193H54.3359ZM54.3359 6.4218C53.9051 6.4206 53.4825 6.54324 53.1157 6.77592C53.9296 7.82955 54.376 9.13459 54.3829 10.4812V12.6956H56.6744V8.8357C56.6751 8.20381 56.4351 7.59687 56.0059 7.14545C55.5767 6.69402 54.9927 6.43418 54.3795 6.4218H54.3359ZM48.5635 8.35174H48.528C47.9769 8.35951 47.4507 8.58932 47.062 8.99193C46.6734 9.39455 46.4532 9.93795 46.4487 10.5057C46.4442 11.0735 46.6557 11.6206 47.038 12.0297C47.4202 12.4388 47.9427 12.6774 48.4936 12.6944H50.6362V10.5225C50.6362 9.95903 50.4236 9.41766 50.0432 9.0128C49.6628 8.60793 49.1445 8.3713 48.5979 8.35292L48.5635 8.35174Z" fill="#222C38"/>
<path d="M86.6581 9.3173C87.9515 9.3173 89 8.23709 89 6.90458C89 5.57208 87.9515 4.49187 86.6581 4.49187C85.3646 4.49187 84.3161 5.57208 84.3161 6.90458C84.3161 8.23709 85.3646 9.3173 86.6581 9.3173Z" fill="#0099FF"/>
<path d="M79.1647 9.3173C80.4581 9.3173 81.5067 8.23709 81.5067 6.90458C81.5067 5.57208 80.4581 4.49187 79.1647 4.49187C77.8713 4.49187 76.8228 5.57208 76.8228 6.90458C76.8228 8.23709 77.8713 9.3173 79.1647 9.3173Z" fill="#00CC99"/>
<path d="M71.6702 9.3173C72.9637 9.3173 74.0122 8.23709 74.0122 6.90458C74.0122 5.57208 72.9637 4.49187 71.6702 4.49187C70.3768 4.49187 69.3283 5.57208 69.3283 6.90458C69.3283 8.23709 70.3768 9.3173 71.6702 9.3173Z" fill="#00D358"/>
<path d="M22.0229 4.97346C23.5141 4.95437 24.9515 5.5463 26.019 6.61904C27.0865 7.69178 27.6966 9.15746 27.7151 10.6936C27.7337 12.2298 27.1591 13.7107 26.1178 14.8104C25.0765 15.9102 23.6539 16.5387 22.1627 16.5578H19.681V19.4498C19.6816 19.8266 19.5395 20.1889 19.2849 20.4595C19.0302 20.73 18.6832 20.8876 18.3175 20.8987C17.9519 20.9098 17.5965 20.7735 17.3269 20.5187C17.0573 20.264 16.8947 19.911 16.8739 19.5348V6.4218C16.8737 6.23166 16.9099 6.04335 16.9805 5.86764C17.051 5.69193 17.1544 5.53225 17.2849 5.39774C17.4153 5.26324 17.5702 5.15654 17.7407 5.08374C17.9113 5.01094 18.094 4.97346 18.2786 4.97346H22.0229ZM13.5924 4.97346C13.9511 4.97315 14.2963 5.11419 14.5572 5.36769C14.8182 5.62118 14.9752 5.96792 14.9959 6.33682V15.1071C14.9922 15.4812 14.848 15.8393 14.5936 16.1064C14.3393 16.3735 13.9945 16.5287 13.6314 16.5397C13.2684 16.5507 12.9154 16.4165 12.6462 16.1653C12.3771 15.9141 12.2128 15.5654 12.1877 15.1921V6.4218C12.1875 6.23166 12.2237 6.04335 12.2943 5.86764C12.3648 5.69193 12.4682 5.53225 12.5987 5.39774C12.7291 5.26324 12.8841 5.15654 13.0546 5.08374C13.2251 5.01094 13.4078 4.97346 13.5924 4.97346ZM2.64571 5.24023L2.68466 5.31932L5.63043 11.7241L8.57506 5.31932C8.72822 4.98607 8.99908 4.72563 9.33232 4.59115C9.66557 4.45668 10.0361 4.45832 10.3682 4.59574L10.4472 4.62997C10.7705 4.78798 11.0232 5.06704 11.1537 5.41028C11.2842 5.75352 11.2827 6.13511 11.1496 6.47728L11.1152 6.55755L6.89995 15.7315C6.7893 15.972 6.61647 16.1765 6.40043 16.3224C6.18439 16.4683 5.9335 16.5501 5.6753 16.5588C5.4171 16.5675 5.16158 16.5026 4.93678 16.3715C4.71199 16.2403 4.52662 16.0479 4.40102 15.8153L4.35978 15.7315L0.144494 6.55755C-0.0184663 6.2166 -0.0447009 5.82329 0.0714566 5.46258C0.187614 5.10187 0.43684 4.80271 0.765302 4.62972C1.09376 4.45673 1.4751 4.42379 1.82693 4.53802C2.17877 4.65225 2.47287 4.90448 2.64571 5.24023ZM22.0229 7.86896H19.681V13.66H22.0229C22.7459 13.6401 23.4335 13.3338 23.9429 12.805C24.4523 12.2761 24.7442 11.5653 24.758 10.8204C24.7717 10.0755 24.5062 9.35384 24.0166 8.80545C23.5271 8.25706 22.8512 7.92418 22.1295 7.87605L22.0229 7.86896ZM13.5924 0.150391C13.9167 0.150391 14.2338 0.249487 14.5034 0.435144C14.7731 0.620801 14.9832 0.884677 15.1073 1.1934C15.2313 1.50211 15.2637 1.8418 15.2004 2.1695C15.137 2.49719 14.9808 2.79816 14.7513 3.03435C14.5219 3.27053 14.2297 3.43131 13.9115 3.49635C13.5934 3.5614 13.2637 3.52778 12.9641 3.39975C12.6646 3.27172 12.4086 3.05504 12.2286 2.7771C12.0485 2.49917 11.9526 2.17248 11.9528 1.83835C11.9531 1.39057 12.126 0.961229 12.4334 0.64471C12.7409 0.32819 13.1577 0.150391 13.5924 0.150391Z" fill="url(#paint0_linear_10_8356)"/>
<defs>
<linearGradient id="paint0_linear_10_8356" x1="-0.0129921" y1="10.2877" x2="27.6402" y2="10.2877" gradientUnits="userSpaceOnUse">
<stop stop-color="#01D358"/>
<stop offset="0.5" stop-color="#00CC99"/>
<stop offset="1" stop-color="#0099FF"/>
</linearGradient>
</defs>
</svg>
