<svg xmlns="http://www.w3.org/2000/svg" xmlns:xlink="http://www.w3.org/1999/xlink" width="24" height="24" viewBox="0 0 24 24">
  <defs>
    <clipPath id="clip-path">
      <rect id="Rectangle_3471" data-name="Rectangle 3471" width="24" height="24" transform="translate(17.5 8)" fill="#fff"/>
    </clipPath>
    <clipPath id="clip-path-2">
      <rect id="Rectangle_3479" data-name="Rectangle 3479" width="24" height="24" transform="translate(28 1376)" fill="#fff" stroke="#707070" stroke-width="1"/>
    </clipPath>
  </defs>
  <g id="Mask_Group_9" data-name="Mask Group 9" transform="translate(-17.5 -8)" clip-path="url(#clip-path)">
    <g id="data" transform="translate(-10.5 -1368)" clip-path="url(#clip-path-2)">
      <g id="Group_4727" data-name="Group 4727" transform="translate(-17 1329.998)">
        <path id="Path_2396" data-name="Path 2396" d="M86.826,53.78A12.811,12.811,0,0,0,77.707,50h-.025v.938h.023A11.966,11.966,0,0,1,89.668,62.923h.938A12.812,12.812,0,0,0,86.826,53.78Z" transform="translate(-25.605)" fill="#70489d"/>
        <path id="Path_2397" data-name="Path 2397" d="M77.694,105.3v.938a7.835,7.835,0,0,1,7.838,7.838h.938a8.773,8.773,0,0,0-8.777-8.775Z" transform="translate(-25.616 -51.151)" fill="#70489d"/>
        <path id="Path_2398" data-name="Path 2398" d="M77.666,160.6l0,.938a3.7,3.7,0,0,1,3.693,3.693l.938,0a4.642,4.642,0,0,0-4.626-4.625Z" transform="translate(-25.586 -102.301)" fill="#70489d"/>
        <path id="Path_2399" data-name="Path 2399" d="M50.412,212.911a1.406,1.406,0,1,0,1.989,0,1.406,1.406,0,0,0-1.989,0Z" transform="translate(0 -150.311)" fill="#70489d"/>
      </g>
    </g>
  </g>
</svg>
