<svg width="24" height="16" viewBox="0 0 24 16" fill="none" xmlns="http://www.w3.org/2000/svg">
<path d="M23.001 5.70998C23.0505 4.27864 22.7374 2.858 22.091 1.57998C21.6524 1.05558 21.0437 0.701694 20.371 0.579984C17.5885 0.327509 14.7945 0.224028 12.001 0.269984C9.21765 0.221942 6.43371 0.322084 3.661 0.569984C3.11282 0.669701 2.60552 0.926826 2.201 1.30998C1.301 2.13998 1.201 3.55998 1.101 4.75998C0.955916 6.91755 0.955916 9.08242 1.101 11.24C1.12993 11.9154 1.2305 12.5858 1.401 13.24C1.52158 13.745 1.76553 14.2123 2.111 14.6C2.51827 15.0034 3.03739 15.2752 3.601 15.38C5.75692 15.6461 7.92922 15.7564 10.101 15.71C13.601 15.76 16.671 15.71 20.301 15.43C20.8785 15.3316 21.4122 15.0595 21.831 14.65C22.111 14.3699 22.3201 14.0271 22.441 13.65C22.7986 12.5526 22.9743 11.4041 22.961 10.25C23.001 9.68998 23.001 6.30998 23.001 5.70998ZM9.741 10.85V4.65998L15.661 7.76998C14.001 8.68998 11.811 9.72998 9.741 10.85Z" fill="black"/>
</svg>
