<svg xmlns="http://www.w3.org/2000/svg" width="18.265" height="26" viewBox="0 0 18.265 26">
  <path id="Union_14" data-name="Union 14" d="M5.211,21.311h2.7V17.43h2.447v3.881h2.8L9.184,26Zm5.858-1.24v-.848h5.06V16.079H2.181v3.144H7.207v.848H1.757a.424.424,0,0,1-.424-.424V16.079H0V7.654H1.333V.424A.424.424,0,0,1,1.757,0h9.715a.413.413,0,0,1,.3.126l5.08,5.145a.434.434,0,0,1,.122.3V7.654h1.288v8.425H16.977v3.568a.424.424,0,0,1-.424.424ZM7.655,9.99v3.744a7.475,7.475,0,0,0,.979.056,2.737,2.737,0,0,0,1.759-.492,1.934,1.934,0,0,0,.634-1.544,1.687,1.687,0,0,0-.645-1.437A2.453,2.453,0,0,0,8.82,9.91,7.7,7.7,0,0,0,7.655,9.99Zm4.22,3.761h.865V12.218H14.11v-.7H12.741v-.871h1.465V9.939h-2.33ZM4.086,9.99v3.761H4.94V12.388a2.166,2.166,0,0,0,.294.017A1.768,1.768,0,0,0,6.472,12a1.218,1.218,0,0,0,.351-.9,1.114,1.114,0,0,0-.407-.882A1.829,1.829,0,0,0,5.251,9.91,7.063,7.063,0,0,0,4.086,9.99Zm-1.9-2.335H16.129V5.993H11.473a.424.424,0,0,1-.424-.424V.849H2.181ZM11.9,5.145h3.64L11.9,1.457ZM8.82,13.117a1.58,1.58,0,0,1-.3-.017V10.606a1.789,1.789,0,0,1,.39-.034,1.093,1.093,0,0,1,1.2,1.21,1.18,1.18,0,0,1-1.274,1.335ZM4.94,11.72V10.595a1.464,1.464,0,0,1,.356-.034c.43,0,.673.209.673.56,0,.39-.283.622-.741.622A1.321,1.321,0,0,1,4.94,11.72Z" fill="#d12b8a"/>
</svg>
