<svg width="641" height="384" viewBox="0 0 641 384" fill="none" xmlns="http://www.w3.org/2000/svg">
<path d="M157.226 259.766V297.266H118.212V180.859H168.15C174.002 180.859 179.855 181.641 185.707 182.812C191.169 183.984 196.24 186.328 200.922 189.063C205.604 192.188 209.115 196.094 211.846 201.172C214.577 207.031 216.138 213.672 216.138 219.922C216.138 226.172 214.967 232.813 212.236 238.281C209.505 243.359 205.994 247.266 201.702 250.781C197.021 253.906 191.949 256.25 186.487 257.812C180.635 259.375 174.783 260.156 168.54 260.156H157.226V259.766ZM157.226 211.328V230.078H165.419C168.15 230.078 171.271 229.297 173.612 227.734C176.343 226.172 177.514 223.047 177.124 219.922C177.124 218.359 176.733 216.797 175.953 215.234C175.173 214.062 174.393 213.281 173.222 212.5C172.052 211.719 170.881 211.328 169.321 210.938C167.76 210.547 166.59 210.547 165.029 210.547L157.226 211.328Z" fill="url(#paint0_linear_10_7788)"/>
<path d="M230.963 180.859H270.367V263.672H308.991V297.266H230.963V180.859Z" fill="url(#paint1_linear_10_7788)"/>
<path d="M369.463 300.781C361.27 300.781 353.467 299.609 345.664 296.875C339.422 294.531 333.57 291.016 328.888 286.328C324.596 282.031 321.085 276.563 318.744 270.703C316.404 264.453 315.233 257.813 315.623 251.563V180.859H354.637V247.266C354.247 251.953 355.808 256.641 358.539 260.156C364.781 266.406 374.925 266.406 381.557 260.156C384.288 256.25 385.848 251.953 385.458 247.266V180.859H424.472V251.563C424.472 258.203 423.302 264.844 420.961 270.703C418.62 276.563 415.109 282.031 410.427 286.328C405.355 291.016 399.503 294.531 393.261 296.875C385.458 299.609 377.655 300.781 369.463 300.781Z" fill="url(#paint2_linear_10_7788)"/>
<path d="M482.603 300.781C477.921 300.781 473.24 300.391 468.558 299.609C464.267 298.828 459.585 297.656 455.293 296.094C451.392 294.531 447.1 292.578 443.589 290.625C440.078 288.672 436.567 286.328 433.446 283.594L457.244 257.812C460.365 260.938 464.267 263.672 468.168 265.625C472.46 267.969 477.141 269.141 482.213 269.141C484.164 269.141 486.114 268.75 488.065 267.969C489.626 267.187 490.796 265.625 490.796 263.672C490.796 262.5 490.406 261.719 490.016 260.938C489.236 259.766 488.065 258.984 486.895 258.594C484.944 257.422 482.603 256.641 480.652 255.859C477.921 254.688 474.8 253.906 470.509 252.344C466.607 251.172 462.706 249.609 459.195 247.656C455.684 246.094 452.562 243.75 449.441 241.016C446.71 238.281 444.369 235.156 442.809 231.641C441.248 227.344 440.078 223.047 440.468 218.359C440.468 211.719 442.029 205.469 445.15 200C447.881 194.922 451.782 190.625 456.464 187.5C461.145 184.375 466.607 181.641 472.069 180.469C477.531 178.906 483.383 178.516 489.236 178.516C497.429 178.516 505.231 180.078 512.644 182.812C520.447 185.547 527.469 189.844 533.712 195.703L509.523 220.703C506.792 217.578 503.671 214.844 499.769 213.281C496.648 211.719 493.137 210.938 489.626 210.547C487.285 210.547 484.944 210.938 482.603 211.719C480.262 212.5 479.482 215.234 480.262 217.578C480.652 218.75 481.433 219.531 482.603 219.922C485.334 221.094 488.455 222.266 491.576 223.047C495.868 224.219 500.159 225.781 504.841 227.734C509.523 229.297 513.814 231.641 517.716 234.375C521.617 237.109 524.738 240.625 527.079 244.531C529.81 249.219 530.981 254.297 530.981 259.766C530.981 266.016 529.81 272.266 526.689 278.125C523.958 283.203 520.447 287.5 515.765 291.016C511.083 294.531 506.012 297.266 500.55 298.828C494.307 299.609 488.455 300.781 482.603 300.781Z" fill="url(#paint3_linear_10_7788)"/>
<path d="M153.325 144.531L181.415 107.813H154.105V101.562H189.608V107.813L161.908 144.531H190.388V150.781H153.715V144.531H153.325Z" fill="url(#paint4_linear_10_7788)"/>
<path d="M270.367 101.562H276.609L297.677 151.172H289.874L284.802 138.672H261.394L256.322 150.781H248.519L270.367 101.562ZM282.461 132.812L273.098 110.156L263.734 132.812H282.461Z" fill="url(#paint5_linear_10_7788)"/>
<path d="M359.709 101.562H366.341V151.172H359.709V101.562Z" fill="url(#paint6_linear_10_7788)"/>
<path d="M435.006 101.562H443.979L471.289 142.188V101.562H477.922V151.172H469.338L442.029 110.547V151.172H435.396V101.562H435.006Z" fill="url(#paint7_linear_10_7788)"/>
<defs>
<linearGradient id="paint0_linear_10_7788" x1="-338.001" y1="239.023" x2="820.815" y2="239.023" gradientUnits="userSpaceOnUse">
<stop stop-color="#E6007C"/>
<stop offset="1" stop-color="#4A2669"/>
</linearGradient>
<linearGradient id="paint1_linear_10_7788" x1="-338.001" y1="239.023" x2="820.815" y2="239.023" gradientUnits="userSpaceOnUse">
<stop stop-color="#E6007C"/>
<stop offset="1" stop-color="#4A2669"/>
</linearGradient>
<linearGradient id="paint2_linear_10_7788" x1="-337.938" y1="240.705" x2="820.878" y2="240.705" gradientUnits="userSpaceOnUse">
<stop stop-color="#E6007C"/>
<stop offset="1" stop-color="#4A2669"/>
</linearGradient>
<linearGradient id="paint3_linear_10_7788" x1="-338.001" y1="239.053" x2="820.815" y2="239.053" gradientUnits="userSpaceOnUse">
<stop stop-color="#E6007C"/>
<stop offset="1" stop-color="#4A2669"/>
</linearGradient>
<linearGradient id="paint4_linear_10_7788" x1="19.301" y1="126.189" x2="1274.28" y2="126.189" gradientUnits="userSpaceOnUse">
<stop stop-color="#E6007C"/>
<stop offset="1" stop-color="#4A2669"/>
</linearGradient>
<linearGradient id="paint5_linear_10_7788" x1="19.3008" y1="126.173" x2="1274.28" y2="126.173" gradientUnits="userSpaceOnUse">
<stop stop-color="#E6007C"/>
<stop offset="1" stop-color="#4A2669"/>
</linearGradient>
<linearGradient id="paint6_linear_10_7788" x1="19.3006" y1="126.173" x2="1274.28" y2="126.173" gradientUnits="userSpaceOnUse">
<stop stop-color="#E6007C"/>
<stop offset="1" stop-color="#4A2669"/>
</linearGradient>
<linearGradient id="paint7_linear_10_7788" x1="19.3009" y1="126.173" x2="1274.28" y2="126.173" gradientUnits="userSpaceOnUse">
<stop stop-color="#E6007C"/>
<stop offset="1" stop-color="#4A2669"/>
</linearGradient>
</defs>
</svg>
