<?xml version="1.0" encoding="utf-8"?>
<!-- Generator: Adobe Illustrator 26.0.3, SVG Export Plug-In . SVG Version: 6.00 Build 0)  -->
<svg version="1.1" id="Layer_1" xmlns="http://www.w3.org/2000/svg" xmlns:xlink="http://www.w3.org/1999/xlink" x="0px" y="0px"
	 viewBox="0 0 14 14" style="enable-background:new 0 0 14 14;" xml:space="preserve">
<style type="text/css">
	.st0{fill:#FFFFFF;}
</style>
<g transform="matrix(1, 0, 0, 1, 0, 0)">
	<path id="Icon_ionic-ios-close-2_00000183940835028981307830000013871321505367874969_" class="st0" d="M8.6,7l4.8-4.8
		c0.4-0.5,0.4-1.2-0.1-1.6c-0.4-0.4-1.1-0.4-1.5,0L7,5.4L2.2,0.6C1.8,0.1,1.1,0.1,0.6,0.5C0.1,0.9,0.1,1.6,0.5,2.1
		c0,0,0.1,0.1,0.1,0.1L5.4,7l-4.8,4.8c-0.4,0.5-0.3,1.2,0.1,1.6c0.4,0.4,1,0.4,1.5,0L7,8.6l4.8,4.8c0.4,0.5,1.1,0.5,1.6,0.1
		c0.5-0.4,0.5-1.1,0.1-1.6c0,0-0.1-0.1-0.1-0.1L8.6,7z"/>
</g>
</svg>
