<svg xmlns="http://www.w3.org/2000/svg" viewBox="0 0 94.49 40.25"><defs><style>.cls-1{font-size:16.98px;font-family:OpenSans,Open Sans;letter-spacing:.01em}.cls-1,.cls-3{fill:#0090ff}.cls-2{fill:none;stroke:#0090ff;stroke-linecap:round;stroke-miterlimit:10}</style></defs><title>1color_1</title><g id="Warstwa_2" data-name="Warstwa 2"><g id="Warstwa_1-2" data-name="Warstwa 1"><text class="cls-1" transform="translate(5.73 14.55)">1 - COLOR</text><path class="cls-2" d="M.5 21.74H94M.5 39.75H94"/><rect class="cls-2" x="7.35" y="26.19" width="9.11" height="9.11" rx="1.56" ry="1.56"/><rect class="cls-2" x="30.91" y="26.19" width="9.11" height="9.11" rx="1.56" ry="1.56"/><rect class="cls-2" x="54.47" y="26.19" width="9.11" height="9.11" rx="1.56" ry="1.56"/><rect class="cls-2" x="78.04" y="26.19" width="9.11" height="9.11" rx="1.56" ry="1.56"/><circle class="cls-3" cx="11.9" cy="30.74" r="2.14"/><circle class="cls-3" cx="35.46" cy="30.74" r="2.14"/><circle class="cls-3" cx="59.03" cy="30.74" r="2.14"/><circle class="cls-3" cx="82.59" cy="30.74" r="2.14"/><path class="cls-2" d="M7.35 30.74H3.78M20.02 30.74h-3.57M30.91 30.74h-3.56M43.58 30.74h-3.56M54.47 30.74h-3.56M67.14 30.74h-3.56M78.04 30.74h-3.57M90.71 30.74h-3.56"/></g></g></svg>