<svg xmlns="http://www.w3.org/2000/svg" viewBox="0 0 27.92 47.36"><defs><style>.cls-1{fill:#fff}</style></defs><title>bulb</title><g id="Warstwa_2" data-name="Warstwa 2"><path class="cls-1" d="M23.28 3.47A14.22 14.22 0 0 0 13.92 0c-.51 0-1 0-1.54.08A13.85 13.85 0 0 0 .09 12.13 13.08 13.08 0 0 0 2.27 21a27.33 27.33 0 0 1 4.55 12.27l.06.48a2.38 2.38 0 0 0 .69 1.45l.11.11-.12.1a1.92 1.92 0 0 0-.68 1.48 1.85 1.85 0 0 0 .57 1.31l.1.1-.1.1a1.78 1.78 0 0 0 0 2.61l.1.1-.1.1a2 2 0 0 0 1.37 3.36h1.65v.06a3.4 3.4 0 0 0 3.41 2.73 3.39 3.39 0 0 0 3.4-2.72v-.07H19a2 2 0 0 0 1.94-2 1.91 1.91 0 0 0-.57-1.33l-.1-.12.1-.1a1.79 1.79 0 0 0 0-2.62l-.1-.1.1-.1a1.85 1.85 0 0 0 .57-1.31 2 2 0 0 0-.57-1.37l-.11-.1.06-.1a2 2 0 0 0 .68-1.56v-.23c1-4.58 2-8.77 4.37-12.14a13.28 13.28 0 0 0 2.52-7.75 13.52 13.52 0 0 0-4.61-10.17zm-7 41.25a2.37 2.37 0 0 1-2.34 1.74 2.41 2.41 0 0 1-2.34-1.73l-.06-.16h4.78zm2.67-1.15h-10a1 1 0 0 1-.94-1 1 1 0 0 1 .94-1H19a1 1 0 0 1 .94 1 1 1 0 0 1-1.03 1zm.06-3H8.88a1 1 0 0 1 0-2H19a1 1 0 0 1 0 2zm-11-4a1 1 0 0 1 .94-1h10a1 1 0 0 1 0 2h-10a1 1 0 0 1-1.01-1zm16.58-15.75C22.07 24.39 21 28.74 20 33.42v.23c0 .76-.57.92-1.36.92H9.37c-.77 0-1.34-.19-1.34-.91v-.44C7 28.86 6 24.6 3.27 20.58a12.73 12.73 0 0 1-2.08-8.3 12.74 12.74 0 0 1 11.36-11.2A12.29 12.29 0 0 1 14 1a12.85 12.85 0 0 1 8.59 3.22 12.56 12.56 0 0 1 4.24 9.4 11.92 11.92 0 0 1-2.24 7.2zM10.71 4.57c-.17 0-.43 0-.47-.23s0-.4.33-.5a4 4 0 0 1 1.2-.27h.1a.49.49 0 0 1 .48.38c.05.28-.14.46-.44.51a6.27 6.27 0 0 1-1 .12zm-1.92.07a.61.61 0 0 1 .46.21.48.48 0 0 1-.2.66 8.57 8.57 0 0 0-3.48 3.91.53.53 0 0 1-.48.29h-.2a.48.48 0 0 1-.28-.24.52.52 0 0 1 0-.37 9.15 9.15 0 0 1 3.91-4.39.5.5 0 0 1 .27-.07z" id="Warstwa_1-2" data-name="Warstwa 1"/></g></svg>