<svg xmlns="http://www.w3.org/2000/svg" viewBox="0 0 86.81 79.73"><defs><style>.cls-1,.cls-2{fill:none;stroke:#fff;stroke-miterlimit:10}.cls-1{stroke-width:1.5px}.cls-3{clip-path:url(#clip-path)}.cls-4{clip-path:url(#clip-path-2)}</style><clipPath id="clip-path"><circle class="cls-1" cx="68.9" cy="56.81" r="17.17"/></clipPath><clipPath id="clip-path-2"><circle class="cls-1" cx="22.92" cy="56.81" r="17.17"/></clipPath></defs><title>colors</title><g id="Warstwa_2" data-name="Warstwa 2"><g id="Warstwa_1-2" data-name="Warstwa 1"><circle class="cls-1" cx="45.9" cy="17.92" r="17.17"/><circle class="cls-2" cx="68.9" cy="56.81" r="17.17"/><g class="cls-3"><path class="cls-2" d="M55.05 38.75v36.13M59.01 38.75v36.13M62.96 38.75v36.13M66.92 38.75v36.13M70.87 38.75v36.13M74.83 38.75v36.13M78.78 38.75v36.13M82.74 38.75v36.13"/></g><circle class="cls-1" cx="68.9" cy="56.81" r="17.17"/><circle class="cls-2" cx="22.91" cy="56.81" r="17.17"/><g class="cls-4"><path class="cls-2" d="M.35 53.83L25.9 79.38M3.15 51.04l25.54 25.54M5.95 48.24l25.54 25.55M8.74 45.44l25.55 25.55M11.54 42.65l25.55 25.54M14.34 39.85l25.54 25.54M17.13 37.05L42.68 62.6M19.93 34.26L45.48 59.8M25.9 34.26L.35 59.8M28.69 37.05L3.15 62.6M31.49 39.85L5.95 65.39M34.29 42.65L8.74 68.19M37.09 45.44L11.54 70.99M39.88 48.24L14.34 73.79M42.68 51.04L17.13 76.58M45.48 53.83L19.93 79.38"/></g><circle class="cls-1" cx="22.92" cy="56.81" r="17.17"/></g></g></svg>