<svg xmlns="http://www.w3.org/2000/svg" viewBox="0 0 59.05 50.78"><defs><style>.cls-1{fill:none;stroke:#0090ff;stroke-miterlimit:10}</style></defs><title>led1</title><g id="Warstwa_2" data-name="Warstwa 2"><g id="Warstwa_1-2" data-name="Warstwa 1"><path class="cls-1" d="M56.07 5.46H3A2.48 2.48 0 0 1 .5 3 2.48 2.48 0 0 1 3 .5h53.07A2.48 2.48 0 0 1 58.55 3a2.48 2.48 0 0 1-2.48 2.46zM29.69 5.47H4.8C9.76 20.72 18.91 24 18.91 24h2.48v-2.52h5.15V24h6.29v-2.52H38V24h2.48s9.16-3.24 14.11-18.49z"/><path class="cls-1" d="M18.91 23.96h21.93v14.87H18.91zM24.74 38.84h3.05v11.44h-3.05zM31.31 38.84h3.05v11.44h-3.05z"/></g></g></svg>