<svg xmlns="http://www.w3.org/2000/svg" viewBox="0 0 15.34 49.85"><defs><style>.cls-1{fill:none;stroke:#0090ff;stroke-miterlimit:10}</style></defs><title>led2</title><g id="Warstwa_2" data-name="Warstwa 2"><g id="Warstwa_1-2" data-name="Warstwa 1"><path class="cls-1" d="M.5 24.21h14.34V35a3.33 3.33 0 0 1-3.33 3.33H3.83A3.33 3.33 0 0 1 .5 35V24.21zM7.67.5A7.17 7.17 0 0 0 .5 7.67v16.54h14.34V7.67A7.17 7.17 0 0 0 7.67.5z"/><path class="cls-1" d="M11.44 24.21V23a1.78 1.78 0 0 0-1.78-1.78H8.3v-4.76a2.21 2.21 0 0 0-2.2-2.2 2.21 2.21 0 0 0-2.2 2.2v7.75M4.11 27.34v8.8M11.23 27.34v8.8M4.11 38.33v11.52M11.23 38.33v11.52"/></g></g></svg>