<svg id="Layer_1" xmlns="http://www.w3.org/2000/svg" viewBox="0 0 333.6 763"><style>.st0{fill:#fff}</style><path class="st0" d="M298.1 680.5v-10.9l35.5 5.5-35.5 5.4zm2.5-8v5.1l16.5-2.5-16.5-2.6zm-265.9 8L-.8 675l35.5-5.5v11zM15.6 675l16.5 2.5v-5.1L15.6 675z"/><path class="st0" d="M325.4 683.3c-.7 0-1.2-.6-1.2-1.2V503c0-.7.6-1.2 1.2-1.2.7 0 1.2.6 1.2 1.2v179c0 .7-.5 1.3-1.2 1.3zm-318 0c-.7 0-1.2-.6-1.2-1.2V533c0-.7.6-1.2 1.2-1.2s1.2.6 1.2 1.2v149c.1.7-.5 1.3-1.2 1.3z"/><path class="st0" d="M325.4 676.3H7.4c-.7 0-1.2-.6-1.2-1.2s.6-1.2 1.2-1.2h318c.7 0 1.2.6 1.2 1.2s-.5 1.2-1.2 1.2z"/><path class="st0" d="M7.4 675l26-4v8m292-4l-26 4v-8m-233-521.7c-.7 0-1.2-.6-1.2-1.2v-30l1-14.1V82.1l1-7.2v-6.8c0-.1 0-.3.1-.4l5-15 7.1-11.3 7.1-8.2 6.1-6.1 7.2-5.1 9.1-5.1 13.2-4.1 7-2 8.2-1h49.2c.7 0 1.2.6 1.2 1.2 0 .7-.6 1.2-1.2 1.2h-49l-7.8 1-6.8 2-13 4-8.8 4.9-7 4.9-5.8 5.9-6.9 7.9-6.9 10.8-4.8 14.5V75l-1 7.2V104l-1 14.1V148c-.1.7-.6 1.3-1.3 1.3zm-2 96c-.7 0-1.2-.6-1.2-1.2v-24l1-12.1c.1-.7.7-1.2 1.3-1.1.7.1 1.2.7 1.1 1.3l-1 12v23.9c.1.6-.5 1.2-1.2 1.2z"/><path class="st0" d="M65.4 167.3c-.7 0-1.2-.6-1.2-1.2v-12c0-28 1.1-58 2-82l1-4.3c.2-.7.8-1.1 1.5-.9.7.2 1.1.8.9 1.5l-1 4c-.9 23.8-2 53.7-2 81.7v12c0 .6-.5 1.2-1.2 1.2zm-58 356c-.7 0-1.2-.6-1.2-1.2v-3c0-.7.6-1.2 1.2-1.2s1.2.6 1.2 1.2v3c.1.6-.5 1.2-1.2 1.2zm39-185h-.2c-.7-.1-1.1-.8-1-1.5l1-5 1-4.1c.2-.7.8-1.1 1.5-.9.7.2 1.1.8.9 1.5l-1 4-1 4.9c-.1.7-.6 1.1-1.2 1.1zm18-106c-.7 0-1.2-.6-1.2-1.2v-1c0-.7.6-1.2 1.2-1.2s1.2.6 1.2 1.2v1c.1.6-.5 1.2-1.2 1.2z"/><path class="st0" d="M7.4 523.3c-.7 0-1.2-.6-1.2-1.2v-3c0-.7.6-1.2 1.2-1.2s1.2.6 1.2 1.2v3c.1.6-.5 1.2-1.2 1.2zm272-511l-48-1c-.7 0-1.2-.6-1.2-1.3 0-.7.6-1.2 1.2-1.2l48 1c.7 0 1.2.6 1.2 1.3 0 .6-.5 1.2-1.2 1.2z"/><path class="st0" d="M325.4 59.3c-.6 0-1.2-.5-1.2-1.1l-1-8-2-7.9-2.9-7.7-4.9-5.8-5.9-5.9-5.8-4.8-6.8-2.9-7.7-2.9h-7.8c-.7 0-1.2-.6-1.2-1.2 0-.7.6-1.2 1.2-1.2h8c.1 0 .3 0 .4.1l8 3 7.1 3c.1 0 .2.1.3.2l6 5 6.1 6.1 5.1 6.1c.1.1.2.2.2.4l3 8 2 8.1 1 8.1c.1.7-.4 1.3-1.1 1.4 0-.1-.1-.1-.1-.1zm-4 501c-.3 0-.6-.1-.9-.4-.5-.5-.5-1.3 0-1.8l1-1c.5-.5 1.3-.5 1.8 0s.5 1.3 0 1.8l-1 1c-.3.3-.6.4-.9.4zm-90-33h-129c-.7 0-1.2-.6-1.2-1.2s.6-1.2 1.2-1.2h129c.7 0 1.2.6 1.2 1.2s-.5 1.2-1.2 1.2z"/><path class="st0" d="M102.4 527.3h-.2c-.7-.1-1.2-.7-1.1-1.4l35-276c.1-.7.6-1.2 1.4-1.1.7.1 1.2.7 1.1 1.4l-35 276c0 .6-.6 1.1-1.2 1.1z"/><path class="st0" d="M231.4 251.3h-94c-.7 0-1.2-.6-1.2-1.2 0-.7.6-1.2 1.2-1.2h94c.7 0 1.2.6 1.2 1.2.1.6-.5 1.2-1.2 1.2zm-31 46c-.7 0-1.2-.5-1.2-1.2s.5-1.3 1.2-1.3l31-1c.7 0 1.2.5 1.2 1.2s-.5 1.3-1.2 1.3l-31 1z"/><path class="st0" d="M186.4 310.3c-.7 0-1.2-.6-1.2-1.2v-4c0-.3.1-.5.3-.8l3-4 3.1-3.1c.1-.1.3-.2.4-.3l5-2c.2-.1.3-.1.5-.1h3c.7 0 1.2.6 1.2 1.2 0 .7-.6 1.2-1.2 1.2h-2.8l-4.5 1.8-2.8 2.8-2.6 3.5v3.6c-.1.8-.7 1.4-1.4 1.4z"/><path class="st0" d="M200.4 323.3h-.2l-5-1c-.1 0-.2-.1-.3-.1l-4-2c-.2-.1-.3-.2-.4-.4l-3-4-2.1-4.2c-.1-.2-.1-.4-.1-.6v-2c0-.7.6-1.2 1.2-1.2.7 0 1.2.6 1.2 1.2v1.7l1.9 3.7 2.7 3.6 3.6 1.8 4.8 1c.7.1 1.1.8 1 1.5-.2.6-.7 1-1.3 1z"/><path class="st0" d="M231.4 527.3c-.7 0-1.2-.6-1.2-1.2V324.2l-29.8-1c-.7 0-1.2-.6-1.2-1.3 0-.7.6-1.2 1.2-1.2l31 1c.7 0 1.2.6 1.2 1.2v203c.1.8-.5 1.4-1.2 1.4zm0-231c-.7 0-1.2-.6-1.2-1.2v-45c0-.7.6-1.2 1.2-1.2.7 0 1.2.6 1.2 1.2v45c.1.6-.5 1.2-1.2 1.2zm-94-45c-.7 0-1.2-.6-1.2-1.2v-33c0-.7.6-1.2 1.2-1.2s1.2.6 1.2 1.2v33c0 .6-.5 1.2-1.2 1.2z"/><path class="st0" d="M231.4 251.3c-.7 0-1.2-.6-1.2-1.2v-33c0-.7.6-1.2 1.2-1.2.7 0 1.2.6 1.2 1.2v33c.1.6-.5 1.2-1.2 1.2zm-129 290c-.7 0-1.2-.6-1.2-1.2v-14c0-.7.6-1.2 1.2-1.2s1.2.6 1.2 1.2v14c0 .6-.5 1.2-1.2 1.2zm129 0c-.7 0-1.2-.6-1.2-1.2v-14c0-.7.6-1.2 1.2-1.2.7 0 1.2.6 1.2 1.2v14c.1.6-.5 1.2-1.2 1.2z"/><path class="st0" d="M102.4 527.3h-88c-.7 0-1.2-.6-1.2-1.2s.6-1.2 1.2-1.2h88c.7 0 1.2.6 1.2 1.2s-.5 1.2-1.2 1.2z"/><path class="st0" d="M14.4 527.3h-6c-.7 0-1.2-.6-1.2-1.2s.6-1.2 1.2-1.2h6c.7 0 1.2.6 1.2 1.2s-.5 1.2-1.2 1.2z"/><path class="st0" d="M8.4 527.3h-1c-.7 0-1.2-.6-1.2-1.2s.6-1.2 1.2-1.2h1c.7 0 1.2.6 1.2 1.2s-.5 1.2-1.2 1.2z"/><path class="st0" d="M7.4 527.3c-.7 0-1.3-.6-1.2-1.3l1-29 5-27.2 5-28 7-27.1 7-28 26-98 4-18.9 2-19.9c.1-.7.6-1.2 1.4-1.1.7.1 1.2.7 1.1 1.4l-2 20-4 19.1-10 38.1-16 60-7 28-7 27-5 27.9-5 27-1 28.8c-.1.6-.6 1.2-1.3 1.2z"/><path class="st0" d="M137.4 251.3h-73c-.7 0-1.2-.6-1.2-1.2 0-.7.6-1.2 1.2-1.2h73c.7 0 1.2.6 1.2 1.2s-.5 1.2-1.2 1.2z"/><path class="st0" d="M64.4 251.3c-.7 0-1.2-.6-1.2-1.2v-3c0-.7.6-1.2 1.2-1.2s1.2.6 1.2 1.2v3c.1.6-.5 1.2-1.2 1.2zm37 322c-.7 0-1.2-.6-1.2-1.2v-14l1-18.1c0-.7.6-1.2 1.3-1.2.7 0 1.2.6 1.2 1.3l-1 18V572c-.1.7-.6 1.3-1.3 1.3zm130 0c-.7 0-1.2-.6-1.2-1.2v-32c0-.7.6-1.2 1.2-1.2.7 0 1.2.6 1.2 1.2v32c.1.6-.5 1.2-1.2 1.2zm-45-419c-.7 0-1.2-.6-1.2-1.2v-3c0-.3.1-.6.4-.9l3-3 3.2-2.2 5.2-2.1c.1-.1.3-.1.5-.1h3c.7 0 1.2.6 1.2 1.2 0 .7-.6 1.2-1.2 1.2h-2.8l-4.8 1.9-2.8 1.9-2.4 2.5v2.5c0 .7-.6 1.3-1.3 1.3z"/><path class="st0" d="M200.4 165.3h-.2l-5-1c-.1 0-.2-.1-.3-.1l-4-2c-.1-.1-.2-.1-.3-.2l-3-3-2.2-3.2c-.1-.2-.2-.4-.2-.7v-2c0-.7.6-1.2 1.2-1.2.7 0 1.2.6 1.2 1.2v1.6l1.8 2.7 2.7 2.7 3.7 1.8 4.8 1c.7.1 1.1.8 1 1.5-.1.5-.6.9-1.2.9z"/><path class="st0" d="M231.4 165.3h-31c-.7 0-1.2-.6-1.2-1.2 0-.7.6-1.2 1.2-1.2h31c.7 0 1.2.6 1.2 1.2.1.6-.5 1.2-1.2 1.2zm-31-153h-14c-.7 0-1.2-.6-1.2-1.2 0-.7.6-1.2 1.2-1.2h14c.7 0 1.2.6 1.2 1.2s-.5 1.2-1.2 1.2z"/><path class="st0" d="M200.4 144.3c-.7 0-1.2-.5-1.2-1.2s.5-1.3 1.2-1.3l29.8-1V11.3l-29.7 1c-.7 0-1.2-.5-1.2-1.2s.5-1.3 1.2-1.3l31-1c.4 0 .7.1.9.4.2.2.4.6.4.9v132c0 .7-.5 1.2-1.2 1.2l-31.2 1zm31 74c-.7 0-1.2-.6-1.2-1.2v-53c0-.7.6-1.2 1.2-1.2.7 0 1.2.6 1.2 1.2v53c.1.6-.5 1.2-1.2 1.2zm-167 30c-.7 0-1.2-.6-1.2-1.2v-32c0-.7.6-1.2 1.2-1.2s1.2.6 1.2 1.2v32c.1.6-.5 1.2-1.2 1.2zm1-80c-.7 0-1.2-.6-1.2-1.2v-5c0-.7.6-1.2 1.2-1.2s1.2.6 1.2 1.2v5c0 .6-.5 1.2-1.2 1.2z"/><path class="st0" d="M65.4 163.3c-.7 0-1.2-.6-1.2-1.2v-12c0-.7.6-1.2 1.2-1.2s1.2.6 1.2 1.2v12c0 .6-.5 1.2-1.2 1.2zm166 427l-129-1c-.7 0-1.2-.6-1.2-1.3 0-.7.6-1.2 1.2-1.2l129 1c.7 0 1.2.6 1.2 1.3 0 .6-.5 1.2-1.2 1.2z"/><path class="st0" d="M102.4 589.3c-.7 0-1.2-.6-1.2-1.2v-.7l-.9-1.7c-.1-.2-.1-.4-.1-.6v-13c0-.7.6-1.2 1.2-1.2.7 0 1.2.6 1.2 1.2v12.7l.9 1.7c.1.2.1.4.1.6v1c0 .6-.5 1.2-1.2 1.2zm129 1c-.7 0-1.2-.6-1.2-1.2v-17c0-.7.6-1.2 1.2-1.2.7 0 1.2.6 1.2 1.2v17c.1.6-.5 1.2-1.2 1.2z"/><path class="st0" d="M102.4 589.3l-18.1-1-34.2-6-16.1-6.1-7.2-4.1c-.1-.1-.2-.1-.3-.2l-10-10-4.2-6.2-3.1-7.2-2.1-7.1-1-15.3c0-.7.5-1.3 1.2-1.3.8 0 1.3.5 1.3 1.2l1 15 2 6.7 2.9 6.9 3.9 5.8 9.7 9.7L35 574l15.8 5.9 33.8 5.9 17.9 1c.7 0 1.2.6 1.2 1.3-.1.7-.6 1.2-1.3 1.2zm129-441c-.7 0-1.2-.6-1.2-1.2v-5c0-.7.6-1.2 1.2-1.2.7 0 1.2.6 1.2 1.2v5c.1.6-.5 1.2-1.2 1.2zm-193 217h-.3c-.7-.2-1-.9-.9-1.5l2-7 10-36c.2-.7.9-1.1 1.5-.9.7.2 1.1.9.9 1.5l-12 43c-.2.5-.7.9-1.2.9z"/><path class="st0" d="M7.4 527.3c-.7 0-1.2-.6-1.2-1.2v-4c0-.7.6-1.2 1.2-1.2s1.2.6 1.2 1.2v4c.1.6-.5 1.2-1.2 1.2z"/><path class="st0" d="M8.4 540.3c-.7 0-1.2-.6-1.2-1.2v-4l-1-8.9v-14.1l1-4.3c.2-.7.8-1.1 1.5-.9.7.2 1.1.8.9 1.5l-1 4v13.7l1 8.9v4.1c.1.6-.5 1.2-1.2 1.2zm17 30c-.2 0-.5-.1-.7-.2l-3-2c-.6-.4-.7-1.2-.3-1.7s1.2-.7 1.7-.3l3 2c.6.4.7 1.2.3 1.7-.2.3-.6.5-1 .5zm39-322c-.7 0-1.2-.6-1.2-1.2v-18c0-.7.6-1.2 1.2-1.2s1.2.6 1.2 1.2v18c.1.6-.5 1.2-1.2 1.2zm0-25c-.7 0-1.2-.6-1.2-1.2v-6c0-.7.6-1.2 1.2-1.2s1.2.6 1.2 1.2v6c.1.6-.5 1.2-1.2 1.2z"/><path class="st0" d="M64.4 216.3c-.7 0-1.2-.6-1.2-1.2v-25l1-10.1v-12.9c0-.7.6-1.2 1.2-1.2s1.2.6 1.2 1.2v13l-1 10.1v24.9c.1.6-.5 1.2-1.2 1.2zm0 14c-.7 0-1.2-.6-1.2-1.2v-7c0-.7.6-1.2 1.2-1.2s1.2.6 1.2 1.2v7c.1.6-.5 1.2-1.2 1.2zm49 359h-11c-.7 0-1.2-.6-1.2-1.2s.6-1.2 1.2-1.2h11c.7 0 1.2.6 1.2 1.2s-.5 1.2-1.2 1.2zm-65-8c-.2 0-.3 0-.5-.1l-5-2c-.6-.3-1-1-.7-1.6.3-.6 1-.9 1.6-.7l5 2c.6.3 1 1 .7 1.6-.1.5-.6.8-1.1.8zm202 29c-.7 0-1.2-.6-1.2-1.2v-20c0-.7.6-1.2 1.2-1.2.7 0 1.2.6 1.2 1.2v20c0 .6-.5 1.2-1.2 1.2z"/><path class="st0" d="M250.4 610.3h-137c-.7 0-1.2-.6-1.2-1.2s.6-1.2 1.2-1.2h137c.7 0 1.2.6 1.2 1.2s-.5 1.2-1.2 1.2z"/><path class="st0" d="M113.4 610.3c-.7 0-1.2-.6-1.2-1.2v-21c0-.7.6-1.2 1.2-1.2s1.2.6 1.2 1.2v21c.1.6-.5 1.2-1.2 1.2zm-68-30h-.2l-7-1c-.7-.1-1.2-.7-1.1-1.4.1-.7.7-1.2 1.4-1.1l7 1c.7.1 1.2.7 1.1 1.4-.1.6-.6 1.1-1.2 1.1z"/><path class="st0" d="M38.4 579.3c-.7 0-1.2-.6-1.2-1.2v-2c0-.7.6-1.2 1.2-1.2s1.2.6 1.2 1.2v2c.1.6-.5 1.2-1.2 1.2zm241-328h-48c-.7 0-1.2-.6-1.2-1.2 0-.7.6-1.2 1.2-1.2h48c.7 0 1.2.6 1.2 1.2s-.5 1.2-1.2 1.2z"/><path class="st0" d="M231.4 251.3c-.3 0-.6-.2-.9-.4-.2-.3-.4-.6-.4-.9 0-.3.2-.6.4-.9.5-.4 1.3-.4 1.8 0 .2.3.4.6.4.9 0 .3-.2.6-.4.9-.3.2-.6.4-.9.4z"/><path class="st0" d="M231.4 250.3c-.7 0-1.2-.6-1.2-1.2v-32c0-.7.6-1.2 1.2-1.2.7 0 1.2.6 1.2 1.2v32c.1.6-.5 1.2-1.2 1.2z"/><path class="st0" d="M231.4 251.3c-.7 0-1.2-.6-1.2-1.2v-1c0-.7.6-1.2 1.2-1.2.7 0 1.2.6 1.2 1.2v1c.1.6-.5 1.2-1.2 1.2zm0 276c-.7 0-1.2-.5-1.2-1.2s.5-1.3 1.2-1.3l48-1c.7 0 1.2.5 1.2 1.2s-.5 1.3-1.2 1.3l-48 1z"/><path class="st0" d="M231.4 527.3c-.7 0-1.2-.6-1.2-1.2V250c0-.7.6-1.2 1.2-1.2.7 0 1.2.6 1.2 1.2v276c.1.7-.5 1.3-1.2 1.3z"/><path class="st0" d="M231.4 534.3c-.7 0-1.2-.6-1.2-1.2v-7c0-.7.6-1.2 1.2-1.2.7 0 1.2.6 1.2 1.2v7c.1.6-.5 1.2-1.2 1.2z"/><path class="st0" d="M231.4 541.3c-.7 0-1.2-.6-1.2-1.2v-7c0-.7.6-1.2 1.2-1.2.7 0 1.2.6 1.2 1.2v7c.1.6-.5 1.2-1.2 1.2zm68-15c-.6 0-1.2-.5-1.2-1.1-.1-.7.4-1.3 1.1-1.4l11-1c.7-.2 1.3.4 1.4 1.1.1.7-.4 1.3-1.1 1.4l-11 1h-.2z"/><path class="st0" d="M299.4 526.3h-4c-.7 0-1.2-.6-1.2-1.2s.6-1.2 1.2-1.2h4c.7 0 1.2.6 1.2 1.2s-.5 1.2-1.2 1.2z"/><path class="st0" d="M295.4 526.3h-12c-.7 0-1.2-.6-1.2-1.2s.6-1.2 1.2-1.2h12c.7 0 1.2.6 1.2 1.2s-.5 1.2-1.2 1.2z"/><path class="st0" d="M283.4 526.3h-4c-.7 0-1.2-.6-1.2-1.2s.6-1.2 1.2-1.2h4c.7 0 1.2.6 1.2 1.2s-.5 1.2-1.2 1.2zm42-275h-46c-.7 0-1.2-.6-1.2-1.2 0-.7.6-1.2 1.2-1.2h46c.7 0 1.2.6 1.2 1.2s-.5 1.2-1.2 1.2z"/><path class="st0" d="M325.4 523.3c-.7 0-1.2-.6-1.2-1.2V250c0-.7.6-1.2 1.2-1.2.7 0 1.2.6 1.2 1.2v272c0 .7-.5 1.3-1.2 1.3z"/><path class="st0" d="M325.4 523.2c-.3 0-.7-.1-.9-.3-.2-.2-.3-.6-.3-.9 0-.3.1-.7.3-.9.5-.5 1.3-.5 1.8 0 .2.2.3.6.3.9 0 .3-.1.7-.3.9-.3.2-.6.3-.9.3z"/><path class="st0" d="M322.4 524.3c-.5 0-1-.3-1.2-.8-.2-.7.1-1.4.8-1.6l3-1c.7-.3 1.4.1 1.6.8.2.7-.1 1.4-.8 1.6l-3 1h-.4z"/><path class="st0" d="M322.4 524.3h-1c-.7 0-1.2-.6-1.2-1.2s.6-1.2 1.2-1.2h1c.7 0 1.2.6 1.2 1.2s-.5 1.2-1.2 1.2z"/><path class="st0" d="M313.4 525.3c-.6 0-1.2-.5-1.2-1.1-.1-.7.4-1.3 1.1-1.4l8-1c.8-.1 1.3.4 1.4 1.1.1.7-.4 1.3-1.1 1.4l-8 1h-.2z"/><path class="st0" d="M313.4 525.3h-3c-.7 0-1.2-.6-1.2-1.2s.6-1.2 1.2-1.2h3c.7 0 1.2.6 1.2 1.2s-.5 1.2-1.2 1.2zm12-274c-.7 0-1.2-.6-1.2-1.2v-13c0-.7.6-1.2 1.2-1.2.7 0 1.2.6 1.2 1.2v13c0 .6-.5 1.2-1.2 1.2zm0 292c-.7 0-1.2-.6-1.2-1.2v-20c0-.7.6-1.2 1.2-1.2.7 0 1.2.6 1.2 1.2v20c0 .6-.5 1.2-1.2 1.2zm-94-524c-.7 0-1.2-.6-1.2-1.2v-8c0-.7.6-1.2 1.2-1.2.7 0 1.2.6 1.2 1.2v8c.1.6-.5 1.2-1.2 1.2z"/><path class="st0" d="M231.4 218.3c-.7 0-1.2-.6-1.2-1.2V10c0-.7.6-1.2 1.2-1.2.7 0 1.2.6 1.2 1.2v207c.1.7-.5 1.3-1.2 1.3zm94-151c-.7 0-1.2-.6-1.2-1.2v-8c0-.7.6-1.2 1.2-1.2.7 0 1.2.6 1.2 1.2v8c0 .6-.5 1.2-1.2 1.2z"/><path class="st0" d="M325.4 96.3c-.7 0-1.2-.6-1.2-1.2V66c0-.7.6-1.2 1.2-1.2.7 0 1.2.6 1.2 1.2v29c0 .7-.5 1.3-1.2 1.3z"/><path class="st0" d="M325.4 127.3c-.7 0-1.2-.6-1.2-1.2V95c0-.7.6-1.2 1.2-1.2.7 0 1.2.6 1.2 1.2v31c0 .7-.5 1.3-1.2 1.3z"/><path class="st0" d="M325.4 238.3c-.7 0-1.2-.6-1.2-1.2V126c0-.7.6-1.2 1.2-1.2.7 0 1.2.6 1.2 1.2v111c0 .7-.5 1.3-1.2 1.3zm-46 352h-48c-.7 0-1.2-.6-1.2-1.2 0-.7.6-1.2 1.2-1.2h48c.7 0 1.2.6 1.2 1.2s-.5 1.2-1.2 1.2zm-48-5c-.7 0-1.2-.6-1.2-1.2v-12c0-.7.6-1.2 1.2-1.2.7 0 1.2.6 1.2 1.2v12c.1.6-.5 1.2-1.2 1.2z"/><path class="st0" d="M231.4 587.3c-.7 0-1.2-.6-1.2-1.2v-2c0-.7.6-1.2 1.2-1.2.7 0 1.2.6 1.2 1.2v2c.1.6-.5 1.2-1.2 1.2z"/><path class="st0" d="M231.4 590.3c-.7 0-1.2-.6-1.2-1.2v-3c0-.7.6-1.2 1.2-1.2.7 0 1.2.6 1.2 1.2v3c.1.6-.5 1.2-1.2 1.2z"/><path class="st0" d="M231.4 590.3c-.3 0-.6-.2-.9-.4-.2-.2-.4-.5-.4-.9 0-.3.2-.7.4-.9.5-.5 1.3-.5 1.8 0 .2.2.3.6.3.9 0 .3-.1.7-.3.9-.3.2-.6.4-.9.4zm94-44c-.7 0-1.2-.6-1.2-1.2v-3c0-.7.6-1.2 1.2-1.2.7 0 1.2.6 1.2 1.2v3c0 .6-.5 1.2-1.2 1.2z"/><path class="st0" d="M324.4 554.3h-.2c-.7-.1-1.2-.7-1.1-1.4l1-8c.1-.7.6-1.2 1.4-1.1.7.1 1.2.7 1.1 1.4l-1 8c0 .6-.6 1.1-1.2 1.1z"/><path class="st0" d="M323.4 558.3h-.3c-.7-.2-1.1-.8-.9-1.5l1-4c.2-.7.9-1.1 1.5-.9.7.2 1.1.8.9 1.5l-1 4c-.1.5-.7.9-1.2.9z"/><path class="st0" d="M321.4 562.3c-.2 0-.4 0-.6-.1-.6-.3-.9-1.1-.6-1.7l2-4c.3-.6 1.1-.9 1.7-.6.6.3.9 1.1.6 1.7l-2 4c-.2.4-.6.7-1.1.7z"/><path class="st0" d="M315.4 572.3c-.2 0-.4-.1-.6-.2-.6-.4-.8-1.1-.4-1.7l6-10c.4-.6 1.1-.8 1.7-.4.6.4.8 1.1.4 1.7l-6 10c-.3.4-.7.6-1.1.6z"/><path class="st0" d="M308.4 579.3c-.3 0-.6-.1-.8-.3-.5-.4-.6-1.2-.1-1.8l6-7c.4-.5 1.2-.6 1.8-.1.5.4.6 1.2.1 1.8l-6 7c-.3.2-.7.4-1 .4z"/><path class="st0" d="M306.4 580.3c-.5 0-.9-.3-1.1-.7-.3-.6-.1-1.4.6-1.7l2-1c.6-.3 1.4-.1 1.7.6.3.6.1 1.4-.6 1.7l-2 1c-.2 0-.4.1-.6.1z"/><path class="st0" d="M298.4 585.3c-.5 0-.9-.3-1.1-.7-.3-.6-.1-1.4.6-1.7l4-2 3.8-2.9c.6-.4 1.3-.3 1.7.2.4.6.3 1.3-.2 1.7l-4 3-4.2 2.1c-.2.2-.4.3-.6.3z"/><path class="st0" d="M279.4 590.3c-.6 0-1.1-.4-1.2-1-.1-.7.3-1.3 1-1.5l10-2 8.8-2.9c.7-.3 1.4.1 1.6.8.2.7-.1 1.4-.8 1.6l-9 3-10.1 2.1c-.1-.1-.2-.1-.3-.1zm-48-571c-.7 0-1.2-.6-1.2-1.2v-8c0-.7.6-1.2 1.2-1.2.7 0 1.2.6 1.2 1.2v8c.1.6-.5 1.2-1.2 1.2zm-94 199c-.7 0-1.2-.6-1.2-1.2V11c0-.7.6-1.2 1.2-1.2s1.2.6 1.2 1.2v206c0 .7-.5 1.3-1.2 1.3zm-73 33c-.3 0-.7-.2-.9-.4-.2-.3-.4-.6-.4-.9 0-.3.2-.7.4-.9.5-.4 1.3-.5 1.8 0 .2.2.4.6.4.9 0 .3-.2.6-.4.9-.3.2-.6.4-.9.4zm-57 275.9c-.3 0-.6-.1-.9-.3-.2-.2-.3-.6-.3-.9s.1-.6.3-.9c.4-.5 1.3-.5 1.8 0 .2.3.4.6.4.9s-.2.6-.4.9c-.3.2-.6.3-.9.3zm224 56c-.3 0-.6-.1-.9-.3-.2-.2-.4-.6-.4-.9 0-.4.2-.7.4-.9.4-.5 1.3-.5 1.8 0 .2.2.4.5.4.9 0 .3-.2.7-.4.9-.2.2-.6.3-.9.3zM112.9 664.4v3.2H95.1c0-.8.1-1.6.4-2.3.5-1.2 1.2-2.4 2.2-3.6 1-1.2 2.4-2.5 4.3-4.1 2.9-2.4 4.9-4.3 5.9-5.7 1-1.4 1.5-2.7 1.5-4 0-1.3-.5-2.4-1.4-3.3-.9-.9-2.1-1.3-3.7-1.3s-2.9.5-3.8 1.4c-1 .9-1.4 2.3-1.4 4l-3.4-.4c.2-2.5 1.1-4.5 2.6-5.8 1.5-1.3 3.5-2 6.1-2 2.6 0 4.6.7 6.1 2.1 1.5 1.4 2.3 3.2 2.3 5.3 0 1.1-.2 2.1-.7 3.2-.4 1-1.2 2.1-2.2 3.3-1 1.2-2.7 2.7-5.1 4.7-2 1.7-3.2 2.8-3.8 3.4-.6.6-1 1.2-1.4 1.8h13.3zm3.5-10.1c0-3.2.3-5.7 1-7.7.7-1.9 1.6-3.4 2.9-4.5 1.3-1 2.9-1.6 4.9-1.6 1.4 0 2.7.3 3.8.9 1.1.6 2 1.4 2.7 2.5.7 1.1 1.3 2.4 1.7 4 .4 1.6.6 3.7.6 6.3 0 3.2-.3 5.7-1 7.6-.6 1.9-1.6 3.4-2.9 4.5-1.3 1.1-2.9 1.6-4.9 1.6-2.6 0-4.6-.9-6.1-2.8-1.8-2.1-2.7-5.7-2.7-10.8zm3.4 0c0 4.4.5 7.3 1.5 8.8 1 1.5 2.3 2.2 3.8 2.2s2.8-.7 3.8-2.2c1-1.5 1.5-4.4 1.5-8.8s-.5-7.4-1.5-8.8c-1-1.4-2.3-2.2-3.9-2.2-1.5 0-2.7.6-3.6 1.9-1 1.7-1.6 4.7-1.6 9.1zm19.2 13.3v-3.8h3.8v3.8c0 1.4-.2 2.5-.7 3.3s-1.3 1.5-2.3 2l-.9-1.4c.7-.3 1.2-.8 1.5-1.3.3-.6.5-1.4.6-2.6h-2zm8.7-7.1l3.3-.4c.4 1.9 1 3.2 1.9 4 .9.8 2 1.2 3.3 1.2 1.6 0 2.9-.5 3.9-1.6s1.6-2.4 1.6-4c0-1.5-.5-2.8-1.5-3.8s-2.2-1.5-3.8-1.5c-.6 0-1.4.1-2.3.4l.4-2.9h.5c1.4 0 2.7-.4 3.8-1.1s1.7-1.9 1.7-3.4c0-1.2-.4-2.2-1.2-3-.8-.8-1.9-1.2-3.2-1.2-1.3 0-2.4.4-3.2 1.2-.9.8-1.4 2-1.6 3.6l-3.3-.6c.4-2.2 1.3-3.9 2.7-5.1 1.4-1.2 3.2-1.8 5.3-1.8 1.5 0 2.8.3 4 .9 1.2.6 2.2 1.5 2.8 2.6.7 1.1 1 2.2 1 3.5 0 1.2-.3 2.2-.9 3.2-.6.9-1.6 1.7-2.8 2.3 1.6.4 2.8 1.1 3.7 2.3.9 1.2 1.3 2.6 1.3 4.3 0 2.3-.8 4.3-2.6 6-1.7 1.6-3.9 2.5-6.5 2.5-2.4 0-4.3-.7-5.9-2.1-1.3-1.5-2.2-3.3-2.4-5.5zm20.8-6.2c0-3.2.3-5.7 1-7.7.7-1.9 1.6-3.4 2.9-4.5 1.3-1 2.9-1.6 4.9-1.6 1.4 0 2.7.3 3.8.9 1.1.6 2 1.4 2.7 2.5.7 1.1 1.3 2.4 1.7 4 .4 1.6.6 3.7.6 6.3 0 3.2-.3 5.7-1 7.6-.6 1.9-1.6 3.4-2.9 4.5-1.3 1.1-2.9 1.6-4.9 1.6-2.6 0-4.6-.9-6.1-2.8-1.8-2.1-2.7-5.7-2.7-10.8zm3.4 0c0 4.4.5 7.3 1.6 8.8 1 1.5 2.3 2.2 3.8 2.2s2.8-.7 3.8-2.2c1-1.5 1.5-4.4 1.5-8.8s-.5-7.4-1.5-8.8c-1-1.4-2.3-2.2-3.9-2.2-1.5 0-2.7.6-3.6 1.9-1.1 1.7-1.7 4.7-1.7 9.1zm18.4 13.3v-19.4h2.9v2.7c.6-.9 1.4-1.7 2.4-2.3 1-.6 2.2-.9 3.5-.9 1.4 0 2.6.3 3.5.9.9.6 1.6 1.4 1.9 2.5 1.5-2.3 3.5-3.4 6-3.4 1.9 0 3.4.5 4.5 1.6 1 1.1 1.6 2.7 1.6 4.9v13.3h-3.3v-12.2c0-1.3-.1-2.3-.3-2.9s-.6-1-1.2-1.4c-.6-.4-1.2-.5-2-.5-1.4 0-2.5.5-3.4 1.4-.9.9-1.3 2.4-1.3 4.4v11.3h-3.3V655c0-1.5-.3-2.6-.8-3.3s-1.4-1.1-2.6-1.1c-.9 0-1.8.2-2.6.7-.8.5-1.4 1.2-1.7 2.1-.4.9-.5 2.3-.5 4.1v10.1h-3.3zm31.2 0v-19.4h2.9v2.7c.6-.9 1.4-1.7 2.4-2.3 1-.6 2.2-.9 3.5-.9 1.4 0 2.6.3 3.5.9.9.6 1.6 1.4 1.9 2.5 1.5-2.3 3.5-3.4 6-3.4 1.9 0 3.4.5 4.5 1.6 1 1.1 1.6 2.7 1.6 4.9v13.3h-3.3v-12.2c0-1.3-.1-2.3-.3-2.9s-.6-1-1.2-1.4c-.6-.4-1.2-.5-2-.5-1.4 0-2.5.5-3.4 1.4-.9.9-1.3 2.4-1.3 4.4v11.3H233V655c0-1.5-.3-2.6-.8-3.3-.5-.7-1.4-1.1-2.6-1.1-.9 0-1.8.2-2.6.7-.8.5-1.4 1.2-1.7 2.1-.4.9-.5 2.3-.5 4.1v10.1h-3.3z"/></svg>