<svg id="Layer_1" xmlns="http://www.w3.org/2000/svg" viewBox="0 0 768 763"><style>.st0{fill:#fff}.st1{opacity:.3}</style><path class="st0" d="M765.7 116.9h-10.9l5.5-34.2 5.4 34.2zm-8-2.5h5.1l-2.5-15.8-2.6 15.8zm2.5 581.5l-5.5-35.5h10.9l-5.4 35.5zm-2.5-33l2.5 16.5 2.5-16.5h-5zM1.2 322.9c-.7 0-1.3-.6-1.3-1.2v-296c0-.7.6-1.3 1.3-1.3s1.3.6 1.3 1.3v296c0 .7-.6 1.2-1.3 1.2zm664 0c-.7 0-1.2-.6-1.2-1.2v-296c0-.7.6-1.3 1.2-1.3.7 0 1.3.6 1.3 1.3v296c0 .7-.6 1.2-1.3 1.2z"/><path class="st0" d="M665.2 34.9H1.2c-.7 0-1.3-.6-1.3-1.3s.6-1.3 1.3-1.3h664c.7 0 1.3.6 1.3 1.3 0 .8-.6 1.3-1.3 1.3zm103 57h-427c-.7 0-1.3-.6-1.3-1.3 0-.7.6-1.2 1.3-1.2h427c.7 0 1.2.6 1.2 1.2.1.8-.5 1.3-1.2 1.3zm0 597h-193c-.7 0-1.2-.6-1.2-1.2s.6-1.2 1.2-1.2h193c.7 0 1.2.6 1.2 1.2s-.5 1.2-1.2 1.2z"/><path class="st0" d="M760.2 688.9c-.7 0-1.2-.6-1.2-1.2v-597c0-.7.6-1.2 1.2-1.2s1.3.6 1.3 1.2v597c0 .7-.6 1.2-1.3 1.2zm-95-655.2l-26 4v-8m-638 4l26-4v8m66 631.2c-.3 0-.6-.1-.9-.3-.2-.2-.3-.6-.3-.9 0-.3.1-.7.3-.9.5-.4 1.3-.4 1.8 0 .2.3.3.6.3.9 0 .4-.1.7-.3.9-.3.2-.6.3-.9.3zm480 0c-.3 0-.7-.1-.9-.3s-.4-.5-.4-.9c0-.3.2-.7.4-.9.5-.4 1.3-.4 1.8 0 .2.2.4.6.4.9 0 .4-.2.7-.4.9-.3.2-.6.3-.9.3zM59.2 622c-.3 0-.6-.2-.9-.4-.2-.2-.4-.6-.4-.9 0-.3.2-.6.4-.9.5-.4 1.3-.5 1.8 0 .2.2.3.6.3.9 0 .3-.1.7-.3.9-.3.2-.6.4-.9.4zm548 0c-.3 0-.6-.2-.9-.4-.2-.2-.4-.6-.4-.9 0-.3.2-.6.4-.9.5-.4 1.3-.5 1.8 0 .2.3.3.6.3.9 0 .3-.1.7-.3.9s-.6.4-.9.4zm-558-295.1c-.7 0-1.3-.6-1.3-1.2v-1c0-.2 0-.4.1-.6l.9-1.9 1-4.8c.1-.7.7-1.1 1.5-1 .7.1 1.1.8 1 1.5l-1 5c0 .1-.1.2-.1.3l-.9 1.7v.7c.1.8-.5 1.3-1.2 1.3zM347.2 92c-.3 0-.6-.2-.9-.4-.2-.2-.3-.6-.3-.9s.1-.6.3-.9c.5-.4 1.3-.5 1.8 0 .2.3.3.6.3.9s-.1.7-.3.9c-.3.2-.6.4-.9.4zm-291 130.9c-.3 0-.6-.1-.9-.3-.2-.2-.3-.6-.3-.9s.1-.6.3-.9c.5-.5 1.3-.4 1.8 0 .2.3.4.6.4.9s-.2.6-.4.9c-.2.2-.6.3-.9.3zM319.2 92c-.3 0-.7-.2-.9-.4-.2-.2-.4-.6-.4-.9s.2-.6.4-.9c.4-.4 1.3-.5 1.8 0 .2.3.4.6.4.9s-.2.7-.4.9c-.3.2-.6.4-.9.4zm-280 152.9c-.3 0-.6-.1-.9-.3-.2-.3-.3-.6-.3-.9 0-.3.1-.7.3-.9.5-.5 1.3-.4 1.8 0 .2.3.4.6.4.9 0 .3-.2.6-.4.9-.2.2-.6.3-.9.3zM1.2 376c-.3 0-.6-.2-.9-.4-.2-.3-.3-.6-.3-.9s.1-.7.3-.9c.5-.5 1.3-.4 1.8 0 .2.3.4.6.4.9s-.2.6-.4.9c-.2.2-.6.4-.9.4zm0 27c-.4 0-.7-.2-.9-.4-.2-.2-.3-.5-.3-.9 0-.3.1-.7.3-.9.5-.5 1.3-.5 1.8 0 .2.2.4.6.4.9s-.2.6-.4.9c-.2.2-.5.4-.9.4z"/><path class="st0" d="M222.2 108.9c-.6 0-1.1-.4-1.2-.9-.2-.7.2-1.4.9-1.5l11-3 28-7 29.1-5 29.1-2c.7-.1 1.3.5 1.3 1.2s-.5 1.3-1.2 1.3l-29 2-28.9 5-27.9 7-11 3c0-.1-.1-.1-.2-.1zm-166 114c-.3 0-.6-.1-.8-.3-.5-.4-.6-1.2-.2-1.8l8-10 23.1-24.1 26.1-22.1 28.1-19.1 29.1-17 38.1-17.1c.6-.3 1.4 0 1.6.7s0 1.4-.7 1.6l-7 3-31 14-28.9 16.9-27.9 19-25.8 22-22.9 23.9-7.9 9.9c-.2.4-.6.5-1 .5zm585 44c-.4 0-.8-.2-1-.6l-18-27-20.9-26.9-22.9-23.9-25.9-21.9-27.9-18.9-28.9-17-37.9-16.9c-.6-.3-.9-1-.7-1.6.3-.6 1-.9 1.6-.7l7 3 31 14 29.1 17.1 28.1 19 26.1 22.1 23.1 24.1 21.1 27.1 18.1 27.1c.4.6.2 1.4-.4 1.7-.2.2-.4.2-.7.2zm-197-158h-.3l-11-3-28-7-28.9-5-28.9-2c-.7 0-1.2-.6-1.2-1.3 0-.7.6-1.3 1.3-1.2l29 2 29.1 5 28.1 7 11 3c.7.2 1.1.9.9 1.5 0 .7-.5 1-1.1 1zm221 497c-.7 0-1.2-.6-1.2-1.2v-275c0-.7.6-1.2 1.2-1.2.7 0 1.3.6 1.3 1.2v275c0 .7-.6 1.2-1.3 1.2zm-36 61c-.5 0-1-.3-1.2-.8-.3-.6.1-1.4.7-1.6l4.8-1.9 6.8-5.9 4.8-6.8c.4-.6 1.2-.7 1.7-.3.6.4.7 1.2.3 1.7l-5 7-7.2 6.2c-.1.1-.2.2-.3.2l-5 2c-.1.2-.2.2-.4.2zm-12 2h-44c-.7 0-1.2-.6-1.2-1.2s.6-1.2 1.2-1.2h44c.7 0 1.2.6 1.2 1.2s-.5 1.2-1.2 1.2z"/><path class="st0" d="M665.2 330.9c-.7 0-1.2-.6-1.2-1.2v-1c0-.7.6-1.2 1.2-1.2.7 0 1.3.6 1.3 1.2v1c0 .7-.6 1.2-1.3 1.2zm-7-32c-.3 0-.6-.1-.9-.4l-1-1c-.5-.5-.5-1.3 0-1.8s1.3-.5 1.8 0l1 1c.5.5.5 1.3 0 1.8-.2.3-.6.4-.9.4zm-12 353c-.2 0-.4 0-.6-.1-.6-.3-.9-1.1-.6-1.7l16-32c.3-.6 1.1-.9 1.7-.6.6.3.9 1.1.6 1.7l-16 32c-.2.5-.6.7-1.1.7z"/><path class="st0" d="M662.2 619.9h-.3c-.7-.2-1.1-.9-.9-1.5l2-7 1-6.8c.1-.7.8-1.2 1.4-1.1.7.1 1.2.7 1.1 1.4l-1 7-2 7.2c-.2.5-.7.8-1.3.8zm-661-244c-.7 0-1.3-.6-1.3-1.2v-45c0-.7.6-1.2 1.3-1.2s1.3.6 1.3 1.2v45c0 .7-.6 1.2-1.3 1.2zm23-108c-.2 0-.5-.1-.7-.2-.6-.4-.7-1.1-.4-1.7l15-23c.4-.6 1.2-.7 1.7-.4.6.4.7 1.1.4 1.7l-15 23c-.2.4-.6.6-1 .6zm-16 32c-.7 0-1.3-.6-1.3-1.2v-2c0-.7.6-1.2 1.3-1.2s1.3.6 1.3 1.2v2c0 .7-.6 1.2-1.3 1.2z"/><path class="st0" d="M1.2 330.9h-.1c-.7-.1-1.2-.7-1.1-1.3l1-12c.1-.7.6-1.2 1.3-1.1s1.2.7 1.1 1.3l-1 12c0 .6-.5 1.1-1.2 1.1zm48 338l-9.1-1-8.3-3.1c-.1 0-.3-.1-.4-.2l-7-6-.3-.3-4-7c-.3-.6-.1-1.4.5-1.7.6-.4 1.4-.1 1.7.5l3.9 6.8 6.7 5.7 7.8 2.9 8.7.9c.7.1 1.2.7 1.1 1.4-.1.7-.6 1.1-1.3 1.1zm-48-63c-.7 0-1.3-.6-1.3-1.2v-203c0-.7.6-1.2 1.3-1.2s1.3.6 1.3 1.2v203c0 .7-.6 1.2-1.3 1.2z"/><path class="st0" d="M93.2 668.9h-44c-.7 0-1.3-.6-1.3-1.2s.6-1.2 1.3-1.2h44c.7 0 1.2.6 1.2 1.2s-.5 1.2-1.2 1.2zm-72-17c-.5 0-.9-.3-1.1-.7l-16-32c-.3-.6-.1-1.4.6-1.7.6-.3 1.4-.1 1.7.6l16 32c.3.6.1 1.4-.6 1.7-.2.1-.4.1-.6.1z"/><path class="st0" d="M5.2 619.9c-.5 0-.9-.3-1.1-.8l-3-7c0-.1-.1-.2-.1-.3l-1-7c-.1-.7.4-1.3 1.1-1.4.6-.1 1.3.4 1.4 1.1l1 6.8 2.9 6.9c.3.6 0 1.4-.7 1.6-.1.1-.3.1-.5.1zm484 69c-.7 0-1.2-.6-1.2-1.2v-20c0-.7.6-1.2 1.2-1.2s1.2.6 1.2 1.2v20c.1.7-.5 1.2-1.2 1.2z"/><path class="st0" d="M489.2 688.9h-8c-.7 0-1.2-.6-1.2-1.2v-20c0-.7.6-1.2 1.2-1.2s1.2.6 1.2 1.2v18.8h6.8c.7 0 1.2.6 1.2 1.2s-.5 1.2-1.2 1.2zm-78 0c-.7 0-1.2-.6-1.2-1.2v-20c0-.7.6-1.2 1.2-1.2s1.2.6 1.2 1.2v20c.1.7-.5 1.2-1.2 1.2zm8 0c-.7 0-1.2-.6-1.2-1.2v-20c0-.7.6-1.2 1.2-1.2s1.2.6 1.2 1.2v20c.1.7-.5 1.2-1.2 1.2z"/><path class="st0" d="M419.2 688.9h-8c-.7 0-1.2-.6-1.2-1.2s.6-1.2 1.2-1.2h8c.7 0 1.2.6 1.2 1.2s-.5 1.2-1.2 1.2zm46 0c-.7 0-1.2-.6-1.2-1.2v-20c0-.7.6-1.2 1.2-1.2s1.2.6 1.2 1.2v20c.1.7-.5 1.2-1.2 1.2zm-30 0c-.7 0-1.2-.6-1.2-1.2v-20c0-.7.6-1.2 1.2-1.2s1.2.6 1.2 1.2v20c.1.7-.5 1.2-1.2 1.2z"/><path class="st0" d="M481.2 688.9h-16c-.7 0-1.2-.6-1.2-1.2s.6-1.2 1.2-1.2h16c.7 0 1.2.6 1.2 1.2s-.5 1.2-1.2 1.2z"/><path class="st0" d="M465.2 688.9h-46c-.7 0-1.2-.6-1.2-1.2s.6-1.2 1.2-1.2h46c.7 0 1.2.6 1.2 1.2s-.5 1.2-1.2 1.2zm-210 0c-.7 0-1.3-.6-1.3-1.2v-20c0-.7.6-1.2 1.3-1.2s1.2.6 1.2 1.2v20c.1.7-.5 1.2-1.2 1.2zm8 0c-.7 0-1.2-.6-1.2-1.2v-20c0-.7.6-1.2 1.2-1.2s1.2.6 1.2 1.2v20c.1.7-.5 1.2-1.2 1.2z"/><path class="st0" d="M263.2 688.9h-8c-.7 0-1.3-.6-1.3-1.2s.6-1.2 1.3-1.2h8c.7 0 1.2.6 1.2 1.2s-.5 1.2-1.2 1.2zm70 0h-8c-.7 0-1.3-.6-1.3-1.2s.6-1.2 1.3-1.2h8c.7 0 1.2.6 1.2 1.2s-.5 1.2-1.2 1.2z"/><path class="st0" d="M325.2 688.9c-.7 0-1.3-.6-1.3-1.2v-20c0-.7.6-1.2 1.3-1.2.7 0 1.2.6 1.2 1.2v20c.1.7-.5 1.2-1.2 1.2zm8 0c-.7 0-1.3-.6-1.3-1.2v-20c0-.7.6-1.2 1.3-1.2.7 0 1.2.6 1.2 1.2v20c.1.7-.5 1.2-1.2 1.2zm-24 0c-.7 0-1.3-.6-1.3-1.2v-20c0-.7.6-1.2 1.3-1.2.7 0 1.2.6 1.2 1.2v20c.1.7-.5 1.2-1.2 1.2zm-30 0c-.7 0-1.2-.6-1.2-1.2v-20c0-.7.6-1.2 1.2-1.2s1.2.6 1.2 1.2v20c.1.7-.5 1.2-1.2 1.2z"/><path class="st0" d="M325.2 688.9h-16c-.7 0-1.3-.6-1.3-1.2s.6-1.2 1.3-1.2h16c.7 0 1.2.6 1.2 1.2s-.5 1.2-1.2 1.2z"/><path class="st0" d="M309.2 688.9h-46c-.7 0-1.2-.6-1.2-1.2s.6-1.2 1.2-1.2h46c.7 0 1.2.6 1.2 1.2s-.5 1.2-1.2 1.2zm188 0c-.7 0-1.2-.6-1.2-1.2v-20c0-.7.6-1.2 1.2-1.2s1.2.6 1.2 1.2v20c.1.7-.5 1.2-1.2 1.2z"/><path class="st0" d="M497.2 688.9h-8c-.7 0-1.2-.6-1.2-1.2s.6-1.2 1.2-1.2h8c.7 0 1.2.6 1.2 1.2s-.5 1.2-1.2 1.2z"/><path class="st0" d="M489.2 688.9c-.7 0-1.2-.6-1.2-1.2v-20c0-.7.6-1.2 1.2-1.2s1.2.6 1.2 1.2v20c.1.7-.5 1.2-1.2 1.2zm70 0c-.7 0-1.2-.6-1.2-1.2v-20c0-.7.6-1.2 1.2-1.2s1.2.6 1.2 1.2v20c.1.7-.5 1.2-1.2 1.2zm8 0c-.7 0-1.2-.6-1.2-1.2v-20c0-.7.6-1.2 1.2-1.2s1.2.6 1.2 1.2v20c.1.7-.5 1.2-1.2 1.2z"/><path class="st0" d="M567.2 688.9h-8c-.7 0-1.2-.6-1.2-1.2s.6-1.2 1.2-1.2h8c.7 0 1.2.6 1.2 1.2s-.5 1.2-1.2 1.2zm-24 0c-.7 0-1.2-.6-1.2-1.2v-20c0-.7.6-1.2 1.2-1.2s1.2.6 1.2 1.2v20c.1.7-.5 1.2-1.2 1.2zm-30 0c-.7 0-1.2-.6-1.2-1.2v-20c0-.7.6-1.2 1.2-1.2s1.2.6 1.2 1.2v20c.1.7-.5 1.2-1.2 1.2z"/><path class="st0" d="M559.2 688.9h-16c-.7 0-1.2-.6-1.2-1.2s.6-1.2 1.2-1.2h16c.7 0 1.2.6 1.2 1.2s-.5 1.2-1.2 1.2z"/><path class="st0" d="M543.2 688.9h-46c-.7 0-1.2-.6-1.2-1.2s.6-1.2 1.2-1.2h46c.7 0 1.2.6 1.2 1.2s-.5 1.2-1.2 1.2zm-288 0c-.7 0-1.3-.6-1.3-1.2v-20c0-.7.6-1.2 1.3-1.2s1.2.6 1.2 1.2v20c.1.7-.5 1.2-1.2 1.2z"/><path class="st0" d="M255.2 688.9h-8c-.7 0-1.3-.6-1.3-1.2s.6-1.2 1.3-1.2h8c.7 0 1.2.6 1.2 1.2s-.5 1.2-1.2 1.2z"/><path class="st0" d="M247.2 688.9c-.7 0-1.3-.6-1.3-1.2v-20c0-.7.6-1.2 1.3-1.2s1.2.6 1.2 1.2v20c.1.7-.5 1.2-1.2 1.2zm-70 0c-.7 0-1.2-.6-1.2-1.2v-20c0-.7.6-1.2 1.2-1.2s1.3.6 1.3 1.2v20c0 .7-.6 1.2-1.3 1.2zm8 0c-.7 0-1.2-.6-1.2-1.2v-20c0-.7.6-1.2 1.2-1.2s1.3.6 1.3 1.2v20c0 .7-.6 1.2-1.3 1.2z"/><path class="st0" d="M185.2 688.9h-8c-.7 0-1.2-.6-1.2-1.2s.6-1.2 1.2-1.2h8c.7 0 1.3.6 1.3 1.2s-.6 1.2-1.3 1.2zm16 0c-.7 0-1.2-.6-1.2-1.2v-20c0-.7.6-1.2 1.2-1.2s1.3.6 1.3 1.2v20c0 .7-.6 1.2-1.3 1.2zm46 0h-16c-.7 0-1.3-.6-1.3-1.2v-20c0-.7.6-1.2 1.3-1.2s1.2.6 1.2 1.2v18.8h14.8c.7 0 1.2.6 1.2 1.2s-.5 1.2-1.2 1.2z"/><path class="st0" d="M231.2 688.9h-46c-.7 0-1.2-.6-1.2-1.2s.6-1.2 1.2-1.2h46c.7 0 1.2.6 1.2 1.2s-.5 1.2-1.2 1.2zm-54 0h-8c-.7 0-1.2-.6-1.2-1.2s.6-1.2 1.2-1.2h8c.7 0 1.3.6 1.3 1.2s-.6 1.2-1.3 1.2z"/><path class="st0" d="M169.2 688.9c-.7 0-1.2-.6-1.2-1.2v-20c0-.7.6-1.2 1.2-1.2s1.3.6 1.3 1.2v20c0 .7-.6 1.2-1.3 1.2zm8 0c-.7 0-1.2-.6-1.2-1.2v-20c0-.7.6-1.2 1.2-1.2s1.3.6 1.3 1.2v20c0 .7-.6 1.2-1.3 1.2zm-78 0c-.7 0-1.3-.6-1.3-1.2v-20c0-.7.6-1.2 1.3-1.2.7 0 1.2.6 1.2 1.2v20c.1.7-.5 1.2-1.2 1.2z"/><path class="st0" d="M106.2 688.9h-7c-.7 0-1.3-.6-1.3-1.2s.6-1.2 1.3-1.2h5.8v-18.8c0-.7.6-1.2 1.3-1.2s1.3.6 1.3 1.2v20c-.1.7-.7 1.2-1.4 1.2zm47 0c-.7 0-1.2-.6-1.2-1.2v-20c0-.7.6-1.2 1.2-1.2s1.3.6 1.3 1.2v20c0 .7-.6 1.2-1.3 1.2zm-30 0c-.7 0-1.3-.6-1.3-1.2v-20c0-.7.6-1.2 1.3-1.2.7 0 1.2.6 1.2 1.2v20c.1.7-.5 1.2-1.2 1.2z"/><path class="st0" d="M169.2 688.9h-16c-.7 0-1.2-.6-1.2-1.2s.6-1.2 1.2-1.2h16c.7 0 1.3.6 1.3 1.2s-.6 1.2-1.3 1.2z"/><path class="st0" d="M153.2 688.9h-47c-.7 0-1.3-.6-1.3-1.2s.6-1.2 1.3-1.2h47c.7 0 1.3.6 1.3 1.2s-.6 1.2-1.3 1.2zm258 0h-8c-.7 0-1.2-.6-1.2-1.2s.6-1.2 1.2-1.2h6.7v-18.8c0-.7.6-1.2 1.2-1.2s1.2.6 1.2 1.2v20c.2.7-.4 1.2-1.1 1.2z"/><path class="st0" d="M403.2 688.9c-.7 0-1.2-.6-1.2-1.2v-20c0-.7.6-1.2 1.2-1.2s1.2.6 1.2 1.2v20c.1.7-.5 1.2-1.2 1.2zm-62 0c-.7 0-1.3-.6-1.3-1.2v-20c0-.7.6-1.2 1.3-1.2.7 0 1.2.6 1.2 1.2v20c.1.7-.5 1.2-1.2 1.2z"/><path class="st0" d="M341.2 688.9h-8c-.7 0-1.3-.6-1.3-1.2s.6-1.2 1.3-1.2h8c.7 0 1.2.6 1.2 1.2s-.5 1.2-1.2 1.2z"/><path class="st0" d="M333.2 688.9c-.7 0-1.3-.6-1.3-1.2v-20c0-.7.6-1.2 1.3-1.2.7 0 1.2.6 1.2 1.2v20c.1.7-.5 1.2-1.2 1.2zm54 0c-.7 0-1.2-.6-1.2-1.2v-20c0-.7.6-1.2 1.2-1.2s1.2.6 1.2 1.2v20c.1.7-.5 1.2-1.2 1.2zm-30 0c-.7 0-1.3-.6-1.3-1.2v-20c0-.7.6-1.2 1.3-1.2.7 0 1.2.6 1.2 1.2v20c.1.7-.5 1.2-1.2 1.2z"/><path class="st0" d="M403.2 688.9h-16c-.7 0-1.2-.6-1.2-1.2s.6-1.2 1.2-1.2h16c.7 0 1.2.6 1.2 1.2s-.5 1.2-1.2 1.2z"/><path class="st0" d="M387.2 688.9h-46c-.7 0-1.3-.6-1.3-1.2s.6-1.2 1.3-1.2h46c.7 0 1.2.6 1.2 1.2s-.5 1.2-1.2 1.2zm220-67h-548c-.5 0-.9-.3-1.1-.7l-10-20c-.1-.2-.1-.4-.1-.6v-277c0-.2 0-.3.1-.5l3-7L68.2 285l20-30 24.1-26.2 26.1-24.1 23.1-16.1 23.1-14 25.1-12.1 26.1-10 26.1-8 32.2-5 32.1-3h14.1l32.1 2 32.2 6h.1l33 10 31.1 13 31.1 17.1 28.1 20.1 26.1 24.1 24.1 26.1 20.1 30.2 17.1 31.1 2.1 7.3 1 6.1v271.2c0 .2 0 .4-.1.6l-10 20c-.3.3-.7.5-1.2.5zM60 619.4h546.5l9.5-19V329.7l-1-5.8-2-6.9-16.9-30.7-20-29.9-23.9-25.8-25.9-23.9-27.9-19.9-30.9-16.9-30.9-12.9-32.8-9.9-31.9-6-31.9-2h-13.9l-31.9 3-31.9 5-25.8 8-25.9 10-24.9 12-22.9 13.9-22.9 16-25.9 23.9-23.9 25.9-19.9 29.8-16.9 30.9-2.8 6.7v276.5l9.5 18.7zm604.2-13.5c-.7 0-1.2-.6-1.2-1.2v-275c0-.7.6-1.2 1.2-1.2s1.3.6 1.3 1.2v275c0 .7-.6 1.2-1.3 1.2z"/><path class="st0" d="M664.2 605.9c-.3 0-.7-.1-.9-.3s-.4-.6-.4-.9.2-.7.4-.9c.5-.5 1.3-.4 1.8 0 .2.2.3.6.3.9s-.1.6-.3.9c-.3.2-.6.3-.9.3zm-662 0c-.3 0-.6-.1-.9-.3-.2-.3-.3-.6-.3-.9s.1-.7.3-.9c.5-.4 1.3-.5 1.8 0 .2.2.3.6.3.9 0 .4-.1.7-.3.9s-.5.3-.9.3z"/><path class="st0" d="M2.2 605.9c-.7 0-1.3-.6-1.3-1.2v-275c0-.7.6-1.2 1.3-1.2s1.3.6 1.3 1.2v275c0 .7-.6 1.2-1.3 1.2zm47 62h-4c-8.8-1-16.4-5.6-22-13.5l-2.1-4.2c-.3-.6-.1-1.4.6-1.7.6-.3 1.4 0 1.7.6l2 4c5.1 7.1 12.1 11.4 20 12.3h3.9c.7 0 1.3.6 1.3 1.3s-.7 1.2-1.4 1.2zm569 0c-.7 0-1.3-.6-1.3-1.2s.6-1.3 1.3-1.3h4c7.4-.9 15.2-5.7 20-12.5l1.9-3.8c.3-.6 1.1-.9 1.7-.6.6.3.9 1.1.6 1.7l-2 4c-5.3 7.5-13.7 12.7-22 13.7h-4.2z"/><path class="st0" d="M21.2 650.9c-.5 0-.9-.3-1.1-.7l-16-32c-.3-.6-.1-1.4.6-1.7.6-.3 1.4-.1 1.7.6l16 32c.3.6.1 1.4-.6 1.7-.2.1-.4.1-.6.1zm640-32h-1c-.7 0-1.2-.6-1.2-1.2 0-.7.6-1.3 1.2-1.3h1c.7 0 1.2.6 1.2 1.3.1.7-.5 1.2-1.2 1.2z"/><path class="st0" d="M645.2 650.9c-.2 0-.4 0-.6-.1-.6-.3-.9-1.1-.6-1.7l16-32c.3-.6 1.1-.9 1.7-.6.6.3.9 1.1.6 1.7l-16 32c-.2.5-.6.7-1.1.7zm-28 17h-568c-.7 0-1.3-.6-1.3-1.2s.6-1.3 1.3-1.3h568c.7 0 1.2.6 1.2 1.3s-.5 1.2-1.2 1.2zm40-370c-.4 0-.9-.2-1.1-.7l-10-19-22-35.9-12.9-16.9-13.9-15.9-15-16-15.9-13.9-16-13-17-13-17.9-10.9-19-11-18.9-9-19.9-8-19.9-7-20.9-6-19.9-4-20.9-3-21.9-2-20.9-1-20.9 1-21.9 2-19.9 3-21 4-20.9 6-19.9 7-20 8-18.9 9-18.9 11-18 11-34 26-14.9 13.9-14.9 15.9-14 16-12.9 16.9-21.9 35.9-10 18.9c-.3.6-1.1.9-1.7.5-.6-.3-.8-1.1-.5-1.7l10-19 22-36.1 13.1-17.1 14-16.1 15-16 15.1-14.1 34.1-26.1 18.1-11.1 19-11 19.1-9 20.1-8 20-7 21.1-6 21.1-4 20-3 22.1-2 21-1 21.1 1 22.1 2 21.1 3 20.1 4 21.1 6 20.1 7 20.1 8 19.1 9 19.1 11 18 11 17.1 13.1 16 13 16 14 15.1 16.1 14 16 13.1 17.1 22.1 36.1 10 19.1c.3.6.1 1.4-.5 1.7-.3.3-.5.3-.7.3zm7 33c-.6 0-1.2-.5-1.2-1.1l-1-11c-.1-.7.4-1.3 1.1-1.4.6-.1 1.3.4 1.4 1.1l1 11c.1.7-.4 1.3-1.1 1.4h-.2z"/><path class="st0" d="M657.2 298c-.3 0-.6-.2-.9-.4-.2-.2-.3-.6-.3-.9s.1-.7.3-.9c.5-.4 1.3-.5 1.8 0 .2.3.4.6.4.9s-.2.6-.4.9c-.2.2-.6.4-.9.4z"/><path class="st0" d="M661.2 308.9c-.5 0-1-.3-1.2-.8l-4-11c-.2-.6.1-1.4.7-1.6.7-.2 1.4.1 1.6.8l4 11c.2.6-.1 1.4-.7 1.6h-.4z"/><path class="st0" d="M663.2 319.9c-.6 0-1.1-.4-1.2-1l-2-11c-.1-.7.3-1.3 1-1.5s1.3.3 1.5 1l2 11c.1.7-.3 1.3-1 1.5h-.3zm-2 299c-.2 0-.4 0-.6-.1-.6-.3-.9-1.1-.6-1.7l1-2c1.9-3.7 1.9-5.5 1.9-9.4v-2c0-.7.6-1.2 1.2-1.2s1.3.6 1.3 1.2v2c0 4.1 0 6.3-2.1 10.6l-1 2c-.2.4-.6.6-1.1.6zm-658-299H3c-.7-.1-1.1-.8-1-1.5l2-11 4-11.2c.2-.6 1-1 1.6-.8s1 1 .8 1.6l-4 11-1.9 10.8c-.2.7-.7 1.1-1.3 1.1z"/><path class="st0" d="M2.2 330.9c-.8-.1-1.3-.7-1.2-1.4l1-11c.1-.7.6-1.2 1.4-1.1.7.1 1.2.7 1.1 1.4l-1 11c-.1.6-.6 1.1-1.3 1.1zm3 288c-.7 0-1.3-.6-1.3-1.2v-.7L2 613.3V612l-.9-1.7c-.1-.3-.1-.4-.1-.6v-5c0-.7.6-1.2 1.3-1.2s1.3.6 1.3 1.2v4.7l.9 1.7c.1.2.1.4.1.6v.7l1.9 3.7c.1.2.1.4.1.6v1c-.1.7-.7 1.2-1.4 1.2zm610-299c-.5 0-.9-.3-1.1-.7l-1-2c-.3-.6 0-1.4.6-1.7.6-.3 1.4 0 1.7.6l1 2c.3.6 0 1.4-.6 1.7-.2.1-.4.1-.6.1zm2 11c-.7 0-1.3-.6-1.3-1.2v-3c0-.7.6-1.2 1.3-1.2s1.2.6 1.2 1.2v3c.1.7-.5 1.2-1.2 1.2zm-566-11c-.2 0-.4 0-.6-.1-.6-.3-.9-1.1-.6-1.7l1-2c.3-.6 1.1-.9 1.7-.6.6.3.9 1.1.6 1.7l-1 2c-.2.5-.6.7-1.1.7zm-21 343c-.3 0-.6-.1-.9-.4l-5-5-4.2-6.2c-.4-.6-.2-1.3.3-1.7.6-.4 1.3-.2 1.7.3l4 6 4.8 4.8c.5.5.5 1.3 0 1.8 0 .3-.4.4-.7.4z"/><path class="st0" d="M21.2 652c-.3 0-.6-.2-.9-.4-.2-.2-.3-.6-.3-.9 0-.3.1-.6.3-.9.5-.5 1.3-.5 1.8 0 .2.2.3.6.3.9 0 .4-.1.7-.3.9-.3.2-.6.4-.9.4z"/><path class="st0" d="M21.2 651.9c-.7 0-1.3-.6-1.3-1.2v-1c0-.7.6-1.3 1.3-1.3.7 0 1.3.6 1.3 1.3v1c0 .7-.6 1.2-1.3 1.2zm28 17h-3l-6.2-1-6.2-2.1c-.1 0-.2-.1-.4-.2l-4-3c-.6-.4-.7-1.2-.2-1.7.4-.5 1.2-.7 1.8-.2l3.8 2.9 5.8 1.9 5.8 1H48c.1-.6.6-1 1.2-1 .7 0 1.3.6 1.3 1.3v1c0 .6-.6 1.1-1.3 1.1zm568 0c-.7 0-1.3-.6-1.3-1.2v-1c0-.7.6-1.3 1.3-1.3s1.2.6 1.2 1.3v1c.1.7-.5 1.2-1.2 1.2z"/><path class="st0" d="M617.2 668.9h-46c-.7 0-1.2-.6-1.2-1.2s.6-1.2 1.2-1.2h46c.7 0 1.2.6 1.2 1.2s-.5 1.2-1.2 1.2z"/><path class="st0" d="M571.2 668.9c-.3 0-.7-.1-.9-.3s-.4-.5-.4-.9c0-.3.2-.7.4-.9.5-.4 1.3-.4 1.8 0 .2.2.4.6.4.9 0 .4-.2.7-.4.9-.3.2-.6.3-.9.3z"/><path class="st0" d="M571.2 668.9c-.3 0-.7-.1-.9-.3s-.4-.5-.4-.9c0-.3.2-.7.4-.9.5-.4 1.3-.4 1.8 0 .2.2.4.6.4.9 0 .4-.2.7-.4.9-.3.2-.6.3-.9.3z"/><path class="st0" d="M571.2 668.9h-476c-.7 0-1.3-.6-1.3-1.2s.6-1.2 1.3-1.2h476c.7 0 1.2.6 1.2 1.2s-.5 1.2-1.2 1.2z"/><path class="st0" d="M95.2 668.9c-.3 0-.6-.1-.9-.3-.2-.2-.3-.5-.3-.9 0-.3.1-.6.3-.9.5-.4 1.3-.4 1.8 0 .2.2.3.6.3.9 0 .4-.1.7-.3.9-.3.2-.6.3-.9.3z"/><path class="st0" d="M95.2 668.9c-.3 0-.6-.1-.9-.3-.2-.2-.3-.5-.3-.9 0-.3.1-.6.3-.9.5-.4 1.3-.4 1.8 0 .2.2.3.6.3.9 0 .4-.1.7-.3.9-.3.2-.6.3-.9.3z"/><path class="st0" d="M95.2 668.9h-46c-.7 0-1.3-.6-1.3-1.2s.6-1.2 1.3-1.2h46c.7 0 1.2.6 1.2 1.2s-.5 1.2-1.2 1.2zm-93-338h-1c-.7 0-1.3-.6-1.3-1.2s.6-1.2 1.3-1.2h1c.7 0 1.3.6 1.3 1.2s-.6 1.2-1.3 1.2z"/><path class="st0" d="M1.2 330.9c-.7 0-1.3-.6-1.3-1.2v-1c0-.7.6-1.2 1.3-1.2s1.3.6 1.3 1.2v1c0 .7-.6 1.2-1.3 1.2z"/><path class="st0" d="M1.2 329.9c-.3 0-.7-.1-.9-.3-.2-.3-.3-.6-.3-.9s.1-.6.3-.9c.5-.4 1.3-.5 1.8 0 .2.2.3.6.3.9s-.1.6-.3.9c-.3.2-.6.3-.9.3z"/><path class="st0" d="M1.2 329.9h-.1c-.7-.1-1.2-.7-1.1-1.4l2-17 5-15.2c.2-.5.6-.9 1.2-.9h1c.7 0 1.3.6 1.3 1.2s-.6 1.2-1.3 1.2h-.1l-4.7 14.1-1.9 16.8c-.1.8-.6 1.2-1.3 1.2zm664 1h-1c-.7 0-1.2-.6-1.2-1.2s.4-1.1 1-1.2l-3-19.6-1.9-5.8-2.9-5.8c-.3-.6 0-1.4.6-1.7.6-.3 1.4-.1 1.7.6l3 6 2.1 6.2 3.1 20.2v1.2c-.2.6-.8 1.1-1.5 1.1zm-20 321h-.3c-.6-.1-.9-.6-.9-1.2v-1c0-.6.4-1.1 1-1.2l15.3-28.9c-.2-.2-.4-.5-.4-.9v-1c0-.7.6-1.3 1.2-1.3s1.1.4 1.2 1c.4.1.7.3.8.6.2.4.2.8 0 1.2l-17 32c0 .5-.4.7-.9.7zm-25 17h-3c-.7 0-1.3-.6-1.3-1.2s.6-1.2 1.3-1.2h3c.7 0 1.2.6 1.2 1.2s-.5 1.2-1.2 1.2z"/><path class="st0" d="M620.2 668.9c-.6 0-1.1-.4-1.2-1-.1-.7.3-1.3 1-1.4l6-1 5.6-1.9 3.8-2.9 4.9-4.9 3.9-5.8c.4-.6 1.2-.7 1.7-.3.6.4.7 1.2.3 1.7l-4 6-5.1 5.2-4.1 3.1c-.1.1-.2.1-.4.2l-6 2-6.2 1.1c0-.1-.1-.1-.2-.1zm-599-17c-.5 0-.9-.3-1.1-.7l-16-32c-.3-.6-.1-1.4.6-1.7.6-.3 1.4-.1 1.7.6l16 32c.3.6.1 1.4-.6 1.7-.2.1-.4.1-.6.1zm-13-354c-.2 0-.4 0-.6-.2-.6-.3-.8-1.1-.5-1.7l17-31 20.1-30 23.1-28.1 25.1-25.1 28.1-23.1 29.1-19.1 32.1-17.1 33.1-13.1c.6-.3 1.4.1 1.6.7.3.6-.1 1.4-.7 1.6l-33 13-31.9 16.9-28.9 18.9L94 183.6l-24.9 24.9-22.9 27.9-19.9 29.9-17 31c-.2.4-.6.6-1.1.6z"/><path class="st0" d="M215.2 111.9c-.5 0-1-.3-1.2-.9-.2-.7.2-1.4.8-1.6l36-11 37.1-7 38.2-2c.7 0 1.3.5 1.3 1.2s-.5 1.3-1.2 1.3l-38 2-36.8 7-35.9 11h-.3z"/><path class="st0" d="M333.2 91.9h-7c-.7 0-1.2-.6-1.2-1.3 0-.7.6-1.2 1.2-1.2h7c.7 0 1.2.6 1.2 1.2.1.8-.5 1.3-1.2 1.3z"/><path class="st0" d="M340.2 91.9h-7c-.7 0-1.3-.6-1.3-1.3 0-.7.6-1.2 1.3-1.2h7c.7 0 1.3.6 1.3 1.2 0 .8-.6 1.3-1.3 1.3z"/><path class="st0" d="M451.2 111.9c-.1 0-.2 0-.4-.1l-36-11-36.9-7-37.8-2c-.7 0-1.2-.6-1.2-1.3 0-.7.7-1.2 1.3-1.2l38 2 37.2 7 36.1 11c.7.2 1 .9.8 1.6 0 .7-.5 1-1.1 1z"/><path class="st0" d="M657.2 297.9c-.4 0-.9-.2-1.1-.7l-16-31-19.9-29.9-22.9-27.9-24.9-24.9-26.9-22.9-29.9-18.9-31.9-17-32.9-12.9c-.6-.3-1-1-.7-1.6s1-.9 1.6-.7l33 13 32.1 17.1 30.1 19 27.1 23.1 25.1 25.1 23.1 28.1 20.1 30.1 16.1 31.1c.3.6.1 1.4-.5 1.7-.3.1-.5.1-.7.1zm-655 308h-1c-.7 0-1.3-.6-1.3-1.2s.6-1.2 1.3-1.2h1c.7 0 1.3.6 1.3 1.2s-.6 1.2-1.3 1.2z"/><path class="st0" d="M1.2 605.9c-.7 0-1.3-.6-1.3-1.2v-275c0-.7.6-1.2 1.3-1.2s1.3.6 1.3 1.2v275c0 .7-.6 1.2-1.3 1.2zm664 0c-.7 0-1.2-.6-1.2-1.2v-275c0-.7.6-1.2 1.2-1.2.7 0 1.3.6 1.3 1.2v275c0 .7-.6 1.2-1.3 1.2z"/><path class="st0" d="M665.2 605.9c-.3 0-.6-.1-.9-.3-.2-.3-.4-.6-.4-.9 0-.4.2-.7.4-.9.5-.5 1.3-.4 1.8 0 .2.2.3.5.3.9 0 .3-.1.6-.3.9-.3.2-.6.3-.9.3z"/><path class="st0" d="M665.2 605.9h-1c-.7 0-1.2-.6-1.2-1.2s.6-1.2 1.2-1.2h1c.7 0 1.3.6 1.3 1.2s-.6 1.2-1.3 1.2zm-660 14c-.5 0-.9-.3-1.1-.8l-3-7c0-.1-.1-.2-.1-.3l-1-7c-.1-.7.4-1.3 1.1-1.4.6-.1 1.3.4 1.4 1.1l1 6.8 2.9 6.9c.3.6 0 1.4-.7 1.6-.1.1-.3.1-.5.1z"/><path class="st0" d="M662.2 619.9h-.3c-.7-.2-1.1-.9-.9-1.5l2-7 1-6.8c.1-.7.8-1.2 1.4-1.1.7.1 1.2.7 1.1 1.4l-1 7-2 7.2c-.2.5-.7.8-1.3.8zm-657 0c-.7 0-1.3-.6-1.3-1.2v-1c0-.7.6-1.3 1.3-1.3s1.3.6 1.3 1.3v1c0 .7-.6 1.2-1.3 1.2z"/><g class="st1"><path class="st0" d="M428.2 278.7v-44h-33v27l-62-31-147 60 6 16 140-58 135 69 8-15-47-24z"/><path class="st0" d="M343.2 417.7h-30v-91h23c9 8 8 18 8 18-1 24-31 26-31 26 60 19 30 47 30 47zm74-53c17-11 14-29 14-29-2-29-38-30-38-30h-167v21h53v34h-37v21h37v57h64c40-1 39-38 39-38 1-27-22-36-22-36 22-15 13-38 13-38h20c9 6 9 19 9 19-3 24-30 25-30 25 49 11 49 69 49 69h29c-4-64-33-75-33-75zm60 99h-293v-9h293v9zm-290 68h11v-22h19v-9h-19v-12h22v-10h-33v53zm60-53h-12v53h12v-53zm26 44v-14h10c2 0 4 1 6 2s2 3 2 6c0 1 0 2-1 3 0 1-1 2-2 2-1 1-2 1-3 1h-12zm0-35h11c1 0 2 0 3 1 1 0 1 1 2 2 0 1 1 2 1 3 0 2-1 4-2 5s-3 1-5 1h-9l-1-12zm18 43c2-1 4-1 6-3 2-1 3-3 4-5s2-4 2-7-1-6-2-8c-2-2-4-4-7-5 2-1 4-3 5-4 1-2 2-4 2-7 0-2 0-4-1-6s-2-3-3-4-3-2-5-2-4-1-7-1h-22v52h22c1 1 4 0 6 0m44-39l7 19h-13l6-19zm-10 28h19l4 12h12l-19-53h-12l-20 52h12l4-11zm57-32h10c3 0 5 1 6 2s2 3 2 6-1 5-2 6-3 2-6 2h-10v-16zm0 23h9c3 0 5 1 6 2s2 3 2 6c0 2 1 4 1 7 0 2 1 4 1 6h11c-1-1-1-2-1-3s0-2-1-3v-6c0-1 0-3-1-4 0-1-1-3-1-4-1-1-1-2-2-3s-2-1-4-2c3-1 5-3 6-5s2-5 2-8c0-2 0-4-1-6s-2-3-3-5c-1-1-3-2-5-3s-4-1-6-1h-26v52h11v-20h2zm53-12c1-2 1-4 2-6s3-3 4-4c2-1 4-1 7-1s5 0 7 1 3 2 4 4 2 4 2 6c1 2 1 4 1 7 0 2 0 4-1 6s-1 4-2 6-3 3-4 4c-2 1-4 1-7 1s-5 0-7-1-3-2-4-4-2-4-2-6c-1-2-1-4-1-6 0-3 0-5 1-7m-6 26c2 2 5 4 8 6 3 1 7 2 11 2s8-1 11-2 6-3 8-6c2-2 4-5 5-9 1-3 2-7 2-11s-1-8-2-11-3-6-5-9c-2-2-5-4-8-6-3-1-7-2-11-2s-8 1-11 2-6 3-8 6c-2 2-4 5-5 9-1 3-2 7-2 11s1 7 2 11 3 6 5 9m-223 33c0-1 0-3-1-4l-3-3c-1-1-3-1-4-1s-3 0-4 1c-1 0-2 1-3 2s-1 2-1 3c0 2 1 3 2 4s2 1 4 2c2 0 3 1 5 1s3 1 5 2l3 3c1 1 1 3 1 4 0 2-1 3-2 5-1 1-3 2-4 3-2 1-4 1-6 1s-4 0-6-1-3-2-4-4-2-4-2-6h4c0 3 1 5 3 6s4 2 6 2h3c1 0 2-1 2-1l2-2c0-1 1-2 1-3v-1c0-1-1-2-1-2-1-1-1-1-2-1s-2-1-3-1-2-1-3-1c-2 0-4-1-5-2s-3-2-4-3-1-3-1-4v-1c1-5 4-8 12-8 3 0 5 1 6 2 2 1 3 2 3 4 1 1 1 3 1 4h-4zm43 23v-14l-12-18h4l9 15 10-15h3l-11 18v14h-3zm61-23c0-1 0-3-1-4l-3-3c-1-1-3-1-4-1s-3 0-4 1c-1 0-2 1-3 2s-1 2-1 3c0 2 1 3 2 4s2 1 4 2c2 0 3 1 5 1s3 1 5 2l3 3c1 1 1 3 1 4 0 2-1 3-2 5-1 1-3 2-4 3-2 1-4 1-6 1s-4 0-6-1-3-2-4-4-2-4-2-6h3c0 3 1 5 3 6 2 3 4 3 6 3h3c1 0 2-1 2-1l2-2c0-1 1-2 1-3v-1c0-1-1-2-1-2-1-1-1-1-2-1s-2-1-3-1-2-1-3-1c-2 0-4-1-5-2s-3-2-4-3-1-3-1-4v-1c1-5 4-8 12-8 3 0 5 1 6 2 2 1 3 2 3 4 1 1 1 3 1 4h-3v-1zm42-6h-10v-3h24v3h-11v29h-3v-29zm46 14v12h18v3h-21v-32h21v3h-18v11h16v3h-16zm59 11l11-28h4v32h-3v-28l-10 28h-3l-10-28v28h-4v-32h5l10 28z"/></g><path class="st0" d="M275.8 27.1v-6.4h-11.6v-3L276.4.3h2.7v17.4h3.6v3h-3.6v6.4h-3.3zm0-9.5V5.5l-8.4 12.1h8.4zm27.7 6.3v3.2h-17.7c0-.8.1-1.6.4-2.3.5-1.2 1.2-2.4 2.2-3.6s2.4-2.5 4.3-4.1c2.9-2.4 4.9-4.3 5.9-5.7s1.5-2.7 1.5-4-.5-2.4-1.4-3.3-2.1-1.3-3.7-1.3-2.9.5-3.8 1.4c-1 .9-1.4 2.3-1.4 4l-3.4-.4c.2-2.5 1.1-4.5 2.6-5.8s3.5-2 6.1-2 4.6.7 6.1 2.1 2.3 3.2 2.3 5.3c0 1.1-.2 2.1-.7 3.2-.4 1-1.2 2.1-2.2 3.3s-2.7 2.7-5.1 4.7c-2 1.7-3.2 2.8-3.8 3.4-.6.6-1 1.2-1.4 1.8h13.2v.1zm5.3 3.2v-3.8h3.8v3.8c0 1.4-.2 2.5-.7 3.3s-1.3 1.5-2.3 2l-.9-1.4c.7-.3 1.2-.8 1.5-1.3.3-.6.5-1.4.6-2.6h-2zm8.6-7l3.5-.3c.3 1.7.8 2.9 1.8 3.8.9.8 2.1 1.3 3.4 1.3 1.6 0 2.9-.6 4-1.8 1.1-1.2 1.7-2.8 1.7-4.8 0-1.9-.5-3.4-1.6-4.5s-2.4-1.6-4.2-1.6c-1.1 0-2 .2-2.9.7-.8.5-1.5 1.1-2 1.9l-3.1-.4L320.6.6h13.3v3.1h-10.7l-1.5 7.2c1.6-1.1 3.3-1.7 5.1-1.7 2.3 0 4.3.8 5.9 2.4s2.4 3.7 2.4 6.3c0 2.4-.7 4.5-2.1 6.3-1.7 2.2-4.1 3.3-7.1 3.3-2.4 0-4.4-.7-6-2.1-1.4-1.3-2.3-3.1-2.5-5.3zm20.9-6.2c0-3.2.3-5.7 1-7.7s1.6-3.4 2.9-4.5c1.3-1 2.9-1.6 4.9-1.6 1.4 0 2.7.3 3.8.9 1.1.6 2 1.4 2.7 2.5s1.3 2.4 1.7 4c.4 1.6.6 3.7.6 6.3 0 3.2-.3 5.7-1 7.6-.6 1.9-1.6 3.4-2.9 4.5s-2.9 1.6-4.9 1.6c-2.6 0-4.6-.9-6.1-2.8-1.8-2.2-2.7-5.8-2.7-10.8zm3.4 0c0 4.4.5 7.3 1.6 8.8 1 1.5 2.3 2.2 3.8 2.2s2.8-.7 3.8-2.2 1.5-4.4 1.5-8.8-.5-7.4-1.5-8.8-2.3-2.2-3.9-2.2c-1.5 0-2.7.6-3.6 1.9-1.2 1.6-1.7 4.7-1.7 9.1zM360 27.1V7.7h2.9v2.7c.6-.9 1.4-1.7 2.4-2.3 1-.6 2.2-.9 3.5-.9 1.4 0 2.6.3 3.5.9.9.6 1.6 1.4 1.9 2.5 1.5-2.3 3.5-3.4 6-3.4 1.9 0 3.4.5 4.5 1.6 1 1.1 1.6 2.7 1.6 4.9V27H383V14.9c0-1.3-.1-2.3-.3-2.9-.2-.6-.6-1-1.2-1.4s-1.2-.5-2-.5c-1.4 0-2.5.5-3.4 1.4s-1.3 2.4-1.3 4.4v11.3h-3.3V14.5c0-1.5-.3-2.6-.8-3.3s-1.4-1.1-2.6-1.1c-.9 0-1.8.2-2.6.7-.8.5-1.4 1.2-1.7 2.1-.4.9-.5 2.3-.5 4.1v10.1H360zm31.3 0V7.7h2.9v2.7c.6-.9 1.4-1.7 2.4-2.3 1-.6 2.2-.9 3.5-.9 1.4 0 2.6.3 3.5.9.9.6 1.6 1.4 1.9 2.5 1.5-2.3 3.5-3.4 6-3.4 1.9 0 3.4.5 4.5 1.6 1 1.1 1.6 2.7 1.6 4.9V27h-3.3V14.9c0-1.3-.1-2.3-.3-2.9-.2-.6-.6-1-1.2-1.4s-1.2-.5-2-.5c-1.4 0-2.5.5-3.4 1.4s-1.3 2.4-1.3 4.4v11.3h-3.3V14.5c0-1.5-.3-2.6-.8-3.3s-1.4-1.1-2.6-1.1c-.9 0-1.8.2-2.6.7-.8.5-1.4 1.2-1.7 2.1-.4.9-.5 2.3-.5 4.1v10.1h-3.3zM745.4 465.4l-.4-3.3c1.9-.4 3.2-1 4-1.9s1.2-2 1.2-3.3c0-1.6-.5-2.9-1.6-3.9-1.1-1.1-2.4-1.6-4-1.6-1.5 0-2.8.5-3.8 1.5s-1.5 2.2-1.5 3.8c0 .6.1 1.4.4 2.3l-2.9-.4v-.5c0-1.4-.4-2.7-1.1-3.8s-1.9-1.7-3.4-1.7c-1.2 0-2.2.4-3 1.2-.8.8-1.2 1.9-1.2 3.2s.4 2.4 1.2 3.2c.8.8 2 1.4 3.6 1.7l-.6 3.3c-2.2-.4-3.9-1.3-5.1-2.7-1.2-1.4-1.8-3.2-1.8-5.3 0-1.5.3-2.8.9-4 .6-1.2 1.5-2.2 2.6-2.8 1.1-.7 2.2-1 3.5-1 1.2 0 2.2.3 3.2.9.9.6 1.7 1.5 2.3 2.8.4-1.6 1.1-2.8 2.3-3.7s2.6-1.3 4.3-1.3c2.3 0 4.3.8 6 2.6 1.6 1.7 2.5 3.9 2.5 6.5 0 2.4-.7 4.3-2.1 5.9s-3.3 2-5.5 2.3zm-7.5-25.9c-.5 1.4-1.2 2.4-2.1 3s-2 1-3.3 1c-2 0-3.6-.7-4.9-2.1-1.3-1.4-2-3.3-2-5.6s.7-4.2 2-5.7c1.4-1.4 3-2.1 5-2.1 1.2 0 2.3.3 3.3 1 .9.7 1.6 1.7 2.1 3 .5-1.7 1.4-2.9 2.6-3.8 1.2-.9 2.6-1.3 4.3-1.3 2.3 0 4.2.8 5.8 2.4s2.3 3.8 2.3 6.4-.8 4.8-2.4 6.4-3.5 2.4-5.9 2.4c-1.7 0-3.2-.4-4.4-1.3s-2-2.1-2.4-3.7zm-5.6.6c1.3 0 2.3-.4 3.1-1.2.8-.8 1.2-1.9 1.2-3.2 0-1.3-.4-2.3-1.2-3.1-.8-.8-1.8-1.2-2.9-1.2-1.2 0-2.2.4-3 1.3-.8.8-1.2 1.9-1.2 3.1 0 1.3.4 2.3 1.2 3.1.7.8 1.7 1.2 2.8 1.2zm12.4 1.1c.9 0 1.8-.2 2.7-.7.9-.4 1.6-1.1 2-2 .5-.9.7-1.8.7-2.8 0-1.6-.5-2.9-1.5-3.9s-2.3-1.5-3.9-1.5-2.9.5-3.9 1.6-1.6 2.4-1.6 4 .5 2.8 1.5 3.9c1.2.9 2.5 1.4 4 1.4zm7.8-19.3h-3.8v-3.8h3.8c1.4 0 2.5.2 3.3.7s1.5 1.3 2 2.3l-1.4.9c-.3-.7-.8-1.2-1.3-1.5-.6-.3-1.4-.5-2.6-.6v2zm-3.2-26h3.2v17.7c-.8 0-1.6-.1-2.3-.4-1.2-.4-2.4-1.2-3.6-2.2-1.2-1-2.5-2.4-4.1-4.3-2.4-2.9-4.3-4.9-5.7-5.9s-2.7-1.5-4-1.5-2.4.5-3.3 1.4c-.9.9-1.3 2.1-1.3 3.7s.5 2.9 1.4 3.8 2.3 1.4 4 1.4l-.4 3.4c-2.5-.2-4.5-1.1-5.8-2.6s-2-3.5-2-6.1.7-4.6 2.1-6.1c1.4-1.5 3.2-2.2 5.3-2.2 1.1 0 2.1.2 3.2.7 1 .4 2.1 1.2 3.3 2.2s2.7 2.7 4.7 5.1c1.7 2 2.8 3.3 3.4 3.8.6.6 1.2 1 1.8 1.4l.1-13.3zm-3.9-3.5l-.3-3.5c1.7-.3 2.9-.8 3.8-1.8.8-.9 1.3-2.1 1.3-3.4 0-1.6-.6-2.9-1.8-4s-2.8-1.7-4.8-1.7c-1.9 0-3.4.5-4.5 1.6s-1.6 2.4-1.6 4.2c0 1.1.2 2 .7 2.9.5.8 1.1 1.5 1.9 2l-.4 3.1-13.8-2.6v-13.3h3.1v10.7l7.2 1.4c-1.1-1.6-1.7-3.3-1.7-5.1 0-2.3.8-4.3 2.4-5.9s3.7-2.4 6.3-2.4c2.4 0 4.5.7 6.3 2.1 2.2 1.7 3.3 4.1 3.3 7.1 0 2.4-.7 4.4-2.1 6-1.2 1.5-3 2.4-5.3 2.6zm7.1-21.8H733v-2.9h2.7c-.9-.6-1.7-1.4-2.3-2.4s-.9-2.2-.9-3.5c0-1.4.3-2.6.9-3.5.6-.9 1.4-1.6 2.5-1.9-2.3-1.5-3.4-3.5-3.4-6 0-1.9.5-3.4 1.6-4.5 1.1-1 2.7-1.6 4.9-1.6h13.3v3.3h-12.2c-1.3 0-2.3.1-2.9.3s-1 .6-1.4 1.2-.5 1.2-.5 2c0 1.4.5 2.5 1.4 3.4s2.4 1.3 4.4 1.3h11.3v3.3h-12.6c-1.5 0-2.6.3-3.3.8s-1.1 1.4-1.1 2.6c0 .9.2 1.8.7 2.6.5.8 1.2 1.4 2.1 1.7.9.4 2.3.5 4.1.5h10.1v3.3h.1zm0-31.2H733v-2.9h2.7c-.9-.6-1.7-1.4-2.3-2.4s-.9-2.2-.9-3.5c0-1.4.3-2.6.9-3.5.6-.9 1.4-1.6 2.5-1.9-2.3-1.5-3.4-3.5-3.4-6 0-1.9.5-3.4 1.6-4.5 1.1-1 2.7-1.6 4.9-1.6h13.3v3.3h-12.2c-1.3 0-2.3.1-2.9.3-.6.2-1 .6-1.4 1.2s-.5 1.2-.5 2c0 1.4.5 2.5 1.4 3.4s2.4 1.3 4.4 1.3h11.3v3.3h-12.6c-1.5 0-2.6.3-3.3.8s-1.1 1.4-1.1 2.6c0 .9.2 1.8.7 2.6.5.8 1.2 1.4 2.1 1.7.9.4 2.3.5 4.1.5h10.1v3.3h.1z"/></svg>