<svg xmlns="http://www.w3.org/2000/svg" width="53.348" height="50" viewBox="0 0 53.348 50">
  <g id="ecological" transform="translate(0 -15.752)">
    <g id="Group_3736" data-name="Group 3736" transform="translate(0 15.752)">
      <g id="Group_3735" data-name="Group 3735">
        <path id="Path_2109" data-name="Path 2109" d="M104.448,278a1.063,1.063,0,0,0-.849-.423H69.082a1.063,1.063,0,0,0-1.022.77L62.323,298.4a1.063,1.063,0,0,0,1.022,1.355H97.862a1.063,1.063,0,0,0,1.022-.77l5.737-20.05A1.063,1.063,0,0,0,104.448,278Zm-30.8,19.627H64.754l1.29-4.507h8.894Zm-7-6.632,1.378-4.815h6.886a1.063,1.063,0,1,0,0-2.125H68.638l1.245-4.352h8.894L75.546,291Zm9.207,6.632,1.29-4.507H84.29a1.063,1.063,0,1,0,0-2.125H77.757l3.231-11.293h9.264l-1.245,4.352H81.724a1.063,1.063,0,0,0,0,2.125H88.4L85.123,297.63ZM98.958,291H91.321a1.063,1.063,0,1,0,0,2.125H98.35l-1.29,4.507H87.334l3.276-11.447h9.727Zm1.986-6.94H91.218l1.245-4.352h9.727Z" transform="translate(-55.664 -249.755)"/>
        <path id="Path_2110" data-name="Path 2110" d="M445.334,402.009l-4.595-7.7a1.063,1.063,0,1,0-1.825,1.089l4.595,7.7a1.063,1.063,0,1,0,1.825-1.089Z" transform="translate(-392.136 -353.616)"/>
        <path id="Path_2111" data-name="Path 2111" d="M53.747,75.66A6.161,6.161,0,1,0,47.586,69.5,6.168,6.168,0,0,0,53.747,75.66Zm0-10.2A4.035,4.035,0,1,1,49.711,69.5,4.04,4.04,0,0,1,53.747,65.463Z" transform="translate(-42.529 -58.281)" fill="#d12b8a"/>
        <path id="Path_2112" data-name="Path 2112" d="M97.461,19.3a1.063,1.063,0,0,0,1.063-1.063V16.815a1.063,1.063,0,1,0-2.125,0V18.24A1.063,1.063,0,0,0,97.461,19.3Z" transform="translate(-86.154 -15.752)" fill="#d12b8a"/>
        <path id="Path_2113" data-name="Path 2113" d="M29.9,45.971a1.063,1.063,0,1,0,1.5-1.5L30.4,43.46a1.063,1.063,0,0,0-1.5,1.5Z" transform="translate(-25.545 -40.238)" fill="#d12b8a"/>
        <path id="Path_2114" data-name="Path 2114" d="M3.551,111.536a1.063,1.063,0,0,0-1.063-1.063H1.063a1.063,1.063,0,1,0,0,2.125H2.488A1.063,1.063,0,0,0,3.551,111.536Z" transform="translate(0 -100.407)" fill="#d12b8a"/>
        <path id="Path_2115" data-name="Path 2115" d="M12.638,192.345l-.157.157a1.063,1.063,0,1,0,1.5,1.5l.157-.157a1.063,1.063,0,1,0-1.5-1.5Z" transform="translate(-10.876 -173.301)" fill="#d12b8a"/>
        <path id="Path_2116" data-name="Path 2116" d="M33.2,169.117l-.474.474a1.063,1.063,0,1,0,1.5,1.5l.474-.474a1.063,1.063,0,1,0-1.5-1.5Z" transform="translate(-28.973 -152.541)" fill="#d12b8a"/>
        <path id="Path_2117" data-name="Path 2117" d="M94.722,194.523v1.425a1.063,1.063,0,1,0,2.125,0v-1.425a1.063,1.063,0,0,0-2.125,0Z" transform="translate(-84.656 -174.575)" fill="#d12b8a"/>
        <path id="Path_2118" data-name="Path 2118" d="M154.868,170.3a1.063,1.063,0,0,0-1.5,1.5l1.008,1.008a1.063,1.063,0,0,0,1.5-1.5Z" transform="translate(-136.789 -153.6)" fill="#d12b8a"/>
        <path id="Path_2119" data-name="Path 2119" d="M177.708,113.213a1.063,1.063,0,0,0,1.063,1.063H180.2a1.063,1.063,0,0,0,0-2.125h-1.425A1.063,1.063,0,0,0,177.708,113.213Z" transform="translate(-158.823 -101.906)" fill="#d12b8a"/>
        <path id="Path_2120" data-name="Path 2120" d="M178.666,30.9a1.059,1.059,0,0,0,.751-.311l.2-.2a1.063,1.063,0,1,0-1.5-1.5l-.2.2a1.063,1.063,0,0,0,.752,1.814Z" transform="translate(-158.729 -27.217)" fill="#d12b8a"/>
        <path id="Path_2121" data-name="Path 2121" d="M155.3,51.955a1.06,1.06,0,0,0,.751-.311l.474-.474a1.063,1.063,0,0,0-1.5-1.5l-.474.474a1.063,1.063,0,0,0,.751,1.814Z" transform="translate(-137.849 -45.784)" fill="#d12b8a"/>
      </g>
    </g>
  </g>
</svg>
