<svg xmlns="http://www.w3.org/2000/svg" width="50" height="46.774" viewBox="0 0 50 46.774">
  <g id="Apartment" transform="translate(-1 -3)">
    <path id="Path_2201" data-name="Path 2201" d="M61.613,59h-.806a.806.806,0,1,0,0,1.613h.806a.806.806,0,1,0,0-1.613Z" transform="translate(-11.419 -10.839)"/>
    <path id="Path_2202" data-name="Path 2202" d="M17.645,38.452a.806.806,0,0,0,.806-.806V32.806A.806.806,0,0,0,17.645,32H12.806a.806.806,0,0,0-.806.806v4.839a.806.806,0,0,0,.806.806Zm-4.032-4.839h3.226v3.226H13.613Z" transform="translate(-2.129 -5.613)" fill="#d12b8a"/>
    <path id="Path_2203" data-name="Path 2203" d="M22.806,38.452h4.839a.806.806,0,0,0,.806-.806V32.806A.806.806,0,0,0,27.645,32H22.806a.806.806,0,0,0-.806.806v4.839A.806.806,0,0,0,22.806,38.452Zm.806-4.839h3.226v3.226H23.613Z" transform="translate(-4.065 -5.613)" fill="#d12b8a"/>
    <path id="Path_2204" data-name="Path 2204" d="M12.806,28.452h4.839a.806.806,0,0,0,.806-.806V22.806A.806.806,0,0,0,17.645,22H12.806a.806.806,0,0,0-.806.806v4.839A.806.806,0,0,0,12.806,28.452Zm.806-4.839h3.226v3.226H13.613Z" transform="translate(-2.129 -3.677)" fill="#d12b8a"/>
    <path id="Path_2205" data-name="Path 2205" d="M22.806,28.452h4.839a.806.806,0,0,0,.806-.806V22.806A.806.806,0,0,0,27.645,22H22.806a.806.806,0,0,0-.806.806v4.839A.806.806,0,0,0,22.806,28.452Zm.806-4.839h3.226v3.226H23.613Z" transform="translate(-4.065 -3.677)" fill="#d12b8a"/>
    <path id="Path_2206" data-name="Path 2206" d="M12.806,18.452h4.839a.806.806,0,0,0,.806-.806V12.806A.806.806,0,0,0,17.645,12H12.806a.806.806,0,0,0-.806.806v4.839A.806.806,0,0,0,12.806,18.452Zm.806-4.839h3.226v3.226H13.613Z" transform="translate(-2.129 -1.742)" fill="#d12b8a"/>
    <path id="Path_2207" data-name="Path 2207" d="M22.806,18.452h4.839a.806.806,0,0,0,.806-.806V12.806A.806.806,0,0,0,27.645,12H22.806a.806.806,0,0,0-.806.806v4.839A.806.806,0,0,0,22.806,18.452Zm.806-4.839h3.226v3.226H23.613Z" transform="translate(-4.065 -1.742)" fill="#d12b8a"/>
    <path id="Path_2208" data-name="Path 2208" d="M42.806,46.419a.806.806,0,0,0,.806-.806v-.806a.806.806,0,0,0-1.613,0v.806A.806.806,0,0,0,42.806,46.419Z" transform="translate(-7.935 -7.935)"/>
    <path id="Path_2209" data-name="Path 2209" d="M49.387,42.516a4.8,4.8,0,0,0-.973-2.893,3.994,3.994,0,0,0-.916-3.877,3.152,3.152,0,0,0,.277-1.294,3.226,3.226,0,1,0-6.452,0,3.152,3.152,0,0,0,.277,1.29,4,4,0,0,0-.916,3.878,4.819,4.819,0,0,0,3.059,7.662v.879H35.677v-4.1A4.819,4.819,0,0,0,38.736,36.4a3.994,3.994,0,0,0-.916-3.879,3.152,3.152,0,0,0,.277-1.29,3.226,3.226,0,0,0-6.452,0,3.152,3.152,0,0,0,.277,1.29,4,4,0,0,0-.916,3.878,4.819,4.819,0,0,0,3.059,7.662v.985L32.9,44.265a.807.807,0,1,0-.9,1.342l2.06,1.373v1.181H30.839V45.742a.806.806,0,0,0-.806-.806H27.613V7.839h2.419a.806.806,0,0,0,.806-.806V3.806A.806.806,0,0,0,30.032,3H4.226a.806.806,0,0,0-.806.806V7.032a.806.806,0,0,0,.806.806H6.645v37.1H4.226a.806.806,0,0,0-.806.806v2.419H1.806a.806.806,0,0,0,0,1.613H46.968a.806.806,0,1,0,0-1.613H45.355v-.879a4.844,4.844,0,0,0,4.032-4.766ZM31.645,39.29a3.208,3.208,0,0,1,.869-2.185.806.806,0,0,0,.146-.874,2.39,2.39,0,0,1,.772-2.9.806.806,0,0,0,.161-1.129,1.593,1.593,0,0,1-.335-.973,1.613,1.613,0,1,1,3.226,0,1.593,1.593,0,0,1-.334.968.806.806,0,0,0,.161,1.129,2.387,2.387,0,0,1,.771,2.9.806.806,0,0,0,.147.874,3.2,3.2,0,0,1-1.552,5.3V40.1a.806.806,0,0,0-1.613,0v2.3A3.226,3.226,0,0,1,31.645,39.29ZM5.032,4.613H29.226V6.226H5.032ZM8.258,7.839H26v37.1H21.161V36.065a.806.806,0,0,0-.806-.806H13.9a.806.806,0,0,0-.806.806v8.871H8.258Zm11.29,37.1H14.71V36.871h4.839ZM5.032,48.161V46.548H29.226v1.613Zm36.29-5.645a3.208,3.208,0,0,1,.869-2.185.806.806,0,0,0,.146-.874,2.39,2.39,0,0,1,.772-2.9.806.806,0,0,0,.161-1.129,1.593,1.593,0,0,1-.335-.973,1.613,1.613,0,0,1,3.226,0,1.593,1.593,0,0,1-.334.968.806.806,0,0,0,.161,1.129,2.387,2.387,0,0,1,.771,2.9.806.806,0,0,0,.147.874,3.2,3.2,0,0,1-1.552,5.3v-2.3a.806.806,0,0,0-1.613,0v2.3A3.226,3.226,0,0,1,41.323,42.516Z"/>
    <path id="Path_2210" data-name="Path 2210" d="M42.226,25.065h5.645a.749.749,0,0,0,.4-.117,2.823,2.823,0,0,0-.5-5.511,3.218,3.218,0,0,0-5.923-.8,3.226,3.226,0,0,0,.373,6.43ZM42.2,20.226l.119.013a.8.8,0,0,0,.815-.54,1.606,1.606,0,0,1,3.127.49.233.233,0,0,1,0,.055.806.806,0,0,0,.968.813,1.232,1.232,0,0,1,1.456,1.185,1.21,1.21,0,0,1-.968,1.186.876.876,0,0,0-.09.024H42.226a1.613,1.613,0,0,1-.028-3.226Z" transform="translate(-7.355 -2.71)"/>
  </g>
</svg>
