<svg xmlns="http://www.w3.org/2000/svg" width="56.59" height="42" viewBox="0 0 56.59 42">
  <g id="technology_1_" data-name="technology (1)" transform="translate(0 -66.001)">
    <g id="Group_3676" data-name="Group 3676" transform="translate(0 66.001)">
      <g id="Group_3675" data-name="Group 3675" transform="translate(0 0)">
        <path id="Path_2057" data-name="Path 2057" d="M55.485,88.088h-1.65a2.758,2.758,0,0,0-2.755,2.755v4.034H43.671a5.231,5.231,0,0,0-3.495-2.019l-1.554-2.691,6.394-3.692a1.105,1.105,0,0,0,.4-1.51l-1.51-2.615,2.615-1.51a1.105,1.105,0,0,0,.4-1.51L40.743,68.613A5.24,5.24,0,0,0,33.6,66.7L.553,85.777a1.105,1.105,0,0,0-.4,1.51l2.062,3.572a1.1,1.1,0,0,0,.671.515l3.058.819-1.262.728a1.105,1.105,0,0,0-.4,1.51L8.4,101.576a1.1,1.1,0,0,0,1.51.4l2.616-1.51,1.51,2.616a1.105,1.105,0,0,0,1.51.4L33.135,93.334l1.553,2.69a5.228,5.228,0,0,0,8.982,5.188h7.408v4.034A2.758,2.758,0,0,0,53.835,108h1.65A1.105,1.105,0,0,0,56.59,106.9v-17.7A1.105,1.105,0,0,0,55.485,88.088ZM3.9,89.358,2.616,87.139,34.7,68.613a3,3,0,0,1,1.5-.4,3.037,3.037,0,0,1,2.628,1.506l5.635,9.76L19.917,93.65ZM9.76,99.514l-3.02-5.23L8.4,93.326l3.019,5.23Zm5.635,1.51-4.3-7.449h0L19.787,95.9a1.1,1.1,0,0,0,.128.025l.039,0c.032,0,.063.006.1.006l.024,0h.015a1.1,1.1,0,0,0,.127-.008h0a1.078,1.078,0,0,0,.127-.025l.037-.01q.046-.013.092-.031l.036-.014a1.12,1.12,0,0,0,.118-.058L42,83.455l.957,1.658ZM35.05,92.229l1.658-.957,1.063,1.842a5.233,5.233,0,0,0-1.657.96Zm7.477,6c0,.014,0,.029,0,.043,0,.048-.008.1-.014.143,0,.015,0,.03-.006.045-.007.054-.016.108-.027.161l0,.018c-.012.059-.026.118-.041.177,0,.015-.008.029-.012.044q-.017.062-.037.123c-.007.022-.015.045-.023.067s-.023.063-.036.095-.019.05-.03.075l-.013.028q-.046.1-.1.206l-.025.046a3.02,3.02,0,1,1,0-2.91l.026.048c.017.033.035.066.051.1s.042.089.061.134c.01.024.02.049.029.074s.025.064.036.1l.022.066q.02.062.037.124c0,.014.008.028.012.043.015.059.029.118.041.177l0,.018c.01.053.019.107.027.161,0,.015,0,.03.006.044q.009.071.014.143c0,.014,0,.029,0,.043,0,.061.006.122.006.184S42.53,98.167,42.526,98.228ZM51.079,99H44.655c0-.021.007-.041.01-.062.009-.049.017-.1.024-.148,0-.034.009-.069.013-.1s.012-.1.016-.143.007-.083.01-.125.007-.082.009-.124c0-.068,0-.137.005-.2,0-.016,0-.031,0-.047s0-.031,0-.047c0-.068,0-.137-.005-.2,0-.042-.006-.083-.009-.124s-.006-.083-.01-.125-.011-.1-.016-.143-.008-.069-.013-.1c-.007-.05-.016-.1-.024-.149,0-.021-.006-.041-.01-.062h6.425Zm3.3,6.789h-.545a.552.552,0,0,1-.545-.545v-14.4a.552.552,0,0,1,.545-.545h.545Z" transform="translate(0 -66.001)"/>
      </g>
    </g>
    <g id="Group_3678" data-name="Group 3678" transform="translate(27.585 78.368)">
      <g id="Group_3677" data-name="Group 3677" transform="translate(0 0)">
        <path id="Path_2058" data-name="Path 2058" d="M251.661,178.446a1.105,1.105,0,0,0-1.51-.4l-.025.014a1.105,1.105,0,1,0,1.1,1.915l.025-.014A1.105,1.105,0,0,0,251.661,178.446Z" transform="translate(-249.574 -177.893)" fill="#d12b8a"/>
      </g>
    </g>
    <g id="Group_3680" data-name="Group 3680" transform="translate(30.549 74.038)">
      <g id="Group_3679" data-name="Group 3679">
        <path id="Path_2059" data-name="Path 2059" d="M283.016,139.271a1.105,1.105,0,0,0-1.51-.4l-4.559,2.632a1.105,1.105,0,1,0,1.105,1.914l4.559-2.632A1.105,1.105,0,0,0,283.016,139.271Z" transform="translate(-276.394 -138.718)" fill="#d12b8a"/>
      </g>
    </g>
    <g id="Group_3682" data-name="Group 3682" transform="translate(37.195 77.695)">
      <g id="Group_3681" data-name="Group 3681" transform="translate(0 0)">
        <path id="Path_2060" data-name="Path 2060" d="M338.609,172.359a1.1,1.1,0,0,0-1.51-.4l-.025.014a1.105,1.105,0,1,0,1.1,1.915l.025-.014A1.105,1.105,0,0,0,338.609,172.359Z" transform="translate(-336.521 -171.806)" fill="#d12b8a"/>
      </g>
    </g>
    <g id="Group_3684" data-name="Group 3684" transform="translate(29.696 79.407)">
      <g id="Group_3683" data-name="Group 3683" transform="translate(0 0)">
        <path id="Path_2061" data-name="Path 2061" d="M275.3,187.843a1.105,1.105,0,0,0-1.51-.4l-4.559,2.632a1.105,1.105,0,1,0,1.105,1.914l4.559-2.632A1.105,1.105,0,0,0,275.3,187.843Z" transform="translate(-268.674 -187.29)" fill="#d12b8a"/>
      </g>
    </g>
  </g>
</svg>
