<svg xmlns="http://www.w3.org/2000/svg" width="50" height="50" viewBox="0 0 50 50">
  <g id="home_1_" data-name="home (1)" transform="translate(-1 -1)">
    <path id="Path_2211" data-name="Path 2211" d="M7.806,27.452h6.452a.806.806,0,0,0,.806-.806V21.806A.806.806,0,0,0,14.258,21H7.806A.806.806,0,0,0,7,21.806v4.839A.806.806,0,0,0,7.806,27.452Zm5.645-1.613H11.839V22.613h1.613ZM8.613,22.613h1.613v3.226H8.613Z" transform="translate(-1.161 -3.871)" fill="#d12b8a"/>
    <path id="Path_2212" data-name="Path 2212" d="M19.806,27.452h6.452a.806.806,0,0,0,.806-.806V21.806A.806.806,0,0,0,26.258,21H19.806a.806.806,0,0,0-.806.806v4.839A.806.806,0,0,0,19.806,27.452Zm5.645-1.613H23.839V22.613h1.613Zm-4.839-3.226h1.613v3.226H20.613Z" transform="translate(-3.484 -3.871)" fill="#d12b8a"/>
    <path id="Path_2213" data-name="Path 2213" d="M50.425,26.034,26.806,18.948V17.935h5.645a3.226,3.226,0,0,0,.8-6.35c0-.034,0-.068,0-.1A4.026,4.026,0,0,0,25.529,9.9a3.991,3.991,0,0,0-1.231.357L15.28,1.236a.806.806,0,0,0-1.14,0L2.849,12.527a.8.8,0,0,0-.236.57V46.161H1.806A.806.806,0,0,0,1,46.968v3.226A.806.806,0,0,0,1.806,51H50.194A.806.806,0,0,0,51,50.194V46.968a.806.806,0,0,0-.806-.806h-.806V31.439l.575.173A.806.806,0,0,0,51,30.839V26.806A.807.807,0,0,0,50.425,26.034ZM25.194,13.9v11.29H4.226V13.9Zm0,16.129H23.581V26.806h1.613ZM9.065,26.806v3.226H7.452V26.806Zm1.613,0H12.29v3.226H10.677Zm3.226,0h1.613v3.226H13.9Zm3.226,0h1.613v3.226H17.129Zm3.226,0h1.613v3.226H20.355Zm-14.516,0v3.226H4.226V26.806Zm19.355,4.839v1.613H4.226V31.645Zm.754-20.164c.027,0,.1.012.129.013a.779.779,0,0,0,.815-.606A2.409,2.409,0,1,1,31.554,12.1a.8.8,0,0,0,.151.71.782.782,0,0,0,.66.3.227.227,0,0,0,.086-.011,1.613,1.613,0,0,1,0,3.226H26.806V13.1a.8.8,0,0,0-.236-.57l-1-1a2.145,2.145,0,0,1,.382-.04ZM14.71,2.947l9.344,9.344H5.366ZM4.226,34.871H25.194v11.29H20.355V38.9a.806.806,0,0,0-.806-.806H9.871a.806.806,0,0,0-.806.806v7.258H4.226Zm6.452,11.29V39.71H13.9v6.452Zm4.839-6.452h3.226v6.452H15.516Zm33.871,9.677H2.613V47.774H49.387Zm-4.839-12.9H30.032V34.871H44.548ZM30.032,38.1H44.548V39.71H30.032Zm0,3.226H44.548v4.839H30.032Zm17.742,4.839H46.161v-12.1a.806.806,0,0,0-.806-.806H29.226a.806.806,0,0,0-.806.806v12.1H26.806v-21.5l20.968,6.29Zm1.613-16.406L26.806,22.981V20.632l22.581,6.774Z" transform="translate(0 0)"/>
    <path id="Path_2214" data-name="Path 2214" d="M49.226,11.484h6.452a4.032,4.032,0,0,0,.471-8.037,4.026,4.026,0,0,0-7.729,1.585c0,.034,0,.068,0,.1a3.226,3.226,0,0,0,.8,6.35Zm-.05-4.841c.027,0,.108.013.135.014a.775.775,0,0,0,.66-.3.8.8,0,0,0,.151-.71,2.409,2.409,0,1,1,4.663-1.209.805.805,0,0,0,.815.606c.044,0,.086-.006.077-.01a2.419,2.419,0,0,1,0,4.839H49.226a1.615,1.615,0,0,1-.05-3.228Z" transform="translate(-8.71 0)" fill="#d12b8a"/>
  </g>
</svg>
