<svg xmlns="http://www.w3.org/2000/svg" width="50" height="38.086" viewBox="0 0 50 38.086">
  <g id="technology_3_" data-name="technology (3)" transform="translate(0 -61)">
    <path id="Path_2087" data-name="Path 2087" d="M49.714,61.286a.984.984,0,0,0-.69-.286H.977A.978.978,0,0,0,0,61.977V98.109a.977.977,0,0,0,.977.977H49.023A.977.977,0,0,0,50,98.109V84.438a.977.977,0,0,0-1.953,0v12.7H1.953V92.25h28.32a.977.977,0,0,0,.977-.977V68.813a.977.977,0,0,0-.977-.977H1.953V62.953H48.047v12.7a.977.977,0,0,0,1.953,0V61.977A.982.982,0,0,0,49.714,61.286ZM29.3,69.789V90.3H1.953V69.789Z"/>
    <circle id="Ellipse_1086" data-name="Ellipse 1086" cx="0.977" cy="0.977" r="0.977" transform="translate(48.047 79.066)"/>
    <path id="Path_2088" data-name="Path 2088" d="M217.93,181.859a2.93,2.93,0,1,0-2.93-2.93A2.933,2.933,0,0,0,217.93,181.859Zm0-3.906a.977.977,0,1,1-.977.977A.978.978,0,0,1,217.93,177.953Z" transform="translate(-194.004 -103.77)" fill="#d12b8a"/>
    <path id="Path_2089" data-name="Path 2089" d="M357.719,206.977a.977.977,0,0,0-.977-.977h-9.766a.977.977,0,0,0-.977.977v7.813a.977.977,0,0,0,.977.977h9.766a.977.977,0,0,0,.977-.977Zm-1.953,6.836h-7.812v-5.859h7.813Z" transform="translate(-312.211 -130.84)"/>
    <path id="Path_2090" data-name="Path 2090" d="M347.666,122.551l4.192-4.192,4.192,4.192a.977.977,0,0,0,1.381-1.381l-4.883-4.883a.977.977,0,0,0-1.381,0l-4.883,4.883a.977.977,0,1,0,1.381,1.381Z" transform="translate(-312.21 -49.63)"/>
    <path id="Path_2091" data-name="Path 2091" d="M356.051,326.286l-4.192,4.192-4.192-4.192a.977.977,0,0,0-1.381,1.381l4.883,4.883a.977.977,0,0,0,1.381,0l4.883-4.883a.977.977,0,1,0-1.381-1.381Z" transform="translate(-312.21 -239.121)"/>
    <path id="Path_2092" data-name="Path 2092" d="M140.977,196.953h1.953V207.7a.977.977,0,0,0,1.953,0V195.977a.977.977,0,0,0-.977-.977h-2.93a.977.977,0,0,0,0,1.953Z" transform="translate(-126.328 -120.914)" fill="#d12b8a"/>
    <path id="Path_2093" data-name="Path 2093" d="M48.786,199.311a.977.977,0,0,0,1.147-.769,1.981,1.981,0,0,1,3.922.326l-.042.326a6.645,6.645,0,0,1-1.066,2.116c-3.6,5.122-4.079,5.778-4.1,5.8a.977.977,0,0,0,.784,1.559h5.888a.977.977,0,0,0,0-1.953H51.329c.615-.87,1.563-2.215,3.018-4.287a8.423,8.423,0,0,0,1.38-2.841,5.085,5.085,0,0,0,.083-.667,3.934,3.934,0,0,0-7.793-.76A.977.977,0,0,0,48.786,199.311Z" transform="translate(-43.311 -120.914)" fill="#d12b8a"/>
  </g>
</svg>
