<svg xmlns="http://www.w3.org/2000/svg" width="37.959" height="50" viewBox="0 0 37.959 50">
  <g id="multimedia" transform="translate(-61.648)">
    <g id="Group_3670" data-name="Group 3670" transform="translate(61.648)">
      <g id="Group_3669" data-name="Group 3669">
        <path id="Path_2053" data-name="Path 2053" d="M92.323,0H68.933a7.284,7.284,0,1,0,0,14.569h23.39A7.284,7.284,0,1,0,92.323,0ZM68.933,12.528a5.244,5.244,0,0,1,0-10.487H87.274a7.267,7.267,0,0,0,0,10.487Zm23.39,0a5.244,5.244,0,1,1,5.244-5.244A5.25,5.25,0,0,1,92.323,12.528Z" transform="translate(-61.648)"/>
      </g>
    </g>
    <g id="Group_3672" data-name="Group 3672" transform="translate(61.648 17.716)">
      <g id="Group_3671" data-name="Group 3671">
        <path id="Path_2054" data-name="Path 2054" d="M92.324,181.407H68.933a7.284,7.284,0,0,0,0,14.569h23.39a7.284,7.284,0,0,0,0-14.569Zm-23.39,12.528a5.244,5.244,0,1,1,5.244-5.244A5.25,5.25,0,0,1,68.933,193.935Zm23.39,0H73.982a7.267,7.267,0,0,0,0-10.487H92.324a5.244,5.244,0,0,1,0,10.487Z" transform="translate(-61.649 -181.407)" fill="#d12b8a"/>
      </g>
    </g>
    <g id="Group_3674" data-name="Group 3674" transform="translate(61.648 35.431)">
      <g id="Group_3673" data-name="Group 3673">
        <path id="Path_2055" data-name="Path 2055" d="M92.324,362.815H68.933a7.284,7.284,0,1,0,0,14.569h23.39a7.284,7.284,0,1,0,0-14.569Zm-23.39,12.528a5.244,5.244,0,1,1,5.244-5.244A5.25,5.25,0,0,1,68.933,375.343Zm23.39,0H73.982a7.267,7.267,0,0,0,0-10.487H92.324a5.244,5.244,0,1,1,0,10.487Z" transform="translate(-61.649 -362.815)"/>
      </g>
    </g>
  </g>
</svg>
