<svg id="Outline" xmlns="http://www.w3.org/2000/svg" width="50" height="46.875" viewBox="0 0 50 46.875">
  <path id="Path_2215" data-name="Path 2215" d="M96.781,400a.781.781,0,0,0-.781.781v3.125a.781.781,0,1,0,1.562,0v-3.125A.781.781,0,0,0,96.781,400Z" transform="translate(-86.625 -362.5)" fill="#d12b8a"/>
  <path id="Path_2216" data-name="Path 2216" d="M46.468,135.971a.781.781,0,0,0-1.066,1.143l1.834,1.712H33.886l-10.714-9.375h7.405a.781.781,0,1,0,0-1.562c-18.56.006-17.483-.094-17.811.193l-3.125,2.734a.782.782,0,0,0,.514,1.369c.516,0,.5-.269,3.125-2.478L23.7,138.825H2.86l2.9-2.537a.781.781,0,0,0-1.029-1.176C.121,139.148,0,139.117,0,139.607v23.437a.781.781,0,0,0,.781.781H49.218a.781.781,0,0,0,.781-.781V139.607C50,139.126,49.975,139.249,46.468,135.971ZM6.25,162.263H1.562v-3.125H6.25Zm0-4.687H1.562V154.45H6.25Zm-4.687-4.687v-3.125H8.046a7.018,7.018,0,0,0-1.619,3.125Zm17.187,9.375H7.812V154.45a5.469,5.469,0,1,1,10.937,0Zm6.25,0H20.312v-3.125H25Zm0-4.687H20.312V154.45H25Zm0-4.687H20.135a7.018,7.018,0,0,0-1.619-3.125H25Zm0-4.687H16.5a7,7,0,0,0-6.43,0h-8.5v-3.158H25Zm0-4.72H1.562v-3.092H25Zm-9.639-14.03H20.8l10.714,9.375H26.075Zm17.452,32.812h-6.25V140.388h6.25Zm7.812,0h-6.25V140.388h6.25Zm7.812,0h-6.25V140.388h6.25Z" transform="translate(0 -116.951)"/>
  <path id="Path_2217" data-name="Path 2217" d="M289.333,322.9l1.563-1.562a.781.781,0,0,0-1.1-1.1l-1.562,1.563a.781.781,0,0,0,1.1,1.1Z" transform="translate(-259.875 -290.313)" fill="#d12b8a"/>
  <path id="Path_2218" data-name="Path 2218" d="M289.333,362.9l1.563-1.562a.781.781,0,0,0-1.1-1.1l-1.562,1.563a.781.781,0,0,0,1.1,1.1Z" transform="translate(-259.875 -326.406)" fill="#d12b8a"/>
  <path id="Path_2219" data-name="Path 2219" d="M369.333,322.9l1.563-1.562a.781.781,0,1,0-1.1-1.1l-1.562,1.563a.781.781,0,0,0,1.1,1.1Z" transform="translate(-332.063 -290.313)" fill="#d12b8a"/>
  <path id="Path_2220" data-name="Path 2220" d="M369.333,362.9l1.563-1.562a.781.781,0,0,0-1.1-1.1l-1.562,1.563a.781.781,0,0,0,1.1,1.1Z" transform="translate(-332.063 -326.406)" fill="#d12b8a"/>
  <path id="Path_2221" data-name="Path 2221" d="M448.792,323.125c.554,0,.685-.453,2.115-1.791a.781.781,0,0,0-1.1-1.1l-1.562,1.563a.782.782,0,0,0,.552,1.334Z" transform="translate(-404.261 -290.313)" fill="#d12b8a"/>
  <path id="Path_2222" data-name="Path 2222" d="M448.792,363.125c.554,0,.685-.453,2.115-1.791a.781.781,0,0,0-1.1-1.1l-1.562,1.563a.782.782,0,0,0,.552,1.334Z" transform="translate(-404.261 -326.406)" fill="#d12b8a"/>
  <path id="Path_2223" data-name="Path 2223" d="M354.047,77.13l-1.807,1.808a.782.782,0,0,0,.552,1.334c.556,0,.612-.389,2.349-2.025,2.751,2,6.219.479,8.655-1.956,3.257-3.257,3.815-10.432,3.838-10.735a.781.781,0,0,0-.836-.836c-.3.022-7.478.58-10.736,3.838C352.745,71.872,352.64,75.11,354.047,77.13Zm11.926-10.751c-.256,1.983-1.072,6.6-3.282,8.806-2.262,2.262-4.744,2.978-6.426,1.937l6.455-6.455a.781.781,0,1,0-1.1-1.1L355.177,76c-.964-1.681-.233-4.117,1.991-6.34S363.99,66.635,365.973,66.379Z" transform="translate(-317.636 -59.958)" fill="#d12b8a"/>
  <path id="Path_2224" data-name="Path 2224" d="M337.911,28.389c2.173,0-1.872-3.374,7.105-10.418.239.508.556,1.221.871,2.051a.781.781,0,1,0,1.46-.555,28.317,28.317,0,0,0-1.361-3.056.781.781,0,0,0-1.137-.27c-.257.18-6.3,4.461-7.386,9.023a12.079,12.079,0,0,0-.334,2.421.781.781,0,0,0,.781.8Z" transform="translate(-304.207 -15.999)"/>
  <circle id="Ellipse_1089" data-name="Ellipse 1089" cx="0.781" cy="0.781" r="0.781" transform="translate(7.031 15.625)"/>
</svg>
