<svg id="technology_4_" data-name="technology (4)" xmlns="http://www.w3.org/2000/svg" width="50" height="49.543" viewBox="0 0 50 49.543">
  <path id="Path_2094" data-name="Path 2094" d="M127.37,15.149a.985.985,0,0,0-.985.985V46.587a.986.986,0,0,1-.985.985H100.6a.986.986,0,0,1-.985-.985V2.956a.986.986,0,0,1,.985-.985h24.8a.987.987,0,0,1,.985.985V8.123a.986.986,0,0,0,1.97,0V2.956A2.959,2.959,0,0,0,125.4,0H100.6a2.959,2.959,0,0,0-2.956,2.956V46.587a2.959,2.959,0,0,0,2.956,2.956h24.8a2.959,2.959,0,0,0,2.956-2.956V16.134A.985.985,0,0,0,127.37,15.149Zm0,0" transform="translate(-88.109)"/>
  <path id="Path_2095" data-name="Path 2095" d="M178.134,79.621a4.341,4.341,0,0,0,4.22-3.349h3.218a.986.986,0,0,0,0-1.97h-3.218a4.333,4.333,0,0,0-8.439,0h-3.137a.986.986,0,0,0,0,1.97h3.137A4.341,4.341,0,0,0,178.134,79.621Zm0-6.7a2.363,2.363,0,1,1-2.363,2.364A2.366,2.366,0,0,1,178.134,72.924Zm0,0" transform="translate(-153.244 -64.024)" fill="#d12b8a"/>
  <path id="Path_2096" data-name="Path 2096" d="M150.434,215.822a10.236,10.236,0,1,0,5.722-6.435.986.986,0,0,0,.787,1.807,8.26,8.26,0,1,1-4.622,5.2A.986.986,0,0,0,150.434,215.822Zm0,0" transform="translate(-135.352 -188.174)" fill="#d12b8a"/>
  <path id="Path_2097" data-name="Path 2097" d="M210.555,263.715a5.379,5.379,0,1,0-5.38,5.379A5.385,5.385,0,0,0,210.555,263.715Zm-8.788,0a3.409,3.409,0,1,1,3.408,3.409A3.412,3.412,0,0,1,201.768,263.715Zm0,0" transform="translate(-180.285 -233.108)" fill="#d12b8a"/>
  <path id="Path_2098" data-name="Path 2098" d="M361.191,36.087a.986.986,0,1,0,.148,1.2A1,1,0,0,0,361.191,36.087Zm0,0" transform="translate(-324.4 -32.305)"/>
  <path id="Path_2099" data-name="Path 2099" d="M359.608,453.43a.985.985,0,1,0,.4-1.221A.994.994,0,0,0,359.608,453.43Zm0,0" transform="translate(-324.424 -407.924)"/>
  <path id="Path_2100" data-name="Path 2100" d="M245.971,305.285a.985.985,0,1,0-1.159-.774A.995.995,0,0,0,245.971,305.285Zm0,0" transform="translate(-220.888 -273.711)" fill="#d12b8a"/>
  <path id="Path_2101" data-name="Path 2101" d="M131.458,452.653a.984.984,0,1,0-.532,1.287A.994.994,0,0,0,131.458,452.653Zm0,0" transform="translate(-116.913 -407.902)"/>
  <path id="Path_2102" data-name="Path 2102" d="M131.5,36.572a.985.985,0,1,0-.774,1.159A1,1,0,0,0,131.5,36.572Zm0,0" transform="translate(-116.899 -32.286)"/>
  <path id="Path_2103" data-name="Path 2103" d="M175.375,241.261a.985.985,0,1,0-.157,1.276A.993.993,0,0,0,175.375,241.261Zm0,0" transform="translate(-156.62 -217.306)" fill="#d12b8a"/>
  <path id="Path_2104" data-name="Path 2104" d="M393.85,114.734a.985.985,0,1,0-.533,1.287A.994.994,0,0,0,393.85,114.734Zm0,0" transform="translate(-353.68 -102.982)"/>
  <path id="Path_2105" data-name="Path 2105" d="M454.865,253.508a.986.986,0,0,0-.926,1.739,5.966,5.966,0,0,1-.079,10.577.986.986,0,0,0,.9,1.753,7.936,7.936,0,0,0,.105-14.069Zm0,0" transform="translate(-409.076 -228.641)"/>
  <path id="Path_2106" data-name="Path 2106" d="M439.3,288.3a4.522,4.522,0,0,0-2.405-4.037.986.986,0,0,0-.925,1.74,2.563,2.563,0,0,1-.034,4.544.986.986,0,0,0,.9,1.753A4.521,4.521,0,0,0,439.3,288.3Zm0,0" transform="translate(-392.905 -256.389)"/>
  <path id="Path_2107" data-name="Path 2107" d="M5.176,265.9a5.965,5.965,0,0,1,0-10.577.986.986,0,0,0-.913-1.746,7.936,7.936,0,0,0,0,14.07A.986.986,0,0,0,5.176,265.9Zm0,0" transform="translate(0 -228.704)"/>
  <path id="Path_2108" data-name="Path 2108" d="M40.223,290.755a2.562,2.562,0,0,1,0-4.544.986.986,0,0,0-.913-1.746,4.533,4.533,0,0,0,0,8.037A.986.986,0,0,0,40.223,290.755Zm0,0" transform="translate(-33.274 -256.578)"/>
</svg>
