<svg xmlns="http://www.w3.org/2000/svg" width="49.996" height="50" viewBox="0 0 49.996 50">
  <g id="networking" transform="translate(-0.022)">
    <g id="Group_3724" data-name="Group 3724" transform="translate(0.022 26.369)">
      <g id="Group_3723" data-name="Group 3723">
        <path id="Path_2081" data-name="Path 2081" d="M23.067,270.021H2.951A2.933,2.933,0,0,0,.022,272.95v12.5a2.933,2.933,0,0,0,2.929,2.929H9.908v3.32H8.544a.977.977,0,0,0,0,1.953H17.4a.976.976,0,1,0,0-1.953H16.036v-3.32h7.031A2.933,2.933,0,0,0,26,285.449v-12.5A2.933,2.933,0,0,0,23.067,270.021ZM14.083,291.7H11.861v-3.32h2.222Zm9.96-6.25a.978.978,0,0,1-.976.976H2.951a.978.978,0,0,1-.976-.976V282.91H17.6a.976.976,0,0,0,0-1.953H1.975V272.95a.978.978,0,0,1,.976-.976H23.067a.978.978,0,0,1,.976.976v12.5Z" transform="translate(-0.022 -270.021)" fill="#d12b8a"/>
      </g>
    </g>
    <g id="Group_3726" data-name="Group 3726" transform="translate(20.174 37.306)">
      <g id="Group_3725" data-name="Group 3725">
        <path id="Path_2082" data-name="Path 2082" d="M208.041,382.3a.973.973,0,1,0,.287.69A.982.982,0,0,0,208.041,382.3Z" transform="translate(-206.375 -382.011)" fill="#d12b8a"/>
      </g>
    </g>
    <g id="Group_3728" data-name="Group 3728" transform="translate(24.043)">
      <g id="Group_3727" data-name="Group 3727">
        <path id="Path_2083" data-name="Path 2083" d="M269.046,0H248.93A2.933,2.933,0,0,0,246,2.929v12.5a2.933,2.933,0,0,0,2.929,2.929h6.956v3.32h-1.326a.976.976,0,0,0,0,1.953h8.854a.976.976,0,1,0,0-1.953h-1.4v-3.32h7.031a2.933,2.933,0,0,0,2.929-2.929V2.929A2.933,2.933,0,0,0,269.046,0Zm-8.984,21.678H257.84v-3.32h2.222Zm9.96-6.25a.978.978,0,0,1-.976.976H248.93a.978.978,0,0,1-.976-.976V12.889h15.624a.976.976,0,0,0,0-1.953H247.954V2.929a.978.978,0,0,1,.976-.976h20.115a.978.978,0,0,1,.976.976v12.5Z" transform="translate(-246.001)"/>
      </g>
    </g>
    <g id="Group_3730" data-name="Group 3730" transform="translate(44.194 10.937)">
      <g id="Group_3729" data-name="Group 3729">
        <path id="Path_2084" data-name="Path 2084" d="M454.012,112.28a.978.978,0,1,0,.285.69A.982.982,0,0,0,454.012,112.28Z" transform="translate(-452.344 -111.994)"/>
      </g>
    </g>
    <g id="Group_3732" data-name="Group 3732" transform="translate(9.652 8.593)">
      <g id="Group_3731" data-name="Group 3731">
        <path id="Path_2085" data-name="Path 2085" d="M110.974,90.336h-5.847a3.32,3.32,0,1,0-4.15,4.15v8.74a.976.976,0,1,0,1.953,0v-8.74a3.334,3.334,0,0,0,2.2-2.2h5.847a.976.976,0,0,0,0-1.953Zm-9.02,2.344a1.367,1.367,0,1,1,1.367-1.367A1.369,1.369,0,0,1,101.954,92.679Z" transform="translate(-98.634 -87.992)"/>
      </g>
    </g>
    <g id="Group_3734" data-name="Group 3734" transform="translate(26.973 25.393)">
      <g id="Group_3733" data-name="Group 3733">
        <path id="Path_2086" data-name="Path 2086" d="M286.972,269.738V261a.976.976,0,0,0-1.953,0v8.74a3.334,3.334,0,0,0-2.2,2.2h-5.847a.976.976,0,1,0,0,1.953h5.847a3.32,3.32,0,1,0,4.15-4.15Zm-.976,4.54a1.367,1.367,0,1,1,1.367-1.367A1.369,1.369,0,0,1,286,274.279Z" transform="translate(-275.999 -260.022)"/>
      </g>
    </g>
  </g>
</svg>
