<svg xmlns="http://www.w3.org/2000/svg" width="44" height="44" viewBox="0 0 44 44">
  <g id="interface_1_" data-name="interface (1)" transform="translate(-0.002)">
    <g id="Group_3668" data-name="Group 3668" transform="translate(0.002)">
      <g id="Group_3667" data-name="Group 3667" transform="translate(0)">
        <path id="Path_2046" data-name="Path 2046" d="M22,0A22,22,0,1,0,44,22,22.025,22.025,0,0,0,22,0Zm0,42.167A20.167,20.167,0,1,1,42.169,22,20.189,20.189,0,0,1,22,42.167Z" transform="translate(-0.002)"/>
        <path id="Path_2047" data-name="Path 2047" d="M81.738,65.887a.917.917,0,1,0,.156-1.827C81.435,64.021,80.967,64,80.5,64A16.519,16.519,0,0,0,64,80.5a.917.917,0,0,0,1.833,0A14.683,14.683,0,0,1,80.5,65.835C80.915,65.835,81.331,65.852,81.738,65.887Z" transform="translate(-58.501 -58.501)"/>
        <path id="Path_2048" data-name="Path 2048" d="M247.848,245.333a.917.917,0,0,0-.917.917,14.683,14.683,0,0,1-14.667,14.666c-.413,0-.829-.017-1.237-.052a.917.917,0,1,0-.154,1.827c.459.039.927.058,1.392.058a16.519,16.519,0,0,0,16.5-16.5A.917.917,0,0,0,247.848,245.333Z" transform="translate(-210.265 -224.249)"/>
        <path id="Path_2049" data-name="Path 2049" d="M292.16,71.77l.086.023a.917.917,0,1,0,.446-1.779L292.645,70a.917.917,0,0,0-.485,1.768Z" transform="translate(-266.436 -63.956)"/>
        <path id="Path_2050" data-name="Path 2050" d="M199.6,420.53l-.053-.014a.917.917,0,0,0-.472,1.772l.014,0,.066.017a.917.917,0,1,0,.445-1.779Z" transform="translate(-181.347 -384.349)"/>
        <path id="Path_2051" data-name="Path 2051" d="M176.5,188.154a8.273,8.273,0,0,0-4.125-7.145.917.917,0,1,0-.917,1.588,6.417,6.417,0,1,1-6.417,0,.917.917,0,0,0-.917-1.588,8.25,8.25,0,1,0,12.375,7.145Z" transform="translate(-146.247 -165.341)" fill="#d12b8a"/>
        <path id="Path_2052" data-name="Path 2052" d="M245.331,151.459v7.333a.917.917,0,0,0,1.833,0v-7.333a.917.917,0,1,0-1.833,0Z" transform="translate(-224.248 -137.605)" fill="#d12b8a"/>
      </g>
    </g>
  </g>
</svg>
