<svg xmlns="http://www.w3.org/2000/svg" width="50" height="50.081" viewBox="0 0 50 50.081">
  <g id="House" transform="translate(-2 -6)">
    <path id="Path_2225" data-name="Path 2225" d="M47.253,32.021a2.781,2.781,0,0,0,3.933-3.933l-5.53-5.53V11.346a1.782,1.782,0,0,0,1.782-1.782V7.782A1.782,1.782,0,0,0,45.656,6H36.746a1.782,1.782,0,0,0-1.782,1.782V9.564a1.782,1.782,0,0,0,1.782,1.782v2.3L30.618,7.521a2.738,2.738,0,0,0-3.78,0L6.27,28.089A2.781,2.781,0,0,0,10.2,32.021l1.6-1.6V49.1a3.549,3.549,0,0,0-6.237,2.332A3.564,3.564,0,0,0,2,55a.891.891,0,0,0,.891.891H44.325a1.758,1.758,0,0,0,2.042-.332l2.52-2.519a1.782,1.782,0,0,0,0-2.52l-3.231-3.233V30.424ZM36.746,7.782h8.909V9.564H36.746Zm1.782,3.564h5.346v9.431l-5.346-5.346ZM8.943,30.762A1,1,0,1,1,7.53,29.349L28.1,8.781a.91.91,0,0,1,1.26,0L49.926,29.349a1,1,0,1,1-1.413,1.413l-17.894-17.9a2.673,2.673,0,0,0-3.78,0ZM4.022,54.11a1.776,1.776,0,0,1,2.322-.7.891.891,0,0,0,1.192-1.194,1.772,1.772,0,1,1,3.264-1.36.856.856,0,0,0,.87.6.534.534,0,0,0,.13-.015,3.571,3.571,0,0,1,3.451,2.673Zm41.086.19-5.04-5.04,2.52-2.52,5.04,5.04ZM35.028,41.7a8.909,8.909,0,1,1,0-12.6A8.909,8.909,0,0,1,35.028,41.7Zm1.26,1.26c.213-.212.407-.437.6-.662l1.292,1.292-1.261,1.261-1.292-1.292C35.855,43.367,36.075,43.173,36.287,42.96Zm3.78,1.261,1.26,1.26L38.808,48l-1.26-1.261Zm3.806,1.286L40.7,42.33a.891.891,0,0,0-1.26,0l-1.509-1.508A10.7,10.7,0,1,0,34.149,44.6l1.508,1.509a.891.891,0,0,0,0,1.26L42.4,54.11H17.067a5.357,5.357,0,0,0-3.484-4.145V28.642L28.1,14.126a.91.91,0,0,1,1.26,0L43.874,28.642Z"/>
    <path id="Path_2226" data-name="Path 2226" d="M26.343,33.343a8,8,0,1,0,11.314,0,8,8,0,0,0-11.314,0Zm9.9,9.9a6,6,0,1,1,0-8.486A6,6,0,0,1,36.243,43.243Z" transform="translate(-3.356 -3.812)" fill="#d12b8a"/>
  </g>
</svg>
