<svg xmlns="http://www.w3.org/2000/svg" width="50" height="50" viewBox="0 0 50 50">
  <g id="technology_2_" data-name="technology (2)" transform="translate(-0.002)">
    <g id="Group_3702" data-name="Group 3702" transform="translate(0.002 14.478)">
      <g id="Group_3701" data-name="Group 3701" transform="translate(0)">
        <path id="Path_2070" data-name="Path 2070" d="M25.008,178.106a.977.977,0,0,0-1.381,0A12.7,12.7,0,0,1,5.674,160.152l10.23-10.23a.977.977,0,0,0-1.381-1.381l-10.23,10.23a14.648,14.648,0,1,0,20.716,20.716A.977.977,0,0,0,25.008,178.106Z" transform="translate(-0.002 -148.255)"/>
      </g>
    </g>
    <g id="Group_3704" data-name="Group 3704" transform="translate(26.394 40.991)">
      <g id="Group_3703" data-name="Group 3703">
        <path id="Path_2071" data-name="Path 2071" d="M271.917,420.032a.976.976,0,1,0,.286.69A.98.98,0,0,0,271.917,420.032Z" transform="translate(-270.25 -419.746)"/>
      </g>
    </g>
    <g id="Group_3706" data-name="Group 3706" transform="translate(19.5 5.276)">
      <g id="Group_3705" data-name="Group 3705">
        <path id="Path_2072" data-name="Path 2072" d="M223.79,70.545l-4.529-4.529a4.608,4.608,0,0,0-6.368-6.368l-4.529-4.529a3.741,3.741,0,0,0-5.29,0l-3.129,3.128a.977.977,0,0,0,1.381,1.381l3.129-3.128a1.788,1.788,0,0,1,2.528,0l15.426,15.426a1.788,1.788,0,0,1,0,2.528L209.369,87.494a.977.977,0,1,0,1.381,1.381L223.79,75.836A3.745,3.745,0,0,0,223.79,70.545Zm-5.968-5.968-3.49-3.49a2.654,2.654,0,0,1,3.49,3.49Z" transform="translate(-199.659 -54.024)"/>
      </g>
    </g>
    <g id="Group_3708" data-name="Group 3708" transform="translate(16.971 11.744)">
      <g id="Group_3707" data-name="Group 3707">
        <path id="Path_2073" data-name="Path 2073" d="M175.428,120.545a.976.976,0,1,0,.286.69A.98.98,0,0,0,175.428,120.545Z" transform="translate(-173.761 -120.259)"/>
      </g>
    </g>
    <g id="Group_3710" data-name="Group 3710" transform="translate(6.114 27.092)">
      <g id="Group_3709" data-name="Group 3709">
        <path id="Path_2074" data-name="Path 2074" d="M70.986,277.415a8.4,8.4,0,1,0,8.4,8.4A8.408,8.408,0,0,0,70.986,277.415Zm.976,2.027a6.461,6.461,0,0,1,5.395,5.395h-3.61a2.944,2.944,0,0,0-1.785-1.785v-3.61Zm-1.953,0v3.61a2.944,2.944,0,0,0-1.785,1.785h-3.61A6.461,6.461,0,0,1,70.01,279.442Zm0,12.743a6.46,6.46,0,0,1-5.395-5.395h3.61a2.944,2.944,0,0,0,1.785,1.785v3.61Zm.977-5.395a.977.977,0,1,1,.977-.977A.978.978,0,0,1,70.986,286.79Zm.976,5.395v-3.61a2.944,2.944,0,0,0,1.785-1.785h3.61A6.461,6.461,0,0,1,71.963,292.185Z" transform="translate(-62.588 -277.415)"/>
      </g>
    </g>
    <g id="Group_3712" data-name="Group 3712" transform="translate(23.207 13.525)">
      <g id="Group_3711" data-name="Group 3711">
        <path id="Path_2075" data-name="Path 2075" d="M243.287,139.468a3.321,3.321,0,1,0,.972,2.348A3.3,3.3,0,0,0,243.287,139.468Zm-1.381,3.314a1.367,1.367,0,1,1,.4-.967A1.369,1.369,0,0,1,241.906,142.783Z" transform="translate(-237.619 -138.496)" fill="#d12b8a"/>
      </g>
    </g>
    <g id="Group_3714" data-name="Group 3714" transform="translate(29.838 20.156)">
      <g id="Group_3713" data-name="Group 3713">
        <path id="Path_2076" data-name="Path 2076" d="M311.186,207.367a3.319,3.319,0,1,0,0,4.7A3.324,3.324,0,0,0,311.186,207.367Zm-1.381,3.315a1.367,1.367,0,1,1,0-1.934A1.369,1.369,0,0,1,309.8,210.681Z" transform="translate(-305.519 -206.396)" fill="#d12b8a"/>
      </g>
    </g>
    <g id="Group_3716" data-name="Group 3716" transform="translate(17.268 19.464)">
      <g id="Group_3715" data-name="Group 3715">
        <path id="Path_2077" data-name="Path 2077" d="M182.476,200.279a3.32,3.32,0,1,0,.972,2.348A3.3,3.3,0,0,0,182.476,200.279Zm-1.381,3.314a1.367,1.367,0,1,1,.4-.967A1.358,1.358,0,0,1,181.1,203.593Z" transform="translate(-176.808 -199.306)" fill="#d12b8a"/>
      </g>
    </g>
    <g id="Group_3718" data-name="Group 3718" transform="translate(23.898 26.093)">
      <g id="Group_3717" data-name="Group 3717">
        <path id="Path_2078" data-name="Path 2078" d="M250.36,268.162a3.321,3.321,0,1,0,.972,2.348A3.3,3.3,0,0,0,250.36,268.162Zm-1.381,3.315a1.367,1.367,0,1,1,.4-.967A1.368,1.368,0,0,1,248.979,271.476Z" transform="translate(-244.692 -267.189)" fill="#d12b8a"/>
      </g>
    </g>
    <g id="Group_3720" data-name="Group 3720" transform="translate(34.254 5.244)">
      <g id="Group_3719" data-name="Group 3719">
        <path id="Path_2079" data-name="Path 2079" d="M351.714,53.7a.977.977,0,0,0,0,1.953,7.59,7.59,0,0,1,7.581,7.581.977.977,0,1,0,1.953,0A9.545,9.545,0,0,0,351.714,53.7Z" transform="translate(-350.737 -53.703)"/>
      </g>
    </g>
    <g id="Group_3722" data-name="Group 3722" transform="translate(34.243)">
      <g id="Group_3721" data-name="Group 3721">
        <path id="Path_2080" data-name="Path 2080" d="M351.6,0a.977.977,0,0,0,0,1.953,12.844,12.844,0,0,1,12.829,12.829.977.977,0,1,0,1.953,0A14.8,14.8,0,0,0,351.6,0Z" transform="translate(-350.625)"/>
      </g>
    </g>
  </g>
</svg>
