<svg xmlns="http://www.w3.org/2000/svg" width="50" height="41.016" viewBox="0 0 50 41.016">
  <g id="house" transform="translate(0 -46)">
    <path id="Path_2056" data-name="Path 2056" d="M49.714,46.286a.983.983,0,0,0-.69-.286H.977A.977.977,0,0,0,0,46.977V86.039a.977.977,0,0,0,.977.977H49.023A.977.977,0,0,0,50,86.039v-22.7a.977.977,0,0,0-1.953,0v4.73h-.131l-5.43-20.117h5.561v6.6a.977.977,0,0,0,1.953,0h0V46.977A.982.982,0,0,0,49.714,46.286ZM17.96,47.953H32.04l1.074,1.953H16.886Zm-1.749,3.906H33.789v29.3H16.211Zm-.5-3.906L4.314,68.07H4.107l5.43-20.117Zm-13.754,0H7.514L2.084,68.07H1.953Zm0,22.07H3.906v1.953H1.953Zm0,15.039V73.93h2.2L7.478,85.063ZM5.859,72.81v-3.5l8.4-14.737V81.156H8.351ZM40.483,85.063H9.517l-.583-1.953H41.066Zm-4.741-3.906V54.569l8.4,14.737v3.5l-2.491,8.346Zm12.3,3.906H42.522L45.845,73.93h2.2ZM46.094,70.023h1.953v1.953H46.094Zm-.2-1.953h-.206L34.293,47.953h6.17Z"/>
    <circle id="Ellipse_1085" data-name="Ellipse 1085" cx="0.977" cy="0.977" r="0.977" transform="translate(48.047 57.97)"/>
  </g>
</svg>
