<svg id="Group_3878" data-name="Group 3878" xmlns="http://www.w3.org/2000/svg" xmlns:xlink="http://www.w3.org/1999/xlink" width="32.842" height="36.421" viewBox="0 0 32.842 36.421">
  <defs>
    <linearGradient id="linear-gradient" x1="0.101" y1="0.578" x2="1" y2="0.598" gradientUnits="objectBoundingBox">
      <stop offset="0" stop-color="#562b7c"/>
      <stop offset="1" stop-color="#23b7c0"/>
    </linearGradient>
  </defs>
  <path id="Path_1308" data-name="Path 1308" d="M254.923,406.878a19.1,19.1,0,0,0,7.717-1.079,3.409,3.409,0,0,1,2.385-.029,14.369,14.369,0,0,0,16.754-5.762,11.2,11.2,0,0,1,1.5-1.749,8.988,8.988,0,0,0-.378-13.432,11.153,11.153,0,0,1-1.589-1.668,14.155,14.155,0,0,0-9.006-5.618c-1.561-.286-2.134-1.29-1.546-2.728.149-.365.537-.625.752-.973a2.15,2.15,0,0,0-2.843-3.04c-1.255.687-1.482,2.044-.564,3.344,1.3,1.835.881,3.032-1.209,3.436a14.112,14.112,0,0,0-8.612,5.307,14.609,14.609,0,0,1-1.8,1.96,8.913,8.913,0,0,0-.348,13.408,4.4,4.4,0,0,1,1.166,4.7C256.934,404.42,255.917,405.51,254.923,406.878Z" transform="translate(-253.265 -370.496)" fill="#fdfdfd"/>
  <path id="Path_1309" data-name="Path 1309" d="M254.923,406.878c.994-1.368,2.011-2.458,2.379-3.927a4.4,4.4,0,0,0-1.166-4.7,8.913,8.913,0,0,1,.348-13.408,14.609,14.609,0,0,0,1.8-1.96,14.112,14.112,0,0,1,8.612-5.307c2.09-.4,2.505-1.6,1.209-3.436-.919-1.3-.692-2.657.564-3.344a2.15,2.15,0,0,1,2.843,3.04c-.214.348-.6.608-.752.973-.588,1.439-.015,2.442,1.546,2.728a14.155,14.155,0,0,1,9.006,5.618,11.153,11.153,0,0,0,1.589,1.668,8.988,8.988,0,0,1,.378,13.432,11.2,11.2,0,0,0-1.5,1.749,14.369,14.369,0,0,1-16.754,5.762,3.409,3.409,0,0,0-2.385.029A19.1,19.1,0,0,1,254.923,406.878Zm14.744-7.862c2.323,0,4.646.035,6.968-.007a7.286,7.286,0,1,0-.043-14.563q-6.878-.048-13.757,0a7.288,7.288,0,1,0-.135,14.563C265.021,399.055,267.344,399.016,269.667,399.016Z" transform="translate(-253.265 -370.496)" fill="url(#linear-gradient)"/>
  <path id="Path_1310" data-name="Path 1310" d="M273.121,424.094c-2.323,0-4.646.039-6.968-.009a7.288,7.288,0,1,1,.135-14.563q6.878-.043,13.757,0a7.286,7.286,0,1,1,.043,14.563C277.767,424.129,275.444,424.094,273.121,424.094Zm4.943-7.216a1.844,1.844,0,0,0,1.965,1.864,1.937,1.937,0,1,0-.148-3.871A1.824,1.824,0,0,0,278.064,416.878Zm-11.755-2.035a1.839,1.839,0,0,0-1.791,1.977,1.777,1.777,0,0,0,1.893,1.917,1.807,1.807,0,0,0,1.952-2.044A1.875,1.875,0,0,0,266.31,414.843Z" transform="translate(-256.72 -395.574)" fill="#fbfcfc"/>
  <path id="Path_1311" data-name="Path 1311" d="M313.045,426.541a1.824,1.824,0,0,1,1.817-2.007,1.937,1.937,0,1,1,.148,3.871A1.844,1.844,0,0,1,313.045,426.541Z" transform="translate(-291.7 -405.237)" fill="#338dac"/>
  <path id="Path_1312" data-name="Path 1312" d="M276.9,424.462a1.875,1.875,0,0,1,2.055,1.85A1.807,1.807,0,0,1,277,428.356a1.777,1.777,0,0,1-1.894-1.917A1.84,1.84,0,0,1,276.9,424.462Z" transform="translate(-267.309 -405.193)" fill="#562b7c"/>
</svg>
