<svg xmlns="http://www.w3.org/2000/svg" xmlns:xlink="http://www.w3.org/1999/xlink" width="137.184" height="46" viewBox="0 0 137.184 46">
  <defs>
    <linearGradient id="linear-gradient" x1="0.101" y1="0.578" x2="1" y2="0.598" gradientUnits="objectBoundingBox">
      <stop offset="0" stop-color="#562b7c"/>
      <stop offset="1" stop-color="#23b7c0"/>
    </linearGradient>
  </defs>
  <g id="Group_2629" data-name="Group 2629" transform="translate(-1588 -1028)">
    <g id="Group_1881" data-name="Group 1881" transform="translate(1588 1028)">
      <g id="Path_1313" data-name="Path 1313" fill="#fff">
        <path d="M 136.68359375 45.5 L 0.4999968707561493 45.5 L 0.4999968707561493 8.679254531860352 C 0.4999968707561493 6.45592737197876 1.054069638252258 4.372636318206787 2.060160398483276 2.813145399093628 C 3.022487878799438 1.321490883827209 4.279378890991211 0.5 5.599324226379395 0.5 L 131.5842742919922 0.5 C 132.9042205810547 0.5 134.1611175537109 1.321490883827209 135.1234588623047 2.813145399093628 C 136.1295166015625 4.372636318206787 136.68359375 6.45592737197876 136.68359375 8.679254531860352 L 136.68359375 45.5 Z" stroke="none"/>
        <path d="M 5.599319458007812 1 C 4.455093383789062 1 3.347396850585938 1.740180969238281 2.480300903320312 3.084201812744141 C 1.525711059570312 4.563873291015625 1 6.550891876220703 1 8.679237365722656 L 1 45 L 136.18359375 45 L 136.18359375 8.679237365722656 C 136.18359375 6.550891876220703 135.6578674316406 4.563873291015625 134.7032928466797 3.084201812744141 C 133.8361968994141 1.740180969238281 132.7285003662109 1 131.5842590332031 1 L 5.599319458007812 1 M 5.599319458007812 0 L 131.5842590332031 0 C 134.6766815185547 0 137.18359375 3.885837554931641 137.18359375 8.679237365722656 L 137.18359375 46 L 0 46 L 0 8.679237365722656 C 0 3.885837554931641 2.506912231445312 0 5.599319458007812 0 Z" stroke="none" fill="#23b7c0"/>
      </g>
      <text id="Chat_Bot" data-name="Chat Bot" transform="translate(9 30)" fill="#562b7c" font-size="18" font-family="NunitoSans-Bold, Nunito Sans" font-weight="700"><tspan x="0" y="0">Chat Bot</tspan></text>
    </g>
    <g id="Group_1883" data-name="Group 1883" transform="translate(1679.142 1032.878)">
      <path id="Path_1308" data-name="Path 1308" d="M254.923,406.878a19.1,19.1,0,0,0,7.717-1.079,3.409,3.409,0,0,1,2.385-.029,14.369,14.369,0,0,0,16.754-5.762,11.2,11.2,0,0,1,1.5-1.749,8.988,8.988,0,0,0-.378-13.432,11.153,11.153,0,0,1-1.589-1.668,14.155,14.155,0,0,0-9.006-5.618c-1.561-.286-2.134-1.29-1.546-2.728.149-.365.537-.625.752-.973a2.15,2.15,0,0,0-2.843-3.04c-1.255.687-1.482,2.044-.564,3.344,1.3,1.835.881,3.032-1.209,3.436a14.112,14.112,0,0,0-8.612,5.307,14.609,14.609,0,0,1-1.8,1.96,8.913,8.913,0,0,0-.348,13.408,4.4,4.4,0,0,1,1.166,4.7C256.934,404.42,255.917,405.51,254.923,406.878Z" transform="translate(-253.265 -370.496)" fill="#fdfdfd"/>
      <path id="Path_1309" data-name="Path 1309" d="M254.923,406.878c.994-1.368,2.011-2.458,2.379-3.927a4.4,4.4,0,0,0-1.166-4.7,8.913,8.913,0,0,1,.348-13.408,14.609,14.609,0,0,0,1.8-1.96,14.112,14.112,0,0,1,8.612-5.307c2.09-.4,2.505-1.6,1.209-3.436-.919-1.3-.692-2.657.564-3.344a2.15,2.15,0,0,1,2.843,3.04c-.214.348-.6.608-.752.973-.588,1.439-.015,2.442,1.546,2.728a14.155,14.155,0,0,1,9.006,5.618,11.153,11.153,0,0,0,1.589,1.668,8.988,8.988,0,0,1,.378,13.432,11.2,11.2,0,0,0-1.5,1.749,14.369,14.369,0,0,1-16.754,5.762,3.409,3.409,0,0,0-2.385.029A19.1,19.1,0,0,1,254.923,406.878Zm14.744-7.862c2.323,0,4.646.035,6.968-.007a7.286,7.286,0,1,0-.043-14.563q-6.878-.048-13.757,0a7.288,7.288,0,1,0-.135,14.563C265.021,399.055,267.344,399.016,269.667,399.016Z" transform="translate(-253.265 -370.496)" fill="url(#linear-gradient)"/>
      <path id="Path_1310" data-name="Path 1310" d="M273.121,424.094c-2.323,0-4.646.039-6.968-.009a7.288,7.288,0,1,1,.135-14.563q6.878-.043,13.757,0a7.286,7.286,0,1,1,.043,14.563C277.767,424.129,275.444,424.094,273.121,424.094Zm4.943-7.216a1.844,1.844,0,0,0,1.965,1.864,1.937,1.937,0,1,0-.148-3.871A1.824,1.824,0,0,0,278.064,416.878Zm-11.755-2.035a1.839,1.839,0,0,0-1.791,1.977,1.777,1.777,0,0,0,1.893,1.917,1.807,1.807,0,0,0,1.952-2.044A1.875,1.875,0,0,0,266.31,414.843Z" transform="translate(-256.72 -395.574)" fill="#fbfcfc"/>
      <path id="Path_1311" data-name="Path 1311" d="M313.045,426.541a1.824,1.824,0,0,1,1.817-2.007,1.937,1.937,0,1,1,.148,3.871A1.844,1.844,0,0,1,313.045,426.541Z" transform="translate(-291.7 -405.237)" fill="#338dac"/>
      <path id="Path_1312" data-name="Path 1312" d="M276.9,424.462a1.875,1.875,0,0,1,2.055,1.85A1.807,1.807,0,0,1,277,428.356a1.777,1.777,0,0,1-1.894-1.917A1.84,1.84,0,0,1,276.9,424.462Z" transform="translate(-267.309 -405.193)" fill="#562b7c"/>
    </g>
  </g>
</svg>
