<svg xmlns="http://www.w3.org/2000/svg" width="34" height="40.366" viewBox="0 0 34 40.366">
  <g id="technology" transform="translate(-40.373 -0.001)">
    <g id="Group_3502" data-name="Group 3502" transform="translate(40.373 0.001)">
      <g id="Group_3493" data-name="Group 3493" transform="translate(10.421 21.171)">
        <path id="Path_2004" data-name="Path 2004" d="M173.333,270.087a.789.789,0,1,1,.774-.641A.8.8,0,0,1,173.333,270.087Z" transform="translate(-172.546 -268.512)"/>
      </g>
      <path id="Path_2005" data-name="Path 2005" d="M74.141,39.021l-2.07-2.067a1.421,1.421,0,0,1,0-2.011,3,3,0,0,0,0-4.242l-1.078-1.077.917-.916a4.914,4.914,0,0,0,0-6.952l-2.225-2.224a4.771,4.771,0,0,0-6.735,0L61.4,21.08c-5.314-1.684-7.459-3.828-9.145-9.138l1.55-1.549a4.758,4.758,0,0,0,0-6.732L51.579,1.438a4.926,4.926,0,0,0-6.955,0L42.479,3.581c-1.631,1.63-3.061,3.866-1.294,8.087a12.064,12.064,0,0,0,1.574,2.416q.019.024.04.047l1.617,1.775.025.027,4.053,4.053a.788.788,0,0,0,1.115-1.115l-4.04-4.04-1.583-1.738a10.379,10.379,0,0,1-1.345-2.033C41.167,7.54,42.3,5.986,43.594,4.7l2.145-2.144a3.347,3.347,0,0,1,4.726,0L52.69,4.777a3.181,3.181,0,0,1,0,4.5L50.8,11.164a.789.789,0,0,0-.2.786c1.92,6.341,4.441,8.86,10.786,10.779a.789.789,0,0,0,.786-.2l1.886-1.885a3.192,3.192,0,0,1,4.506,0L70.8,22.87a3.337,3.337,0,0,1,0,4.721l-2.145,2.143c-1.291,1.29-2.846,2.426-6.368.954a10.384,10.384,0,0,1-2.035-1.345l-1.74-1.582L54.648,23.91a.788.788,0,0,0-1.114,1.116l3.874,3.865.026.025,1.776,1.616q.023.021.047.04a12.068,12.068,0,0,0,2.417,1.572,9.231,9.231,0,0,0,3.546.812,6.193,6.193,0,0,0,4.544-2.105l.113-.113,1.079,1.078a1.421,1.421,0,0,1,0,2.011,3,3,0,0,0,0,4.242l2.07,2.067a.788.788,0,1,0,1.114-1.116Z" transform="translate(-40.373 -0.001)"/>
      <g id="Group_3501" data-name="Group 3501" transform="translate(17.512 3.935)">
        <g id="Group_3500" data-name="Group 3500">
          <g id="Group_3495" data-name="Group 3495" transform="translate(0)">
            <g id="Group_3494" data-name="Group 3494">
              <path id="Path_2006" data-name="Path 2006" d="M272.817,61.022a.789.789,0,0,1-.788-.788,8.763,8.763,0,0,0-8.759-8.749.788.788,0,1,1,0-1.577,10.342,10.342,0,0,1,10.336,10.325A.789.789,0,0,1,272.817,61.022Z" transform="translate(-262.481 -49.908)" fill="#d12b8a"/>
            </g>
          </g>
          <g id="Group_3497" data-name="Group 3497" transform="translate(0 3.803)">
            <g id="Group_3496" data-name="Group 3496">
              <path id="Path_2007" data-name="Path 2007" d="M269.008,105.458a.788.788,0,0,1-.788-.788,4.954,4.954,0,0,0-4.951-4.945.788.788,0,1,1,0-1.577,6.533,6.533,0,0,1,6.528,6.522A.788.788,0,0,1,269.008,105.458Z" transform="translate(-262.48 -98.147)" fill="#d12b8a"/>
            </g>
          </g>
          <g id="Group_3499" data-name="Group 3499" transform="translate(0 7.607)">
            <g id="Group_3498" data-name="Group 3498">
              <path id="Path_2008" data-name="Path 2008" d="M265.2,149.894a.789.789,0,0,1-.788-.788,1.144,1.144,0,0,0-1.144-1.142.788.788,0,0,1,0-1.577,2.723,2.723,0,0,1,2.721,2.719A.789.789,0,0,1,265.2,149.894Z" transform="translate(-262.48 -146.387)" fill="#d12b8a"/>
            </g>
          </g>
        </g>
      </g>
    </g>
  </g>
</svg>
