<svg xmlns="http://www.w3.org/2000/svg" width="26" height="26" viewBox="0 0 26 26">
  <path id="Union_43" data-name="Union 43" d="M12.579,23.245H2.166A2.166,2.166,0,0,1,0,21.08V4.453A2.166,2.166,0,0,1,2.166,2.287H4.407V.722a.722.722,0,1,1,1.444,0V2.287h11.4V.722a.722.722,0,1,1,1.444,0V2.287H21.08a2.166,2.166,0,0,1,2.166,2.166v8.126A7.577,7.577,0,1,1,12.579,23.245Zm-.306-4.837a6.136,6.136,0,1,0,6.136-6.136A6.136,6.136,0,0,0,12.272,18.409ZM1.444,21.08a.722.722,0,0,0,.722.722h9.469A7.574,7.574,0,0,1,21.8,11.634V9.385H1.444Zm0-16.627V7.941H21.8V4.453a.722.722,0,0,0-.722-.722H18.7V5.293a.722.722,0,0,1-1.444,0V3.731H5.85V5.293a.722.722,0,0,1-1.444,0V3.731H2.166A.722.722,0,0,0,1.444,4.453Zm17.17,14.666a.927.927,0,0,1-.927-.927V15.258a.722.722,0,1,1,1.444,0v2.429l3.344-.012a.722.722,0,1,1,0,1.444Z" fill="#d12b8a"/>
</svg>
