<svg xmlns="http://www.w3.org/2000/svg" width="27.718" height="22.574" viewBox="0 0 27.718 22.574">
  <g id="mail" transform="translate(0.25 3.81)">
    <path id="Path_1267" data-name="Path 1267" d="M400.562,120.682h.006l4.314-.065a.387.387,0,0,0-.011-.775l-4.314.065a.387.387,0,1,0,.005.775Zm0,0" transform="translate(-382.417 -117.857)" fill="#d12b8a" stroke="#d12b8a" stroke-width="0.5"/>
    <path id="Path_1268" data-name="Path 1268" d="M403.481,179h-.006l-2.051.031a.387.387,0,1,0,.005.775h.006l2.051-.031a.387.387,0,1,0-.006-.775Zm0,0" transform="translate(-383.245 -174.393)" fill="#d12b8a" stroke="#d12b8a" stroke-width="0.5"/>
    <path id="Path_1269" data-name="Path 1269" d="M.673,17.67a.364.364,0,0,0,.057.045,2.592,2.592,0,0,0,1.872.8H18.1a2.594,2.594,0,0,0,1.871-.8.381.381,0,0,0,.13-.144,2.588,2.588,0,0,0,.6-1.662v-5.9a6.726,6.726,0,0,0,1.952-.41l3.6.575a.388.388,0,0,0,.415-.54l-1-2.262a6.751,6.751,0,1,0-12.1-4.438H2.6A2.605,2.605,0,0,0,.022,5.2.391.391,0,0,0,0,5.388c0,.049,0,.1,0,.149V15.912a2.589,2.589,0,0,0,.6,1.661A.382.382,0,0,0,.673,17.67Zm1.929.069a1.818,1.818,0,0,1-1.1-.366L6.18,12.591a.387.387,0,1,0-.554-.542L1,16.784a1.818,1.818,0,0,1-.222-.872V6.168l8.041,6.809a2.373,2.373,0,0,0,3.078,0l4.714-4a.328.328,0,0,0,.031-.029l.008-.008a6.685,6.685,0,0,0,3.281,1.07v5.9a1.812,1.812,0,0,1-.224.875l-4.657-4.738a.387.387,0,1,0-.553.543l4.7,4.783a1.818,1.818,0,0,1-1.094.364ZM16.025-.9a5.976,5.976,0,0,1,8.9,7.966.387.387,0,0,0-.055.4L25.677,9.3l-3-.479a.389.389,0,0,0-.2.021,5.968,5.968,0,0,1-5.637-.709l-.028-.021a6.044,6.044,0,0,1-.657-.553A5.979,5.979,0,0,1,16.025-.9ZM2.6,3.71H13.576a6.705,6.705,0,0,0,2.036,4.4q.192.186.4.356l-4.616,3.915a1.6,1.6,0,0,1-2.076,0L.81,5.182A1.83,1.83,0,0,1,2.6,3.71Zm0,0" transform="translate(0 0)" fill="#d12b8a" stroke="#d12b8a" stroke-width="0.5"/>
  </g>
</svg>
