<svg xmlns="http://www.w3.org/2000/svg" width="16.5" height="29.676" viewBox="0 0 16.5 29.676">
  <g id="Group_5147" data-name="Group 5147" transform="translate(-119.75 -7.75)">
    <path id="Path_2322" data-name="Path 2322" d="M133.647,8H122.353A2.356,2.356,0,0,0,120,10.353V34.824a2.356,2.356,0,0,0,2.353,2.353h11.294A2.356,2.356,0,0,0,136,34.824V10.353A2.356,2.356,0,0,0,133.647,8Zm-2.456.941-.282,1.412h-5.817l-.282-1.412Zm3.868,25.882a1.413,1.413,0,0,1-1.412,1.412H122.353a1.413,1.413,0,0,1-1.412-1.412V10.353a1.413,1.413,0,0,1,1.412-1.412h1.5l.395,1.975a.471.471,0,0,0,.461.378h6.588a.471.471,0,0,0,.461-.378l.395-1.975h1.5a1.413,1.413,0,0,1,1.412,1.412Z" fill="#d12b8a" stroke="#d12b8a" stroke-width="0.5"/>
    <path id="Path_2323" data-name="Path 2323" d="M155.294,456h-2.824a.471.471,0,1,0,0,.941h2.824a.471.471,0,1,0,0-.941Z" transform="translate(-29.229 -422.535)" fill="#d12b8a" stroke="#d12b8a" stroke-width="0.5"/>
    <path id="Path_2324" data-name="Path 2324" d="M224.941,456h-.471a.471.471,0,1,0,0,.941h.471a.471.471,0,1,0,0-.941Z" transform="translate(-96.993 -422.535)" fill="#d12b8a" stroke="#d12b8a" stroke-width="0.5"/>
  </g>
</svg>
