<?xml version="1.0" encoding="utf-8"?>
<!-- Generator: Adobe Illustrator 15.1.0, SVG Export Plug-In . SVG Version: 6.00 Build 0)  -->
<!DOCTYPE svg PUBLIC "-//W3C//DTD SVG 1.1//EN" "http://www.w3.org/Graphics/SVG/1.1/DTD/svg11.dtd">
<svg version="1.1" id="Layer_1" xmlns="http://www.w3.org/2000/svg" xmlns:xlink="http://www.w3.org/1999/xlink" x="0px" y="0px"
	 width="39.609px" height="33.129px" viewBox="-0.002 11.587 39.609 33.129" enable-background="new -0.002 11.587 39.609 33.129"
	 xml:space="preserve">
<g id="wifi_1_" transform="translate(-73.894 22.989) rotate(-45)">
	<path id="Path_2442" fill="#FFFFFF" d="M74.318,58.192C69.088,52.931,61.972,49.981,54.553,50h-0.054l0.001,2.032h0.05
		c14.324,0.006,25.932,11.621,25.926,25.945c0,0.01,0,0.019,0,0.029l2.032,0.001C82.541,70.572,79.591,63.434,74.318,58.192z"/>
	<path id="Path_2443" fill="#FFFFFF" d="M54.502,58.991l-0.001,2.032c9.38-0.003,16.985,7.597,16.989,16.976
		c0,0.004,0,0.008,0,0.012l2.032-0.001c0.003-10.501-8.507-19.017-19.008-19.019C54.51,58.991,54.506,58.991,54.502,58.991z"/>
	<path id="Path_2444" fill="#FFFFFF" d="M54.508,67.982l-0.011,2.032c4.412,0.015,7.985,3.588,8,8l2.032-0.012
		C64.507,72.477,60.033,68.004,54.508,67.982z"/>
	<path id="Path_2445" fill="#FFFFFF" d="M50.893,77.309c-1.19,1.191-1.19,3.121,0.001,4.311c1.19,1.19,3.121,1.19,4.311-0.001
		c1.19-1.19,1.189-3.12-0.001-4.31C54.014,76.118,52.084,76.119,50.893,77.309C50.893,77.309,50.893,77.309,50.893,77.309z"/>
</g>
</svg>
