<svg xmlns="http://www.w3.org/2000/svg" width="21.068" height="26.399" viewBox="0 0 21.068 26.399">
  <g id="phone-call" transform="translate(0 3.699)">
    <path id="Path_231" data-name="Path 231" d="M16.953,42.676A2.429,2.429,0,0,0,14.8,43.963a.8.8,0,0,0,1.328.908c.354-.518.514-.6.732-.589A10.363,10.363,0,0,1,20.576,47a.832.832,0,0,1-.008.587,2.776,2.776,0,0,1-1.379,1.736,2.581,2.581,0,0,1-2.068-.07A22.737,22.737,0,0,1,9.663,44.4l0,0a22.734,22.734,0,0,1-4.847-7.449,2.583,2.583,0,0,1-.07-2.068A2.775,2.775,0,0,1,6.48,33.5a.831.831,0,0,1,.586-.008A10.382,10.382,0,0,1,9.787,37.2c.012.226-.07.386-.588.739a.8.8,0,1,0,.908,1.329,2.427,2.427,0,0,0,1.287-2.153c-.07-1.285-2.57-4.689-3.765-5.128a2.432,2.432,0,0,0-1.662-.01A4.33,4.33,0,0,0,3.281,34.21a4.141,4.141,0,0,0,.042,3.346,24.334,24.334,0,0,0,5.2,7.982l.016.016a24.34,24.34,0,0,0,7.973,5.193,4.773,4.773,0,0,0,1.8.375,3.688,3.688,0,0,0,1.549-.332A4.33,4.33,0,0,0,22.093,48.1a2.433,2.433,0,0,0-.008-1.658C21.644,45.247,18.24,42.746,16.953,42.676Z" transform="translate(-2.949 -28.421)" fill="#d12b8a"/>
    <g id="left-arrow" transform="translate(50.536 30.216) rotate(135)">
      <g id="Group_1821" data-name="Group 1821" transform="translate(0 41.674)">
        <path id="Path_1266" data-name="Path 1266" d="M7.146,44.225l.012,0H2.091l1.593-1.6a.418.418,0,0,0,0-.588L3.436,41.8a.415.415,0,0,0-.585,0l-2.73,2.73a.417.417,0,0,0,0,.587l2.73,2.73a.415.415,0,0,0,.585,0l.248-.248A.41.41,0,0,0,3.8,47.3a.4.4,0,0,0-.121-.287L2.073,45.409H7.151a.429.429,0,0,0,.42-.425v-.351A.421.421,0,0,0,7.146,44.225Z" transform="translate(0 -41.674)" fill="#d12b8a"/>
      </g>
      <g id="Group_1822" data-name="Group 1822" transform="translate(13.228 43.72) rotate(180)">
        <path id="Path_1266-2" data-name="Path 1266" d="M7.146,2.551l.012,0H2.091L3.684.957a.418.418,0,0,0,0-.588L3.436.121a.415.415,0,0,0-.585,0L.121,2.851a.417.417,0,0,0,0,.587l2.73,2.73a.415.415,0,0,0,.585,0l.248-.248A.41.41,0,0,0,3.8,5.628a.4.4,0,0,0-.121-.287L2.073,3.735H7.152a.429.429,0,0,0,.42-.425V2.96A.421.421,0,0,0,7.146,2.551Z" fill="#d12b8a"/>
      </g>
    </g>
  </g>
</svg>
