<svg xmlns="http://www.w3.org/2000/svg" width="30" height="30" viewBox="0 0 30 30">
  <g id="Group_5153" data-name="Group 5153" transform="translate(-86 -651)">
    <g id="Ellipse_1161" data-name="Ellipse 1161" transform="translate(86 651)" fill="#fff" stroke="#cebfe0" stroke-width="1">
      <circle cx="15" cy="15" r="15" stroke="none"/>
      <circle cx="15" cy="15" r="14.5" fill="none"/>
    </g>
    <path id="snapchat" d="M11.028,8.446c-.061-.014-.122-.024-.182-.042A3.223,3.223,0,0,1,8.761,6.43a.489.489,0,0,1-.06-.173.361.361,0,0,1,.219-.293c.147-.084.33-.133.484-.207a3.05,3.05,0,0,0,.582-.316.357.357,0,0,0-.056-.6.672.672,0,0,0-.374-.118.753.753,0,0,0-.264.051,2.507,2.507,0,0,1-.493.122l-.035,0c-.083,0-.124-.054-.117-.171.027-.461.053-.928.053-1.386A2.592,2.592,0,0,0,7.666,1.187,3.118,3.118,0,0,0,5.735.5a3.67,3.67,0,0,0-1.5.305A2.526,2.526,0,0,0,2.587,3.044c-.012.155-.016.311-.016.466,0,.4.026.8.042,1.2.005.128-.034.188-.129.188l-.039,0a2.522,2.522,0,0,1-.511-.129.71.71,0,0,0-.244-.046.611.611,0,0,0-.309.086.371.371,0,0,0-.057.661,2.912,2.912,0,0,0,.534.278c.141.065.3.116.433.188a.365.365,0,0,1,.236.348.561.561,0,0,1-.049.2,3.363,3.363,0,0,1-.236.456A3,3,0,0,1,.214,8.448.3.3,0,0,0,0,8.674V8.7a.577.577,0,0,0,.386.4,9.1,9.1,0,0,0,.879.254c.269.063.272.05.33.316.076.353.119.457.339.457a1.767,1.767,0,0,0,.3-.05,2.754,2.754,0,0,1,.55-.059h.011a1.854,1.854,0,0,1,1.2.438,3.123,3.123,0,0,0,.561.363,2.362,2.362,0,0,0,1.079.274,2.315,2.315,0,0,0,1.073-.275,6.282,6.282,0,0,0,.756-.493,1.547,1.547,0,0,1,.942-.285h.011q.1,0,.2.009c.2.017.391.048.586.071a1.038,1.038,0,0,0,.118.008c.18,0,.243-.076.3-.3.022-.091.047-.181.063-.273a.212.212,0,0,1,.185-.174c.356-.089.711-.187,1.057-.306a.617.617,0,0,0,.276-.237A.238.238,0,0,0,11.028,8.446Zm-2.157.743c-.06-.007-.121-.013-.183-.019-.091-.008-.182-.012-.268-.012H8.4a2.41,2.41,0,0,0-1.454.45l-.044.032a5.21,5.21,0,0,1-.6.4,1.435,1.435,0,0,1-.669.177,1.482,1.482,0,0,1-.68-.178,2.23,2.23,0,0,1-.4-.26,2.725,2.725,0,0,0-1.755-.638H2.779a3.417,3.417,0,0,0-.421.027.958.958,0,0,0-.465-.522A4.582,4.582,0,0,0,2.988,7.4a4.24,4.24,0,0,0,.3-.575,1.435,1.435,0,0,0,.119-.514,1.189,1.189,0,0,0-.251-.783q.028-.025.054-.052a1.054,1.054,0,0,0,.282-.8c0-.116-.01-.233-.015-.346-.013-.285-.026-.555-.026-.818,0-.146,0-.277.014-.4A1.648,1.648,0,0,1,4.572,1.616a2.808,2.808,0,0,1,1.163-.237,2.234,2.234,0,0,1,1.4.5,1.72,1.72,0,0,1,.692,1.454c0,.428-.024.875-.052,1.334a1.032,1.032,0,0,0,.271.795q.026.028.054.053a1.137,1.137,0,0,0-.274.735,1.171,1.171,0,0,0,.123.506l.009.02A4.479,4.479,0,0,0,9.359,8.635,1.061,1.061,0,0,0,8.871,9.189Zm0,0" transform="translate(95.75 660.25)" fill="#70489d"/>
  </g>
</svg>
