<?xml version="1.0" encoding="utf-8"?>
<!-- Generator: Adobe Illustrator 15.1.0, SVG Export Plug-In . SVG Version: 6.00 Build 0)  -->
<!DOCTYPE svg PUBLIC "-//W3C//DTD SVG 1.1//EN" "http://www.w3.org/Graphics/SVG/1.1/DTD/svg11.dtd">
<svg version="1.1" id="Layer_1" xmlns="http://www.w3.org/2000/svg" xmlns:xlink="http://www.w3.org/1999/xlink" x="0px" y="0px"
	 width="40px" height="40px" viewBox="0 0 40 40" enable-background="new 0 0 40 40" xml:space="preserve">
<path id="Path_2466" fill="#71499D" d="M20.983,7.805c-0.313-0.021-0.627,0.016-0.928,0.109c-0.678,0.186-1.143,0.811-1.123,1.514
	c0.174,2.149-0.279,4.303-1.308,6.196c-0.87,1.688-2.486,2.859-4.356,3.164c-0.354,0.04-0.622,0.34-0.62,0.694v11.818
	c0,0.383,0.311,0.693,0.693,0.693h18.07c1.088,0.061,2.021-0.768,2.089-1.854v-1.16c0.003-0.156-0.019-0.311-0.062-0.459H33.5
	c1.087,0.061,2.018-0.768,2.085-1.854v-1.16c0.006-0.43-0.16-0.846-0.457-1.158c0.297-0.314,0.461-0.729,0.457-1.162v-1.154
	c0.006-0.431-0.154-0.845-0.448-1.16c0.291-0.314,0.452-0.729,0.448-1.158v-1.162c-0.067-1.084-0.998-1.912-2.085-1.852h-9.038
	V11.83c0.065-1.686-0.95-3.224-2.53-3.823C21.628,7.894,21.308,7.825,20.983,7.805z M20.891,9.196
	c0.191,0.013,0.38,0.054,0.561,0.122c1.021,0.406,1.671,1.415,1.621,2.512v5.559c0,0.383,0.309,0.695,0.692,0.696l0,0H33.5
	c0.46,0,0.695,0.268,0.695,0.462v1.162c0,0.194-0.235,0.46-0.695,0.46h-3.479c-0.384,0-0.695,0.313-0.695,0.695
	c0,0.386,0.312,0.696,0.695,0.696H33.5c0.46,0,0.695,0.273,0.695,0.475v1.156c0,0.193-0.235,0.473-0.695,0.473h-3.479
	c-0.384,0-0.695,0.311-0.695,0.695c0,0.387,0.312,0.697,0.695,0.697l0,0H33.5c0.46,0,0.695,0.268,0.695,0.461v1.162
	c0,0.193-0.235,0.459-0.695,0.459h-4.171c-0.387,0-0.695,0.313-0.695,0.695c0,0.385,0.309,0.695,0.695,0.695h2.082
	c0.46,0,0.698,0.27,0.698,0.463v1.162c0,0.193-0.24,0.461-0.698,0.461H14.035V20.076c2.045-0.547,3.777-1.907,4.794-3.764
	c1.174-2.094,1.693-4.492,1.491-6.885c0-0.071-0.014-0.135,0.169-0.196C20.62,9.195,20.757,9.185,20.891,9.196z M5.693,18.791
	c-0.384,0-0.694,0.313-0.693,0.695c0,0.002,0,0.004,0,0.004v11.816C5.001,31.689,5.311,32,5.693,32h4.865
	c0.383,0.002,0.696-0.307,0.699-0.689c0-0.002,0-0.004,0-0.004V19.49c0.002-0.384-0.306-0.696-0.69-0.699c-0.003,0-0.006,0-0.009,0
	H5.693z M6.392,20.184h3.48v10.426h-3.48V20.184z"/>
</svg>
