<svg xmlns="http://www.w3.org/2000/svg" width="30" height="30" viewBox="0 0 30 30">
  <g id="Group_5151" data-name="Group 5151" transform="translate(-23 -647)">
    <g id="Ellipse_1159" data-name="Ellipse 1159" transform="translate(23 647)" fill="#fff" stroke="#cebfe0" stroke-width="1">
      <circle cx="15" cy="15" r="15" stroke="none"/>
      <circle cx="15" cy="15" r="14.5" fill="none"/>
    </g>
    <path id="twitter" d="M11.25,1.077a4.681,4.681,0,0,1-1.34.352A2.3,2.3,0,0,0,10.92.154,4.548,4.548,0,0,1,9.473.725,2.268,2.268,0,0,0,7.822,0,2.326,2.326,0,0,0,5.471,2.307a2.322,2.322,0,0,0,.069.526A6.54,6.54,0,0,1,.791.417a2.336,2.336,0,0,0-.33,1.165A2.3,2.3,0,0,0,1.494,3.494,2.293,2.293,0,0,1,.439,3.23v.042A2.279,2.279,0,0,0,2.307,5.493a2.621,2.621,0,0,1-.635.089h0a2.466,2.466,0,0,1-.461-.045A2.433,2.433,0,0,0,3.428,7.185,5.179,5.179,0,0,1,.549,8.13,4.694,4.694,0,0,1,0,8.108,6.533,6.533,0,0,0,3.529,9.141h.009v0a6.543,6.543,0,0,0,6.57-6.568c0-.1-.015-.212-.022-.311A4.715,4.715,0,0,0,11.25,1.077Zm-2.4,3.5A5.927,5.927,0,0,1,7.746,6.42,5.38,5.38,0,0,1,5.974,7.748,5.7,5.7,0,0,1,3.7,8.261H3.529l-.142,0a4.338,4.338,0,0,0,.584-.384A2.43,2.43,0,0,0,4.7,6.33a6.982,6.982,0,0,1-.791.042,2.186,2.186,0,0,1-.923-.154A1.744,1.744,0,0,0,4.027,4.944,4.171,4.171,0,0,1,1.9,4.385a2.277,2.277,0,0,0,1.085-.8A4.06,4.06,0,0,1,1.564,2.338,7.414,7.414,0,0,0,5.5,3.711l1.162.047-.24-1.031-.045-.2a1.2,1.2,0,0,1-.022-.213A1.447,1.447,0,0,1,7.822.879a1.379,1.379,0,0,1,.824.281,1.733,1.733,0,0,1,.582,1.414A5.742,5.742,0,0,1,8.852,4.577Zm0,0" transform="translate(32.75 657.5)" fill="#70489d"/>
  </g>
</svg>
