<svg id="Group_2551" data-name="Group 2551" xmlns="http://www.w3.org/2000/svg" width="22" height="22" viewBox="0 0 22 22">
  <g id="Group_2550" data-name="Group 2550">
    <circle id="Ellipse_675" data-name="Ellipse 675" cx="0.859" cy="0.859" r="0.859" transform="translate(15.727 8.164)" fill="#d12b8a"/>
    <path id="Path_1740" data-name="Path 1740" d="M18.563,1.719H17.445V.859a.859.859,0,0,0-1.719,0v.859h-3.91V.859a.859.859,0,0,0-1.719,0v.859H6.23V.859a.859.859,0,0,0-1.719,0v.859H3.438A3.441,3.441,0,0,0,0,5.156V18.563A3.441,3.441,0,0,0,3.438,22h6.574a.859.859,0,0,0,0-1.719H3.438a1.721,1.721,0,0,1-1.719-1.719V5.156A1.721,1.721,0,0,1,3.438,3.438H4.512V4.3a.859.859,0,0,0,1.719,0V3.438H10.1V4.3a.859.859,0,0,0,1.719,0V3.438h3.91V4.3a.859.859,0,0,0,1.719,0V3.438h1.117a1.721,1.721,0,0,1,1.719,1.719v4.9a.859.859,0,0,0,1.719,0v-4.9A3.441,3.441,0,0,0,18.563,1.719Z" fill="#d12b8a"/>
    <path id="Path_1741" data-name="Path 1741" d="M275.2,270a5.2,5.2,0,1,0,5.2,5.2A5.205,5.205,0,0,0,275.2,270Zm0,8.68a3.48,3.48,0,1,1,3.48-3.48A3.484,3.484,0,0,1,275.2,278.68Z" transform="translate(-258.398 -258.398)" fill="#d12b8a"/>
    <path id="Path_1742" data-name="Path 1742" d="M373.105,331.762h-.387v-.9a.859.859,0,0,0-1.719,0v1.762a.859.859,0,0,0,.859.859h1.246a.859.859,0,0,0,0-1.719Z" transform="translate(-355.059 -315.82)" fill="#d12b8a"/>
    <circle id="Ellipse_676" data-name="Ellipse 676" cx="0.859" cy="0.859" r="0.859" transform="translate(11.988 8.164)" fill="#d12b8a"/>
    <circle id="Ellipse_677" data-name="Ellipse 677" cx="0.859" cy="0.859" r="0.859" transform="translate(8.25 11.902)" fill="#d12b8a"/>
    <circle id="Ellipse_678" data-name="Ellipse 678" cx="0.859" cy="0.859" r="0.859" transform="translate(4.512 8.164)" fill="#d12b8a"/>
    <circle id="Ellipse_679" data-name="Ellipse 679" cx="0.859" cy="0.859" r="0.859" transform="translate(4.512 11.902)" fill="#d12b8a"/>
    <circle id="Ellipse_680" data-name="Ellipse 680" cx="0.859" cy="0.859" r="0.859" transform="translate(4.512 15.641)" fill="#d12b8a"/>
    <circle id="Ellipse_681" data-name="Ellipse 681" cx="0.859" cy="0.859" r="0.859" transform="translate(8.25 15.641)" fill="#d12b8a"/>
    <circle id="Ellipse_682" data-name="Ellipse 682" cx="0.859" cy="0.859" r="0.859" transform="translate(8.25 8.164)" fill="#d12b8a"/>
  </g>
</svg>
