<?xml version="1.0" encoding="utf-8"?>
<!-- Generator: Adobe Illustrator 15.1.0, SVG Export Plug-In . SVG Version: 6.00 Build 0)  -->
<!DOCTYPE svg PUBLIC "-//W3C//DTD SVG 1.1//EN" "http://www.w3.org/Graphics/SVG/1.1/DTD/svg11.dtd">
<svg version="1.1" id="Layer_1" xmlns="http://www.w3.org/2000/svg" xmlns:xlink="http://www.w3.org/1999/xlink" x="0px" y="0px"
	 width="40px" height="40px" viewBox="0 0 40 40" enable-background="new 0 0 40 40" xml:space="preserve">
<g>
	<path id="Path_2355" fill="#71499D" d="M30.002,10.913c-5.262-5.232-13.762-5.232-19.027,0C8.434,13.405,7.001,16.813,7,20.373l0,0
		l0,0c0.015,2.211,0.579,4.385,1.644,6.322L7.036,34l7.388-1.686c1.884,0.945,3.965,1.439,6.074,1.439h-0.001
		c3.568,0.006,6.992-1.404,9.523-3.922c5.223-5.119,5.307-13.504,0.188-18.73c-0.066-0.069-0.135-0.137-0.205-0.203V10.913z
		 M20.497,31.658L20.497,31.658c-1.892,0-3.754-0.475-5.417-1.375L14.724,30.1l-4.913,1.117l1.069-4.854l-0.205-0.354
		c-1.008-1.707-1.548-3.65-1.566-5.634C9.17,14.09,14.316,9.042,20.603,9.104c2.965,0.03,5.801,1.214,7.907,3.302
		c2.148,2.1,3.365,4.974,3.375,7.978C31.844,26.637,26.75,31.678,20.497,31.658z"/>
	<path id="Path_2356" fill="#71499D" d="M16.824,14.474H16.24c-0.316,0.008-0.613,0.147-0.824,0.384
		c-0.705,0.666-1.097,1.597-1.081,2.567c0.102,1.159,0.541,2.267,1.261,3.183c1.283,2.012,3.112,3.623,5.272,4.643
		c2.611,1.027,3.138,0.822,3.712,0.77c0.873-0.17,1.631-0.701,2.084-1.463c0.201-0.461,0.264-0.969,0.182-1.463
		c-0.078-0.127-0.287-0.207-0.592-0.359c-0.311-0.154-1.822-0.912-2.105-1.01c-0.285-0.104-0.492-0.156-0.695,0.154
		c-0.209,0.307-0.811,1.012-0.992,1.223c-0.182,0.213-0.359,0.234-0.676,0.078c-0.907-0.365-1.742-0.883-2.472-1.531
		c-0.682-0.633-1.266-1.365-1.732-2.165c-0.182-0.307-0.02-0.475,0.135-0.628c0.151-0.154,0.324-0.326,0.479-0.506
		c0.125-0.154,0.227-0.325,0.303-0.506c0.084-0.174,0.074-0.376-0.025-0.539c-0.077-0.153-0.674-1.676-0.943-2.285l0,0
		C17.287,14.5,17.044,14.484,16.824,14.474z"/>
</g>
</svg>
