<svg xmlns="http://www.w3.org/2000/svg" width="34.251" height="34.273" viewBox="0 0 34.251 34.273">
  <g id="world" transform="translate(-0.144 0)">
    <g id="Group_4809" data-name="Group 4809" transform="translate(0.144 0)">
      <g id="Group_4808" data-name="Group 4808" transform="translate(0 0)">
        <path id="Path_2440" data-name="Path 2440" d="M28.6,4.32l-.051-.044A17.079,17.079,0,0,0,4.515,5.7l-.044.044A17.078,17.078,0,0,0,.176,16.1c0,.342-.032.683-.032,1.025a17.214,17.214,0,0,0,.171,2.385v.044A17.161,17.161,0,0,0,8.563,31.886a.634.634,0,0,0,.139.082A17.117,17.117,0,0,0,28.6,4.32ZM11.112,2.511a15.775,15.775,0,0,1,6.142-1.265h.576a.8.8,0,0,1-.051.519c-.2.373-.816.633-1.752.74A3.96,3.96,0,0,0,12.4,5.781,2.378,2.378,0,0,1,11.131,4.9,2.224,2.224,0,0,1,11.112,2.511ZM5.078,6.983l2.8,2.068a.438.438,0,0,0,.133.076c.19.095.43.525.2,1.505a.69.69,0,0,1-.158-.316.633.633,0,0,0-.74-.481l-1.328.259a.633.633,0,0,0-.468.86s.329.879-.108,1.265a2.454,2.454,0,0,1-.633.373,4.853,4.853,0,0,0-2.758,3.055,3.379,3.379,0,0,1-.411.854,2.1,2.1,0,0,1-.171-.411A15.813,15.813,0,0,1,5.078,6.983ZM1.8,20.7a5.693,5.693,0,0,0,2.4.721.879.879,0,0,1,.886.835.633.633,0,0,0,.38.512,2.834,2.834,0,0,1,1.505,2.2,1.98,1.98,0,0,0,.936,1.493,3.653,3.653,0,0,0,2.733.108.2.2,0,0,1,.063.063c.038.057.2.4-.228,1.436A7.545,7.545,0,0,1,8.892,30.6,15.908,15.908,0,0,1,1.8,20.7ZM17.254,33a15.763,15.763,0,0,1-7.236-1.752,9.323,9.323,0,0,0,1.626-2.726,2.846,2.846,0,0,0,.127-2.593,1.474,1.474,0,0,0-1.12-.677.633.633,0,0,0-.253.038,2.7,2.7,0,0,1-1.847.057.727.727,0,0,1-.335-.588A4.149,4.149,0,0,0,6.267,21.74a2.087,2.087,0,0,0-2.075-1.619A6.325,6.325,0,0,1,1.5,19.039c-.051-.417-.089-.841-.108-1.265a.955.955,0,0,0,.133,0h.057c.822,0,1.309-.955,1.6-1.676a3.669,3.669,0,0,1,2.125-2.385,3.477,3.477,0,0,0,.968-.633,2.227,2.227,0,0,0,.6-1.955l.164-.032a2.037,2.037,0,0,0,1.518.942.632.632,0,0,0,.633-.417,3.827,3.827,0,0,0,.12-2.9,1.708,1.708,0,0,0-.765-.81L5.932,6.04A15.952,15.952,0,0,1,9.544,3.282a3.023,3.023,0,0,0,.633,2.454,3.612,3.612,0,0,0,1.9,1.309.37.37,0,0,1,.234.108.633.633,0,0,0,.633.487h.089a.632.632,0,0,0,.544-.633,2.909,2.909,0,0,1,2.606-3.163,3.241,3.241,0,0,0,2.739-1.411,1.955,1.955,0,0,0,.215-1.006,15.813,15.813,0,0,1,7.7,3.055c-5.136,1.322-5.06,2.271-5,2.695.095.93.145,2.087.145,2.1a.633.633,0,0,0,.512.595,2.941,2.941,0,0,0,2.138-.55,6.324,6.324,0,0,1,0,.879,4.908,4.908,0,0,1-2.53.43,1.9,1.9,0,0,1-1.354-.715.633.633,0,0,0-1.1.127l-.183.436a1.309,1.309,0,0,1-.348-1.2,1.265,1.265,0,0,0-.715-1.373c-.93-.392-2.277.392-2.891,1.107a1.379,1.379,0,0,0-.3,1.7c.506.816,2.366,3.435,5.06,2.815.633-.145,2.113-.038,4.839,2.277l.089.07c.164.19.772,1.322,1.265,2.233,1.771,3.3,2.011,3.605,2.461,3.707a1.489,1.489,0,0,0,.316,0,7.311,7.311,0,0,0,3.441-1.12A15.89,15.89,0,0,1,17.254,33ZM33.017,18.912A6.579,6.579,0,0,1,29.348,20.6c-.354-.468-1.214-2.075-1.746-3.074-1.012-1.9-1.265-2.385-1.537-2.581l-.108-.089c-2.4-2.037-4.428-2.9-5.94-2.53-1.9.436-3.327-1.613-3.707-2.189a1.5,1.5,0,0,1,.633-.689,1.9,1.9,0,0,1,.942-.367.788.788,0,0,1,0,.108,2.3,2.3,0,0,0,1.9,2.752.632.632,0,0,0,.633-.386l.07-.164a4.692,4.692,0,0,0,3.441.4c.715-.158,1.815-.493,1.942-1.151,0,0,.373-2.239-.563-2.752a.968.968,0,0,0-1.183.253,1.841,1.841,0,0,1-.886.474c0-.392-.057-.911-.108-1.4A18.9,18.9,0,0,1,28.052,5.5a15.814,15.814,0,0,1,4.984,13.4Z" transform="translate(-0.144 0)" fill="#fff"/>
      </g>
    </g>
    <g id="Group_4811" data-name="Group 4811" transform="translate(11.677 14.263)">
      <g id="Group_4810" data-name="Group 4810">
        <path id="Path_2441" data-name="Path 2441" d="M163.154,190.08a1.056,1.056,0,0,0-1.037-.639l-1.05-.689a.635.635,0,0,0-.2-.089c-.12,0-1.17-.342-.86-1.841.531-2.581-.285-3.947-2.834-4.719-.633-.19-1.227-.424-1.809-.633a11.336,11.336,0,0,0-5.509-1.069.633.633,0,0,0-.55.443,2.833,2.833,0,0,1-1.9,1.847,1.727,1.727,0,0,0-1.4,1.828c0,1.493,1.075,3.422,2.6,3.764l.177.038c1.752.386,3.264.721,2.53,4.877-.367,2.106-.177,3.618.557,4.491a2.208,2.208,0,0,0,1.765.746c1.455,0,3.409-1.107,5.819-3.3C163.141,191.794,163.407,190.713,163.154,190.08Zm-4.548,4.149c-2.84,2.581-4.333,2.941-4.972,2.941a.949.949,0,0,1-.791-.3c-.462-.55-.563-1.815-.278-3.46.911-5.351-1.739-5.94-3.517-6.357h-.164a2.826,2.826,0,0,1-1.613-2.53c0-.544.253-.588.373-.633a3.852,3.852,0,0,0,2.72-2.3,10.55,10.55,0,0,1,4.554,1.012c.633.24,1.233.481,1.9.683,1.9.576,2.359,1.328,1.961,3.251a2.684,2.684,0,0,0,1.657,3.327l1.132.759a.632.632,0,0,0,.266.1C161.636,191.136,160.915,192.111,158.606,194.23Z" transform="translate(-146.001 -180.383)" fill="#fff"/>
      </g>
    </g>
  </g>
</svg>
