<?xml version="1.0" encoding="utf-8"?>
<!-- Generator: Adobe Illustrator 15.1.0, SVG Export Plug-In . SVG Version: 6.00 Build 0)  -->
<!DOCTYPE svg PUBLIC "-//W3C//DTD SVG 1.1//EN" "http://www.w3.org/Graphics/SVG/1.1/DTD/svg11.dtd">
<svg version="1.1" id="Layer_1" xmlns="http://www.w3.org/2000/svg" xmlns:xlink="http://www.w3.org/1999/xlink" x="0px" y="0px"
	 width="40px" height="40px" viewBox="0 0 40 40" enable-background="new 0 0 40 40" xml:space="preserve">
<path id="youtube" fill="#71499D" d="M19.938,32.997h-0.012c-4.499,0.037-8.995-0.24-13.455-0.834
	c-1.914-0.518-3.409-2.01-3.928-3.924c-0.5-2.725-0.722-5.49-0.664-8.258c-0.058-2.789,0.164-5.575,0.662-8.319l0,0
	c0.53-1.915,2.018-3.415,3.926-3.96h0.016c4.458-0.574,8.95-0.843,13.443-0.808h0.019c4.502-0.039,8.998,0.239,13.459,0.835
	c1.904,0.52,3.395,2.009,3.914,3.915c0.518,2.757,0.74,5.561,0.668,8.365c0.057,2.763-0.164,5.526-0.664,8.245l0,0
	c-0.52,1.912-2.018,3.408-3.928,3.926l0,0c-4.459,0.576-8.951,0.85-13.449,0.816H19.938z M5.27,12.385
	c-0.424,2.502-0.611,5.04-0.559,7.577v0.037c-0.063,2.516,0.124,5.029,0.559,7.51c0.257,0.939,0.995,1.676,1.937,1.93
	c4.222,0.531,8.475,0.779,12.732,0.736c4.253,0.039,8.509-0.197,12.733-0.711c0.939-0.254,1.676-0.988,1.934-1.93
	c0.434-2.477,0.619-4.992,0.559-7.506c0-0.016,0-0.031,0-0.045c0.076-2.542-0.109-5.085-0.559-7.588l0,0
	c-0.258-0.944-0.996-1.681-1.939-1.936c-4.221-0.534-8.475-0.779-12.731-0.736c-1.517,0.011-4.421,0.061-7.705,0.212
	c-1.685,0.038-3.365,0.204-5.025,0.496C6.265,10.705,5.534,11.444,5.27,12.385z M35.969,27.899L35.969,27.899z M16.34,25.663V14.231
	l9.882,5.715L16.34,25.663z"/>
</svg>
